<svg width="100" height="100" viewBox="0 0 100 100" fill="none" xmlns="http://www.w3.org/2000/svg"><g clip-path="url(#clip0)"><path d="M9 2.7h2.2l12.4-.3 13.8.3H64V21.4L63.2 51l-.2 21.9v1.6l-3 .2-28.8.4c-5.4 0-10.8 0-16.2.2l-6.1.2c-.5 0-.7 0-.7-.6-.2-8.5-.4-17-.4-25.4 0-6.6.4-13.3.5-20l.3-15.6L9 3.4v-.7z" fill="#F8C600"/><path d="M26.4 42.7H30l8.2-.1 5.7-.1 8.5-.2c1.1 0 1.8.1 1.7.5-.1.5-1 .4-1.5.5l-13 .2-14.9.1H19l-.7-.1-.8-.5c.3 0 .6-.3 1-.3h7.9zM38.6 25.2H21.8a59 59 0 01-4-.1l-.7-.3.7-.4h.8l16.2-.2L52 24h1c.6 0 1.1 0 1.1.4s-.5.5-1 .5H38.6v.3zM36 33.5h17.5c.3 0 .8.2.8.4 0 .1-.3.4-.6.5H53l-29.4.2a132.5 132.5 0 01-5.7-.2c-.1 0-.4-.3-.3-.4l.6-.3h.4l14.1-.1H36zM36.3 15.2h16.2c.5 0 1 0 1.1.4 0 .3-.4.4-1 .5H52l-29.4.1h-4.4c-.5 0-1.1 0-1.1-.3 0-.4.5-.4 1-.5H36.4v-.2zM38.8 60.4h-11l-5.8.2a59 59 0 01-4-.2l-.7-.3.8-.4h.7l16.2-.2 17.3-.2h1c.6 0 1.1 0 1.1.4s-.4.5-1 .5H38.8v.2zM36.5 50.5h16.2c.5 0 1 0 1.1.3.1.4-.4.5-1 .6h-.5l-29.5.1h-4.4c-.5 0-1.1 0-1.1-.3 0-.4.5-.4 1-.5h18.3v-.2z" fill="#fff"/><path d="M82 49l7.9.5c1.4 0 2.8.2 4.2.4 3.7.4 4.7 2.5 5 5.3 1.1 11.9.8 23.7.9 35.6 0 4.6-2.6 6.6-7 7.1-4 .5-8.3.5-12.5.5-9 .2-17.9.4-26.8.3-5.8 0-11.5-.5-17.2-1-1.6-.2-3.3-1.2-4.6-2.2-.6-.4-.8-1.7-.8-2.6 0-8.2 0-16.4.3-24.6.1-4 1-8.2 1.6-12.3.5-2.8 2-5.2 4.9-6.2 1.1-.4 2.4-.5 3.6-.6l9.6-.7.6-5.7a4.5 4.5 0 014.7-4.2c1.2 0 2 .6 2.2 1.8.1 1.2-.7 1.8-1.7 2-.5.2-1.1.2-1.7.3v6.1c0 .3 1 .6 1.4.6h16l4.6-.3c.8 0 1-.3 1-1.1l-.3-4.8c0-.3-.5-.8-.9-.9-.4-.2-1 0-1.5-.3-.4-.3-1-.8-1-1.2 0-.4.5-1.2.9-1.3a14 14 0 014.2-.1c1.2.2 2 1.3 2 2.6.2 1.6.2 3.3.3 4.9l.1 2.2z" fill="#999CD8"/><path d="M49.4 72.8c7.2-.4 14.5-1 21.7-1 6.5 0 13 .1 19.6-.7 2-.2 2.6.5 2.4 2.6-.1 1.4-.6 1.9-2.2 1.9H78.6l-31.8.6h-6.7c-1.8 0-2.7-1.5-1.9-3 .2-.3.8-.6 1.3-.6h9.9v.2z" fill="#070655"/><path d="M69 42.6H58c-3 0-4.4-2-3.1-4.7.2-.5 1.1-1.1 1.7-1.1 5.8-.2 11.6-.2 17.3-.2 2.2 0 3.3 1.6 2.9 3.8-.3 1.2-1 2-2.3 2H69v.2z" fill="#1D1CAB"/><path d="M67 79.7c-3 0-3.5-.4-3.8-2.9-.1-1.1-.3-2.4-.1-3.5 0-.6.8-1.5 1.3-1.6 1.2-.3 2.4-.2 3.6-.2 1.1 0 1.7.7 1.9 1.8l.5 3.5c.2 1.8-.2 2.5-2 2.7l-1.5.2z" fill="#F8C600"/></g><defs><clipPath id="clip0"><path d="M0 0h100v100H0V0z" fill="#fff"/></clipPath></defs></svg>