<svg width="100" height="100" viewBox="0 0 100 100" fill="none" xmlns="http://www.w3.org/2000/svg"><path d="M2.5 10.3h2.2l12-.3 13.2.2h25.5v18.1l-.6 28.3-.2 21v1.6l-2.8.2-27.7.3-15.7.2c-2 0-3.9.2-5.8.3-.5 0-.7-.1-.7-.7-.2-8-.4-16.2-.4-24.3 0-6.4.4-12.8.5-19.2.2-5 .2-10 .3-15.1l.2-10v-.6z" fill="#F8C600"/><path d="M19.3 48.7h3.5l7.9-.1H36l8.2-.3c1.1 0 1.7.2 1.7.5-.2.5-1 .4-1.5.4l-12.5.2-14.3.2h-5.5l-.7-.1-.7-.5c.3 0 .5-.3.8-.3h7.7zM31 31.8H20.5l-5.6.2-3.8-.2c-.3 0-.5-.2-.7-.3l.7-.4h.7l15.6-.2 16.7-.1h.9c.6-.1 1 0 1 .3.1.4-.4.5-1 .5H31v.2zM28.5 39.9H45.4l.7.3c0 .2-.3.4-.5.5h-.8l-28.2.3a127.4 127.4 0 01-5.5-.3c-.2 0-.4-.2-.4-.3l.6-.3h.4l13.6-.1h3.2v-.1zM28.9 22.3h15.5c.5 0 1 0 1.1.3 0 .4-.4.5-1 .5H44l-28.4.2h-4.2c-.5 0-1 0-1-.3 0-.4.5-.5 1-.5H29v-.2zM31.2 65.8H11.3l-.7-.4.7-.4h.7l15.6-.2 16.7-.1h.9c.6 0 1 0 1 .3.1.4-.4.5-1 .5h-14v.3zM29 56.2h15.6c.5 0 1 0 1.1.3 0 .4-.4.5-1 .6H15.9l-4.2.1c-.5 0-1 0-1-.3 0-.4.5-.4 1-.5h17.5v-.2z" fill="#fff"/><path d="M52.8 94.4c-4.4-.3-8.9-.6-13.2-1.2-3.4-.5-6.7-1.5-10-2.4l-3.3-1.2c-1.4-.5-2.9-.8-4.3-1.4-1.3-.5-2.7-1.2-4-1.9l-2-1C14.5 85 14 84 13 83l-.1-.6c0-.4 0-.9.2-1.3.7-2.5 1.7-4.7 3.4-6.7l.5-.6a19 19 0 0113.6-7.1c3.6-.5 7.3-.7 11-.5 3.5.1 7 .7 10 2.6 2.2 1.3 4.1 3 5.3 5.3 2.4 5 4 10.3 4.4 15.9v3.2c-.1.5-.5.9-1.1.9-2.4 0-4.8 0-7.2.2h-.3v.1z" fill="#999CD8"/><path d="M63.4 94.6l-5.5-.4c-1.4-.2-1.6-.5-1.5-1.9.1-1.9.2-3.8.7-5.6 1-3 2.3-5.7 4-8.2a14 14 0 015.9-4.6 51.2 51.2 0 0119.3-3.6c2.4 0 4.6.6 6.6 2 1.3 1 2 2.5 2.7 3.8 1.4 2.3 1.8 5 1.8 7.6 0 .5-.2.9-.8 1l-.5.3c-2.1 1.5-4.3 3-6.8 3.8-1.4.4-2.7 1.1-4.1 1.6a72.3 72.3 0 01-14.6 3.4l-7.2.8z" fill="#F8C600"/><path d="M58 95c-3.3 0-6-.1-8.8-.3-1.1 0-2.3-.4-3.4-.7-1.2-.4-1.7-1.4-1.2-2.7L46 89c1.8-2.2 3.8-4.1 6.5-5.1a15.6 15.6 0 019.7-.3c2 .7 3.5 2 4.6 3.7l1.6 2.8c.6 1 .5 2 .5 3 0 .3-.3.6-.5.7-.8.4-1.6.8-2.5.9L58 95z" fill="#1D1CAB"/><path d="M71.4 73.2l-5.7 1.1v.8c1.4.2 1.8.5 1.9 1.8v1.7c0 .8-.5 1.4-1.3 1.7l-.7.7c-.9 2-1.8 4-3.8 5.1-1 .6-1.9 1.3-3 1.2-2.7 0-4.3-1.5-5.3-3.8l-1.3-3.7c-1.2-.3-1.6-.6-1.7-2 0-.8 0-1.6.2-2.3.3-1 .9-1.3 2-1.3a7 7 0 011.8-3.7 8 8 0 013.8-1.9l-.2-1c-.4 0-.8 0-1.2-.2-.6-.2-1-.6-1-1.2s.3-1 .8-1.3c.6-.3 1-.1 1.5.2l.6.7c.5-.6.6-1.5.1-2 0-.2-.2-.3-.3-.4-.2-.4-.2-.7.1-1 .4-.3.7 0 1 .2.8 1 .9 2.4.2 3.6l-.7 1.1-.2 1.2 2.5.3-.3-2.4c-.6-3.6-.3-7.2.6-10.8l1.1-4a22 22 0 013.4-6.9c1.8-2.5 4-4.5 7-5.6 2.2-.8 4.4-1.6 6.9-1.6 1.3 0 2.5.2 3.7.5 1.6.5 2.7 1.6 3.7 2.9 3 4 4.2 8.8 4.9 13.7.4 3 .6 6 .6 8.9 0 2.3-.3 4.6-.5 6.9 0 .5-.4.9-.7 1.3-.4.6-1 .7-1.6.6l-7-.3c-.8 0-1.4.1-2 .8l-4.1 4.1c-.6.6-1 1.3-1.5 2-.6.8-1.5.8-1.9-.2l-2.2-5.2c0-.1 0-.2-.2-.3zm11.3-2.6l7.2.2c1 0 1 0 1.2-.9.2-2.2.5-4.5.4-6.7A65 65 0 0091 55c-.6-4.6-1.8-9-4.4-12.8-1.4-2-3.1-3-5.5-3.2-2.6-.1-5 .6-7.4 1.5-2.5 1-4.5 2.7-6 4.9a21.5 21.5 0 00-3.5 7.3c-.6 2.6-1.4 5.3-1.7 8-.2 2.7 0 5.5.2 8.3 0 .3.2.6.4.8 1 .9 1.8 1.9 2.2 3.2l.1.2 5.6-1.3c.3-2.8-.5-5.3-2-7.6-.6-.8-1.2-1.8-1.4-2.7-.6-2-.5-4-.3-6.1l.8-5.5c.1-.5.3-1 .6-1.3 1.1-1.3 2.7-1.9 4.2-2.6 1.8-1 3.7-1.4 5.4-2.4 1.1-.7 2-.2 2 1 0 1.8.3 3.4 1.1 5a8.6 8.6 0 002.8 3.4c.4.3.7.4 1.1 0 .6-.7 1.3-1 2.2-.6.8.4 1 1 1 1.9v2.8a2 2 0 01-1.6 1.8h-.4v.4c-.2 3.3-1.2 6.1-3.7 8.2l-.2.4v2.6zM87 57.4c-.1 0 0 0 0 0v-3.2l-.5-.2c-.2 0-.3.2-.5.4-.8.7-1.1.8-2.2.3A7.4 7.4 0 0181 52c-.9-1.4-1.6-2.8-1.8-4.4l-.4-2.7-1.6.8c-2.2.8-4.4 1.7-6.4 2.8-1 .6-1.9 1.4-1.7 2.8V53c-.5 2.2-.6 4.5-.4 6.8 0 1.2.3 2.2 1 3.1 2.4 2.8 3.2 6 2.7 9.6v.5l2.4 4.6 1.3-1.7 4.6-4.7c.2-.3.4-.7.4-1.1v-2.4c0-.5.2-.9.6-1.2 1.6-1.4 2.8-3 3-5.2l.6-3.3c0-.3.2-.7.5-.9l1.2.3zM51.7 78c1.1-.5 1.5-.3 1.8.8L55 83c.4.9.8 1.8 1.7 2.3 1.3.7 2.7 1.1 4 .1.9-.7 1.8-1.5 2.4-2.4.6-1 1-2.1 1.4-3.2.2-.5.4-.8 1-.8.4.1.6-.2.7-.6v-1.2c-.5.1-1 .4-1.2.2-.3-.2-.5-.6-.6-1-.2-.6-.1-1.3-.3-1.9-.2-.8-.4-1.7-.9-2.4-2.3-3.2-6.7-2.3-8.4.2-.5.8-.9 1.8-1.2 2.8-.2.6-.4.7-1 .5-.4-.1-.6 0-.7.3l-.2 2zM52.6 42.3c.1 2.5-.3 4.7-.9 6.9 0 .2-.1.5-.3.5-.6.4-.4.9-.4 1.4l.2 3c0 2.6-1 4.7-2.9 6.4a7.6 7.6 0 00-2.4 6v.4c.3.8.3 1.1-.5 1.5a14.7 14.7 0 01-13.1-.5c-.9-.5-.9-.6-.5-1.5l.3-1.8a17.8 17.8 0 00-1-8.4c-3-2.7-3.7-6.2-4-10 0-2.5.3-5 1.2-7.3 1.6-4 4.6-6 8.9-6.2 1.3 0 2.5-.3 3.7-.6 1.4-.4 2.9-.7 4.3-.7a6 6 0 015.4 3.1c1.3 2.5 2.3 5 2 7.8zM48.1 40c-1.5 1.2-3 1.7-4.6 2.3-.6.2-1.3.4-2 .4-.3 0-.7-.1-.9-.4v-1l.6-.8.7-1.3h-.1a9.5 9.5 0 00-5.8 3.4l-1.4 2c-.4.9-.7 1.7-1.2 2.5-.3.7-.7.7-1.1.1-.3-.4-.6-.4-.8.1l-.3 1.4c0 .4.2.8.4 1.2l.1-.2h1v1l-.3 1.5v2.9c-.1.6-.2 1.2.1 1.9.8 2.1 1.3 4.3 1 6.6l-.4 3.3c3.5 1.4 7 1.5 10.5.4.7-.2 1-.5 1-1.3 0-2.7 1-5 3-6.8a7.1 7.1 0 002.3-5.4c0-3 .3-6-.5-9L48 40zm2.9 4.3c.4-3.1-.2-6-1.7-8.8a5 5 0 00-4.8-2.7c-1.2.2-2.3.4-3.4.8-1.3.3-2.5.6-3.9.6-.6 0-1.3 0-2 .2-3.1.7-5 2.9-6 5.9a18 18 0 00.3 11.2c.3 1 1 1.9 1.6 2.8l.4-3.1c0-.1 0-.3-.2-.3-1.2-.9-1.2-2.1-1-3.4.3-1.5.9-1.9 2.3-1.6l1.1-2.4c.9-1.6 2-3 3.5-4 1.7-1 3.7-1.6 5.6-2.3.7-.2 1.2.3 1.1 1 0 .2 0 .5-.2.7l-1 2.2c1.6-.7 3.4-1 4.5-2.3.6-.7 1.2-.7 1.8 0l.7 1.4 1.3 4.1z" fill="#070655"/><path d="M82.7 70.6l-.1-2.6s0-.3.2-.3c2.5-2.2 3.5-5 3.7-8.2V59l.4-.1a2 2 0 001.6-1.8v-2.8c0-.8-.2-1.5-1-1.9-.9-.3-1.6 0-2.2.6-.4.4-.7.4-1 0a9 9 0 01-2.9-3.4c-.8-1.5-1-3.2-1-4.9-.1-1.3-1-1.8-2.1-1.1-1.7 1-3.6 1.5-5.4 2.4-1.4.8-3 1.4-4.2 2.6a3 3 0 00-.6 1.3l-.8 5.5c-.2 2-.3 4.1.3 6.2.3.9.8 1.8 1.3 2.6 1.6 2.3 2.3 4.9 2.1 7.6l-5.6 1.3V73a6.4 6.4 0 00-2.3-3.2c-.2-.1-.4-.5-.4-.8-.1-2.7-.4-5.5-.2-8.3.3-2.7 1-5.3 1.7-8 .6-2.7 2-5 3.5-7.3 1.5-2.1 3.5-3.9 6-4.8 2.4-1 4.8-1.7 7.4-1.6 2.4.1 4.1 1.2 5.5 3.2 2.6 3.9 3.8 8.3 4.4 12.8.4 2.7.5 5.4.5 8.2 0 2.2-.2 4.5-.4 6.7-.1 1-.2 1-1.2 1l-7.2-.3z" fill="#070655"/><path d="M87 57.4c-.5-.1-1-.3-1.2-.2-.3 0-.4.5-.5.9l-.5 3.2a8.2 8.2 0 01-3.1 5.2c-.4.3-.6.7-.6 1.2v2.4c0 .4-.2.9-.4 1.2L76.2 76l-1.4 1.6-2.3-4.5-.1-.5a12 12 0 00-2.6-9.7c-.7-.8-1-2-1.1-3-.1-2.3 0-4.6.3-6.9.1-.5.2-1 .1-1.5-.2-1.5.7-2.2 1.8-2.8 2-1.2 4.1-2 6.3-2.9l1.7-.8c0 1 .1 1.9.3 2.8.3 1.6 1 3 1.9 4.3.7 1.1 1.6 2 2.8 2.6 1 .5 1.4.5 2.2-.3l.4-.4.6.2-.1 3.2c-.1 0 0 0 0 0zm-12.7 5.4c2.5 0 5.2-2 6-4.4.2-.6 0-1-.5-1.2-.5-.2-.8.2-1 .7l-1 1.6c-1 1.3-2.5 1.6-4 2l-.6.6.6.6h.5zm.3-10c0-.5 0-.8-.2-1.1 0-.3-.4-.4-.6-.6l-.4.6-.7 3.2-.4 1.9c0 .8.6 1.5 1.3 1.7.8.2 1.9-.3 2.1-1 .1-.2 0-.7-.1-.9-.1-.1-.6 0-.8 0l-.4.2-.7.2v-.6c0-.5.2-1 .3-1.4l.6-2.1zm-4.4.7c0 .6.3 1 .8 1s.8-.4.8-1-.3-1-.8-1c-.4 0-.8.4-.8 1zm6.6 0c0 .5.3 1 .7 1 .5 0 .8-.4.8-1 0-.5-.4-1-.8-1s-.7.4-.7 1zM51.7 78c0-.7 0-1.4.2-2 0-.4.3-.5.7-.4.6.2.7 0 1-.5.3-1 .7-2 1.2-2.8 1.6-2.5 6.1-3.4 8.4-.2.5.7.7 1.6.9 2.4.2.6.1 1.3.3 2 0 .3.3.8.6 1l1.1-.3v1.2c0 .4-.2.7-.7.6-.6 0-.8.3-1 .8-.4 1-.7 2.2-1.3 3.2-.7.9-1.6 1.7-2.5 2.4-1.2 1-2.6.6-3.9 0-1-.6-1.3-1.5-1.7-2.4-.6-1.3-1-2.8-1.5-4.2-.3-1-.7-1.3-1.8-.8zm7.7 1.9c.1-.2.5-.4.6-.7 0-.4-.3-.7-.8-.7s-.8-.2-.8-.8l-.3-.3c-.1 0-.3 0-.4.2-.6 1.1.1 2.2 1.7 2.3zm3.1-4.8c0-.4-.1-.8-.7-.8-.4 0-.8.5-.8 1s.3.8.8.8.7-.4.7-1zm-7 .2c.2.2.4.5.7.6.4.1.7-.4.7-.9 0-.4-.2-.7-.7-.7-.5 0-.6.4-.8 1zM48.1 40.1l1.3 4.8c.9 3 .6 6 .6 9 0 2-.8 4-2.4 5.4-2 1.8-3 4.1-3 6.8 0 .8-.2 1-1 1.3-3.5 1.1-7 1-10.4-.4l.4-3.2c.3-2.3-.2-4.6-1-6.7-.3-.6-.2-1.3-.2-1.9v-2.9c0-.4.3-1 .4-1.4v-1c-.2-.2-.7 0-1 0l-.2.1-.3-1.2c0-.5.1-1 .3-1.4.2-.5.4-.5.7 0 .5.6.8.5 1.2-.2l1.2-2.4 1.3-2.1c1.5-2 3.5-2.9 5.8-3.4h.2l-.8 1.3-.5.8c0 .3-.2.8 0 1 .1.3.6.5.9.5l2-.5c1.4-.6 3-1 4.5-2.3zm-7 18.5l2.3-.5c.5-.1.8-.5.6-1-.2-.6-.7-.5-1.1-.4l-2.6.2c-1.2 0-2.2-.6-3-1.7-.2-.5-.5-1-.9-1.4-.1-.2-.5-.3-.8-.4 0 .3-.3.7-.2 1 .3.8.6 1.6 1.2 2.3 1.1 1.4 2.7 1.9 4.5 1.9zm3.4-8l-.6-3.1c0-.2-.3-.4-.5-.4-.1 0-.4.2-.4.4v1L43 51c0 .7-.3 1.3-1 1.6-.5.3-.7.7-.5 1.2.2.4.8.5 1.3 0 1.2-.7 1.6-1.9 1.6-3.3zM39.6 49c0-.9-.3-1.3-.7-1.3-.5 0-.8.4-.8 1 0 .5.3 1 .8 1s.7-.5.7-.7zm7.9-.8c0-.6-.3-1-.8-1-.4 0-.7.5-.7 1 0 .6.3 1 .8 1 .4 0 .7-.4.7-1z" fill="#fff"/><path d="M51 44.4l-1.3-4c-.2-.6-.5-1-.8-1.5-.5-.7-1.1-.7-1.7 0-1.2 1.4-2.9 1.7-4.5 2.3l1-2.2.2-.8c0-.6-.5-1-1.1-.9-2 .7-3.9 1.2-5.6 2.3-1.6 1-2.6 2.4-3.5 4L32.5 46c-1.4-.3-2 .1-2.2 1.6-.3 1.3-.2 2.5 1 3.4l.1.3-.3 3.1c-.6-1-1.3-1.8-1.6-2.8a18 18 0 01-.3-11.2c1-3 2.9-5.2 6-6l2-.1c1.3 0 2.6-.3 3.9-.6 1-.4 2.2-.6 3.3-.8 2-.2 4 1 5 2.7 1.4 2.7 2 5.7 1.6 8.8zM74.3 62.8l-.5-.1-.6-.6c.2-.2.3-.4.6-.5 1.4-.5 3-.8 4-2.1l1-1.6c.2-.5.4-.9 1-.7.5.1.6.6.4 1.2a6.8 6.8 0 01-6 4.4zM74.6 52.9L74 55c0 .5-.3 1-.4 1.4l.2.6.6-.1c.1-.1.2-.3.4-.3.3 0 .7-.1.8 0 .2.3.3.7.2 1-.3.7-1.4 1-2.2.9-.7-.2-1.3-.9-1.3-1.7l.4-1.9.7-3.1.5-.7.5.6.2 1.2zM70.2 53.5c0-.6.4-1 .9-1 .4 0 .8.4.8 1 0 .7-.4 1-.9 1s-.8-.4-.8-1zM76.8 53.5c0-.6.3-1 .7-1 .5 0 .8.5.8 1 0 .6-.3 1-.8 1-.4 0-.8-.5-.7-1zM59.4 79.9c-1.6 0-2.3-1.2-1.7-2.3 0-.1.3-.3.4-.2l.3.3c0 .6.3.7.8.8.5 0 .8.3.8.7-.1.3-.5.5-.6.7zM62.5 75.1c0 .6-.2 1-.7 1-.5 0-.8-.3-.8-.7 0-.6.4-1.1.8-1 .6-.1.7.3.7.7zM55.4 75.3c.2-.6.3-1 .8-1s.7.3.7.7c0 .5-.3 1-.7.9l-.8-.6zM41.1 58.6c-1.8 0-3.4-.5-4.5-2-.6-.6-1-1.4-1.3-2.2l.3-1 .8.4 1 1.4c.6 1 1.6 1.7 2.9 1.7l2.5-.2c.5-.1 1-.2 1.2.4.2.5-.2.9-.7 1l-2.2.5z" fill="#070655"/><path d="M44.5 50.5c0 1.4-.4 2.6-1.6 3.4-.5.4-1 .3-1.3-.2-.2-.4 0-.8.6-1.1.6-.4 1-1 1-1.6l-.3-2.5v-1l.5-.4c.2 0 .4.2.5.4l.6 3zM39.6 49c0 .2-.2.6-.7.6-.5 0-.8-.4-.8-.9 0-.6.3-1 .8-1 .4 0 .7.4.7 1.3zM47.5 48.2c0 .6-.3 1-.7 1-.5 0-.8-.4-.8-1 0-.5.3-1 .7-1 .5 0 .8.4.8 1z" fill="#070655"/></svg>