<svg width="100" height="100" viewBox="0 0 100 100" fill="none" xmlns="http://www.w3.org/2000/svg"><path d="M48.9 99.5a7243.1 7243.1 0 01-42.7-1.2c-2-.1-2.4-.6-2.5-2.5-.5-11.1-1.2-22.2-1.6-33.3-.2-7.1 0-14.2 0-21.3 0-1.3.4-2 1.6-2.8 2-1.4 3.8-3.1 5.7-4.8 6-5.6 12.2-11.2 18.2-17 5-4.8 10-10 14.9-15 2.1-2.1 2.2-2.2 4.3 0l17 17c3.6 3.4 7.4 6.4 11 9.7l11 10.3c.9.8 1.5 1.6 1.5 3-.1 5.2 0 10.4-.2 15.6l-1.3 40.5c0 2-.1 2-2 2.2l-1.6.1-29-.4h-4.3z" fill="#F8C600"/><path d="M11 20.5l.4-13.7c0-1 .6-1.3 1.2-1.4h3.7l6-.2c1.4 0 1.6.3 1.7 2.1l.4 11.4c0 .4-.2 1-.4 1.4L13.3 32.4c-.3.4-1 .9-1.3.7-.4-.4-.7-1.3-.7-2V20.7H11z" fill="#F8C600"/><path d="M93.9 91.6l-6.5-.2h-25l-1-.1c-.3-.1-.3-.4-.1-.6l1-1.2 5-5.4 5-5L86 65.5a227 227 0 018-8l2.2-2.3.4-.3c.4-.3.7-.1.7.3v2.9c-.3 3.5-.5 7.1-.5 10.7 0 3.4 0 6.8-.2 10.2L96 89.2v1.2c0 .8-.4 1.1-1.1 1.2h-1.1zM75 85.1l.1.2h2.3l8.3-.3 4-.1c.6 0 .6 0 .6-.7v-6-7.9-.4h-.1L75 85z" fill="#1D1CAB"/><path d="M71 84.4c-.5 0-2-1.6-2-2l.5-.4c.1 0 .3 0 .4.2l1.4 1.2v.6c0 .2-.2.3-.3.4zM80.2 71.8l.3.1c.5.5 1 1 1.3 1.5v.6c-.2.1-.6.2-.7 0-.5-.5-1-1-1.4-1.7-.2-.3 0-.6.5-.5zM78.7 76.4l-.4-.2a18 18 0 01-1.1-1.2c-.2-.2-.3-.6 0-.8.2 0 .5 0 .7.2.4.3.8.6 1 1 .2.1.3.4.2.6 0 .2-.3.3-.4.4zM86.5 68.9l-.4-.2-1.2-1.4v-.5h.6c.2 0 .3.1.5.3l.8.8c0 .1.2.4.1.6l-.4.4zM63.8 87.6l.3-.4h.6l1.1 1.2c.3.3.3.6 0 .8h-.7l-1-1-.3-.6zM76.5 78.6l-.2.4h-.6l-1.3-1.5V77l.4-.1 1.7 1.5v.2zM93.9 61.3l-.6-.3-1-1.1.1-.6h.6l1.3 1.1v.6l-.4.3zM73.4 81.7l-.3-.1-1.1-1.2v-.7h.7c.4.4.8.7 1.1 1.2.3.4 0 .8-.4.8zM83.8 71.4h-.1l-1.4-1.5c0-.1 0-.4.2-.6h.5c.4.4 1 .8 1.3 1.3.2.4 0 .8-.5.8zM90.5 61.5l.6.4.9.8c.2.3.2.6 0 .8-.3.3-.5.3-.8 0l-1-1.1a.6.6 0 01-.1-.6l.4-.3zM68.7 86.3l-.3.4h-.6l-1.2-1.4v-.5l.4-.1 1.6 1.4.1.2zM89.6 65.5l-.3.4h-.6a11 11 0 01-1.2-1.3V64h.6l1.2 1 .3.5z" fill="#fff"/><path d="M40 60h-.1l.1 6.7.1 5.2c0 .7.2 1.3.3 2l.4.3.3-.5v-.3c0-.2.2-.4.4-.4l1.8-.2 3.5-.3 3.5-.4 9.5-.9c2.4-.2 4.8-.3 7.1-1 .2-.1.4-.2.6-.1.3 0 .5 0 .6-.3l.2-1.1v-6.8l-.2-9.4.2-8.4.2-1.7c0-.2-.1-.5-.3-.6h-.6l-3.6-.1-8 .2-8.5-.1c-1.7 0-3.4-.1-5 .3-1.2.2-1.8.8-2 2l-.2.8c-.2 2.2-.4 4.3-.4 6.5V60z" fill="#1D1CAB"/><path d="M39.9 60v-8.6c0-2.2.3-4.3.4-6.5l.2-.9c.2-1 .9-1.7 2-2 1.7-.3 3.4-.3 5-.2H56l8-.1h3.7l.5.1c.2.1.4.4.4.6l-.2 1.7-.2 8.4.2 9.4v6.8l-.3 1c0 .3-.3.5-.6.4a1 1 0 00-.5 0c-2.4.8-4.8.9-7.2 1.1-3.1.4-6.3.6-9.5.9-1.1 0-2.3.3-3.5.4l-3.5.3c-.6 0-1.2 0-1.8.2l-.4.4v.3l-.2.5c-.2-.1-.4-.2-.4-.4a192 192 0 01-.4-7.2l-.2-6.6z" fill="#1D1CAB"/><path d="M56 69H45.8c-1 0-2.2.2-3.2.4-1.6.4-2.5 1.6-2.4 3.3v.5c0 .7.3 1.2.8 1.6a5 5 0 002.6 1.3 77 77 0 0012.2.6l3.9-.2c2.7 0 5.3-.2 8-.4.3 0 .6 0 .7-.5 0-.4-.2-.6-.6-.7-1.6 0-2.4-2.4-1.3-3.5l1.2-1.2c.2-.2.4-.3.5-.6.1-.2.2-.4.1-.5-.1-.2-.4-.2-.6-.2H56z" fill="#999CD8"/><path d="M56 69h9.5l2.2-.1c.2 0 .5 0 .6.2l-.1.5c-.1.3-.3.4-.5.6l-1.2 1.2c-1.1 1.1-.3 3.5 1.3 3.6.4 0 .6.3.6.7 0 .4-.4.4-.7.5-2.7 0-5.4.2-8 .4l-3.9.1a167.4 167.4 0 01-12.2-.6 5 5 0 01-2.7-1.2c-.4-.4-.8-1-.7-1.7v-.5c-.1-1.6.7-2.9 2.4-3.3 1-.2 2-.4 3.2-.4H56z" fill="#999CD8"/><path d="M46.6 52.1v-3.4c0-1 .4-1.3 1.4-1.1a8 8 0 001.7 0H55l5.7.1c.6 0 .7.2.8.8l.3 4.2c.1.8-.2 1.2-1 1.2l-4.4-.1-6.7.2-2.3.2c-.4 0-.7-.2-.8-.7v-.1-1.3zM54.4 58.5h6c.4 0 .7 0 .7.4s-.2.6-.7.6h-1.7l-8.6-.1H48c-.3 0-.5-.2-.5-.5 0-.2.4-.4.5-.4h6.3zM54.4 62.6H48l-.4-.5c0-.2.3-.3.4-.4h.6l10.7-.1H61c.3-.1.6 0 .6.4s-.2.5-.6.5a42.5 42.5 0 01-6.5.1z" fill="#fff"/><path d="M31 68.7l.4.3 3.3 4.2 4.8 6.6 7 9.2c.6.6.6 1 0 1.4L43.6 93 42 94.3c-.5.3-.9.3-1.2-.2l-8.8-11.4-4.9-6.8-1-1.4c0-.2-.2-.4-.5-.5-.2-.2-.3-.4 0-.7l.7-.7c1-.5 2-1.4 2.8-2.2l1.6-1.4.4-.3zM22.5 63a683.8 683.8 0 017.2 4.8s.2 0 .3.2c0 .1.3.2.3.4s-.2.4-.4.5l-2.1 1.6c-1 .7-1.8 1.4-2.6 2.2-.6.4-.8.3-1-.3l-.8-3.1-1.3-5.2-.1-.5c0-.4.2-.6.5-.6zm2.3 8.9l4.1-3.6-1.5-1-1.4-1h-.3l-1.6 1c-.2.1-.3.2-.2.5 0 .4.2.8.3 1.1l.6 3z" fill="#070655"/><path d="M24.8 71.9a727 727 0 01-.9-4c0-.3 0-.4.2-.6l1.6-1h.3l1.4 1 1.5 1-4.1 3.6z" fill="#fff"/></svg>