<svg width="100" height="100" viewBox="0 0 100 100" fill="none" xmlns="http://www.w3.org/2000/svg"><path d="M31.4 63.6c.7 2.3 1.4 4.7 2.3 7 .2.4 1 .8 1.6.8h6c7.3-.2 14.6-.6 22-.6 5.5 0 11.1.4 16.7.7h3.5c1 0 1.7 0 1.9 1.1.1 1-.6 1.7-1.7 1.7-1.8 0-3.6 0-5.3-.2a212 212 0 00-29-.2c-4.6.3-9.2.3-13.8.3-2.6 0-4-1.1-4.9-3.6a6715.4 6715.4 0 01-14.2-42.3L14.6 21c-.2-.7-.4-1-1.2-1-2.1 0-4.3 0-6.4-.2-.6 0-1-.6-1.6-.8.4-.6.6-1.3 1.1-1.5.6-.4 1.5-.4 2.2-.5L13 17c2.5-.2 3.3.3 4.1 2.8 1 2.7 1.9 5.5 2.7 8.2.3.9.7 1 1.5 1 1.2-.2 2.4-.2 3.7-.2l48 .1 19.7.1c2.5 0 3.2 1 2.4 3.3-1.2 4-2.7 8.2-3.7 12.3C90 50 87.6 55 85.5 60c-.6 1.5-1.7 2.2-3.3 2.5-4.2.7-8.4.9-12.6.9l-33.6.3-4.6-.1zm26-32v14.2H60l9.5-.2c2.8 0 2.9 0 3.4-2.6.8-3.8 1.4-7.6 2-11.5H57.5zM37 31.3l3.4 13.3c0 .3.7.6 1.2.7l9 .2h4.1V31.4H37zm38.3 13.7h11.9c.8 0 1.3-.4 1.5-1.3l2.8-8.5 1-3.7H77.3l-2 13.5zM37.4 45l-2.8-12.8c0-.3-.7-.6-1.1-.7a395 395 0 00-9.8-.3H21v.4L24.7 44c.1.4.7.8 1.1.8h11.5zm50.1 3H77.3c-3.5.1-2.9-.4-4 3.3-1 2.7-1.8 5.5-2.6 8.2l-.4 1.2h1.4l10-1c.8 0 1.2-.4 1.5-1.1l3.6-8.6.7-2zM41.8 60.6l-3.1-11.5c-.2-.8-.5-1.2-1.5-1.2l-10.7-.5-.6.1L30 60c.2.3.6.7.9.7h10.9zm15.2 0c2.5 0 5-.2 7.4 0 2.1.2 3.4-.3 4-2.6.8-3.2 2-6.3 3-9.5h-14c0 4-.2 8-.4 12zM41 48.4L44.8 60c.1.3.7.6 1 .6l7.5.1c.4 0 .9-.4 1-.7.1-1.2.3-2.3.3-3.5v-8.2H41zM81.7 88c.4 3.7-3.5 6.2-6.7 6.2-3.1 0-6.8-3.3-6.7-6 .2-4.5 3.1-7.6 6.8-7.7 4.4-.2 6.6 2.5 6.6 7.6zM79 88c0-3.4-1-4.7-3.5-4.7S71 85.4 71 88c0 1.5 2.3 3.5 4 3.5 2.3 0 4-1.5 4-3.5zM44.5 85.8c0 5.2-5.1 8.5-9.8 6.3a5.4 5.4 0 01-3-5.6 7.2 7.2 0 013.7-6.1c1.4-.9 3-1 4.5-.4l.7.2c3 .6 3.7 2.3 3.9 5.6zm-2.8.1c0-2.2-.2-2.5-2.2-3-.4-.2-.7-.4-1-.4-.4-.1-.8-.2-1.2 0-2 .5-3.5 3.3-2.9 5.4.3.6.7 1.3 1.3 1.6a4 4 0 006-3.6z" fill="#1D1CAB"/><path d="M57.4 31.5H75l-2 11.5c-.6 2.6-.7 2.6-3.5 2.6l-9.5.2h-2.5V31.5zM37 31.4h17.7v14.2h-4c-3.1 0-6.1 0-9.1-.2-.5 0-1.1-.4-1.2-.6L37 31.4zM75.3 45.1l2-13.5h15.1l-1 3.7-2.7 8.5c-.3.9-.7 1.2-1.6 1.2l-6.9.1h-4.9zM37.4 45H26c-.4 0-1-.5-1.1-.9l-3.9-12.6V31h2.8l9.8.3c.4 0 1 .4 1.1.7 1 4.3 2 8.6 2.8 12.8zM87.5 48l-.7 2-3.6 8.5c-.3.8-.7 1.1-1.6 1.2l-10 .9h-1.3l.4-1.2 2.5-8.2c1.2-3.6.6-3.1 4.1-3.2h10.2zM41.8 60.6h-11c-.2 0-.6-.4-.8-.7L26 47.5l.6-.1 10.7.5c1 0 1.3.4 1.5 1.2l3 11.5zM57 60.6l.5-12.1h13.8c-1 3.2-2.1 6.3-2.9 9.5-.5 2.3-1.9 2.8-4 2.6-2.4-.2-4.9 0-7.4 0zM41 48.4h13.5v8.2c0 1.2-.1 2.3-.3 3.5 0 .3-.6.7-1 .7h-7.4c-.4 0-1-.4-1-.7-1.4-4-2.5-7.8-3.7-11.7z" fill="#F8C600"/><path d="M79 88c0 2-1.7 3.5-4 3.5-1.7 0-4-2-4-3.4 0-2.6 2-4.8 4.5-4.8S79 84.6 79 88zM41.7 85.9a4 4 0 01-6 3.6c-.6-.4-1-1-1.3-1.7-.6-2 .9-4.8 3-5.4h1l1 .4c2 .6 2.3 1 2.3 3.1zM6 15.2h2.8c1.4.1 2.3 1.1 2.3 2.8.1 1.8-.5 2.7-2 2.8a46 46 0 01-6.4-.1c-.5 0-1.2-.9-1.4-1.5C1 18.6 1 17.7 1 17c.2-1.2 1-1.7 2.1-1.8H6z" fill="#999CD8"/></svg>