<svg width="100" height="100" viewBox="0 0 100 100" fill="none" xmlns="http://www.w3.org/2000/svg"><path d="M21.2 46.2c11 0 19.8-8.8 19.8-19.6S32 7 21.2 7A19.7 19.7 0 001.5 26.6c0 10.8 8.8 19.6 19.7 19.6z" fill="#999CD8"/><path d="M16.8 23.6c-1 .3-1.7-.2-1.7-1.2 0-.6.2-1.1.3-1.6v-.4c-.9-1.1-.8-2.4-.5-3.6.3-1.7 1.4-2.8 2.8-3.7l.6-.6.2-.6.3-.5c.2 0 .5 0 .6.2l.9 1.1c.1-.4 0-.7-.1-1-.3-.5-.2-.8.4-.8l1 .1c.4 0 .8.2 1 .3l.3-.5h.6c1.5.1 2.6.8 3.7 1.8 0-.6.3-.7.8-.4.9.5 1.5 2 1.3 3.1-.3 1.5-.2 3 .1 4.6.4 1.3.5 2.6.4 4a6 6 0 01-1.6 3.3l-.7.6c-1 .9-1.3 2-1.2 3.3 0 .3.2.5.6.5l2.8.1c1.4.1 2.5.7 3.5 1.7a6 6 0 011.7 2.7l.2.4c.2.3.1.7-.3.8l-.3.2c-1.2.8-2.5 1.3-3.9 1.5l-4.5 1c-2.3.3-4.6.4-6.8.3l-4.7-.2h-.1l-4-1-.5-.2c-.9 0-1.6-.5-2.4-1-.6-.3-.7-.5-.4-1 .6-1.3 1.3-2.6 2.3-3.7.8-.8 1.7-1.4 2.8-1.8l3-.7 1.1-.2c.2 0 .3-.2.4-.3.4-1.9.5-3.7.2-5.5l-.2-1.1zm-9 13.7c.7.4 1.3.9 2.2 1h.4l4.1 1.1h.2l5.3.2c2.2 0 4.4 0 6.6-.4 1.4-.2 2.8-.6 4.2-1 1.2-.2 2.3-.7 3.3-1.4l.2-.3c-.3-1-.8-1.8-1.5-2.5a5 5 0 00-3.3-1.5l-2.5-.2-.3.1c-.8.6-1.8 1-2.8 1-1.2 0-2.3 0-3.5-.4a10 10 0 01-3.5-1.5.9.9 0 00-.5-.2c-1.3.3-2.6.5-3.9 1-.8.2-1.5.6-2.1 1.2-1.1 1-1.8 2.3-2.5 3.6l-.1.2zM28.4 17l-1.2.6c-1 .4-2 .5-3.2.4-1.4 0-2.8-.3-4-1.2h-.4c-1 .7-1.8 1.5-2.2 2.7v.7c0 .3.2.5 0 .7-.4.2-.4-.1-.6-.3-.2-.2-.5-.2-.6.1-.1.5-.3 1-.3 1.6l.2.6.5-.4c.2-.1.4-.3.5-.2l.2.3.2 1.7c.6 2.1.3 4.2 0 6.3-.1.3 0 .4.1.5a43.3 43.3 0 002.6 1.1c1.3.3 2.6.4 4 .4.5 0 1-.3 1.6-.4V32a4.1 4.1 0 011.2-4.7 5.7 5.7 0 002-5.4l-.7-3.3V17zm-.3-3.5l-.2.4c-.2 0-.4.3-.5.3-.2 0-.3-.3-.4-.4-.2-.1-.2-.3-.3-.5a5.6 5.6 0 00-2.6-1.6H24v.8c0 .2 0 .4-.2.5l-.5-.1-.5-.6c-.5-.3-1-.5-1.6-.5 0 .5 0 1-.2 1.4-.1.6-.7.7-1.1.2l-.5-.7c-.6.5-1.1 1-1.7 1.3l-.6.5c-1.3 1.2-1.6 2.6-1.6 4.2 0 .4.3.8.4 1.2l.8-.2v-.2c.4-1.5 1.5-2.6 2.8-3.3.3-.2.5-.2.8 0 .5.2 1 .6 1.6.7 1.8.7 3.6.7 5.4-.1 1.4-.6 1.9-2.1.9-3.3z" fill="#070655"/><path d="M7.8 37.3v-.2c.7-1.3 1.4-2.6 2.5-3.6.6-.6 1.4-1 2.1-1.3l3.9-.9c.2 0 .4 0 .6.2 1 .8 2.2 1.1 3.5 1.5 1.1.3 2.3.3 3.4.3 1 0 2-.2 2.8-.9h2.8a5 5 0 013.3 1.6 5 5 0 011.5 2.5l-.1.3c-1 .7-2.1 1.2-3.4 1.5-1.4.3-2.7.7-4.2.9-2.2.3-4.4.5-6.6.4l-5.2-.2h-.2l-4.1-1-.5-.2c-.8 0-1.4-.5-2.1-.9z" fill="#F8C600"/><path d="M28.4 17v1.6L29 22c.4 2.1-.3 4-2 5.4-1.4 1.3-1.7 2.9-1.2 4.7v.2c-.5.1-1 .4-1.6.4-1.3 0-2.6 0-4-.4l-1-.3-1.5-.7c-.2-.1-.2-.3-.2-.5.4-2.1.6-4.3.1-6.4l-.2-1.6-.2-.4c-.2 0-.3 0-.5.2l-.5.5c0-.3-.3-.5-.3-.7l.4-1.6c.1-.3.3-.3.6 0 .1.1.2.4.5.2.2-.1 0-.4 0-.6v-.8c.5-1.2 1.3-2 2.3-2.6h.3c1.3.8 2.6 1.1 4.1 1.2 1.1 0 2.2-.1 3.2-.5l1-.6zm-3.2 3.4V20c0-.2 0-.3-.2-.4l-.3.2-.2.5c0 .3 0 .8.2 1.1l.8 1.6c.3.4.3.7.3 1.1 0 .7-.6 1-1.2.8l-.4.1v.5c.3.3.8.3 1.2.2 1-.4 1.4-1.4 1-2.4-.1-.5-.4-.9-.7-1.3-.3-.5-.5-1-.5-1.6zm-5 3.7c0 1.4 1.4 3 2.9 3 .2 0 .5 0 .6-.3 0-.4-.3-.4-.6-.5-.3 0-.7-.1-1-.3-.6-.4-1-1-1.2-1.8 0-.2-.2-.3-.4-.4l-.3.3zm1.6-3.7c0-.1-.1-.4-.4-.4-.3 0-.4.3-.4.6 0 .2 0 .4.4.4.3 0 .4-.2.4-.6zm5.4.3c.4 0 .6-.2.6-.5 0-.1-.2-.4-.4-.4-.3 0-.5.2-.5.4s.2.4.3.5z" fill="#fff"/><path d="M28 13.5c1 1.2.6 2.7-.8 3.3-1.8.7-3.6.7-5.4.1-.6-.1-1-.5-1.6-.7-.3-.2-.5-.2-.8 0-1.3.7-2.4 1.8-2.7 3.3v.2l-.9.2-.3-1.2c-.1-1.6.3-3 1.6-4.2l.6-.5 1.6-1.3.5.7c.4.5 1 .4 1.2-.2l.1-1.4c.6 0 1.1.2 1.6.5l.6.6c.1 0 .3.1.4 0 .2 0 .3-.2.3-.4v-.8h.1c1 .3 2 .8 2.6 1.6l.3.5c0 .2.2.4.4.4s.4-.2.5-.3l.2-.4z" fill="#1D1CAB"/><path d="M25.2 20.4c0 .6.2 1 .5 1.6l.8 1.2c.3 1-.1 2-1 2.4-.5.2-1 .1-1.2-.2-.1-.1-.2-.3 0-.4l.3-.2c.6.2 1.1-.1 1.2-.7 0-.4 0-.8-.3-1.2a8 8 0 01-.8-1.6c-.2-.3-.1-.7-.2-1.1l.2-.4c.1-.2.3-.3.3-.2l.2.3v.5zM20.2 24.1l.3-.3.4.3c.2.8.6 1.5 1.3 1.9.3.2.6.2 1 .3.2.1.5.1.5.5 0 .3-.4.3-.6.3-1.5 0-2.9-1.6-2.9-3zM21.8 20.4c0 .4-.1.6-.4.6-.3 0-.5-.2-.4-.5 0-.2 0-.5.4-.5.3 0 .3.3.4.4zM27.2 20.7c0-.1-.3-.3-.3-.5s.2-.5.5-.4c.2 0 .4.3.4.4 0 .3-.2.5-.6.5z" fill="#070655"/><path d="M69.7 96.2c16 0 29-13 29-28.9a29 29 0 00-29-28.9 29 29 0 100 57.8z" fill="#999CD8"/><path d="M84.3 70.5c.4 1.6-.6 2.3-1.7 2.9-1.4.7-2.7.3-3.6-.8l-1.7 1.8 1.5 1h.4c2.5-.5 4.8 0 7 1.3a8.6 8.6 0 014 5.9c0 .6-.5 1-1 1.2a69 69 0 01-4.8 2.5c-1.1.5-2.3.7-3.4 1.1-2.7 1-5.6 1.6-8.4 2-2.2.3-4.4.3-6.5 0-1.2 0-2.4 0-3.6-.2-2-.2-3.8-.5-5.7-1-1-.3-2-1-3-1.5-.7-.4-1.4-1-2-1.6-.6-.4-.8-1-.5-1.7.8-1.6 1.5-3.2 2.4-4.7 1-1.7 2.7-2.8 4.6-3.5h1.5l3.4-.2c.4 0 .8-.4.8-1-2.2 1.2-4 .9-5.2-1.4-2.1 1.9-4.8 1-4.5-2h-.4c-2.6.3-4.5-1.3-4.6-4-.2-3 1.1-5.2 3.5-6.9a7.8 7.8 0 003.2-4.9c.8-3.9 3.2-6.6 6.7-8.4 2.6-1.4 5.5-2 8.5-1.8 1.7.2 3.5.5 5 1.4l2.5 1.4c2.3 1.3 3.3 3.4 3.7 6 0 .7.2 1.5.4 2.3.2 1.4 1.3 2 2.5 2.4a5 5 0 012.2 1.5 13 13 0 012.2 3.8c1.5 3.8-1.4 6.8-4.7 7l-.7.1zM77 63.3l-.7 1.9c-.9 2.4-1.1 4.9-.3 7.4.2.6.6.8 1.1.5.3-.2.5-.4.6-.7.2-.3.2-.7.3-1 .3-.6.7-.7 1.2-.3l1 1.1c.5.5 1.4.6 2 .2l.7-.4c.5-.4.6-.9.2-1.5 0-.2-.2-.7-.1-.8.1-.2.5-.3.8-.3h1.8c2.4-.6 4-2.6 3.3-5.1a10 10 0 00-2.2-4c-.5-.5-1.1-.9-1.8-1.1-1.5-.6-2.7-1.5-3.1-3.1-.2-.9-.2-1.7-.5-2.5-.3-1.1-.5-2.3-1-3.3-.5-.8-1.4-1.4-2.2-2-.7-.5-1.6-.8-2.4-1.3-1.5-1-3.2-1.2-5-1.3-1.6-.1-3.3.2-4.8.6-4.5 1.4-7.8 4-8.8 9-.4 2.2-1.7 4-3.6 5.2a7.3 7.3 0 00-3 4.3c-.2 1-.1 2 .2 3 .5 1.5 3 2.3 4 1.3.2-.2.6-.2.8-.1l.1.8v1.7c0 .8.7 1.2 1.5 1 .6-.3 1-.7 1.1-1.3.1-.2.5-.4.7-.4.2 0 .4.3.6.5l.8 1.4c.4 1 2.2 1.2 3 .4.2-.1.2-.5.2-.5L61.9 71a9 9 0 01-2.5-3.1c-.8-2-1.2-4-.7-6.1l1.5-6.2c.2-.5.2-1-.1-1.4-.5-.7-.4-1.5 0-2l.6-.2v.4c0 .8.2 1.3.8 1.9a5 5 0 002.2 1c2.3.6 4.3 0 6.2-1.3.2-.2.6-.4.7-.3.2.2.3.6.3.8.2.4.1 1 .4 1.2.5.8 1.1 1.5 1.8 2 .7.8 1.6.9 2.6.9.5-1.3 1.4-1.5 2.2-.7l.4.6c.6.9.8 2 .8 3s-.8 1.8-1.8 1.9l-.4-.1zm-16.5 13l.8 1.2c1.2 1.4 3 2 4.7 2.3 2 .4 4.1.3 6.2 0 1.6 0 3.2-.4 4.5-1.4l2.1-1.8-1.8-1.2a5 5 0 01-2-2.6c-1-2.8-.7-5.6.4-8.3.2-.6.2-1.3.3-2l.3-.7c.2-.1.5 0 .8.2.3 0 .6.2.8 0 .2 0 .4-.3.4-.6 0-.5 0-1-.2-1.6-.1-.5-.2-1-.9-1.4 0 .7-.3 1-1 1-1.3.2-2.6 0-3.7-1-1-1-1.8-2-2.3-3.2a8.6 8.6 0 01-4.3 1.4c-1.6 0-3-.5-4.2-1-.4 1.5-1 3.1-1.3 4.7-1 3.9-.6 7.3 2.7 10 1 .7 1.7 1.6 2.1 2.8.6 1.5-.3 2.9-2 3l-2.4.3zM69 88.7l4-.4c2.2-.3 4.4-.8 6.5-1.5 2-.6 4-1 5.8-2l3.2-1.8c.5-.2.5-.7.4-1.1-.8-2.2-2.2-4-4.4-4.8-1.2-.5-2.6-.6-4-.9-.5-.1-.6.1-.7.6l-.6 1-1.1 1c-1 .8-2.2 1.5-3.5 1.8-3.8.9-7.6 1-11.3-.4-.9-.3-1.7-.9-2.4-1.5-.6-.6-1.1-1.4-1.6-2.2-.2-.2-.4-.4-.6-.2l-2.3 1.1c-2.1 1.6-3.1 4-4 6.4v.5c1.3 1.2 2.7 2.3 4.4 2.8 1.4.4 2.8.7 4.2.8 2.8.4 5.5.6 8 .8z" fill="#070655"/><path d="M76.9 63.3h.4c1-.1 1.8-.9 1.8-2 0-1-.2-2-.8-3 0-.2-.2-.3-.4-.5-.8-.8-1.7-.6-2.2.6-1 0-1.9 0-2.6-.7l-1.8-2c-.2-.4-.2-.9-.3-1.3l-.4-.8s-.5.1-.7.3c-1.9 1.3-3.9 2-6.2 1.3-.8-.2-1.6-.5-2.2-1a2 2 0 01-.7-1.9l-.1-.5c-.2.1-.4.1-.5.3-.5.4-.6 1.3 0 2 .2.4.2.9 0 1.4l-1.5 6.2c-.4 2-.1 4.1.7 6A9.2 9.2 0 0062 71l1.4 1.5v.5c-1 .8-2.7.7-3.2-.3l-.8-1.4c-.1-.3-.4-.5-.6-.5-.2 0-.5.2-.6.4-.3.5-.6 1-1.1 1.2-.8.3-1.6-.1-1.7-1l.2-1.7c0-.2 0-.6-.2-.7-.2-.2-.6-.1-.8 0-1 1-3.5.3-4-1.2-.3-1-.4-2-.1-3a7.4 7.4 0 013-4.3c1.8-1.3 3-3 3.6-5.3 1-4.8 4.2-7.5 8.7-8.9 1.6-.5 3.2-.7 4.8-.6 1.8 0 3.5.3 5 1.2l2.5 1.4c.7.6 1.6 1.2 2 2 .6 1 .9 2.1 1.2 3.3l.4 2.4c.4 1.7 1.7 2.5 3.2 3.2.6.2 1.2.6 1.7 1.1a10 10 0 012.3 4c.6 2.5-1 4.4-3.4 5h-1.7c-.4 0-.7.1-.9.3-.1.2 0 .6.2.9.3.6.3 1-.3 1.5l-.7.4c-.6.4-1.4.3-2-.2l-1-1c-.4-.5-1-.4-1.1.2l-.4 1c-.1.2-.3.5-.6.6-.5.3-.9.2-1-.4-.9-2.5-.7-5 .2-7.5l.7-1.7z" fill="#1D1CAB"/><path d="M60.4 76.4l2.5-.2c1.7-.2 2.6-1.5 2-3-.4-1.2-1.2-2.1-2.1-2.8-3.3-2.7-3.7-6.2-2.7-10l1.3-4.8c1.2.6 2.6 1 4.2 1 1.5 0 3-.6 4.3-1.4a8.2 8.2 0 002.3 3.2 5 5 0 003.8 1.1c.5 0 .9-.3 1-1 .5.3.7.9.8 1.4.2.5.2 1 .2 1.6 0 .2-.2.5-.4.6-.2.1-.6 0-.8 0-.3-.2-.7-.4-.8-.3-.2.2-.2.5-.3.8-.1.7-.1 1.4-.3 2-1.1 2.7-1.4 5.5-.5 8.3.4 1.1 1.1 2 2 2.6l2 1.2-2.2 1.8a8.9 8.9 0 01-4.6 1.4c-2 .3-4.1.4-6.1 0-1.8-.4-3.5-1-4.7-2.4l-.9-1.1zM67 59.2c0-.3 0-.7-.2-1 0-.2-.2-.4-.4-.6l-.4.7c0 1-.3 2-.8 2.8A16.2 16.2 0 0064 64c0 1 .5 1.7 1.6 1.9.9.1 1.8-.4 2-1.3 0-.2 0-.5-.2-.6h-.6c-.2.1-.2.3-.3.5-.3.3-.7.4-1 .2l-.4-.8.2-.6c.5-1 1-1.8 1.3-2.7l.4-1.4zm1.1 9.4c2-.1 3.8-2.1 4.2-3.8l-.3-.6c-.2 0-.5.1-.7.3l-.5 1c-.7 1.4-1.8 2-3.4 1.7-.2 0-.6.1-.6.3 0 .1 0 .5.2.6l1.1.5zm1.2-8.8c0 .3.3.6.7.6.5 0 .7-.4.7-.8s-.2-.7-.7-.7c-.4 0-.7.4-.7 1zm-6.2-.4c0-.4-.2-.7-.6-.6-.5 0-.7.3-.7.8 0 .3.3.6.6.5.5 0 .7-.2.7-.7z" fill="#fff"/><path d="M69 88.6l-8-.7-4.2-.9c-1.7-.5-3-1.6-4.4-2.8v-.5c.9-2.4 1.9-4.8 4-6.3.7-.5 1.5-.8 2.3-1.2.2-.2.4 0 .6.2.5.8 1 1.6 1.6 2.2.7.6 1.5 1.2 2.4 1.5 3.7 1.5 7.5 1.3 11.3.4a8 8 0 003.5-1.8l1-1 .7-1c.1-.4.2-.7.7-.6 1.4.3 2.8.5 4 1 2.2.8 3.6 2.5 4.4 4.7.1.5.1.9-.4 1.2l-3.2 1.7c-1.9 1-3.9 1.4-5.8 2-2.1.8-4.3 1.3-6.5 1.5l-4 .4z" fill="#F8C600"/><path d="M67 59.2l-.5 1.4-1.3 2.7-.2.6c0 .3.1.6.4.8.3.2.7.2 1-.2l.2-.4c.3-.1.6-.2.7-.1.2 0 .3.4.2.6-.2.9-1.2 1.5-2 1.3-1.2-.2-1.7-.8-1.6-2l.3-1 .9-1.8c.5-.9.8-1.8.8-2.8l.4-.7.4.7.1.9h.1zM68 68.6l-1.1-.5c-.2 0-.2-.4-.2-.6 0-.2.4-.3.6-.3 1.6.3 2.7-.3 3.4-1.7.2-.3.3-.7.6-1 0-.2.4-.3.6-.2.1 0 .3.3.3.5-.4 1.7-2.1 3.7-4.2 3.8zM69.2 59.8c0-.5.3-.9.7-.9.5 0 .7.3.7.7 0 .4-.2.8-.7.8-.4 0-.6-.3-.7-.6zM63 59.4c0 .5-.2.7-.7.7-.3 0-.6-.2-.6-.5 0-.5.2-.8.7-.8.4 0 .6.2.6.6zM49.2 21.6h-1.7a.8.8 0 01-.8-.8c0-.4.4-.7.8-.8l1.8.1c.4 0 .7.4.7.8s-.4.7-.8.7zM66.6 29.4c-.2 0-.4 0-.6-.2-.7-.8-1.4-1.5-2.3-2.2a.8.8 0 111-1.2l2.5 2.3c.2.3.2.8 0 1l-.6.3zm-5-4l-.4-.1-2.8-1.5a.8.8 0 01-.4-1c.1-.3.6-.5 1-.4l3 1.5c.3.3.4.7.2 1-.1.3-.4.5-.6.5zm-6-2.6h-.2l-3.1-.8a.8.8 0 01-.6-.9c0-.4.5-.7.9-.6l3.2.8c.4.1.6.5.5 1 0 .3-.4.5-.7.5zM69.5 33.4a.8.8 0 01-.6-.4l-.9-1.4a.8.8 0 01.2-1c.4-.3.8-.2 1 .1l1 1.5c.2.3.1.8-.3 1l-.4.2z" fill="#070655"/></svg>