<svg width="100" height="100" viewBox="0 0 100 100" fill="none" xmlns="http://www.w3.org/2000/svg"><path d="M13 16.4h2.5l14.1-.3 15.8.2h30.2v21.4L75 71.4c-.2 8.2-.3 16.5-.3 24.8l-.1 2-3.3.2-32.9.4L20 99l-6.9.3c-.6 0-.8-.1-.8-.8-.2-9.6-.5-19.2-.5-28.8 0-7.6.5-15.2.7-22.8l.3-17.9.2-11.7v-.9z" fill="#999CD8"/><path d="M32.8 62H37l9.4-.2h6.5l9.7-.3c1.3 0 2 .2 2 .5-.2.6-1.1.6-1.9.6l-14.7.2-17 .2-6.5-.1h-.8l-.8-.6c.3-.1.6-.4 1-.4h9zM46.7 42H34.2l-6.6.1-4.6-.2c-.3 0-.5-.3-.8-.4l.9-.4h.8c6.2-.2 12.3-.2 18.4-.2l19.8-.3h1.1c.7 0 1.3.1 1.3.5s-.5.5-1.2.5H46.7v.3zM43.7 51.5h20c.3 0 1 .2 1 .4l-.7.5-1 .1-33.5.3-5.5-.2a3 3 0 01-1-.1l-.4-.4.7-.3h.5l16.1-.2h3.8v-.1zM44.2 30.6h18.4c.6 0 1.2 0 1.3.4 0 .4-.5.6-1.2.6H62l-33.5.1-5 .1c-.6 0-1.3 0-1.3-.4s.6-.5 1.2-.5l7.3-.1h13.5v-.2zM47 82.2H34.3l-6.6.1c-1.5 0-3 0-4.5-.2-.3 0-.6-.2-.9-.4l.9-.4h.9l18.3-.2 19.8-.2h1.1c.7 0 1.3 0 1.3.4 0 .5-.5.6-1.2.6H47v.3zM44.4 70.8h18.4c.7 0 1.3 0 1.3.4 0 .5-.5.6-1.1.7H28.7l-5 .1c-.5 0-1.2 0-1.2-.4s.6-.5 1.2-.5l7.2-.1h13.5v-.2z" fill="#fff"/><path d="M78.7 39l1.5 5.6.5 1.4c.6 1.5.3 2.5-.7 3-1.2.5-2.7 0-3.4-1.3L71.2 39c-.8-1.2-1.7-2.3-2.4-3.6-1.6-3-1.4-4.5 1.3-6.5 1.9-1.5 4-2.9 6.5-3.3 1.2-.2 2.2 0 2.9 1l3.4 5.2 4.8 8.3.6 1c.4 1 .5 2-.4 2.6-.9.8-1.8.5-2.7-.1L79 39h-.3z" fill="#F8C600"/><path d="M81.6 18c.1 6-1.7 11-6.1 14.6a14.4 14.4 0 01-17.7.2c-3.4-2.9-5-7-4.7-11.6.4-6.8 3-12.5 9-15.8 2-1 4.2-1.5 6.5-1 1 .3 2 .4 3.1.6 6 .9 9.7 5.4 9.8 11.7V18zm-3.4.2c0-5.1-1.4-7.8-5.2-9.2-1.1-.4-2.3-.5-3.5-.8-4.2-.7-7.8.3-10.1 4.3-1.2 2-2.2 4.2-2.7 6.5-.9 4.1 0 8.1 3 10.8 3.2 2.7 7.2 3.2 11 1.5 5.5-2.3 7.5-7.1 7.5-13z" fill="#1D1CAB"/><path d="M78.2 18.2c0 6-2 10.8-7.5 13.1a10.2 10.2 0 01-11-1.5c-3.1-2.7-3.9-6.7-3-10.8.5-2.3 1.5-4.5 2.6-6.5 2.3-4 6-5 10.2-4.3 1.2.3 2.4.4 3.5.8 3.8 1.4 5.2 4.1 5.2 9.2z" fill="#fff"/><path d="M64.7 23.6c1.7-4.6 4.9-7.3 7.4-10.6.5-.7 1.2-1.2 2-.5s.4 1.6-.2 2.3c-1 1.4-2.3 2.6-3.3 4.1-1.3 2-2.6 4-3.7 6-.8 1.6-2.1 2.2-3.3.9a25 25 0 01-3-4.9c-.2-.4.2-1.6.6-1.9.7-.5 1.1.3 1.5 1l2 3.6z" fill="#1D1CAB"/></svg>