<svg width="100" height="100" viewBox="0 0 100 100" fill="none" xmlns="http://www.w3.org/2000/svg"><path d="M45.4 99.5L14 99l-10-.5c-2-.1-2.4-.5-2.4-2.4C1 85.6.5 75.1 0 64.7c-.2-6.7 0-13.4 0-20 0-1.3.4-2 1.6-2.7 2-1.3 3.7-3 5.4-4.5 6-5.3 11.9-10.5 17.7-16 4.9-4.5 9.6-9.4 14.4-14 2-2.1 2.1-2.1 4.1-.2L60 23.4c3.4 3.2 7 6 10.6 9L81 42.3c.8.8 1.5 1.5 1.5 2.8-.1 4.9 0 9.8-.2 14.7L81 98c0 1.8-.1 1.8-2 2l-1.5.1-28-.4h-4.2z" fill="#F8C600"/><path d="M8.7 25.2L9 12.3c0-1 .5-1.3 1.2-1.3h3.5l5.8-.2c1.3 0 1.5.2 1.6 2l.5 10.6c0 .5-.2 1-.5 1.4L11 36.4c-.3.4-1 .8-1.3.6-.3-.3-.6-1.2-.6-1.8v-10h-.3z" fill="#F8C600"/><path d="M84.8 49.6c2.3 0 4.5.2 6.6.3 1.2 0 2.4.2 3.6.4 3.2.3 4 2 4.2 4.4 1 9.7.7 19.5.8 29.3 0 3.7-2.2 5.4-5.9 5.8-3.5.4-7 .4-10.6.5-7.6 0-15.2.3-22.8.2-4.8 0-9.7-.4-14.5-.9-1.4-.1-2.7-1-4-1.8-.4-.3-.6-1.4-.6-2.1 0-6.8 0-13.5.3-20.2 0-3.4.8-6.8 1.4-10.2.4-2.3 1.6-4.3 4-5.1 1-.4 2.1-.4 3.1-.5 2.7-.3 5.4-.4 8.2-.6l.5-4.7c.3-2.1 1.9-3.4 4-3.4 1 0 1.7.4 1.8 1.4.2 1-.5 1.5-1.4 1.7l-1.4.2v5c0 .3.7.6 1.1.6h13.5l4-.3c.7 0 .9-.3.8-1 0-1.2 0-2.6-.2-3.9 0-.2-.4-.6-.7-.7-.4-.2-1 0-1.3-.3-.4-.2-.8-.6-.9-1 0-.3.5-1 .8-1 1.1-.1 2.3-.3 3.5 0 1 0 1.6 1 1.8 2l.2 4v1.9z" fill="#999CD8"/><path d="M57.1 69.1c6.2-.3 12.3-.7 18.4-.7 5.6 0 11 0 16.6-.6 1.7-.2 2.2.3 2 2 0 1.2-.4 1.6-1.8 1.6l-10.4.1-27 .5h-5.6c-1.5-.1-2.3-1.3-1.6-2.5.1-.3.7-.6 1-.6h8.4v.2z" fill="#070655"/><path d="M73.8 44.2h-9.5c-2.5 0-3.7-1.5-2.6-3.8.2-.5 1-1 1.5-1h14.6c1.9 0 2.8 1.2 2.4 3-.2 1-.7 1.7-1.9 1.6h-4.6v.2z" fill="#1D1CAB"/><path d="M72 74.8c-2.6 0-3-.3-3.2-2.4 0-1-.2-2 0-2.9 0-.5.6-1.2 1-1.3 1-.2 2-.1 3-.1s1.5.5 1.7 1.4l.4 3c.2 1.4-.1 2-1.6 2.2H72z" fill="#F8C600"/></svg>