<svg width="100" height="100" viewBox="0 0 100 100" fill="none" xmlns="http://www.w3.org/2000/svg"><path d="M31.8 17l.3 6.1c0 1 0 2-1.4 2.1-1.7 0-2.6-.5-2.6-2l.1-13.3c0-2.4 1.4-4.2 3.7-5a16 16 0 017.7-1c.5 0 1.2.2 1.6.6.3.4.7 1.1.5 1.6 0 .4-.8.8-1.3 1h-2.3C34 7 32.2 9 32 13l-.2 4zM72.8 15.8c-.2 3.4-.3 6-.6 8.5-.1 1.2-.3 2.5-2 2.2-1-.1-2.3-2-2.2-3.1.3-2.2.6-4.4.7-6.6.1-1.8.1-3.7-.2-5.6-.4-2.3-1.6-2.7-5.1-3-.7 0-1.5 0-2.1-.3-.4-.2-.7-1-.7-1.3 0-.4.6-1 1-1.1 1.6-.4 3.4-.7 5-.7 2.7 0 4.6 1.8 5.2 4.5.5 2.4.7 4.8 1 6.5z" fill="#999CD8"/><path d="M49.3 62.8v-4.5c0-1-.4-1.4-1.3-1.3-4.3.3-8.3-.8-12.2-2.4-.4-.2-.9-.5-1.2-1-4-4.3-6.3-9.3-6.7-15.2l-.5-12.5c0-2.1.8-2.9 2.8-2.8 2 0 2.6.8 2.7 2.9.4 5.7.8 11.4 2.9 16.7 1.6 4 4.7 6.1 9 6.6 4.2.6 8.2.5 12.2-.9 4-1.3 6-4.2 7.4-7.9 1.9-5.3 2.2-10.8 2.8-16.4.2-2.4 1.5-3 3.8-2.2 1.9.8 2.8 1.8 2.8 3.8 0 2 .2 4 0 6-.3 6-1 12-4.7 17.2A18.2 18.2 0 0159 56.6c-2.7.9-2.6 1-2.6 3.6 0 8-.2 16-1.6 24a17.5 17.5 0 01-11.5 13.7c-4 1.7-8.2 2.5-12.4 1.9-3.6-.6-7-1.7-10-4.2-3-2.7-5.7-5.6-7-9.4L9.4 73.6c-.4-1.2-.1-2 1.4-2.5 5.3-1.5 3.8-1 5.2 3.4.8 2.3 1.2 4.8 2 7a17 17 0 008 9.7c3 1.6 6.1 2.1 9.5 1.8a13.2 13.2 0 0011.2-9.4c1-3.2 1.6-6.5 2-9.9.4-3.4.4-6.9.6-10.9z" fill="#1D1CAB"/><path d="M20.4 64.6c.1 4.6-1.6 7.8-5.3 9.9-1.7.9-3.3.6-5 .5-6.5-.2-11.9-8.6-9.5-14.5 1.5-3.8 3.8-7 8.2-7.7 3.8-.6 6.4 1.4 8.8 3.7 2.4 2.3 2.7 5.4 2.8 8z" fill="#999CD8"/><path d="M41.4 9.2c-2.8 0-4.7-1.9-4.7-4.4 0-2.8 2.2-4.8 5-4.8C43.8 0 46 2.2 46 4.5c0 2.6-2.1 4.7-4.6 4.7zM66.6 5c0 2.6-2 4.6-4.4 4.6-2.5 0-4.8-2.3-4.8-4.7 0-2.5 2.2-4.5 5-4.4 2.3 0 4.2 2 4.2 4.5z" fill="#070655"/><path d="M15.5 63.2c0 2.4-.8 4-2.8 5.1-.8.5-1.7.3-2.6.3-3.4-.1-6.1-4.5-5-7.5.8-2 2-3.7 4.4-4 2-.4 3.3.7 4.6 1.9 1.2 1.2 1.4 2.8 1.4 4.2z" fill="#fff"/></svg>