<svg width="350" height="295" viewBox="0 0 350 295" fill="none" xmlns="http://www.w3.org/2000/svg">
<path d="M163.136 46.2741C187.026 36.8824 241.722 54.4135 272.528 108.885C301.448 257.9 216.575 281.066 174.452 284.197C137.119 286.971 106.554 262.283 100.896 254.143C95.2374 246.004 53.1148 199.672 56.2582 155.844C59.4017 112.016 139.246 55.6658 163.136 46.2741Z" fill="#C9D3DF"/>
<g clip-path="url(#clip0)">
<path d="M16.8926 149.618C16.5981 149.702 16.2945 149.785 16 149.868C16.2945 149.785 16.5889 149.701 16.8834 149.609C16.8834 149.6 16.8926 149.618 16.8926 149.618Z" fill="#DBDCFA"/>
<path d="M146.017 191.06H154.271V258.901H146.017V191.06Z" fill="white"/>
<path d="M146.017 191.06H149.256V258.891H146.017V191.06Z" fill="#E8F2FC"/>
<path d="M126.425 253.344H171.543C173.071 253.344 174.304 254.583 174.304 256.118C174.304 257.653 173.071 258.892 171.543 258.892H126.425C124.898 258.892 123.665 257.643 123.665 256.118C123.665 254.583 124.907 253.344 126.425 253.344Z" fill="white"/>
<path d="M126.425 253.344H171.543C172.546 253.344 173.421 253.889 173.908 254.694H134.827C133.299 254.694 132.066 255.942 132.066 257.468C132.066 257.995 132.223 258.475 132.471 258.892H126.425C124.898 258.892 123.665 257.643 123.665 256.118C123.665 254.583 124.907 253.344 126.425 253.344Z" fill="#E8F2FC"/>
<path d="M146.017 191.06H154.271V197.098H146.017V191.06Z" fill="#E8F2FC"/>
<path d="M103.245 96.4792C104.405 95.9614 105.693 95.6748 107.064 95.6748H153.535C158.072 95.6748 161.973 98.9203 162.829 103.396L177.396 179.891C177.626 181.12 177.617 182.35 177.396 183.487C177.387 183.515 177.387 183.543 177.378 183.561H190.297C192.423 183.561 194.144 185.29 194.144 187.426C194.144 189.562 192.423 191.291 190.297 191.291H148.538V191.171H121.622C117.085 191.171 113.184 187.935 112.328 183.45L97.7701 106.955C96.9235 102.462 99.3621 98.2083 103.245 96.4792Z" fill="#FF9933"/>
<path d="M97.7792 106.974L112.328 183.469C113.174 187.944 117.076 191.189 121.622 191.189H148.538V191.31H190.288C192.414 191.31 194.135 189.581 194.135 187.445C194.135 185.309 192.414 183.58 190.288 183.58H177.368C177.377 183.552 177.387 183.524 177.387 183.496C177.276 183.506 177.147 183.506 177.028 183.506H130.566C124.327 183.506 118.944 179.049 117.775 172.891L103.236 96.4976C99.3711 98.2081 96.9234 102.461 97.7792 106.974Z" fill="#E8F2FC"/>
<path d="M117.702 172.429L117.794 172.891C118.962 179.049 124.336 183.506 130.585 183.506H177.046C177.157 183.506 177.285 183.506 177.405 183.497C177.405 183.524 177.396 183.552 177.387 183.58H190.306C192.23 183.58 193.831 185.004 194.107 186.862V176.405C194.107 176.386 194.116 176.358 194.116 176.321C194.42 174.25 192.69 172.429 190.601 172.429H117.702Z" fill="white"/>
<path d="M103.245 96.4885L117.785 172.882C118.953 179.04 124.336 183.506 130.566 183.506H177.037C177.157 183.506 177.276 183.506 177.396 183.497C177.617 182.35 177.626 181.13 177.396 179.9L162.829 103.405C161.973 98.9203 158.071 95.6841 153.535 95.6841H107.064C105.702 95.6841 104.414 95.9615 103.245 96.4885Z" fill="white"/>
<path d="M213.376 78.1436H292.478C294.318 78.1436 295.726 79.7802 295.468 81.6109L288.695 128.342C288.484 129.831 287.205 130.94 285.705 130.94H206.594C204.754 130.94 203.346 129.304 203.603 127.473L210.376 80.7418C210.606 79.2531 211.876 78.1436 213.376 78.1436Z" fill="#1D54B5"/>
<path d="M224.437 78.1436H292.478C294.318 78.1436 295.726 79.7802 295.468 81.6109L292.478 102.267C285.18 105.476 276.917 107.297 268.138 107.297C245.455 107.297 232.084 95.1846 224.437 78.1436Z" fill="#3070CE"/>
<path d="M249.264 113.815H259.359H264.236C265.534 113.815 266.528 114.962 266.334 116.256L261.798 147.555C261.798 147.648 261.788 147.759 261.779 147.851L261.577 149.081C261.43 150.126 260.528 150.903 259.479 150.903H254.611H244.7L249.264 113.815Z" fill="#4286E8"/>
<path d="M227.391 148.712C227.409 147.537 228.366 146.585 229.535 146.585H240.872C242.538 146.585 243.955 145.346 244.185 143.682L247.507 119.299H245.538C244.249 119.299 243.255 118.143 243.439 116.858L243.642 115.619C243.789 114.574 244.691 113.797 245.74 113.797H249.669C251.464 113.797 252.844 115.388 252.605 117.172L248.464 148.185C248.261 149.729 246.945 150.885 245.39 150.885H229.544C228.339 150.903 227.373 149.923 227.391 148.712Z" fill="#1D54B5"/>
<path d="M235.535 124.199C235.535 124.985 236.17 125.623 236.952 125.623C237.734 125.623 238.369 124.985 238.369 124.199C238.369 123.413 237.734 122.775 236.952 122.775C236.17 122.766 235.535 123.404 235.535 124.199Z" fill="#4286E8"/>
<path d="M228.247 124.199C228.247 124.985 228.882 125.623 229.664 125.623C230.446 125.623 231.081 124.985 231.081 124.199C231.081 123.413 230.446 122.775 229.664 122.775C228.882 122.766 228.247 123.404 228.247 124.199Z" fill="#4286E8"/>
<path d="M223.287 125.623C222.504 125.623 221.87 124.986 221.87 124.199C221.87 123.413 222.504 122.775 223.287 122.775C224.07 122.775 224.704 123.413 224.704 124.199C224.704 124.986 224.07 125.623 223.287 125.623Z" fill="#4286E8"/>
<path d="M214.913 99.817L210.781 128.342C210.569 129.831 209.29 130.94 207.79 130.94H206.603C204.763 130.94 203.355 129.304 203.613 127.473L210.385 80.7418C210.597 79.2531 211.876 78.1436 213.376 78.1436H214.563C216.404 78.1436 217.811 79.7802 217.554 81.6109L214.913 99.817Z" fill="#4286E8"/>
<path d="M244.838 83.2476H272.463C273.135 83.2476 273.65 83.8578 273.549 84.5236L273.365 85.6701C273.282 86.2064 272.822 86.5947 272.279 86.5947H244.654C243.982 86.5947 243.467 85.9845 243.568 85.3187L243.752 84.1722C243.844 83.6359 244.304 83.2476 244.838 83.2476Z" fill="#4286E8"/>
<path d="M132.692 97.4868C133.566 90.7185 143.431 93.89 139.732 87.5839C136.308 81.7495 140.293 79.1698 145.004 78.2636C151.013 77.1078 147.599 74.7315 150.526 69.1005C154.234 61.9438 159.967 64.0705 159.967 64.0705C159.967 64.0705 167.145 60.15 174.46 66.3543C182.172 72.8915 180.488 78.6705 176.365 86.6038C174.276 90.6168 176.844 94.1858 178.666 101.564C180.856 110.413 169.979 128.222 146.716 116.192C137.707 111.541 132.223 101.084 132.692 97.4868Z" fill="#13448C"/>
<path d="M164.826 99.3363C164.826 99.3363 168.378 99.7154 171.994 103.349C174.424 105.79 186.322 129.581 186.322 129.581L197.3 95.7949L205.333 96.4144C205.333 96.4144 196.279 150.746 189.239 150.848C182.577 150.94 161.43 115.767 161.43 115.767L164.826 99.3363Z" fill="#F95858"/>
<path d="M142.124 113.575L135.084 140.048L176.696 143.469L176.503 151.023C176.503 151.023 128.523 151.236 119.487 151.143C113.469 151.079 124.796 103.192 132.029 97.7179C137.744 93.3814 153.553 94.5372 153.553 94.5372L164.816 99.3361C164.816 99.3361 177.883 112.336 170.08 124.569C163.933 134.204 171.764 152.928 171.764 152.928L145.161 154.518L121.401 154.74L142.124 113.575Z" fill="#F95858"/>
<path d="M168.681 142.813L167.191 142.535C165.764 136.276 165.507 127.723 168.764 123.608C175.206 115.462 168.571 103.636 164.853 99.355H164.863C165.461 99.956 177.709 112.623 170.108 124.57C166.455 130.275 167.338 137.709 168.681 142.813Z" fill="#E54848"/>
<path d="M176.577 145.217C180.975 145.374 185.687 146.964 187.886 149.563C188.374 150.136 187.96 151.033 187.205 151.033H176.503L176.577 145.217Z" fill="#FFB19E"/>
<path d="M153.553 85.6426V94.5745L161.513 103.738L161.559 103.636L163.731 98.9758V93.9643C167.706 93.4002 171.212 90.3767 172.151 86.0494L173.273 79.8728C173.273 79.8728 167.338 79.2441 162.617 74.4175C162.617 74.4175 161.2 77.0342 159.166 79.0591C157.685 80.5386 155.642 80.8992 154.86 81.7036C153.82 82.7762 153.443 84.1816 153.553 85.6426Z" fill="#FFB19E"/>
<path d="M155.734 77.9125C155.734 77.9125 156.038 74.1492 157.446 70.9408C159.074 67.2422 161.366 62.9057 166.123 62.8964C166.123 62.8964 154.565 61.0934 152.633 77.256L155.734 77.9125Z" fill="#FF4751"/>
<path d="M148.815 80.5662C149.147 77.4595 151.742 75.1849 154.603 75.4993C157.465 75.8136 159.517 78.5783 159.186 81.6943C158.855 84.8011 156.26 87.0757 153.398 86.7613C150.536 86.4469 148.484 83.673 148.815 80.5662Z" fill="#FF4751"/>
<path d="M152.421 86.2067C155.182 86.5026 157.676 84.3204 157.998 81.3246C158.292 78.5507 156.617 76.0634 154.179 75.4717C154.317 75.4717 154.464 75.4809 154.611 75.4902C157.473 75.8045 159.525 78.5692 159.194 81.6852C158.863 84.792 156.268 87.0666 153.406 86.7522C152.522 86.6598 151.722 86.3269 151.041 85.8276C151.464 86.0218 151.934 86.1605 152.421 86.2067Z" fill="#CC3241"/>
<path d="M150.82 80.7141C150.986 79.2069 152.237 78.1066 153.627 78.2545C155.016 78.4025 156.01 79.7524 155.844 81.2596C155.679 82.7668 154.427 83.8671 153.038 83.7191C151.648 83.5619 150.654 82.2212 150.82 80.7141Z" fill="#CC3241"/>
<path d="M156.213 90.1733C156.544 90.6079 158.43 92.9935 159.939 94.2695C160.547 94.778 160.869 95.5362 160.869 96.3222L161.568 103.636L163.74 98.9759V93.9828L163.685 93.9274C163.685 93.9366 158.67 93.1692 156.213 90.1733Z" fill="#F48F7A"/>
<path d="M159.599 89.7939L159.682 89.2853C156.774 88.786 154.657 84.8563 154.63 84.8193L154.179 85.0597C154.271 85.2354 156.452 89.2483 159.599 89.7939Z" fill="#FF4751"/>
<path d="M159.056 89.5073C159.12 89.0265 159.847 88.7676 160.666 88.9156C161.485 89.0727 162.093 89.5813 162.028 90.0621C161.964 90.5429 161.237 90.8018 160.418 90.6539C159.599 90.4967 158.992 89.9789 159.056 89.5073Z" fill="#FF4751"/>
<path d="M197.953 96.0075C197.953 96.0075 196.822 86.6595 197.843 86.3173C198.864 85.9752 199.886 89.9696 199.886 89.9696C199.886 89.9696 204.202 81.537 207.146 82.4431C210.1 83.3585 204.671 96.3311 204.671 96.3311L197.953 96.0075Z" fill="#FFB19E"/>
<path d="M168.691 142.766L135.922 140.011C134.799 139.918 134.008 138.864 134.22 137.755C135.434 131.597 138.931 113.945 139.143 114.472C139.4 115.11 135.848 135.249 140.026 137.283C142.888 138.679 168.691 142.766 168.691 142.766Z" fill="#E54848"/>
<path d="M146.403 240.167C146.642 240.223 146.863 240.361 147.029 240.593C149.118 243.505 150.967 244.199 154.621 244.689C154.841 244.716 155.062 244.8 155.311 244.92C155.025 244.495 153.811 242.488 154.648 240.685C155.596 238.651 156.737 237.171 156.737 237.171L151.391 233.972C151.391 233.972 148.115 237.772 146.403 240.167Z" fill="#FFB19E"/>
<path d="M142.446 247C143.394 247.906 158.642 256.284 162.268 258.392C162.709 258.651 163.611 259.122 163.767 258.632C164.025 257.874 157.427 245.086 154.621 244.698C150.967 244.199 149.108 243.514 147.029 240.593C146.596 239.982 145.685 239.982 145.271 240.611C143.817 242.839 141.692 246.27 142.446 247Z" fill="#13448C"/>
<path d="M171.562 152.891C171.562 152.891 208.573 170.136 209.557 182.091C210.431 192.724 155.881 241.369 155.881 241.369L147.259 237.8L177.111 189.442C177.111 189.442 145.483 173.779 137.753 154.916L171.562 152.891Z" fill="#13448C"/>
<path d="M195.156 178.947C197.668 183.802 199.509 190.579 200.797 196.728C196.61 201.73 191.319 207.352 185.862 212.891C189.902 196.867 193.481 180.806 192.239 178.503C189.874 174.111 174.193 162.452 163.114 156.645C163.105 156.645 189.331 167.694 195.156 178.947Z" fill="#09326D"/>
<path d="M168.212 250.154C168.451 250.089 168.709 250.098 168.967 250.219C172.206 251.735 174.157 251.43 177.589 250.071C177.791 249.987 178.031 249.941 178.297 249.932C177.847 249.701 175.804 248.545 175.666 246.557C175.5 244.319 175.776 242.461 175.776 242.461L169.555 242.294C169.555 242.304 168.543 247.223 168.212 250.154Z" fill="#FFB19E"/>
<path d="M168.083 258.513C169.353 258.846 187.352 258.642 191.539 258.698C192.055 258.707 192.441 258.245 192.349 257.736C192.202 256.95 180.23 249.026 177.589 250.071C174.157 251.43 172.206 251.744 168.967 250.219C168.286 249.895 167.503 250.348 167.448 251.097C167.255 253.76 167.062 258.245 168.083 258.513Z" fill="#13448C"/>
<path d="M121.548 154.667C121.548 154.667 118.447 175.73 137.238 181.056C152.053 185.263 167.927 187.399 167.927 187.399L166.786 247.177H176.669C176.669 247.177 194.806 183.256 192.239 178.495C189.322 173.085 166.252 156.673 156.387 153.714L121.548 154.667Z" fill="#1D54B5"/>
<path opacity="0.13" d="M167.927 187.408C167.927 187.408 152.044 185.263 137.238 181.065C118.447 175.73 121.548 154.676 121.548 154.676L133.18 154.362C136.676 161.916 148.041 180.612 175.601 182.628L169.362 247.195H166.795L167.927 187.408Z" fill="#0E367C"/>
<path d="M290.195 258.891L294.336 258.854L277.138 154.999L272.978 154.962L290.195 258.891Z" fill="white"/>
<path d="M119.837 258.854L115.438 258.891L136.759 153.807L141.13 153.844L119.837 258.854Z" fill="white"/>
<path d="M274.11 160.723L272.978 154.962L277.138 154.999L278.26 160.723H274.11Z" fill="#E4EDF7"/>
<path d="M135.361 160.723L136.759 153.807L141.13 153.844L139.741 160.723H135.361Z" fill="#E4EDF7"/>
<path d="M111.674 150.968H298.183C299.342 150.968 300.281 151.911 300.281 153.076C300.281 154.241 299.342 155.184 298.183 155.184H111.674C110.515 155.184 109.576 154.241 109.576 153.076C109.576 151.92 110.515 150.968 111.674 150.968Z" fill="white"/>
<path d="M245.703 58.6988C245.114 59.1981 244.222 58.6803 244.36 57.9128L250.212 23.9602C250.378 22.8322 251.335 22 252.467 22L291.272 22.4253C292.662 22.4253 293.72 23.6643 293.527 25.0421L289.358 49.3045C289.192 50.4233 288.235 51.2647 287.104 51.2647L257.224 50.9318C255.798 50.9134 254.418 51.4127 253.323 52.3188L245.703 58.6988Z" fill="#F95858"/>
<path d="M257.786 32.1895H284.288C284.748 32.1895 285.088 32.5963 285.015 33.0494L284.886 33.8261C284.831 34.1867 284.518 34.4548 284.159 34.4548H257.657C257.197 34.4548 256.856 34.048 256.93 33.5949L257.059 32.8182C257.105 32.4576 257.417 32.1895 257.786 32.1895Z" fill="white"/>
<path d="M256.893 39.2632H283.395C283.855 39.2632 284.196 39.67 284.122 40.1231L283.993 40.8998C283.938 41.2604 283.625 41.5285 283.266 41.5285H256.764C256.304 41.5285 255.964 41.1217 256.037 40.6686L256.166 39.8919C256.221 39.5221 256.525 39.2632 256.893 39.2632Z" fill="white"/>
</g>
<defs>
<clipPath id="clip0">
<rect width="284.281" height="236.901" transform="matrix(-1 0 0 1 300.281 22)" fill="white"/>
</clipPath>
</defs>
</svg>
