<svg xmlns="http://www.w3.org/2000/svg" viewBox="0 0 1117.2 476.18"><defs><style>.cls-1{fill:#000091;}.cls-2{fill:#e1000f;}.cls-3{fill:#9d9d9c;}</style></defs><g id="Calque_2" data-name="Calque 2"><g id="vect"><path d="M9.29,171.63c3.79,4.87,8.85,7.76,14,7.76s8.12-2.71,8.12-7.31c0-11.28-28.87-8.75-28.87-29.78,0-10,8.21-18.31,20.21-18.31,9.47,0,16.78,4.24,22.1,10.64L35.46,143c-3.7-4.78-7.85-7.85-12.63-7.85-4.42,0-7.31,2.89-7.31,6.59,0,11.28,28.87,8.66,28.87,30.05-.18,11.73-9.38,18.94-20.93,18.94-10.65,0-17.87-3.88-23.46-10.55Z"/><path d="M57.84,125.79H94.65v10.92h-24v14.62H91v10.91H70.65V178h24V189H57.84Z"/><path d="M152.76,170.09l10.1,7.76c-5.77,7.85-15.16,12.9-26.62,12.9-19.93,0-33.56-15.33-33.56-33.38S116.31,124,136.24,124c11.46,0,20.85,5.14,26.62,12.81l-10.1,7.85A19.77,19.77,0,0,0,136.24,136c-11.91,0-20.39,9.29-20.39,21.38s8.48,21.38,20.39,21.38A19.77,19.77,0,0,0,152.76,170.09Z"/><path d="M174,125.79h19.31c13.89,0,22.46,7.13,22.46,18.86,0,7.58-3.69,13.26-10.1,16.33l19.85,28H210.14l-16.78-25.53h-6.59V189H174Zm12.81,10.92V152.5H194c5.41,0,8.57-2.89,8.57-8,0-4.78-3.16-7.76-8.57-7.76Z"/><path d="M233.42,125.79h36.81v10.92h-24v14.62h20.39v10.91H246.23V178h24V189H233.42Zm12.45-5.41,10.2-12.18h13.17l-11.73,12.18Z"/><path d="M280,125.79h51.79v11.64H312.28V189H299.47V137.43H280Z"/><path d="M353,125.79h16.79L393.67,189H380l-6-16.42H348.73l-6,16.42H329.06ZM370,161.61l-8.67-23.73-8.66,23.73Z"/><path d="M403.41,125.79h19.31c13.89,0,22.47,7.13,22.47,18.86,0,7.58-3.7,13.26-10.11,16.33l19.85,28H439.59l-16.78-25.53h-6.59V189H403.41Zm12.81,10.92V152.5h7.22c5.41,0,8.57-2.89,8.57-8,0-4.78-3.16-7.76-8.57-7.76Z"/><path d="M462.87,125.79h12.81V189H462.87Z"/><path d="M509.34,125.79h16.78L550,189H536.4l-6-16.42H505.1L499.05,189H485.43Zm17.05,35.82-8.66-23.73-8.66,23.73Z"/><path d="M547,125.79h51.79v11.64H579.26V189H566.45V137.43H547Z"/><path d="M633.49,125.79H658.3c20,0,33.57,14.53,33.57,31.58S678.33,189,658.3,189H633.49Zm12.81,11.64v39.88h12.18c11.73,0,20.21-8.75,20.21-19.94s-8.48-19.94-20.21-19.94Z"/><path d="M699.9,151.78l-1.44-26h12.81l-1.36,26Z"/><path d="M725.43,125.79h36.82v10.92h-24v14.62h20.39v10.91H738.25V178h24V189H725.43Zm12.45-5.41,10.2-12.18h13.17l-11.73,12.18Z"/><path d="M772,125.79h51.79v11.64H804.29V189H791.48V137.43H772Z"/><path d="M845,125.79h16.78L885.68,189H872.05l-6-16.42H840.75l-6,16.42H821.08Zm17,35.82-8.66-23.73-8.67,23.73Z"/><path d="M882.61,125.79H934.4v11.64H914.91V189H902.1V137.43H882.61Z"/><path d="M50.35,261.16l10.1,7.76c-5.77,7.85-15.16,12.9-26.62,12.9C13.9,281.82.27,266.49.27,248.44s13.63-33.38,33.56-33.38c11.46,0,20.85,5.14,26.62,12.81l-10.1,7.85a19.77,19.77,0,0,0-16.52-8.66c-11.91,0-20.39,9.29-20.39,21.38s8.48,21.38,20.39,21.38A19.74,19.74,0,0,0,50.35,261.16Z"/><path d="M71.55,216.86H84.36V242h31.85V216.86H129V280H116.21V253.67H84.36V280H71.55Z"/><path d="M162.68,216.86h16.78L203.37,280H189.75L183.7,263.6H158.44L152.39,280H138.77Zm17,35.82L171.07,229l-8.66,23.73Z"/><path d="M213.12,216.86h19.31c13.89,0,22.46,7.13,22.46,18.86,0,7.58-3.7,13.26-10.1,16.33l19.85,28H249.3l-16.78-25.53h-6.59V280H213.12Zm12.81,10.92v15.79h7.22c5.41,0,8.57-2.89,8.57-8,0-4.78-3.16-7.76-8.57-7.76Z"/><path d="M315.71,264.32V253.67H299.65V242h28.87v26.89c-5.87,7.85-15.7,12.9-27.52,12.9-20.48,0-34.47-15.33-34.47-33.38s13.63-33.38,33.57-33.38c11.46,0,20.84,5.14,26.61,12.81l-10.1,7.85a19.75,19.75,0,0,0-16.51-8.66c-11.91,0-20.39,9.29-20.39,21.38s8.93,21.38,21.29,21.38A21.1,21.1,0,0,0,315.71,264.32Z"/><path d="M342.78,216.86h36.81v10.92h-24V242.4H376v10.91H355.59V269.1h24V280H342.78Zm12.45-5.41,10.19-12.18H378.6l-11.73,12.18Z"/><path d="M417.94,216.86h24.81c20,0,33.56,14.53,33.56,31.58S462.78,280,442.75,280H417.94Zm12.81,11.64v39.88h12.18c11.73,0,20.21-8.75,20.21-19.94s-8.48-19.94-20.21-19.94Z"/><path d="M525.94,216.86h12.81V255.3c0,16.6-9.75,26.52-25.63,26.52s-25.53-9.92-25.53-26.52V216.86H500.4v39.52c0,8.48,4.79,13.44,12.82,13.44,7.85,0,12.72-5,12.72-13.44Z"/><path d="M578.09,216.86h16.42l28.24,45.21V216.86h12.81V280H619.14L590.9,234.64V280H578.09Z"/><path d="M689.79,216.86H702.6V255.3c0,16.6-9.74,26.52-25.62,26.52s-25.54-9.92-25.54-26.52V216.86h12.82v39.52c0,8.48,4.78,13.44,12.81,13.44,7.85,0,12.72-5,12.72-13.44Z"/><path d="M718.48,216.86h16.15l15.25,26,15.25-26h16.15V280H768.47V235.09l-14.08,23.28h-9l-14.08-23.28V280H718.48Z"/><path d="M798.88,216.86h36.81v10.92h-24V242.4h20.39v10.91H811.69V269.1h24V280H798.88Zm12.45-5.41,10.19-12.18H834.7L823,211.45Z"/><path d="M850.58,216.86h19.3c13.9,0,22.47,7.13,22.47,18.86,0,7.58-3.7,13.26-10.1,16.33l19.85,28H886.76L870,254.49h-6.58V280H850.58Zm12.81,10.92v15.79h7.22c5.41,0,8.57-2.89,8.57-8,0-4.78-3.16-7.76-8.57-7.76Z"/><path d="M910,216.86h12.81V280H910Z"/><path d="M1006.76,284.44a13.14,13.14,0,0,0,4.51-.72v10.83a16.7,16.7,0,0,1-6.68,1.17c-7,0-13.53-2.89-19.76-8.3l-7.48-6.68a33.65,33.65,0,0,1-8.67,1.08c-19.94,0-33.56-15.33-33.56-33.38s13.62-33.38,33.56-33.38,33.48,15.34,33.48,33.38a33.49,33.49,0,0,1-12.45,26.35l3.79,3.61C998.37,282.82,1002.7,284.44,1006.76,284.44Zm-17.78-36c0-12.09-8.48-21.38-20.3-21.38s-20.39,9.29-20.39,21.38,8.48,21.38,20.39,21.38S989,260.53,989,248.44Z"/><path d="M1051.69,216.86h12.82V255.3c0,16.6-9.75,26.52-25.63,26.52s-25.53-9.92-25.53-26.52V216.86h12.81v39.52c0,8.48,4.78,13.44,12.81,13.44,7.85,0,12.72-5,12.72-13.44Z"/><path d="M1080.39,216.86h36.81v10.92h-24V242.4h20.39v10.91H1093.2V269.1h24V280h-36.81Z"/><path d="M211.2,454.41c1.71,0,3.19,1.3,2.41,4.59l-8,1.85c1.39-3.7,3.71-6.44,5.56-6.44m4.4,12.83H214c-2,2.36-4.12,4.21-6.25,4.21s-3.29-1.29-3.29-4.21a17.58,17.58,0,0,1,.37-3.52l12.83-4.21c2.5-5.93-.51-8.52-4-8.52-6.06,0-13,10.14-13,19,0,4,1.89,6.16,4.86,6.16,3.47,0,7.08-3.38,10-8.94m-2.55-18.61,9-8.43v-1h-4.86l-5.56,9.4Zm-27.69,5.92h4.26L182.86,473c-.6,1.57.23,3.15,1.85,3.15,3.84,0,10-3.8,12.23-9h-1.21c-1.71,1.81-5,4.22-7.82,4.73l6.2-17.37h6.35l.78-2.64h-6.16l2.37-6.66H195l-4.4,6.66-5.23.74Zm-5.74-.88a1.9,1.9,0,0,0-1.53-2.68c-3.71,0-8.1,3.33-9.86,8h1.2c1.2-1.71,3.24-3.61,5.14-3.94l-7.08,18.43a1.84,1.84,0,0,0,1.52,2.69c3.52,0,7.64-3.38,9.4-8h-1.2c-1.2,1.71-3.24,3.61-5.14,3.93Zm1.29-9.26a3.05,3.05,0,0,0,3.06-3.05,3.09,3.09,0,0,0-3.06-3.06,3.05,3.05,0,0,0-3,3.06,3,3,0,0,0,3,3.05m-40.79,28.34c-.93,2.09,0,3.43,2.08,3.43a2.07,2.07,0,0,0,2.32-1.67l4.91-13c2.27-2.78,6.94-5.74,8.79-5.74,1.35,0,1.16,1.11.28,2.78L151,473a2.13,2.13,0,0,0,1.86,3.15c3.7,0,8.1-3.34,9.86-8h-1.2c-1.21,1.71-3.25,3.61-5.14,3.93l6.48-13.1a10.56,10.56,0,0,0,1.25-4.49,3.19,3.19,0,0,0-3.43-3.52c-3.19,0-6.43,3.61-10.28,8.05v-3.42c0-2.46-.79-4.63-3-4.63-1.39,0-2.73,1.2-4,2.91v.47c2.41-.14,3.47,3.47,1.76,7.27ZM140,456.64c.88-3,.41-5.65-1.9-5.65-2.73,0-3.43,2.08-6.21,8.05v-3.42c0-2.46-.78-4.63-3-4.63-2.59,0-5,4-6.76,8h1.21c1.25-1.81,2.4-2.87,3.33-2.87,1.11,0,1.71,1.71,0,5.51l-5,11.11c-.93,2.09,0,3.43,2.08,3.43a2.07,2.07,0,0,0,2.32-1.67l4.91-13c1.39-1.71,2.64-3.2,4.21-4.86Zm-28.44-2.23c1.72,0,3.2,1.3,2.41,4.59l-8,1.85c1.39-3.7,3.7-6.44,5.55-6.44m4.4,12.83h-1.57c-2,2.36-4.12,4.21-6.25,4.21s-3.29-1.29-3.29-4.21a17.58,17.58,0,0,1,.37-3.52l12.83-4.21c2.5-5.93-.51-8.52-4-8.52-6.07,0-13,10.14-13,19,0,4,1.9,6.16,4.86,6.16,3.48,0,7.09-3.38,10-8.94M85.75,454.55H90L83.25,473c-.6,1.57.24,3.15,1.86,3.15,3.84,0,10-3.8,12.22-9h-1.2c-1.72,1.81-5,4.22-7.83,4.73l6.21-17.37h6.34l.79-2.64H95.48l2.36-6.66H95.39L91,451.91l-5.24.74ZM62.37,469c0-5.69,6.34-13.42,9.91-13.42a8.24,8.24,0,0,1,2.18.27l-3.71,9.87c-2.13,2.59-5.42,5.74-6.94,5.74-.88,0-1.44-.74-1.44-2.46m19.5-19-2-.14-2.18,2.13h-.46c-10.56,0-19.68,11.86-19.68,20.47a3.51,3.51,0,0,0,3.8,3.8c2.73,0,5.42-3.89,8.43-8.06l-.14,1.48c-.37,4.26.92,6.58,3.15,6.58,2.59,0,5-4,6.76-8H78.39C77.14,470,76,471,75.06,471s-1.67-1.76,0-5.51Zm-22.51,6.72c.88-3,.42-5.65-1.9-5.65-2.73,0-3.42,2.08-6.2,8.05v-3.42c0-2.46-.79-4.63-3-4.63-2.6,0-5,4-6.76,8h1.2c1.25-1.81,2.41-2.87,3.33-2.87,1.12,0,1.72,1.71,0,5.51l-5,11.11c-.92,2.09,0,3.43,2.09,3.43,1.25,0,1.8-.33,2.31-1.67l4.91-13c1.39-1.71,2.64-3.2,4.21-4.86ZM23.89,475.25l.46-1.43c-6.16-1.16-6.94-1.16-4.49-7.88l2.5-6.9h6.81c3.06,0,3.1,1.25,2.64,4.59h1.76l4.07-11.16H35.88c-1.52,2.64-2.73,4.58-6.06,4.58H23.1l3.57-9.77c1.11-3.1,1.76-3.75,5.93-3.75h3c4.31,0,4.82,1.16,4.82,5.51h1.71l1.43-7.59H18l-.46,1.43c4.95,1,5.42,1.49,3.1,7.88l-5.55,15.18c-2.32,6.35-3.29,6.86-9,7.88l-.41,1.43Z"/><path d="M149.19,396.53c1.72,0,3.2,1.3,2.41,4.58l-8,1.86c1.39-3.71,3.7-6.44,5.55-6.44m4.4,12.83H152c-2,2.36-4.12,4.21-6.25,4.21s-3.29-1.3-3.29-4.21a17.5,17.5,0,0,1,.37-3.52l12.83-4.22c2.5-5.92-.51-8.52-4-8.52-6.07,0-13,10.14-13,19,0,4,1.9,6.15,4.87,6.15,3.47,0,7.08-3.38,10-8.93m-2.54-18.62,9-8.43v-1h-4.87l-5.55,9.4Zm-27.69,5.93h4.26l-6.76,18.48c-.61,1.57.23,3.14,1.85,3.14,3.84,0,10-3.79,12.22-9h-1.2c-1.71,1.81-5,4.21-7.83,4.72l6.21-17.36h6.34l.79-2.64h-6.16l2.36-6.67H133l-4.4,6.67-5.23.74Zm-5.75-.88a1.9,1.9,0,0,0-1.52-2.69c-3.71,0-8.11,3.34-9.87,8h1.21c1.2-1.71,3.24-3.61,5.14-3.93l-7.09,18.43a1.84,1.84,0,0,0,1.53,2.68c3.52,0,7.64-3.38,9.4-8h-1.2c-1.21,1.72-3.25,3.62-5.14,3.94Zm1.3-9.26a3.06,3.06,0,1,0-3.06-3.06,3.05,3.05,0,0,0,3.06,3.06M94.28,414.22l12.92-33.85-.42-.51-8.11.93v1l1.58,1.2c1.43,1.11,1,2.18-.32,5.61l-10.1,26.58a2.12,2.12,0,0,0,1.85,3.14c3.71,0,7.64-3.33,9.4-8h-1.2a10.45,10.45,0,0,1-5.6,3.94m-24.55-3.15c0-5.7,6.35-13.43,9.91-13.43a7.83,7.83,0,0,1,2.18.28l-3.7,9.86c-2.14,2.6-5.42,5.74-7,5.74-.88,0-1.44-.74-1.44-2.45m19.5-19-2-.14L85.11,394h-.47C74.09,394,65,405.88,65,414.5a3.5,3.5,0,0,0,3.8,3.79c2.73,0,5.42-3.89,8.43-8.05l-.14,1.48c-.37,4.26.93,6.57,3.15,6.57,2.59,0,5-4,6.76-8h-1.2c-1.25,1.81-2.41,2.87-3.34,2.87s-1.67-1.76,0-5.51ZM42.09,422.79c0-2.46,2.36-4,5.74-5.33a41.23,41.23,0,0,0,5,1.9c3.52,1.16,4.86,1.62,4.86,2.69,0,2.26-3.84,4-9.07,4-4.4,0-6.53-.93-6.53-3.24m9.58-15c-1.52,0-2.13-1.3-2.13-2.78,0-4.12,2.23-10.19,5.7-10.19,1.53,0,2.13,1.3,2.13,2.78,0,4.12-2.22,10.19-5.7,10.19m10,12.69c0-3-2.64-4-6.94-5.33-3.71-1.11-5.37-1.43-5.37-2.64,0-1,.78-2.13,2.36-3a10.81,10.81,0,0,0,10-10.37,6.3,6.3,0,0,0-.51-2.55H66.4l.79-2.64H59a6.34,6.34,0,0,0-3.29-.93,10.73,10.73,0,0,0-10.6,10.24,6,6,0,0,0,4.9,6.16c-3,1.34-4.67,2.91-4.67,4.77a2.92,2.92,0,0,0,1.25,2.5c-7,2-9.68,4.35-9.68,7.64S41.16,429,46.16,429c8.48,0,15.56-4.59,15.56-8.43M29.35,400.7c3.06,0,3.11,1.25,2.64,4.58h1.76l4.08-11.16H36.07c-1.53,2.64-2.73,4.59-6.07,4.59H23.29l3.38-9.31c1.11-3.1,1.76-3.71,5.93-3.71h3c4.31,0,4.82,1.16,4.82,5.47h1.71l1.43-7.6H18L17.5,385c4.95,1,5.42,1.48,3.1,7.87l-5.55,15.19c-2.32,6.34-3.29,6.85-9,7.87l-.41,1.44H34.08l5.09-8.06H37.23c-3.24,3.06-7.32,6-13,6-7.54,0-6.85-.32-4.35-7.22l2.69-7.36Zm3.71-19.4,9-6.21v-1H36.62l-5,7.18Z"/><path d="M146.18,338.65c1.72,0,3.2,1.29,2.41,4.58l-8,1.85c1.39-3.7,3.7-6.43,5.55-6.43m4.4,12.82H149c-2,2.37-4.12,4.22-6.25,4.22s-3.29-1.3-3.29-4.22a17.65,17.65,0,0,1,.37-3.52l12.83-4.21c2.5-5.93-.51-8.52-4-8.52-6.07,0-13,10.14-13,19,0,4,1.9,6.16,4.86,6.16,3.48,0,7.09-3.38,10.05-8.94M148,332.86l9-8.43v-1H152.2l-5.55,9.4Zm-26.54,5.93h3.38l-6.76,18.47c-.6,1.58.23,3.15,1.85,3.15,3.85,0,10.05-3.8,12.23-9H131c-1.72,1.8-5,4.21-7.83,4.72l6.21-17.36h6.34l.79-2.64h-6.16l2.36-6.67h-2.46l-4.39,6.67-4.36.74Zm-3.33,2.08c.88-3,.42-5.65-1.9-5.65-2.73,0-3.43,2.08-6.2,8.06v-3.43c0-2.45-.79-4.63-3-4.63-2.6,0-5,4-6.77,8h1.21c1.25-1.8,2.41-2.87,3.33-2.87,1.11,0,1.72,1.71,0,5.51l-5,11.11c-.92,2.09,0,3.43,2.09,3.43,1.25,0,1.8-.32,2.31-1.67l4.91-13c1.39-1.71,2.64-3.19,4.21-4.86Zm-28.43-2.22c1.71,0,3.19,1.29,2.4,4.58l-8,1.85c1.39-3.7,3.7-6.43,5.56-6.43m4.4,12.82H92.56c-2,2.37-4.12,4.22-6.25,4.22S83,354.39,83,351.47a17.65,17.65,0,0,1,.37-3.52l12.83-4.21c2.5-5.93-.51-8.52-4-8.52-6.07,0-13,10.14-13,19,0,4,1.89,6.16,4.86,6.16,3.47,0,7.08-3.38,10-8.94m-31.45,5.19c-1.25,0-3-1.16-3-2.18a25,25,0,0,1,1.25-3.56L63,345.41c2.22-2.64,5.61-5.47,7.5-5.47,1.16,0,2,.74,2,2.46,0,5-4.72,14.26-9.82,14.26m14.59-16.3c0-3.75-1.39-5.14-4-5.14-3.24,0-6.3,3.43-9.36,7.59l7.74-20.32-.42-.51-8.1.92v1l1.57,1.21c1.44,1.11,1,2.27-.32,5.6l-8.34,21.49a24.31,24.31,0,0,0-1.34,3.93c0,2.23,3,4.31,5.74,4.31,6.3,0,16.81-11.34,16.81-20.05m-25.19-2.45a1.9,1.9,0,0,0-1.53-2.69c-3.7,0-8.1,3.33-9.86,8h1.2c1.21-1.71,3.24-3.61,5.14-3.94L40,357.73a1.84,1.84,0,0,0,1.53,2.68c3.52,0,7.64-3.38,9.4-8H49.68c-1.2,1.71-3.24,3.61-5.14,3.94Zm1.3-9.27a3,3,0,0,0,3-3.05,3.06,3.06,0,1,0-6.11,0,3,3,0,0,0,3.06,3.05m-18.66-3H17.87l-.46,1.44c4.95,1,5.42,1.48,3.1,7.87l-5.46,15.19c-2.32,6.34-3.29,6.85-9,7.87l-.41,1.43H31.3l5.56-9.9h-2c-3.15,3.47-6.85,7.82-12.55,7.82-4.3,0-4.81-.74-2.5-7.22L25.33,335c2.26-6.35,3.28-6.86,9-7.87Z"/><path class="cls-1" d="M100.81,74c.9-.9,1.81-1.86,2.71-2.83h0a51.83,51.83,0,0,1,5.29-5.4,17.61,17.61,0,0,1,1.72-1.38c.16-.15.16-.47.32-.63-.8.32-1.27,1-2.06,1.27-.16,0-.32-.16-.16-.32l1.69-1.27h-.11c-.16,0-.16-.15-.16-.31-2.06-.32-3.64,1.11-5.07,2.37-.31.16-.63-.15-.79-.15-2.38.79-4.12,2.85-6.5,3.8V68.8a30,30,0,0,1-2.85,1.11,16.75,16.75,0,0,1-4,.16,50.45,50.45,0,0,0-5.76,1l-.17,0a12.93,12.93,0,0,0-3,1.19l-.11.06-.23.27a3.79,3.79,0,0,1-1.09,1,16.55,16.55,0,0,0-2.63,2.06.39.39,0,0,1-.25.08c-.85.82-1.69,1.64-2.55,2.44a.78.78,0,0,1-.49.06h0l.09-.15c.13-.23.27-.45.41-.67s.31-.49.47-.74.43-.65.67-1a.15.15,0,0,0,0-.21.3.3,0,0,0-.21-.08,15.43,15.43,0,0,1,2.65-2v0c-.1,0-.25,0-.17-.15s.17-.29.27-.44,0-.09.05-.14l-.12-.12a5,5,0,0,0-.75.52c-.37.34-.67,1-1.25,1l-.24,0a.3.3,0,0,1-.16-.06l0,0,0,0,0,0,.08-.14.07-.13a1.05,1.05,0,0,1,.07-.11,1.28,1.28,0,0,1,.11-.2,1.09,1.09,0,0,1,.08-.15l.21-.35.09-.17.17-.28c.08-.14,0-.24-.12-.29a3.65,3.65,0,0,1,1.09-.94h-.05c.61-.31,1.21-.68,1.82-1l.26-.23a11.17,11.17,0,0,0-2.52,1.25,1.16,1.16,0,0,0-.27.14.38.38,0,0,1-.39-.14.21.21,0,0,1,0-.12c.16-.32.63-.48,1-.79.16,0,.32,0,.32.16,5.07-4,12-3,17.91-5.07l1.42-1c.79-.31,1.43-1.1,2.38-1.58a6.89,6.89,0,0,0,2.69-3.65.57.57,0,0,0-.15-.31,24.38,24.38,0,0,1-7,5.23c-3.33,1.74-7,1.42-10.46,1.9.16-.32.48-.32.8-.32,0-.47.31-.63.63-.95h.47c.16,0,.16-.32.32-.32.32,0,.79-.15.64-.15-.48-.64-1.43.47-2.22,0,.31-.32.16-.8.47-.95h.64a1.13,1.13,0,0,1,.31-.64c2.38-1.43,4.6-2.53,6.82-3.8-.48,0-.79.47-1.27.16.32,0,0-.48.32-.48,1.74-.47,3.17-1.43,4.91-2.06-.63,0-1.11.48-1.74,0,.31-.16.47-.47,1-.47v-.48c0-.16.16-.16.31-.16a.56.56,0,0,1-.31-.16c.16-.31.63-.16,1-.47-.16,0-.48,0-.48-.16a3.18,3.18,0,0,1,2.06-.95c-.16-.32-.63,0-.63-.32,0-.16.16-.16.32-.16H99.1c-.32-.16-.16-.47-.16-.63,1-1.11,1-2.54,1.43-3.8-.16,0-.32,0-.32-.16-1.59,1.74-4.12,2.37-6.5,3h-.79a3.25,3.25,0,0,1-2.69-.16,10.53,10.53,0,0,1-1.59-1.27,18.51,18.51,0,0,0-4-1.9,35.47,35.47,0,0,0-12.2-1.74c1.74-1,3.66-1,5.54-1.59,2.7-.79,5.23-1.74,8.09-1.58a5.3,5.3,0,0,0-1.59,0c-2.22-.16-4.44.47-6.81,1-1.59.31-3,.95-4.6,1.27-1,.31-1.43,1.26-2.54,1.11v-.48c1.59-1.9,3.49-3.8,6-4,2.85-.48,5.54,0,8.4.31a41,41,0,0,1,6,1.11c.79,0,1,1.27,1.58,1.43,1,.32,1.9,0,2.86.63,0-.31-.16-.63,0-.95.63-.63,1.42.16,2.06-.16,1.26-.79-1.11-2.21-1.75-3.32a.56.56,0,0,1,.16-.32C97,42,98,43.29,99.57,44.08c.8.32,2.7.79,2.38-.16-.79-1.74-2.38-3.17-3.64-4.75v-.64c-.32,0-.32-.16-.48-.31v-.64c-.63-.32-.47-.95-.79-1.42-.48-.8-.16-1.91-.48-2.86a17.45,17.45,0,0,1-.63-2.69c-.48-2.7-1.11-5.07-1.43-7.61-.31-3,1.75-5.39,3.17-8.08a13.61,13.61,0,0,1,4.44-5.07,13.91,13.91,0,0,1,3-5.07A13.22,13.22,0,0,1,110,1.61,43.06,43.06,0,0,1,114.22,0H5.46V83.86h77c3-2.17,6-3.2,10.24-5.28C94.72,77.6,99.27,75.52,100.81,74ZM76.44,62.62c-.32,0-1,.16-.8-.16.16-.79,1.27-.79,1.91-1.11.31-.16.79-.47,1.11-.31.31.47.79.31,1.1.63C78.81,62.62,77.55,62.15,76.44,62.62ZM52.19,59.13a.52.52,0,0,1-.16-.31,48.88,48.88,0,0,0,5.07-8.08,22,22,0,0,0,5.39-4.44,30.72,30.72,0,0,1,8.88-7,6.15,6.15,0,0,1,4.12.15c-.48.64-1.27.48-1.91,1a.6.6,0,0,1-.47-.15.59.59,0,0,0,.16-.48c-1.59,1.74-3.81,2.54-5.07,4.6-1,1.58-1.59,3.64-3.65,4.12-.63.16.16-.48-.16-.32C59.48,51.21,56,54.86,52.19,59.13ZM65.34,48.68c-.16.31-.33.35-.47.63a1.23,1.23,0,0,1-.64.63c-.15,0-.31,0-.31-.16a1.93,1.93,0,0,1,1.26-1.42C65.34,48.36,65.34,48.52,65.34,48.68ZM72.7,72.42a1.39,1.39,0,0,1-.39.46c.2,0,.34.13.21.25a3.54,3.54,0,0,1-1.2.83.81.81,0,0,1-.24,0l-.59.55c-.19.17-1.06,0-.8-.19.41-.35.78-.74,1.17-1.1a7.89,7.89,0,0,0,.66-.63,1.94,1.94,0,0,1,.34-.36C72,72.18,72.83,72.11,72.7,72.42Zm-2.84-1.31,0,0c-.59.42-1.18.84-1.81,1.2a22.5,22.5,0,0,1-2.09,1,.08.08,0,0,0,0,0,.2.2,0,0,0-.26-.06A7.57,7.57,0,0,0,64,74.48c-.07.07-.15.14-.22.22h0l-.23.22,0,0s0,0,0,0a4.26,4.26,0,0,0-.34.37,1.1,1.1,0,0,1-.21.22c-.1.06-.37.06-.35-.12v0a2.44,2.44,0,0,1-.28.14,2,2,0,0,0-.25.14.18.18,0,0,0-.1,0,.17.17,0,0,0-.12,0q-.29.22-.57.48a8.53,8.53,0,0,0-.92,1l0,0,0,0,0,.06a.18.18,0,0,0,0,.07l0,0-.11.15h0a.4.4,0,0,1-.13.07.86.86,0,0,0-.07-.1.59.59,0,0,1,0-.08l-.14-.25h0s0,0,0-.08c.17-.18.34-.37.5-.57l0,0c.06-.06.11-.13.17-.2l.26-.34.1-.12c.17-.23.34-.45.49-.67l0,0,.06-.1c.08-.11.15-.23.22-.34a3.24,3.24,0,0,0,.17-.32l0,0v0l0-.06a2.87,2.87,0,0,0,.15-.37v0a.49.49,0,0,0,0-.11c0-.05,0-.11.05-.17h0v0a1.89,1.89,0,0,0,.05-.23.13.13,0,0,0,0-.11,5.56,5.56,0,0,1,.63-.86l-.07.05c-.23.14-.38.35-.59.5s-.49-.08-.28-.23l.36-.33a0,0,0,0,1,0,0,8.75,8.75,0,0,1,.81-.8l.49-.37.07-.07c.11-.14.23-.27.35-.4h0c1.52-1.47,4.07-1.4,6.07-2.33.79-.32,1.74.15,2.53,0a2.39,2.39,0,0,1,1.43.31C72.48,69.42,71.16,70.3,69.86,71.11Zm3.25-11c-.16-.16.47,0,.63-.32H72.47c-.15,0-.15-.16-.15-.32-.8.16-1.75.48-2.54.64-1.11.31-2.06,1.1-3.33,1.42-1.74.64-3.17,2.06-5.07,2.7-.16,0-.16-.16-.16-.32.16-.48.8-.63,1.11-1.11,0-.16,0-.32-.16-.32,1.27-1.74,3-2.69,4.6-4.12v-.47c.47-.64,1.27-.95,1.58-1.75a2.87,2.87,0,0,1,1.59-1.42c-.16-.16-.48-.16-.48-.48-.63,0-1.26.32-1.9-.16a2.38,2.38,0,0,1,1-.56.55.55,0,0,1-.36-.23c-.16-.32.3-.67.79-.79s1.42-.16,1.9-.64c-1.11-.15-2.38.32-3.49-.31a8.48,8.48,0,0,1,4-4.76c.15,0,.47,0,.47.16a1.55,1.55,0,0,1-1.27,1.59,16.11,16.11,0,0,1,3.81.95c-.16.31-.48.16-.64.16.8.47,1.75.15,2.54.79-.48.47-1,0-1.43,0C79.76,51.84,85,53,89.11,56.12a43.21,43.21,0,0,1-10.93,3.33,3.47,3.47,0,0,1-1.27-.16c0,.16,0,.48-.16.48a2.57,2.57,0,0,0-1.58.32C74.54,60.4,73.58,60.56,73.11,60.09Z"/><path class="cls-2" d="M236.09,0H145.88a4,4,0,0,1,.85.4L149,1.61a7.55,7.55,0,0,1,3,2.53c.32.48.79,1.43.48,2.06-.32.8-.48,2.06-1.27,2.38a5.84,5.84,0,0,1-3.33.32,7.87,7.87,0,0,1-1.9-.32c2.37.95,4.59,2.06,6.18,4.28.16.32.79.48,1.42.48.16,0,.16.31.16.47-.31.32-.63.48-.47.95h.47c.8-.32.64-1.9,1.75-1.42a1.78,1.78,0,0,1,.63,2.37,16.68,16.68,0,0,1-1.9,1.59,1.34,1.34,0,0,0,0,1.11,4.91,4.91,0,0,1,.79,1.9c.48,1.11.63,2.38,1.11,3.48a22.44,22.44,0,0,1,1.11,7.14c0,1.26-.63,2.37-.16,3.64a13.55,13.55,0,0,0,1.74,3.33,24,24,0,0,1,1.75,2.53c.95,1.59,2.69,3.17,1.9,5.08-.48,1.11-2.22,1-3.33,1.58-.95.79-.16,2.06.32,2.85.79,1.43-.95,2.38-2.06,2.86.31.47,1,.31,1.11.63.16.79.95,1.27.47,2.06-.63.95-2.53,1.43-1.58,2.85.63,1.11.22,2.34-.16,3.49a3.89,3.89,0,0,1-2.85,2.38,6.54,6.54,0,0,1-3,.15,2.41,2.41,0,0,0-1-.31c-2.7-.32-5.39-1.11-8.09-1.11a9.61,9.61,0,0,0-2.22.63,14.36,14.36,0,0,0-1.91,1.7l0,0c-.12.13-.24.25-.35.38a2.43,2.43,0,0,0-.2.25l-.14.16a15.16,15.16,0,0,0-1.25,1.83.75.75,0,0,1-.07.12l-.12.22a15.29,15.29,0,0,0-1.2,2.91c-1.08,3.63-.6,6.74.15,7.5.21.21,5.23,1.76,8.73,3.31a29.59,29.59,0,0,1,3.74,1.89h88.59Z"/><path class="cls-3" d="M151.24,30.59c.64.16,1.59.16,1.59.48-.32,1.27-2.22,1.58-3.17,2.85h-.48c-.47.32-.32,1.11-.79,1.11a2.23,2.23,0,0,0-1.43.16,2.74,2.74,0,0,0,2.38,1,.71.71,0,0,1,.47.64.5.5,0,0,0,.32-.16c.16,0,.32,0,.32.16v.63c-.48.63-1.27.32-1.9.47a7,7,0,0,0,3.64,0c.95-.31,0-1.9.64-2.69-.32,0,0-.47-.32-.47.32-.32.63-.8,1-1a1.11,1.11,0,0,0,.95-.47c0-.32-.63-.48-.47-.79.95-.64,1.74-1.59,1.42-2.54-.16-.47-1.42-.47-2.22-.79a5.23,5.23,0,0,0-2.69.16,13.09,13.09,0,0,0-2.38.63,10.87,10.87,0,0,0-3,1.59,22.23,22.23,0,0,1,3.49-1A10.53,10.53,0,0,1,151.24,30.59Z"/></g></g></svg>