<svg width="177" height="31" viewBox="0 0 177 31" fill="none" xmlns="http://www.w3.org/2000/svg">
<path d="M0.191895 23.4569V4.13477H3.87661V10.3025C4.59846 9.62994 5.32345 9.15114 6.05159 8.86606C6.77815 8.58099 7.64311 8.43766 8.64489 8.43766C10.109 8.43766 11.4316 8.76999 12.6143 9.43464C13.7763 10.0769 14.7377 11.0294 15.3916 12.1862C16.0599 13.3564 16.3949 14.6652 16.3949 16.1126C16.3949 18.0798 15.7942 19.795 14.5926 21.2597C13.1836 22.9544 11.2869 23.8018 8.9028 23.8018C7.7642 23.8018 6.78916 23.6348 5.9761 23.3041C5.16304 22.9718 4.35942 22.4048 3.56523 21.6047V23.4569H0.191895V23.4569ZM8.06301 11.6302C6.77972 11.6302 5.72605 12.057 4.89883 12.9075C4.07319 13.7596 3.65959 14.8448 3.65959 16.1646C3.65959 17.4671 4.0842 18.5334 4.93343 19.3634C5.78266 20.1935 6.87094 20.6093 8.19825 20.6093C9.51613 20.6093 10.5918 20.1982 11.4222 19.376C12.2541 18.5555 12.6693 17.4845 12.6693 16.1646C12.6693 14.8274 12.2415 13.7375 11.3892 12.8949C10.5352 12.0523 9.42649 11.6302 8.06301 11.6302V11.6302ZM35.2164 17.7601H23.3083C23.5347 18.6374 24.027 19.3319 24.785 19.8422C25.5446 20.3525 26.4693 20.6093 27.5623 20.6093C28.3219 20.6093 28.9541 20.5006 29.4589 20.2832C29.9653 20.0659 30.4575 19.6942 30.9356 19.165H34.96C34.743 19.8218 34.3373 20.4943 33.7397 21.1841C32.1513 22.9292 30.1194 23.8018 27.6441 23.8018C26.5245 23.8078 25.4132 23.6087 24.3651 23.2143C23.3904 22.8554 22.4919 22.3158 21.7168 21.6236C20.9765 20.9502 20.38 20.1337 19.9632 19.2233C19.5308 18.2981 19.3085 17.2885 19.3122 16.267C19.3122 14.87 19.6707 13.5863 20.3894 12.4161C21.1063 11.2473 22.1207 10.2906 23.3287 9.64411C24.583 8.96516 25.9888 8.61616 27.4145 8.62981C28.9226 8.62981 30.2814 8.96371 31.4923 9.63151C32.6783 10.2772 33.6609 11.2416 34.3294 12.4161C35.0119 13.6037 35.3532 14.9377 35.3532 16.4198C35.3532 16.897 35.3076 17.3443 35.2164 17.7601V17.7601ZM23.2013 14.6951H31.7219C31.4876 13.7675 31.0032 13.0571 30.272 12.5626C29.5407 12.0696 28.6065 11.8223 27.4679 11.8223C26.3655 11.8223 25.4518 12.0665 24.7252 12.5563C23.9971 13.0461 23.4891 13.7596 23.2013 14.6951V14.6951ZM39.4358 23.4569V12.1295H37.6335V8.96214H39.4358V4.13477H43.1205V8.96214H45.3427V12.1295H43.1205V23.4569H39.4358ZM63.9754 8.96214V23.4569H60.6021V21.5795C59.8614 22.3717 59.0955 22.9387 58.306 23.2836C57.515 23.6285 56.5792 23.8018 55.4941 23.8018C54.0143 23.8018 52.6838 23.4805 51.5059 22.8379C50.3511 22.2186 49.3932 21.2871 48.7412 20.1494C48.0775 18.9996 47.7457 17.705 47.7457 16.267C47.7457 14.8101 48.0807 13.5013 48.7475 12.3389C49.4059 11.1873 50.3728 10.243 51.5389 9.61261C52.731 8.95741 54.0772 8.62981 55.5759 8.62981C56.6878 8.62981 57.6439 8.81094 58.4476 9.17161C59.2527 9.53386 59.9699 10.1103 60.6021 10.9025V8.96214H63.9754V8.96214ZM55.9014 11.8223C54.6182 11.8223 53.5598 12.2476 52.7247 13.0997C51.8896 13.9502 51.4713 15.0322 51.4713 16.3426C51.4713 17.612 51.8928 18.6405 52.7373 19.428C53.5818 20.2155 54.6779 20.6093 56.0225 20.6093C57.3593 20.6093 58.4365 20.2092 59.2543 19.4075C60.0721 18.6074 60.481 17.5601 60.481 16.267C60.481 14.955 60.0532 13.8872 59.1993 13.0619C58.3469 12.235 57.2476 11.8223 55.9014 11.8223ZM70.3352 20.8408C70.137 20.8379 69.9403 20.8742 69.7561 20.9476C69.572 21.0211 69.4042 21.1303 69.2623 21.2688C69.1204 21.4074 69.0073 21.5727 68.9293 21.7552C68.8514 21.9377 68.8102 22.1338 68.8082 22.3323C68.8082 23.0899 69.5017 23.7451 70.3069 23.7451C71.1671 23.7451 71.889 23.1167 71.889 22.3323C71.889 21.5212 71.1671 20.8408 70.3352 20.8408V20.8408ZM88.5607 8.96214H92.0834V20.7116C92.0834 22.1496 91.9497 23.3435 91.6839 24.2932C91.4444 25.1929 91.0015 26.0255 90.3896 26.7266C88.9271 28.4039 86.837 29.2418 84.1179 29.2418C82.2386 29.2418 80.6093 28.8371 79.227 28.0291C77.8792 27.2583 76.8224 26.0644 76.2201 24.6318H80.4065C80.9474 25.1941 81.512 25.591 82.0986 25.8257C82.6868 26.0603 83.4086 26.1769 84.2673 26.1769C85.6402 26.1769 86.6829 25.7942 87.3969 25.0271C88.1093 24.2617 88.4977 23.0993 88.5607 21.5417C87.8388 22.3418 87.0871 22.9182 86.3055 23.271C85.5239 23.6254 84.5913 23.8018 83.5077 23.8018C82.0625 23.8018 80.765 23.4742 79.6138 22.8174C78.4766 22.1778 77.544 21.228 76.9246 20.0785C76.283 18.9083 75.9622 17.5868 75.9622 16.1126C75.9622 13.9675 76.6809 12.1846 78.1167 10.7624C79.5525 9.34014 81.3579 8.62981 83.5345 8.62981C85.7393 8.62981 87.4142 9.35274 88.5607 10.8002V8.96214V8.96214ZM83.9009 11.8223C82.6365 11.8223 81.619 12.2287 80.8468 13.0414C80.0746 13.8557 79.6878 14.9298 79.6878 16.267C79.6878 17.5868 80.0778 18.6405 80.8594 19.428C81.641 20.2155 82.6915 20.6093 84.0094 20.6093C85.3461 20.6093 86.4124 20.2108 87.2066 19.4138C88.0008 18.6185 88.3987 17.5522 88.3987 16.215C88.3987 14.9046 87.9851 13.8446 87.1594 13.0351C86.3322 12.2271 85.2471 11.8223 83.9009 11.8223V11.8223ZM103.984 8.62981C105.446 8.62981 106.802 8.97002 108.047 9.65199C109.26 10.2998 110.279 11.2579 111.001 12.4287C111.724 13.5989 112.084 14.87 112.084 16.2418C112.084 17.6026 111.721 18.8657 110.994 20.0281C110.263 21.1938 109.237 22.1452 108.021 22.7859C106.764 23.4636 105.357 23.813 103.93 23.8018C102.496 23.8135 101.082 23.4642 99.8177 22.7859C98.5974 22.1456 97.5672 21.1944 96.8312 20.0281C96.1085 18.8984 95.7273 17.5835 95.7335 16.2418C95.7335 15.2023 95.9474 14.2132 96.3767 13.2713C96.7896 12.353 97.384 11.5279 98.1239 10.8458C98.8944 10.1475 99.7883 9.59945 100.76 9.22989C101.787 8.82852 102.881 8.62493 103.984 8.62981V8.62981ZM103.834 11.8223C102.642 11.8223 101.615 12.2539 100.753 13.1186C99.89 13.9832 99.4591 15.0149 99.4591 16.215C99.4591 17.4246 99.8916 18.4594 100.76 19.3193C101.167 19.7359 101.654 20.065 102.192 20.2868C102.73 20.5086 103.308 20.6183 103.889 20.6093C105.118 20.6093 106.17 20.1809 107.046 19.3256C107.922 18.4688 108.359 17.4419 108.359 16.2418C108.359 14.9975 107.922 13.9502 107.046 13.0997C106.17 12.2476 105.099 11.8223 103.834 11.8223ZM129.35 8.96214V23.4569H125.936V22.0646C125.232 22.7024 124.552 23.1529 123.897 23.4112C123.242 23.6711 122.454 23.8018 121.533 23.8018C120.495 23.8018 119.564 23.6033 118.743 23.208C117.942 22.8291 117.254 22.2451 116.75 21.5149C116.352 20.926 116.068 20.268 115.911 19.5745C115.749 18.8673 115.667 17.9223 115.667 16.7395V8.96214H119.366V16.0496C119.366 17.0545 119.424 17.8388 119.542 18.4058C119.658 18.9713 119.858 19.417 120.138 19.7399C120.671 20.3195 121.383 20.6093 122.278 20.6093C122.92 20.6093 123.491 20.488 123.992 20.2454C124.493 20.0013 124.875 19.6595 125.137 19.217C125.335 18.8925 125.472 18.4736 125.549 17.9585C125.626 17.4435 125.664 16.7222 125.664 15.7945V8.96214H129.35V8.96214ZM138.5 23.4569L132.309 8.96214H136.413L139.963 18.5649L143.459 8.96214H147.631L141.439 23.4569H138.5V23.4569ZM149.575 20.8424C148.792 20.8424 148.139 21.496 148.139 22.3323C148.139 23.0899 148.792 23.7435 149.548 23.7435C150.358 23.7435 151.036 23.1167 151.036 22.3323C151.036 21.5212 150.358 20.8424 149.575 20.8424Z" fill="#373C42"/>
<path d="M154.472 10.0459H157.504L154.439 24.2571C153.64 27.9268 152.541 29.7617 151.108 29.7617C150.709 29.7617 150.441 29.5286 150.441 29.1947C150.441 29.0955 150.476 29.0278 150.575 28.8608C150.687 28.6932 150.745 28.4954 150.742 28.2938C150.741 28.1205 150.705 27.9492 150.637 27.7898C150.569 27.6303 150.471 27.4859 150.347 27.3649C150.223 27.2439 150.076 27.1487 149.916 27.0849C149.755 27.021 149.583 26.9897 149.41 26.9929C148.71 26.9929 148.177 27.6276 148.177 28.4277C148.177 29.5617 149.342 30.4626 150.808 30.4626C153.84 30.4626 156.205 27.1267 157.671 20.8882L160.168 10.0459H163.867L164.067 8.97802H160.436C161.434 3.64035 162.733 1.27155 164.6 1.27155C165.065 1.27155 165.333 1.4385 165.333 1.70467C165.333 1.7724 165.298 1.87162 165.199 2.03857C165.057 2.24382 164.987 2.49018 164.999 2.73945C164.999 3.53955 165.5 4.07347 166.232 4.07347C166.998 4.07347 167.663 3.44032 167.663 2.70637C167.663 1.47157 166.432 0.537598 164.767 0.537598C163.134 0.537598 161.801 1.27155 160.569 2.84025C159.569 4.17427 158.869 5.70832 157.838 8.97802H154.706L154.472 10.0459ZM166.232 23.457C168.064 17.6185 168.631 16.2514 170.162 13.6826C171.328 11.7799 172.26 10.7467 172.826 10.7467C173.061 10.7467 173.228 10.879 173.394 11.2129C173.66 11.7799 173.926 11.9469 174.593 11.9469C175.593 11.9469 176.159 11.3468 176.159 10.279C176.159 9.21112 175.525 8.5449 174.593 8.5449C173.827 8.5449 172.894 9.04417 172.028 9.97815C170.628 11.3799 169.23 13.4148 168.697 14.7158L168.197 15.9505L170.062 8.61105L169.963 8.5449C167.531 8.97802 167.165 9.04417 164.732 9.4458V10.0128C165.465 9.87892 165.599 9.84585 165.866 9.84585C166.599 9.84585 167.031 10.1797 167.031 10.7798C167.031 11.2129 166.764 12.5816 166.498 13.5817L163.667 23.457H166.232V23.457Z" fill="#373C42"/>
</svg>
