<svg width="121" height="89" viewBox="0 0 121 89" fill="none" xmlns="http://www.w3.org/2000/svg">
<g clip-path="url(#clip0)">
<path d="M10.6678 19.3267H7.3957V12.8384H6.8623V19.8258H10.6678V19.3267ZM14.7541 18.0491H18.2352L18.909 19.8258H19.4642L16.7785 12.8384H16.2201L13.5251 19.8258H14.0803L14.7541 18.0491ZM16.5009 13.4976L18.0605 17.5594H14.9537L16.5009 13.4976Z" fill="#283475"/>
<path d="M70.5176 9.48291L71.4315 13.6358L73.0972 13.7676C73.2867 14.0765 73.495 14.3732 73.7211 14.656L73.2688 16.2726L76.8216 18.5672L78.0943 17.4748C78.4421 17.5625 78.7954 17.6264 79.1517 17.6663L79.9409 19.1479L84.0677 18.2407L84.1987 16.5614C84.5066 16.3736 84.8005 16.1638 85.0784 15.9336L86.6879 16.3918L88.9681 12.8134L87.8826 11.5358C87.9692 11.1857 88.0327 10.8302 88.0729 10.4717L89.5233 9.65242L88.6188 5.49952L86.9531 5.36769C86.7654 5.05865 86.557 4.76289 86.3292 4.48249L86.7846 2.86277L83.2286 0.568159L81.956 1.66053C81.6092 1.57315 81.2569 1.50918 80.9017 1.46905L80.1062 0L75.9825 0.90717L75.8484 2.58653C75.5416 2.77579 75.2477 2.98553 74.9688 3.21433L73.3592 2.75604L71.0822 6.3345L72.1646 7.61207C72.0805 7.96258 72.018 8.31795 71.9774 8.67619L70.5176 9.48291ZM73.9269 9.88156L73.9488 9.31654C73.9711 8.75733 74.0698 8.20386 74.242 7.67171L74.4167 7.13494L73.5807 6.1493L74.2389 5.08831L75.4866 5.43988L75.8983 5.05693C76.3084 4.6811 76.7682 4.36419 77.2646 4.11523L77.7637 3.85783L77.8666 2.5677L79.0925 2.29775L79.7163 3.42779L80.2747 3.44976C80.8315 3.47165 81.3826 3.57095 81.9123 3.74482L82.4457 3.92061L83.422 3.0825L84.4764 3.7668L84.127 5.0224L84.5075 5.43674C84.8807 5.84853 85.1955 6.31012 85.4433 6.80849L85.6991 7.31073L86.978 7.41431L87.2494 8.64794L86.1233 9.27574L86.1015 9.84076C86.0809 10.4002 85.9822 10.9539 85.8083 11.4856L85.6367 12.0224L86.4696 13.008L85.7927 14.069L84.545 13.7174L84.1332 14.1004C83.7239 14.4757 83.2653 14.7926 82.7701 15.0421L82.271 15.2963L82.1681 16.5865L80.9422 16.8564L80.3183 15.7264L79.7569 15.7044C79.2011 15.6822 78.6511 15.5829 78.1224 15.4093L77.589 15.2336L76.6095 16.0748L75.5708 15.3811L75.9202 14.1255L75.5396 13.7111C75.1682 13.2969 74.8534 12.8345 74.6038 12.3363L74.3512 11.834L73.0691 11.7304L72.8009 10.4968L73.9269 9.88156ZM80.5305 11.8277C80.9748 11.7302 81.3804 11.5021 81.6959 11.1725C82.0115 10.8429 82.2228 10.4265 82.3031 9.97601C82.3834 9.52552 82.3291 9.06119 82.1471 8.64175C81.9651 8.22231 81.6636 7.86662 81.2806 7.61968C80.8977 7.37275 80.4506 7.24566 79.9959 7.25449C79.5412 7.26333 79.0993 7.4077 78.7261 7.66933C78.3529 7.93096 78.0653 8.2981 77.8995 8.7243C77.7337 9.1505 77.6973 9.6166 77.7948 10.0636C77.9257 10.6591 78.2848 11.1785 78.7942 11.5089C79.3036 11.8392 79.922 11.9538 80.5149 11.8277H80.5305ZM47.8279 79.4857C47.8279 81.4727 46.8921 83.1583 43.7354 83.1583C40.5787 83.1583 39.6398 81.4727 39.6398 79.4857V62.2589H33.6882V80.0099C33.6882 85.6287 38.0053 89 43.7385 89C49.4718 89 53.7857 85.6287 53.7857 80.0099V62.2589H47.8279V79.4857ZM14.5171 76.4911L4.46681 62.2589H0V88.4758H5.95471V74.2436L16.005 88.4758H20.4718V62.2589H14.5171V76.4911ZM13.0292 39.5702L5.95471 27.9371H0V54.154H5.95471V38.8985L12.6924 50.0199H13.363L20.0975 38.8985V54.1414H26.0553V27.9371H20.0975L13.0292 39.5702ZM81.5193 71.4436L80.022 73.9077L78.5279 71.4436L72.9506 62.2589H66.999V88.4758H72.9506V73.2328L79.6883 84.3574H80.3589L87.0965 73.2328V88.4758H93.0513V62.2589H87.0965L81.5193 71.4436ZM45.7817 43.7294H55.0865V38.0352H45.7817V33.6909H56.016V27.9371H39.827V54.154H56.2032V48.3751H45.7817V43.7294ZM92.0812 35.8599C97.3496 33.6124 104.246 30.5016 107.793 28.1882C108.423 27.7987 109.012 27.3465 109.552 26.8384C110.49 25.923 111.237 24.8291 111.751 23.6204C112.265 22.4116 112.535 21.1121 112.545 19.7974C112.555 18.4828 112.305 17.1792 111.81 15.9626C111.315 14.746 110.584 13.6406 109.66 12.7108C108.737 11.781 107.639 11.0452 106.43 10.5464C105.221 10.0476 103.926 9.7956 102.62 9.80514C101.313 9.81469 100.022 10.0856 98.8204 10.602C97.619 11.1185 96.5316 11.8702 95.6215 12.8134C95.288 13.1646 94.9834 13.5426 94.7107 13.9434C92.4773 17.1201 89.2956 24.1703 86.9406 29.7232C84.9626 28.5292 82.6966 27.9048 80.3901 27.9182H69.9748V54.1352H80.3963C87.5707 54.1352 93.0513 48.441 93.0513 41.0267C93.0585 39.2553 92.727 37.499 92.0749 35.8536L92.0812 35.8599ZM80.3963 48.3751H75.9295V33.6909H80.3963C81.9539 33.6547 83.4781 34.1479 84.7228 35.0909C84.3048 36.1267 84.0085 36.8801 83.8774 37.216L82.9417 39.5922L85.3061 38.6505L86.8283 38.0227C87.1635 38.9836 87.3303 39.9958 87.3211 41.0141C87.3211 45.5155 84.4919 48.3751 80.3963 48.3751V48.3751ZM86.8844 35.6245C89.4111 29.3999 94.0588 18.5609 96.5948 15.086C96.772 14.8367 96.9669 14.6007 97.1781 14.3797C97.8872 13.6577 98.7312 13.0839 99.6615 12.6914C100.592 12.2988 101.59 12.0953 102.599 12.0925C103.608 12.0896 104.607 12.2876 105.54 12.6749C106.472 13.0622 107.319 13.6312 108.032 14.3493C108.745 15.0673 109.31 15.9202 109.695 16.8588C110.079 17.7974 110.275 18.8032 110.272 19.8183C110.268 20.8335 110.066 21.8379 109.675 22.7739C109.284 23.7099 108.714 24.5589 107.996 25.2721C107.63 25.615 107.234 25.9239 106.814 26.1949C102.936 28.8129 92.8111 33.1949 86.8844 35.6245V35.6245ZM99.817 17.2645C99.7702 17.3116 99.7296 17.3618 99.686 17.412C99.0585 18.1577 98.748 19.1221 98.8218 20.0964C98.8956 21.0707 99.3478 21.9765 100.08 22.6178C100.813 23.2592 101.767 23.5844 102.736 23.5231C103.705 23.4618 104.611 23.0189 105.258 22.2903C105.905 21.5617 106.241 20.606 106.193 19.6301C106.145 18.6541 105.717 17.7365 105.002 17.0758C104.286 16.415 103.341 16.0644 102.371 16.0997C101.401 16.135 100.483 16.5535 99.817 17.2645V17.2645ZM120.991 55.0298C120.876 53.7186 120.251 52.5062 119.252 51.6571C118.253 50.8079 116.96 50.3909 115.657 50.4971C115.472 50.5137 115.289 50.5399 115.108 50.5755L113.461 47.6877C113.789 47.4189 114.091 47.1205 114.365 46.7962C114.938 46.1139 115.371 45.3239 115.639 44.472C115.907 43.6202 116.004 42.7233 115.925 41.8334C115.818 40.516 115.331 39.2585 114.526 38.2145C113.72 37.1706 112.63 36.3854 111.388 35.9548C110.146 35.5242 108.806 35.467 107.532 35.79C106.259 36.113 105.106 36.8024 104.215 37.7738C103.324 38.7452 102.734 39.9567 102.516 41.2603C102.298 42.5638 102.462 43.903 102.988 45.1143C103.514 46.3255 104.379 47.3564 105.478 48.0809C106.577 48.8055 107.861 49.1924 109.175 49.1944C109.365 49.1944 109.555 49.1944 109.749 49.1693C110.426 49.112 111.09 48.9522 111.72 48.6953L113.236 51.3571C112.882 51.6027 112.562 51.8951 112.285 52.2266C111.757 52.8489 111.392 53.594 111.222 54.3943C111.053 55.1946 111.085 56.0248 111.315 56.8096L107.047 58.1625C106.718 57.6247 106.256 57.1829 105.704 56.8807C105.153 56.5786 104.534 56.4266 103.906 56.44C103.279 56.4533 102.666 56.6315 102.128 56.9568C101.59 57.2821 101.146 57.7432 100.84 58.2945C100.534 58.8457 100.376 59.4679 100.383 60.0994C100.389 60.7308 100.56 61.3496 100.877 61.8943C101.195 62.439 101.648 62.8907 102.193 63.2046C102.737 63.5186 103.354 63.6838 103.981 63.684C104.081 63.684 104.184 63.684 104.293 63.684C105.185 63.6084 106.017 63.2014 106.627 62.5422C107.237 61.883 107.582 61.0188 107.593 60.1181L112.294 58.6145C112.755 59.1702 113.331 59.6178 113.982 59.9258C114.633 60.2338 115.343 60.3948 116.062 60.3975C116.199 60.3975 116.34 60.3975 116.48 60.3975C117.126 60.3433 117.756 60.1614 118.332 59.8621C118.908 59.5629 119.42 59.1523 119.839 58.6537C120.257 58.1551 120.574 57.5784 120.77 56.9566C120.967 56.3347 121.04 55.68 120.984 55.0298H120.991ZM105.229 61.1131C105.093 61.2755 104.927 61.4091 104.74 61.5061C104.552 61.6031 104.347 61.6616 104.137 61.6782C103.926 61.6957 103.714 61.6713 103.513 61.6063C103.312 61.5413 103.125 61.437 102.964 61.2995C102.802 61.1619 102.669 60.9937 102.573 60.8044C102.476 60.6152 102.417 60.4086 102.4 60.1966C102.382 59.9845 102.407 59.771 102.471 59.5684C102.536 59.3657 102.639 59.1779 102.776 59.0155C102.913 58.8531 103.08 58.7195 103.268 58.6221C103.456 58.5248 103.661 58.4657 103.872 58.4481H104.009C104.314 58.4489 104.613 58.5372 104.87 58.7027C105.127 58.8682 105.331 59.1041 105.46 59.3826C105.588 59.6611 105.635 59.9707 105.595 60.275C105.554 60.5793 105.429 60.8657 105.232 61.1006L105.229 61.1131ZM112.837 45.4966C112.435 45.9786 111.941 46.3755 111.385 46.6643C110.83 46.9531 110.222 47.1281 109.599 47.1791C108.341 47.2857 107.092 46.8849 106.127 46.0648C105.163 45.2448 104.561 44.0728 104.455 42.8065C104.349 41.5403 104.748 40.2835 105.563 39.3128C106.377 38.3421 107.542 37.7369 108.8 37.6303C108.938 37.6303 109.072 37.6303 109.206 37.6303C110.398 37.6374 111.544 38.0919 112.42 38.9047C113.297 39.7175 113.84 40.8302 113.944 42.0249C114.04 43.2801 113.638 44.5224 112.827 45.4809L112.837 45.4966ZM118.317 57.3526C118.006 57.725 117.609 58.0143 117.16 58.1949C116.711 58.3756 116.224 58.442 115.744 58.3882C115.263 58.3344 114.804 58.1622 114.405 57.8867C114.006 57.6112 113.682 57.2411 113.459 56.809C113.237 56.377 113.124 55.8964 113.131 55.4099C113.137 54.9234 113.263 54.446 113.496 54.0201C113.73 53.5942 114.065 53.2329 114.47 52.9682C114.876 52.7036 115.34 52.5437 115.822 52.5029C115.905 52.5029 115.989 52.5029 116.075 52.5029C116.633 52.5048 117.18 52.6669 117.65 52.9703C118.121 53.2736 118.495 53.7056 118.73 54.2156C118.965 54.7256 119.051 55.2925 118.977 55.8498C118.904 56.407 118.674 56.9316 118.314 57.362L118.317 57.3526ZM62.5322 19.716H57.1203V14.2699H59.8247V12.2578H55.1177V21.7313H64.5317V16.9945H62.5322V19.716ZM61.0724 13.0143H62.3638L59.1166 16.282L60.5328 17.7039L63.7799 14.4394V15.7389H65.7794V10.9865H61.0724V13.0143ZM63.7799 13.0143V13.1116L63.6832 13.0143H63.7799Z" fill="url(#paint0_radial)"/>
</g>
<defs>
<radialGradient id="paint0_radial" cx="0" cy="0" r="1" gradientUnits="userSpaceOnUse" gradientTransform="translate(80.5242 40.5276) scale(40.6941 40.9514)">
<stop stop-color="#E7411B"/>
<stop offset="0.25" stop-color="#E4411C"/>
<stop offset="0.4" stop-color="#DC4020"/>
<stop offset="0.52" stop-color="#CE3F27"/>
<stop offset="0.63" stop-color="#B93E30"/>
<stop offset="0.73" stop-color="#9F3C3D"/>
<stop offset="0.82" stop-color="#7F3A4C"/>
<stop offset="0.91" stop-color="#58375E"/>
<stop offset="0.99" stop-color="#2D3473"/>
<stop offset="1" stop-color="#283475"/>
</radialGradient>
<clipPath id="clip0">
<path d="M0 0H121V89H0V0Z" fill="white"/>
</clipPath>
</defs>
</svg>
