<svg width="59" height="62" viewBox="0 0 59 62" fill="none" xmlns="http://www.w3.org/2000/svg">
<g clip-path="url(#clip0)">
<path d="M43.6935 1.62076C47.3249 1.62445 50.8065 3.07799 53.3743 5.66241C55.942 8.24682 57.3862 11.751 57.3899 15.4059C57.4033 15.6116 57.494 15.8045 57.6435 15.9455C57.793 16.0864 57.9902 16.1648 58.195 16.1648C58.3999 16.1648 58.5971 16.0864 58.7466 15.9455C58.8961 15.8045 58.9868 15.6116 59.0002 15.4059C58.9956 11.3214 57.3815 7.40554 54.5119 4.51738C51.6423 1.62921 47.7517 0.00461263 43.6935 0C43.4891 0.0135002 43.2974 0.10475 43.1574 0.25524C43.0174 0.405731 42.9395 0.604195 42.9395 0.810378C42.9395 1.01656 43.0174 1.21502 43.1574 1.36552C43.2974 1.51601 43.4891 1.60726 43.6935 1.62076V1.62076Z" fill="#1C1C1C"/>
<path d="M43.6935 6.48645C46.0433 6.4883 48.2963 7.42861 49.9578 9.10092C51.6194 10.7732 52.5536 13.0408 52.5555 15.4058C52.5555 15.6212 52.6405 15.8278 52.7918 15.9801C52.9431 16.1324 53.1483 16.218 53.3623 16.218C53.5763 16.218 53.7816 16.1324 53.9329 15.9801C54.0842 15.8278 54.1692 15.6212 54.1692 15.4058C54.1619 12.6134 53.0553 9.93763 51.0918 7.96468C49.1283 5.99173 46.468 4.8824 43.6935 4.87964C43.4891 4.89314 43.2974 4.98439 43.1574 5.13488C43.0174 5.28537 42.9395 5.48383 42.9395 5.69002C42.9395 5.8962 43.0174 6.09466 43.1574 6.24515C43.2974 6.39564 43.4891 6.48689 43.6935 6.50039V6.48645Z" fill="#1C1C1C"/>
<path d="M43.6934 11.3523C44.7619 11.3523 45.7866 11.7792 46.5425 12.5393C47.2983 13.2994 47.7234 14.3305 47.7244 15.4059C47.7378 15.6116 47.8284 15.8045 47.978 15.9455C48.1275 16.0864 48.3247 16.1648 48.5295 16.1648C48.7344 16.1648 48.9316 16.0864 49.0811 15.9455C49.2306 15.8045 49.3213 15.6116 49.3347 15.4059C49.3328 13.9006 48.7379 12.4575 47.6804 11.3931C46.6228 10.3287 45.189 9.72987 43.6934 9.72803C43.4794 9.72803 43.2741 9.81359 43.1228 9.96589C42.9715 10.1182 42.8865 10.3248 42.8865 10.5401C42.8865 10.7555 42.9715 10.9621 43.1228 11.1144C43.2741 11.2667 43.4794 11.3523 43.6934 11.3523V11.3523Z" fill="#1C1C1C"/>
<path d="M24.141 30.749L25.7652 21.7529C26.6206 19.4211 28.6603 15.7334 26.4163 13.8234C22.0251 10.0835 18.9638 8.10718 16.5327 8.10718C9.29147 8.10718 4.06573 16.1726 1.27797 22.5859C0.768162 23.7608 0.509342 25.0303 0.518291 26.3122C0.52724 27.5942 0.803757 28.86 1.32992 30.0275C6.13663 40.707 25.0276 59.2708 32.4212 61.2575C32.6304 61.3127 32.8434 61.3524 33.0584 61.376C41.2658 62.3903 49.9685 55.3949 53.1787 47.9429C54.5362 44.8443 45.7228 39.6021 44.1748 38.553L38.9802 44.0949L24.141 30.749Z" fill="#FFC107"/>
<path d="M24.6431 30.8885L26.2119 22.1748C26.4081 21.4333 26.676 20.713 27.0119 20.0242C27.5105 18.759 28.0161 17.3787 27.9469 15.9915C27.9297 15.3519 27.7458 14.728 27.4136 14.1825C26.9703 13.4854 26.2534 13.0009 25.6301 12.4886C24.3761 11.4316 23.0625 10.4482 21.6961 9.54333C20.679 8.854 19.5764 8.30206 18.4166 7.90166C17.3792 7.58579 16.285 7.50602 15.2132 7.66813C12.5121 8.01668 10.1191 9.45271 8.13476 11.2861C6.06748 13.2743 4.31556 15.5701 2.94018 18.0933C1.43376 20.7318 -0.159246 23.6352 5.4248e-05 26.7617C0.142039 29.3166 1.40605 31.5891 2.71509 33.7327C3.97374 35.7515 5.3462 37.6961 6.82573 39.5569C10.1543 43.7723 13.7889 47.7334 17.6997 51.4076C21.0381 54.5446 24.5739 57.6606 28.5079 60.0342C29.9554 60.9091 31.5277 61.777 33.228 61.9443C36.2028 62.2684 39.2053 61.5469 41.8857 60.2782C44.6916 58.9224 47.2123 57.0362 49.3104 54.7223C50.3472 53.5972 51.2814 52.3805 52.1017 51.087C52.493 50.4631 52.8566 49.8182 53.1856 49.156C53.4619 48.6865 53.6695 48.1794 53.802 47.6503C54.1137 45.8239 52.3856 44.1299 51.184 43.0215C49.562 41.5788 47.8245 40.2731 45.9894 39.1178C45.4665 38.7692 44.9505 38.4486 44.4206 38.1035C44.3214 38.0454 44.2059 38.0217 44.092 38.0362C43.9781 38.0507 43.8721 38.1025 43.7903 38.1837L39.2537 43.0215L38.5923 43.7186H39.3265L34.2843 39.1944L26.3192 32.0387L24.4769 30.3796C23.9817 29.9335 23.2441 30.6689 23.7427 31.1186L28.7745 35.6497L36.7223 42.8089L38.5646 44.4645C38.6629 44.5608 38.7946 44.6146 38.9317 44.6146C39.0688 44.6146 39.2005 44.5608 39.2988 44.4645L43.8354 39.6301L44.4968 38.933L43.87 39.0167C45.1894 39.902 46.5365 40.735 47.8248 41.6726C49.4143 42.8298 51.1528 44.1125 52.2298 45.8134C52.4361 46.1147 52.595 46.4462 52.7008 46.7963C52.7862 47.0568 52.7935 47.3369 52.7215 47.6015C52.5235 48.157 52.2718 48.6917 51.9701 49.1978C51.6238 49.8357 51.2567 50.4561 50.8584 51.0556C49.1995 53.5398 47.1034 55.698 44.6734 57.4236C42.3106 59.1488 39.5855 60.3044 36.7084 60.801C35.3717 61.0067 33.8306 61.1008 32.5146 60.7383C31.9023 60.565 31.3084 60.3315 30.7416 60.0412C29.1632 59.2359 27.6569 58.2948 26.2396 57.2284C24.4007 55.89 22.6484 54.44 20.9446 52.9308C17.1035 49.5273 13.5003 45.8611 10.1606 41.9584C7.23091 38.5392 4.37389 34.9038 2.30991 30.8746C1.66597 29.7186 1.24862 28.449 1.08053 27.1346C0.942303 25.4852 1.24355 23.8284 1.95322 22.3351C3.0521 19.835 4.41392 17.4606 6.01537 15.2526C7.5876 13.1194 9.50267 11.1327 11.8472 9.86748C13.7691 8.82183 16.1379 8.23278 18.2642 8.95079C19.3679 9.35717 20.4154 9.90419 21.3809 10.5785C22.7348 11.4919 24.0366 12.481 25.2803 13.5412C25.8171 13.9873 26.4335 14.4021 26.7175 15.0678C26.924 15.624 26.9813 16.2251 26.8837 16.8106C26.721 18.1316 26.1599 19.3933 25.6613 20.6133C25.4424 21.1134 25.2775 21.6357 25.1695 22.1713L24.7747 24.3567L23.8293 29.5849L23.6458 30.5957C23.5211 31.2684 24.5219 31.5508 24.6431 30.8885Z" fill="#1C1C1C"/>
<path d="M39.7421 47.0542C39.7421 47.0542 29.4672 45.409 22.3299 39.7346C19.9508 37.835 17.9214 35.4858 16.7371 32.5998C15.3034 29.1143 15.3518 25.4615 16.6228 22.7672C18.9534 17.776 26.6656 19.3236 31.1156 23.7571C31.1676 15.6847 36.8193 10.5924 42.3082 15.3536C42.3983 15.4337 42.4918 15.5139 42.5818 15.601C42.6718 15.6882 42.7584 15.7683 42.8485 15.852C43.0285 16.0367 43.1948 16.2249 43.3922 16.4271C44.4509 17.6184 45.2989 18.9836 45.8994 20.4633C50.6369 32.0108 39.7421 47.0542 39.7421 47.0542Z" fill="white" stroke="#1C1C1C" stroke-miterlimit="10"/>
</g>
<defs>
<clipPath id="clip0">
<rect width="59" height="62" fill="white"/>
</clipPath>
</defs>
</svg>
