<svg xmlns="http://www.w3.org/2000/svg" viewBox="0 0 378.85 159.88"><defs><style>.cls-1{fill:#d5e8ee;}.cls-2,.cls-6,.cls-7{fill:#fedd00;}.cls-3,.cls-9{fill:#232148;}.cls-4{isolation:isolate;}.cls-10,.cls-5,.cls-8{fill:none;}.cls-10,.cls-5,.cls-6,.cls-7,.cls-8,.cls-9{stroke:#232148;}.cls-10,.cls-5,.cls-7,.cls-8,.cls-9{stroke-miterlimit:10;}.cls-5{stroke-width:6.1px;}.cls-10,.cls-6,.cls-8,.cls-9{stroke-linecap:round;}.cls-6{stroke-linejoin:round;stroke-width:3.5px;}.cls-7{stroke-width:2.62px;}.cls-8{stroke-width:3.24px;}.cls-10,.cls-9{stroke-width:2.95px;}</style></defs><g id="Layer_2" data-name="Layer 2"><g id="Layer_1-2" data-name="Layer 1"><rect class="cls-1" x="18.31" y="3.05" width="74.68" height="114.31"/><rect class="cls-2" x="86.89" y="51.82" width="19.81" height="16.77" rx="7.56"/><rect class="cls-2" x="85.37" y="68.58" width="19.81" height="16.77" rx="7.56"/><rect class="cls-2" x="84.89" y="83.83" width="19.81" height="16.77" rx="7.56"/><rect class="cls-2" x="85.37" y="100.59" width="19.81" height="16.77" rx="7.56"/><path class="cls-2" d="M89,119.85c-4.77-.11-9.54-.23-14.32-.3-16.14-.27-32.34.44-48.44-1.14-5.51-.54-9.8-6.12-6.58-11.46.64-1.06-.89-7.12-1.09-8.36C17.87,94.75,17,91,17,87.09c0-9.33,3.57-18.52,2.12-27.87a7.77,7.77,0,0,1-.08-.83,9.56,9.56,0,0,1-.9-.9,8.92,8.92,0,0,1-.78-1c-.59-.87-3.8-3.75-9.38-5.27a25.68,25.68,0,0,0-4.22-.8Q3.18,54.1,2.46,58c-.2,1-.4,2.08-.61,3.1,1.34,8.57,2.74,17.24.91,25.83a7.91,7.91,0,0,1,.16.82L3,88c.93,8.62-.5,25.64-.5,25.64-.23,2.77-.59,7.21-1,12.83a32.81,32.81,0,0,0,6.17,18.32,29.41,29.41,0,0,0,13.71,10.67,29.2,29.2,0,0,0,20.73-.66,153.8,153.8,0,0,0,25.78-15.71A153.81,153.81,0,0,0,89,119.85Z"/><path class="cls-3" d="M129.24,70.73c-1.74-.75-2.61-1.71-2.61-2.87a4.21,4.21,0,0,1,1.31-2.52,3.21,3.21,0,0,1,1.65-.52,1.87,1.87,0,0,0,1.74-1A17.67,17.67,0,0,0,133.15,56q0-5.47-5.65-16.34t-5.56-17.25a21,21,0,0,1,2.1-9.47,14.26,14.26,0,0,1,6.69-6.87,9.84,9.84,0,0,1,3.91-1,7,7,0,0,1,5.47,2A2.68,2.68,0,0,1,141,9c0,1.16-.84,2.17-2.52,3a1.62,1.62,0,0,1-.78.17,2.07,2.07,0,0,1-.7-.08,4.47,4.47,0,0,0-1.3-.35,1.45,1.45,0,0,0-1,.52,15.59,15.59,0,0,0-4.73,11.54,13.62,13.62,0,0,0,.78,4.69c.11.29.72,1.57,1.82,3.83s2.7,5.47,4.78,9.64q4.17,8.35,4.17,14.17a19.48,19.48,0,0,1-2.34,9.21,14.12,14.12,0,0,1-3.91,3.83A8.08,8.08,0,0,1,130.72,71,3.74,3.74,0,0,1,129.24,70.73Z"/><path class="cls-3" d="M160.46,70.66a4.47,4.47,0,0,1-2.65-.82c-.79-.55-1.61-1.09-2.48-1.61a11.83,11.83,0,0,1-4.43-4.34,12.91,12.91,0,0,1-1.57-6.61,20.07,20.07,0,0,1,.65-4.56c.44-1.77.83-3.4,1.18-4.91a12.7,12.7,0,0,1,1.21-2.65,19.89,19.89,0,0,1,2.39-3.31A17.49,17.49,0,0,1,158,39a6.7,6.7,0,0,1,3.74-1.22,2.91,2.91,0,0,1,1.56.52,14.36,14.36,0,0,0,2.52,1.31l2.65,1c.9.35,1.79.73,2.66,1.13a11,11,0,0,1,2.43,1.57,5.33,5.33,0,0,1,1.44,2c.34.75.69,1.47,1,2.17a5.07,5.07,0,0,1,.52,1.78c.06.61.09,1.23.09,1.87v1.65a13.45,13.45,0,0,1-1.09,5,32.47,32.47,0,0,1-2.39,4.47,31.23,31.23,0,0,1-1.82,2.61,24.6,24.6,0,0,1-2.52,2.78,17,17,0,0,1-2.92,2.22,5.89,5.89,0,0,1-3.08.91h-1.91ZM169,49.89a4,4,0,0,0-1.82-3.65,7.45,7.45,0,0,0-4-1.13,3.8,3.8,0,0,0-3,1.35,12.38,12.38,0,0,0-2.09,3.3,17.77,17.77,0,0,0-1.26,4.17,22.87,22.87,0,0,0-.39,3.87,12.82,12.82,0,0,0,.13,1.39,11.63,11.63,0,0,0,.48,2.18,6.26,6.26,0,0,0,1,2,2,2,0,0,0,1.69.87,4.72,4.72,0,0,0,1.74-.3c.52-.2,1.1-.45,1.74-.74a8.37,8.37,0,0,0,2.43-2.35,14.3,14.3,0,0,0,1.7-3.21,25.59,25.59,0,0,0,1-3.65,34.58,34.58,0,0,0,.56-3.65Z"/><path class="cls-3" d="M192.35,69.19a.67.67,0,0,0,.09.34.85.85,0,0,1,.08.35,2.17,2.17,0,0,1-1.17,2,4.91,4.91,0,0,1-2.39.66,3.9,3.9,0,0,1-3.48-2.39,21.19,21.19,0,0,1-2-5.57,43.1,43.1,0,0,1-.92-6.3c-.14-2.08-.21-3.65-.21-4.69V39a91,91,0,0,1,.48-9.34,94.52,94.52,0,0,0,.47-9.52,3,3,0,0,1,.53-1.82A7.38,7.38,0,0,1,185.14,17a13.69,13.69,0,0,1,1.69.08,6.71,6.71,0,0,1,1.87.44,4.47,4.47,0,0,1,1.48.95,2.38,2.38,0,0,1,.61,1.74,24.05,24.05,0,0,1-.44,4.56,24.22,24.22,0,0,0-.43,4.57V40.55c0,1.5,0,2.94.09,4.3s.08,2.74.08,4.13v5.39a44.52,44.52,0,0,0,.74,7.56Q191.57,66.06,192.35,69.19Z"/><path class="cls-3" d="M209.3,68.06a3.21,3.21,0,0,1-.35,1.39,7,7,0,0,1-1.31,1.65,13.88,13.88,0,0,1-2.73-.26,4.89,4.89,0,0,1-2.18-1,5.39,5.39,0,0,1-1.43-2.26,12.33,12.33,0,0,1-.52-4,14.41,14.41,0,0,0-.31-3,14.62,14.62,0,0,1-.3-2.95,64.24,64.24,0,0,0-.52-8.43,64.24,64.24,0,0,1-.52-8.43A3.1,3.1,0,0,1,200.61,38a11.64,11.64,0,0,1,1.65-.39L204,37.3a3.93,3.93,0,0,1,1.83,1L207,39.56c-.06.58-.1,1.16-.13,1.74s0,1.19,0,1.82c0,2.21.11,4.55.34,7s.49,4.87.79,7.13.56,4.32.82,6.17.45,3.28.57,4.26Zm-7.65-48.93a2.18,2.18,0,0,1,1.56-.44A5.72,5.72,0,0,1,205,19a6.08,6.08,0,0,1,1.7.87A5,5,0,0,1,208,21.13a2.51,2.51,0,0,1,.48,1.47,2.52,2.52,0,0,1-.83,2.22,4,4,0,0,1-2.3.57,6.48,6.48,0,0,1-2-.31,8.68,8.68,0,0,1-1.78-.74,5.61,5.61,0,0,1-1.26-.91,1.31,1.31,0,0,1-.48-.91,7.05,7.05,0,0,1,.22-1.83C200.18,20.17,200.72,19.65,201.65,19.13Z"/><path class="cls-3" d="M242.49,53.89a9.23,9.23,0,0,0,.31,1.65c.2.87.46,1.8.78,2.78s.62,2,.91,2.87a13.26,13.26,0,0,0,.7,1.91,8.39,8.39,0,0,1,.78,2,12.83,12.83,0,0,0,.7,2.09,3,3,0,0,1-.87,2.43,2.75,2.75,0,0,1-1.74.7H243a3.27,3.27,0,0,1-1.08-.09,16.73,16.73,0,0,1-1.66-.78A5.15,5.15,0,0,1,238.58,67a7.38,7.38,0,0,1-.87-2.21c-.29-1.07-.56-2.22-.82-3.43s-.52-2.36-.78-3.44a12.34,12.34,0,0,0-.74-2.3A25.65,25.65,0,0,1,233.28,62,20.8,20.8,0,0,1,230,66.84a14.14,14.14,0,0,1-3.83,3,8.26,8.26,0,0,1-3.91,1Q218,70.89,216,68a12.42,12.42,0,0,1-2-7.25,23.19,23.19,0,0,1,.74-5.56,33.55,33.55,0,0,1,2.08-6A31.53,31.53,0,0,1,220,43.64a18.18,18.18,0,0,1,4.17-4.18,8.65,8.65,0,0,0,1.22-.86,4.1,4.1,0,0,1,2.61-.7,8.43,8.43,0,0,1,2.39.35l2.3.69q0-3-.26-6c-.17-2-.26-3.88-.26-5.74V18.65a13.22,13.22,0,0,0-.09-1.87,4.32,4.32,0,0,0,.09-1.52,1.71,1.71,0,0,1,.52-1.43,4,4,0,0,1,1.78-1.26,6.42,6.42,0,0,1,2.13-.39,2.88,2.88,0,0,1,2.4,1.17,4.21,4.21,0,0,1,.87,2.56c0,2-.08,3.84-.22,5.61s-.22,3.72-.22,5.86c0,1.34.09,2.92.26,4.74s.35,3.49.52,5c.12,1.21.23,2.55.35,4s.26,2.91.44,4.38.37,2.92.6,4.31a29.68,29.68,0,0,0,.87,3.73ZM221.81,64.32A4.3,4.3,0,0,0,224.94,63a13.14,13.14,0,0,0,2.26-3.13A26.48,26.48,0,0,0,228.85,56a35.86,35.86,0,0,1,1.39-3.47q.34-1.3.78-2.61a8.78,8.78,0,0,0,.44-2.78c0-.17-.11-.27-.31-.3l-.74-.09a8.7,8.7,0,0,1-.87-.13.78.78,0,0,1-.6-.52,6.32,6.32,0,0,1,0-.87q0-.44,0-.87h-.47a2.75,2.75,0,0,0-.57,0,30.17,30.17,0,0,1-2.74,3.52,11.42,11.42,0,0,0-2.3,4L222,54.63a19.2,19.2,0,0,0-.61,2.22c-.15.69-.26,1.4-.35,2.13a19,19,0,0,0-.13,2.39,3.57,3.57,0,0,0,.35,1.47A9.58,9.58,0,0,1,221.81,64.32Z"/><path class="cls-3" d="M281.86,68.58c.18.46.35.94.52,1.43a4.17,4.17,0,0,1,.26,1.44,1.61,1.61,0,0,1-.39,1.13,2.94,2.94,0,0,1-.95.69,5,5,0,0,1-1.18.39,5.36,5.36,0,0,1-1.13.13,3.28,3.28,0,0,1-2.86-2A17.84,17.84,0,0,1,274.3,67c-.46-1.94-.86-4-1.17-6.17s-.63-4.13-.92-5.87a15.13,15.13,0,0,1-1.69,4.61,28.86,28.86,0,0,1-3.61,5.35,25.47,25.47,0,0,1-4.78,4.38,9,9,0,0,1-5.21,1.83,6.42,6.42,0,0,1-3.43-.83,5.8,5.8,0,0,1-2-2,8.36,8.36,0,0,1-1-2.74,15.65,15.65,0,0,1-.26-2.82,22.88,22.88,0,0,1,1.43-7.08,40.23,40.23,0,0,1,3.91-8.22,29.55,29.55,0,0,1,5.74-6.82,10.39,10.39,0,0,1,6.91-2.82A7,7,0,0,1,270,38a20.28,20.28,0,0,1,2,.65,12.88,12.88,0,0,1,2,1,18,18,0,0,1,1.65,1.08,6,6,0,0,1,2,3.3,32,32,0,0,1,.78,4.35q.61,4.35,1,7.86a52,52,0,0,0,1.3,7.43l.52,3.22Zm-24.51-4.52a.15.15,0,0,0,0,.13.15.15,0,0,1,0,.13A4.58,4.58,0,0,0,260,62.8a28.79,28.79,0,0,0,3-3.43,41.71,41.71,0,0,0,2.74-4.22,25,25,0,0,0,1.87-3.95c.23-.52.51-1.1.82-1.74s.64-1.29,1-2a15.9,15.9,0,0,0,.78-1.86,4.66,4.66,0,0,0,.31-1.48c-.29-.12-.55-.23-.79-.35a1.62,1.62,0,0,0-.78-.17,4.72,4.72,0,0,0-3.39,1.47A16.46,16.46,0,0,0,263,48.38a25.81,25.81,0,0,0-1.78,3.52,20.66,20.66,0,0,1-1,2.13,25.84,25.84,0,0,0-2,4.69,15.79,15.79,0,0,0-.83,4.86Z"/><path class="cls-3" d="M288.81,68.93a5.49,5.49,0,0,0,.22-1.61V60.84c0-1.28-.06-2.44-.09-3.52s0-2-.08-2.78a9.38,9.38,0,0,1-.05-1.34V50.33a37.7,37.7,0,0,0-.13-3.83c-.13-1.28-.16-2.54-.21-3.82v-.35a3.46,3.46,0,0,0-.35-1.52,3.71,3.71,0,0,1-.35-1.61,3.92,3.92,0,0,1,1-1.73,3,3,0,0,1,2.17-.61,4.4,4.4,0,0,1,2.35.56,3.85,3.85,0,0,1,1.3,1.39,5.33,5.33,0,0,1,.56,1.87c.09.7.16,1.36.22,2l.26,4.61a10.54,10.54,0,0,0,1.83-2c.63-.89,1.3-1.86,2-2.91s1.42-2,2.17-3A13.8,13.8,0,0,1,304,37a3.88,3.88,0,0,1,1.74-.35,6.4,6.4,0,0,1,3.35.78A5,5,0,0,1,311,39.9a4.65,4.65,0,0,1-.95,1.78c-.52.67-1.12,1.37-1.78,2.09L306.19,46a20.63,20.63,0,0,0-1.87,2.3,23.64,23.64,0,0,0-2.6,3.39,40.44,40.44,0,0,0-2.35,4.09,39.31,39.31,0,0,0-1.74,4,9.11,9.11,0,0,0-.69,3v4a13.8,13.8,0,0,1-.17,2.13,6,6,0,0,1-.7,2,3.85,3.85,0,0,1-3.65,2,3.58,3.58,0,0,1-2.65-1,3.38,3.38,0,0,1-1-2.48Z"/><path class="cls-3" d="M324.79,68.06a3,3,0,0,1-.35,1.39,7.17,7.17,0,0,1-1.3,1.65,14,14,0,0,1-2.74-.26,4.85,4.85,0,0,1-2.17-1,5.09,5.09,0,0,1-1.43-2.26,12.33,12.33,0,0,1-.52-4,15.12,15.12,0,0,0-.31-3,14.62,14.62,0,0,1-.3-2.95,67.89,67.89,0,0,0-.52-8.43,64.25,64.25,0,0,1-.53-8.43A3.12,3.12,0,0,1,316.1,38a11.64,11.64,0,0,1,1.65-.39l1.74-.31a4,4,0,0,1,1.83,1l1.13,1.26c-.06.58-.11,1.16-.14,1.74s0,1.19,0,1.82c0,2.21.12,4.55.35,7s.49,4.87.78,7.13.57,4.32.83,6.17.45,3.28.56,4.26Zm-7.65-48.93a2.21,2.21,0,0,1,1.57-.44,5.64,5.64,0,0,1,1.78.31,5.89,5.89,0,0,1,1.69.87,4.72,4.72,0,0,1,1.26,1.26,2.51,2.51,0,0,1,.48,1.47,2.54,2.54,0,0,1-.82,2.22,4,4,0,0,1-2.31.57,6.46,6.46,0,0,1-2-.31,8.68,8.68,0,0,1-1.78-.74,5.4,5.4,0,0,1-1.26-.91,1.31,1.31,0,0,1-.48-.91,6.65,6.65,0,0,1,.22-1.83C315.68,20.17,316.22,19.65,317.14,19.13Z"/><path class="cls-3" d="M337.13,14.87a10.73,10.73,0,0,1,.26-2.26l1.13-.56a2.43,2.43,0,0,1,1.13-.22,4.72,4.72,0,0,1,2.39.52,3.85,3.85,0,0,1,1.39,1.3,5.23,5.23,0,0,1,.66,1.79,12.18,12.18,0,0,1,.17,2c0,1.22,0,2.27.09,3.17a26.32,26.32,0,0,1,.08,2.65v5.48c0,.64,0,1.3-.05,2s0,1.42,0,2.17a4.19,4.19,0,0,0,.09,1c0,.29.31.43.78.43a10,10,0,0,0,4-.74,10,10,0,0,1,4-.74,1.64,1.64,0,0,1,1.65,1,4.52,4.52,0,0,1,.43,1.91,2.76,2.76,0,0,1-.52,1.78,3.35,3.35,0,0,1-1.3,1,10.29,10.29,0,0,1-1.7.57c-.61.14-1.2.3-1.78.47a12.59,12.59,0,0,1-1.87.66,14.1,14.1,0,0,0-2,.74,5.44,5.44,0,0,0-1.9,1,2.29,2.29,0,0,0-.7,1.73,8,8,0,0,0,.05,1.13,6.67,6.67,0,0,1,0,1v1.08c0,.37-.05.77-.05,1.18a61.21,61.21,0,0,0,.57,8.12q.56,4.21,1.26,8.13c.17.81.37,1.62.61,2.43a8.19,8.19,0,0,1,.34,2.26,2.77,2.77,0,0,1-.78,2.17,4.22,4.22,0,0,1-1.74,1c-.33.07-.66.13-1,.17a3.38,3.38,0,0,1-2.21-.82,7.1,7.1,0,0,1-1.7-2,17.7,17.7,0,0,1-.74-3.3c-.2-1.39-.33-2.66-.39-3.82-.17-2.84-.29-5.66-.35-8.48s-.11-5.63-.17-8.47c0-.22,0-.43,0-.65a2.37,2.37,0,0,0-.22-.65,9.24,9.24,0,0,0-2.61.78,5.37,5.37,0,0,1-2.43.52,4.17,4.17,0,0,1-3-1.13,24,24,0,0,1-1.82-1.82,8.81,8.81,0,0,1,.43-2.44,11.89,11.89,0,0,1,2.09-.61l1.87-.34c.61-.12,1.23-.26,1.87-.44a10,10,0,0,0,2.08-.87c.93,0,1.46-.36,1.61-1.08a10.72,10.72,0,0,0,.22-1.87V26.52c0-.9-.05-1.78-.05-2.65Z"/><path class="cls-3" d="M354,55.72a25.76,25.76,0,0,1,.83-6.48,19.91,19.91,0,0,1,2.47-5.86,13.84,13.84,0,0,1,4.09-4.22,10,10,0,0,1,5.65-1.61,10.26,10.26,0,0,1,3.95.7,8.44,8.44,0,0,1,2.82,1.82,7.4,7.4,0,0,1,1.7,2.57,7.87,7.87,0,0,1,.56,3,10.42,10.42,0,0,1-6.3,9.6,12.4,12.4,0,0,1-4.65,1,6.71,6.71,0,0,1-2-.09,19.57,19.57,0,0,1-2-.52,3.06,3.06,0,0,0-.09.74v.48a11.62,11.62,0,0,0,1,5,8.44,8.44,0,0,0,2.09,2.73,5.82,5.82,0,0,0,2.17,1.18,6.85,6.85,0,0,0,5.87-1l3.95-2.69,1,.39a2.23,2.23,0,0,1,1,.82,5.84,5.84,0,0,0,.18.83,4,4,0,0,1,.08.91,4.09,4.09,0,0,1-.65,2,7.53,7.53,0,0,1-1.26,1.44,12,12,0,0,1-4.21,2.48,19.39,19.39,0,0,1-5.09.56,12.12,12.12,0,0,1-3.43-.61,20.86,20.86,0,0,1-3.43-1.3,16,16,0,0,1-3.25-3,13.49,13.49,0,0,1-1.83-3.3,16,16,0,0,1-.87-3.61C354.24,58.43,354.14,57.11,354,55.72Zm11.56-23.9a3.9,3.9,0,0,1-3.3,1.39A3.37,3.37,0,0,1,361,33a1,1,0,0,1-.61-1.05,9.64,9.64,0,0,1,1-2.86A40.35,40.35,0,0,1,363.77,25l3.43-5.08,4.83-7c1.18-1.74,2-2.92,2.39-3.56a1.66,1.66,0,0,1,1.47-.78,2.48,2.48,0,0,1,2.22,1.08,4.24,4.24,0,0,1,.74,2.39,10.14,10.14,0,0,1-2,5.22c-1.18,1.68-2.56,3.56-4.12,5.65Zm-4,19.2a5.7,5.7,0,0,0,1.09.13c.49,0,.88.05,1.17.05a6.47,6.47,0,0,0,4.56-1.48A4.63,4.63,0,0,0,370,46.16a4,4,0,0,0-.69-2.26,2.19,2.19,0,0,0-1.92-1,8,8,0,0,0-1.69.18,1.81,1.81,0,0,0-1.26.87,9.15,9.15,0,0,1-.78.87,4.74,4.74,0,0,0-.83,1.21,11.69,11.69,0,0,0-.74,2,16.59,16.59,0,0,0-.49,3Z"/><g class="cls-4"><path class="cls-3" d="M126.74,83.84h5.81l18.71,27.64V83.84h4.44v33.07h-5.81L131.18,89.27v27.64h-4.44Z"/></g><g class="cls-4"><path class="cls-3" d="M181.59,93.1h4v13.46c0,7.14-4.11,11.3-10.58,11.3s-10.54-4.16-10.54-11.3V93.1h4v13.61c0,4.67,2.5,7.37,6.56,7.37s6.52-2.7,6.52-7.37Z"/><path class="cls-3" d="M193.54,93.1h4v2.6A9.45,9.45,0,0,1,205,92.16a8.14,8.14,0,0,1,7.75,4.58,9.9,9.9,0,0,1,8.5-4.58c5.11,0,8.84,3.4,8.84,9.87v14.88h-4V102.17c0-4-2.22-6.23-5.62-6.23-3,0-5.15,1.7-6.71,4.48.05.52.1,1,.1,1.61v14.88h-4V102.17c0-4-2.17-6.23-5.62-6.23-3.26,0-5.29,2-6.66,4.48v16.49h-4Z"/><path class="cls-3" d="M249.15,117.86c-8,0-13-5.91-13-12.85,0-7.23,4.63-12.85,12-12.85,6.47,0,10.68,4.53,10.68,10.39a12.34,12.34,0,0,1-.28,2.5H240.26c.15,5.72,3.78,9.17,8.89,9.17a8.84,8.84,0,0,0,7.22-3.55l3,2.32A12.37,12.37,0,0,1,249.15,117.86ZM240.55,102h14.26a6.42,6.42,0,0,0-6.75-6.42C244.14,95.56,241.4,97.87,240.55,102Zm5.81-12.66,4.91-7.84h4.54l-5.53,7.84Z"/><path class="cls-3" d="M265.63,93.1h4v3a8.68,8.68,0,0,1,6.94-3.45,6.51,6.51,0,0,1,2,.28v3.92a8.68,8.68,0,0,0-2.36-.28,7.38,7.38,0,0,0-6.61,4v16.35h-4Z"/><path class="cls-3" d="M283.58,84.08a2.84,2.84,0,0,1,2.84-2.79,2.81,2.81,0,0,1,0,5.62A2.84,2.84,0,0,1,283.58,84.08Zm.8,9h4v23.81h-4Z"/><path class="cls-3" d="M307.11,92.16A10.7,10.7,0,0,1,315.56,96V93.1h4v35.43h-4V114a10.67,10.67,0,0,1-8.45,3.83c-7.47,0-12.24-5.91-12.24-12.85S299.64,92.16,307.11,92.16Zm.42,21.92a9.27,9.27,0,0,0,8-4.45v-9.25a9.27,9.27,0,0,0-8-4.44c-5,0-8.45,4-8.45,9.07S302.52,114.08,307.53,114.08Z"/><path class="cls-3" d="M344.66,93.1h4v13.46c0,7.14-4.11,11.3-10.58,11.3s-10.54-4.16-10.54-11.3V93.1h4v13.61c0,4.67,2.5,7.37,6.56,7.37s6.52-2.7,6.52-7.37Z"/><path class="cls-3" d="M367.57,117.86a12.49,12.49,0,0,1-13-12.85c0-7.23,4.63-12.85,12-12.85,6.47,0,10.68,4.53,10.68,10.39a11.61,11.61,0,0,1-.29,2.5H358.69c.14,5.72,3.78,9.17,8.88,9.17a8.86,8.86,0,0,0,7.23-3.55l3,2.32A12.39,12.39,0,0,1,367.57,117.86ZM359,102h14.26a6.42,6.42,0,0,0-6.75-6.42C362.57,95.56,359.83,97.87,359,102Z"/></g><path class="cls-3" d="M19.11,69.17a2.66,2.66,0,0,1-2.66-2.66h0a13.32,13.32,0,0,0-13.3-13.3,2.66,2.66,0,1,1,0-5.32h0A18.64,18.64,0,0,1,21.77,66.51,2.66,2.66,0,0,1,19.11,69.17Z"/><path class="cls-3" d="M2.18,126.7a4.93,4.93,0,0,0,4-1.41l-.53-72c-.47-.82-2.77-4.76-4.19-4.33-.29.09-.7.42-.95,1.63Q.25,88.13,0,125.71A4.47,4.47,0,0,0,2.18,126.7Z"/><path class="cls-3" d="M95,117.57A7.22,7.22,0,0,1,90.38,116a2.64,2.64,0,0,1-2.1,1H24.43a2.66,2.66,0,0,1-2.66-2.66h0V8a2.66,2.66,0,0,1,2.66-2.66H88.28A2.66,2.66,0,0,1,90.94,8h0a2.67,2.67,0,0,0,5.33,0,8,8,0,0,0-8-8H24.43a8,8,0,0,0-8,8V114.4a8,8,0,0,0,8,8H88.28a8,8,0,0,0,7.33-4.84C95.43,117.55,95.24,117.57,95,117.57Z"/><path class="cls-3" d="M93.61,50.22a2.65,2.65,0,0,1-2.67-2.65h0V8a2.67,2.67,0,0,1,5.33,0V47.56a2.66,2.66,0,0,1-2.66,2.66Z"/><path class="cls-3" d="M93.61,103a10.64,10.64,0,1,1,0-21.28h0a2.66,2.66,0,0,1,0,5.32h0a5.32,5.32,0,0,0,0,10.64h0a2.66,2.66,0,0,1,0,5.32Z"/><path class="cls-3" d="M93.61,119a10.64,10.64,0,1,1,0-21.28h0a2.66,2.66,0,0,1,0,5.32h0a5.32,5.32,0,0,0,0,10.64h0a2.66,2.66,0,0,1,0,5.32Z"/><path class="cls-3" d="M96.27,103a2.67,2.67,0,0,1,0-5.33,5.32,5.32,0,1,0,0-10.64,2.66,2.66,0,0,1,0-5.32,10.65,10.65,0,0,1,0,21.29Z"/><path class="cls-3" d="M96.27,119a2.66,2.66,0,0,1,0-5.32,5.32,5.32,0,1,0,0-10.64h0a2.66,2.66,0,1,1,0-5.32,10.64,10.64,0,0,1,0,21.28Z"/><path class="cls-3" d="M96.27,103H93.61a2.66,2.66,0,1,1,0-5.32h2.66a2.66,2.66,0,1,1,0,5.32Z"/><path class="cls-3" d="M96.27,119H93.61a2.66,2.66,0,1,1,0-5.32h2.66a2.66,2.66,0,1,1,0,5.32Z"/><path class="cls-3" d="M93.61,87.05A10.65,10.65,0,1,1,93,65.76c.21,0,.43,0,.65,0a2.67,2.67,0,0,1,0,5.33,5.32,5.32,0,0,0,0,10.64h0a2.66,2.66,0,0,1,0,5.32Z"/><path class="cls-3" d="M93.61,71.08a10.64,10.64,0,1,1,0-21.28h0a2.66,2.66,0,0,1,0,5.32h0a5.32,5.32,0,0,0,0,10.64h0a2.66,2.66,0,0,1,0,5.32Z"/><path class="cls-3" d="M96.27,87a2.66,2.66,0,0,1,0-5.32,5.32,5.32,0,1,0,0-10.64,2.66,2.66,0,1,1,0-5.32,10.64,10.64,0,0,1,0,21.28Z"/><path class="cls-3" d="M96.27,71.08a2.66,2.66,0,0,1,0-5.32,5.32,5.32,0,1,0,0-10.64,2.66,2.66,0,1,1,0-5.32,10.64,10.64,0,0,1,0,21.28Z"/><path class="cls-3" d="M96.27,71.09H93.61a2.67,2.67,0,1,1-.33-5.33,1.82,1.82,0,0,1,.33,0h2.66a2.67,2.67,0,0,1,0,5.33Z"/><path class="cls-3" d="M96.27,55.12H93.61a2.66,2.66,0,1,1,0-5.32h2.66a2.66,2.66,0,1,1,0,5.32Z"/><path class="cls-3" d="M96.27,87H93.61a2.66,2.66,0,1,1,0-5.32h2.66a2.66,2.66,0,1,1,0,5.32Z"/><path class="cls-3" d="M94.54,116.9A7,7,0,0,1,89,114.42L63.17,139.89q2.44,1.83,4.73,3.81L95,116.87C94.88,116.88,94.72,116.9,94.54,116.9Z"/><path class="cls-3" d="M56.36,114.4a8,8,0,1,1,8-8A8,8,0,0,1,56.36,114.4Zm0-10.64A2.66,2.66,0,1,0,59,106.42a2.66,2.66,0,0,0-2.68-2.66Z"/><path class="cls-3" d="M61.29,16h-8a2.66,2.66,0,1,1,0-5.32h8a2.66,2.66,0,1,1,0,5.32Z"/><path class="cls-5" d="M3.1,125.26c0,3.43.56,17.54,10.6,25.63,12.71,10.24,36.6,7.59,53.51-10.73"/><path class="cls-6" d="M76.41,84.92A24,24,0,0,0,74,71.51a22.76,22.76,0,0,0-3.54-5,19.55,19.55,0,0,0-7.12-5,20.82,20.82,0,0,0-14.12-.11A20.31,20.31,0,0,0,42,65.85a19.11,19.11,0,0,0-4,5.4,21.09,21.09,0,0,0-1.69,13.27Z"/><path class="cls-7" d="M63.79,39.92c-2.75-1.47-5.75-.6-8,2.19-2.2-2.8-5.2-3.66-7.95-2.19a6.92,6.92,0,0,0-3.57,6.14V47c0,4.88,4.81,10.23,11.18,12.43a1,1,0,0,0,.69,0C62.55,57.2,67.36,51.85,67.36,47v-.92a6.92,6.92,0,0,0-3.57-6.14Z"/><path class="cls-8" d="M64.65,50.54a15.56,15.56,0,0,1-8.6,2.4"/><rect class="cls-9" x="66.75" y="43.33" width="3.05" height="7.62" rx="0.22"/><rect class="cls-9" x="41.75" y="43.95" width="3.05" height="7.62" rx="0.22"/><path class="cls-10" d="M43.89,44.56a12.19,12.19,0,1,1,24.38,0"/></g></g></svg>