<?xml version="1.0" encoding="utf-8"?>
<!-- Generator: Adobe Illustrator 24.0.2, SVG Export Plug-In . SVG Version: 6.00 Build 0)  -->
<svg version="1.1" id="Calque_1" xmlns="http://www.w3.org/2000/svg" xmlns:xlink="http://www.w3.org/1999/xlink" x="0px" y="0px"
	 viewBox="0 0 24 24" style="enable-background:new 0 0 24 24;" xml:space="preserve">
<style type="text/css">
	.st0{fill-rule:evenodd;clip-rule:evenodd;}
</style>
<g>
	<path class="st0" d="M13.1,9.8h-2.4v1.4h0.5v5.1h-0.5v1.4h2.9v-1.4h-0.5V9.8z M23.2,12c0-6.1-4.9-11.1-11.1-11.1S1.1,5.9,1.1,12
		S6,23.1,12.1,23.1S23.2,18.1,23.2,12z M12.1,2.2c5.4,0,9.8,4.4,9.8,9.8s-4.4,9.8-9.8,9.8S2.3,17.4,2.3,12S6.7,2.2,12.1,2.2z
		 M11,7.3c0,0.6,0.5,1.1,1.1,1.1c0.6,0,1.1-0.5,1.1-1.1c0-0.6-0.5-1.1-1.1-1.1C11.5,6.2,11,6.7,11,7.3z"/>
</g>
</svg>
