<?xml version="1.0" encoding="utf-8"?>
<!-- Generator: Adobe Illustrator 24.0.2, SVG Export Plug-In . SVG Version: 6.00 Build 0)  -->
<svg version="1.1" id="Calque_1" xmlns="http://www.w3.org/2000/svg" xmlns:xlink="http://www.w3.org/1999/xlink" x="0px" y="0px"
	 viewBox="0 0 24 24" style="enable-background:new 0 0 24 24;" xml:space="preserve">
<g>
	<path d="M19.8,19.1c0,0.5-0.4,0.9-0.9,0.9h-14C4.4,20,4,19.6,4,19.1V5c0-0.5,0.4-0.9,0.9-0.9h5.6V2.4H4.9C3.4,2.4,2.3,3.5,2.3,5
		v14.1c0,1.4,1.1,2.6,2.6,2.6H19c1.4,0,2.6-1.1,2.6-2.6v-5.6h-1.7v5.6H19.8z"/>
	<polygon points="13.4,2.4 13.4,4.1 18.6,4.1 11.9,10.8 13.1,12 19.8,5.3 19.8,10.5 21.5,10.5 21.5,2.4 	"/>
</g>
</svg>
