<svg width="100" height="100" viewBox="0 0 100 100" fill="none" xmlns="http://www.w3.org/2000/svg">
<path d="M48.889 99.5194C38.1275 99.3032 27.3661 99.087 16.6046 98.8228C13.1215 98.7267 9.66248 98.5345 6.17941 98.3183C4.18566 98.1982 3.80132 97.7178 3.70523 95.7961C3.17677 84.6743 2.48016 73.5766 2.11984 62.4548C1.87963 55.3685 2.0718 48.2583 2.0718 41.1721C2.0718 39.8989 2.50418 39.1303 3.70523 38.3616C5.77105 37.0404 7.54862 35.2629 9.37422 33.6054C15.4756 27.9844 21.601 22.4115 27.5822 16.6465C32.6507 11.7702 37.527 6.65367 42.4994 1.65728C44.6373 -0.504626 44.6853 -0.552668 46.7751 1.53717C52.4922 7.23018 58.0651 13.0433 63.8782 18.6402C67.3612 22.0032 71.2046 25.0058 74.8078 28.2727C78.5311 31.6597 82.1823 35.1427 85.8335 38.6018C86.6502 39.3945 87.3468 40.2352 87.3228 41.5564C87.2027 46.769 87.2748 51.9816 87.1066 57.1942C86.6983 70.694 86.2419 84.1939 85.7855 97.7178C85.7134 99.6635 85.6894 99.6875 83.7917 99.8797C83.2392 99.9278 82.6867 99.9998 82.1583 99.9998C72.5018 99.8797 62.8213 99.7116 53.1648 99.5915C51.7475 99.5674 50.3303 99.5915 48.913 99.5915C48.889 99.5434 48.889 99.5434 48.889 99.5194Z" fill="#F8C600"/>
<path d="M11.0078 20.538C11.1519 15.974 11.3201 11.41 11.4402 6.84597C11.4642 5.71698 11.9687 5.45275 12.6172 5.42872C13.8423 5.4047 15.0674 5.50079 16.2684 5.47677C18.2862 5.4047 20.304 5.26058 22.3218 5.21253C23.667 5.16449 23.8591 5.45275 23.9552 7.30237C24.1234 11.0977 24.3155 14.869 24.4356 18.6644C24.4597 19.1208 24.2194 19.7453 23.9552 20.0576C20.4481 24.2133 16.893 28.3449 13.3379 32.4285C12.9775 32.8368 12.2569 33.2932 11.9927 33.0771C11.6083 32.7408 11.3201 31.828 11.2961 31.1554C11.224 27.6243 11.272 24.1172 11.272 20.5861C11.2 20.538 11.1039 20.538 11.0078 20.538Z" fill="#F8C600"/>
<path d="M93.9043 91.6404C91.7184 91.5444 89.5565 91.3762 87.3706 91.3762C83.3591 91.3522 79.3235 91.4243 75.312 91.4243C74.3031 91.4243 73.3182 91.4002 72.3093 91.4002C68.9944 91.4002 65.6795 91.4243 62.3886 91.4243C62.0523 91.4243 61.716 91.3762 61.4038 91.2801C61.0675 91.184 61.1395 90.8958 61.2836 90.7036C61.6199 90.2712 61.9803 89.8389 62.3406 89.4545C64.0221 87.6529 65.6795 85.8513 67.385 84.0978C68.9944 82.4163 70.6759 80.8069 72.3093 79.1495C76.8734 74.5854 81.4854 70.0935 85.9533 65.4574C88.5716 62.743 91.19 60.0527 93.9284 57.4824C94.7211 56.7377 95.4417 55.945 96.2104 55.2004C96.3305 55.0803 96.4506 54.9602 96.5707 54.8881C96.979 54.6239 97.3394 54.768 97.3394 55.2484C97.3394 56.1852 97.3394 57.1221 97.2673 58.0589C97.0271 61.638 96.8109 65.2172 96.7869 68.7963C96.7869 72.1833 96.7148 75.5703 96.5947 78.9573C96.4746 82.3683 96.2344 85.8033 96.0662 89.2143C96.0422 89.6227 96.0662 90.031 96.0422 90.4154C96.0182 91.16 95.7059 91.5203 94.9613 91.5924C94.625 91.6404 94.2647 91.6404 93.9043 91.6404C93.9043 91.6404 93.9043 91.6645 93.9043 91.6404ZM74.9997 85.1067C75.0237 85.1547 75.0718 85.2268 75.0958 85.2748C75.8885 85.2748 76.6812 85.2989 77.4499 85.2748C80.2123 85.1788 82.9747 85.0827 85.7131 84.9866C87.0583 84.9385 88.4035 84.9145 89.7247 84.8665C90.3252 84.8425 90.3492 84.8184 90.3252 84.2179C90.3012 82.2242 90.3012 80.2064 90.3012 78.2126C90.3012 75.5703 90.3012 72.952 90.3252 70.3097C90.3252 70.1896 90.3012 70.0695 90.2771 69.9494C90.2291 69.9253 90.1811 69.9013 90.157 69.8773C85.1126 74.9698 80.0441 80.0382 74.9997 85.1067Z" fill="#1D1CAB"/>
<path d="M71.0123 84.3861C70.4839 84.3381 69.0666 82.8248 69.0906 82.3924C69.1147 82.2483 69.3308 82.0801 69.475 82.0321C69.5951 81.984 69.8113 82.0801 69.9074 82.1762C70.3878 82.5846 70.8442 82.9929 71.2765 83.4493C71.3966 83.5694 71.4207 83.8817 71.3486 84.0498C71.3246 84.242 71.0844 84.3381 71.0123 84.3861Z" fill="white"/>
<path d="M80.1885 71.7508C80.2606 71.7989 80.4527 71.8229 80.5488 71.943C80.9812 72.3994 81.4376 72.8798 81.822 73.3843C81.918 73.5044 81.87 73.9127 81.7499 74.0088C81.6058 74.1289 81.1734 74.177 81.0773 74.0569C80.5729 73.5284 80.1164 72.9279 79.7081 72.3273C79.5159 72.0391 79.7561 71.7268 80.1885 71.7508Z" fill="white"/>
<path d="M78.6987 76.3871C78.5065 76.315 78.3624 76.291 78.2903 76.1949C77.906 75.8106 77.5217 75.4262 77.1613 74.9938C76.9692 74.7536 76.8971 74.3933 77.2094 74.2492C77.3775 74.1531 77.7379 74.2492 77.93 74.3693C78.3144 74.6575 78.6747 74.9938 78.987 75.3542C79.1071 75.4983 79.1791 75.8106 79.1311 76.0027C79.0831 76.1709 78.8188 76.267 78.6987 76.3871Z" fill="white"/>
<path d="M86.5061 68.8923C86.3139 68.8202 86.1457 68.7962 86.0737 68.7242C85.6653 68.2437 85.257 67.7873 84.8967 67.2829C84.8246 67.1868 84.8726 66.8745 84.9927 66.7785C85.0888 66.6824 85.353 66.6584 85.4972 66.7064C85.6893 66.7785 85.8335 66.9226 86.0016 67.0667C86.2658 67.3069 86.5541 67.5712 86.7703 67.8594C86.8904 68.0035 86.9625 68.2918 86.9144 68.4599C86.8664 68.6281 86.6502 68.7722 86.5061 68.8923Z" fill="white"/>
<path d="M63.7817 87.6049C63.8778 87.4607 63.9739 87.2686 64.094 87.2205C64.2622 87.1725 64.5504 87.1725 64.6705 87.2686C65.0789 87.6289 65.4632 88.0132 65.8475 88.4216C66.0637 88.6618 66.1118 88.9981 65.8235 89.1903C65.6554 89.3104 65.271 89.2864 65.1029 89.1662C64.7186 88.878 64.3823 88.4936 64.046 88.1333C63.9259 87.9892 63.8778 87.8211 63.7817 87.6049Z" fill="white"/>
<path d="M76.5129 78.597C76.4408 78.6931 76.3928 78.9093 76.2727 78.9573C76.1045 79.0294 75.8163 79.0534 75.6962 78.9573C75.2398 78.525 74.8074 78.0445 74.399 77.5401C74.3029 77.444 74.351 77.1557 74.423 77.0116C74.4711 76.9155 74.7593 76.8435 74.8314 76.8915C75.4079 77.3719 75.9364 77.8764 76.4889 78.3808C76.5129 78.4048 76.4889 78.4769 76.5129 78.597Z" fill="white"/>
<path d="M93.9044 61.3498C93.6882 61.2057 93.472 61.1336 93.3279 61.0135C92.9676 60.6532 92.6073 60.2929 92.319 59.8605C92.2229 59.7404 92.319 59.4041 92.4391 59.284C92.5352 59.1879 92.8715 59.1879 92.9916 59.284C93.448 59.6443 93.8804 60.0286 94.2887 60.437C94.4088 60.5571 94.4088 60.8453 94.3608 61.0135C94.2887 61.1336 94.0725 61.2297 93.9044 61.3498Z" fill="white"/>
<path d="M73.39 81.7438C73.3179 81.7197 73.1738 81.6957 73.0777 81.5996C72.6934 81.2153 72.3091 80.8069 71.9968 80.3745C71.9007 80.2304 71.9247 79.8461 72.0448 79.7019C72.1169 79.6059 72.5493 79.6059 72.6694 79.7019C73.1018 80.0623 73.5101 80.4466 73.8464 80.903C74.1347 81.2633 73.8945 81.7197 73.39 81.7438Z" fill="white"/>
<path d="M83.8394 71.3906C83.8154 71.3906 83.7193 71.3906 83.6953 71.3666C83.2148 70.8622 82.7344 70.3817 82.302 69.8533C82.23 69.7812 82.3501 69.4689 82.4702 69.3488C82.5663 69.2527 82.8545 69.2527 82.9506 69.3248C83.431 69.7332 83.9114 70.1415 84.2958 70.622C84.536 70.9582 84.2718 71.3906 83.8394 71.3906Z" fill="white"/>
<path d="M90.4932 61.5178C90.7094 61.6379 90.9256 61.71 91.0697 61.8541C91.382 62.1183 91.6703 62.4306 91.9585 62.7429C92.1747 62.9831 92.2228 63.2714 91.9825 63.5116C91.7423 63.7758 91.4541 63.7518 91.2139 63.5356C90.8295 63.1753 90.4692 62.7669 90.1329 62.3586C90.0368 62.2385 90.0128 61.9742 90.0849 61.8301C90.1329 61.686 90.3491 61.6139 90.4932 61.5178Z" fill="white"/>
<path d="M68.7057 86.3318C68.6336 86.4279 68.5375 86.6441 68.3934 86.7162C68.2253 86.7883 67.937 86.7883 67.8169 86.6681C67.3845 86.2358 66.9762 85.7313 66.5919 85.2509C66.5198 85.1548 66.5438 84.9146 66.6159 84.8185C66.6879 84.7224 66.9522 84.6504 67.0242 84.6984C67.5767 85.1308 68.1052 85.6112 68.6096 86.0676C68.6817 86.0916 68.6817 86.1877 68.7057 86.3318Z" fill="white"/>
<path d="M89.5806 65.5295C89.4845 65.6736 89.3884 65.8898 89.2683 65.9138C89.1002 65.9619 88.8119 65.9859 88.6918 65.8658C88.2834 65.4815 87.8751 65.0731 87.5388 64.6407C87.4427 64.5206 87.5388 64.2324 87.5388 64.0162C87.7069 64.0162 87.9472 63.9681 88.0673 64.0402C88.5237 64.3525 88.932 64.6888 89.3404 65.0491C89.4605 65.1692 89.4845 65.3613 89.5806 65.5295Z" fill="white"/>
<path d="M39.905 59.9567C39.881 59.9567 39.881 59.9567 39.8569 59.9567C39.905 62.1907 39.953 64.4246 40.0011 66.6586C40.0491 68.4121 40.0731 70.1657 40.1452 71.9192C40.1692 72.5678 40.2893 73.1924 40.4094 73.8409C40.4334 73.985 40.6977 74.0811 40.8418 74.1772C40.9379 74.0331 41.034 73.889 41.082 73.7208C41.106 73.6247 41.034 73.4566 41.082 73.3605C41.1781 73.1924 41.3222 72.9762 41.4663 72.9521C42.0669 72.8561 42.6914 72.832 43.292 72.784C44.445 72.6879 45.622 72.5918 46.775 72.4717C47.928 72.3516 49.1051 72.1835 50.2581 72.0874C53.4289 71.7991 56.6237 71.607 59.7945 71.2466C62.1966 70.9824 64.6227 70.8623 66.9288 70.1176C67.0969 70.0696 67.2891 70.0456 67.4572 70.0936C67.8175 70.1897 67.9857 70.0456 68.0577 69.7573C68.1538 69.397 68.2739 69.0367 68.2739 68.6523C68.298 66.3944 68.346 64.1124 68.322 61.8544C68.2739 58.7556 68.1298 55.6569 68.1298 52.5342C68.1298 49.7237 68.2259 46.9372 68.322 44.1268C68.346 43.5503 68.5141 42.9497 68.5382 42.3732C68.5382 42.181 68.37 41.9408 68.2019 41.8207C68.0577 41.7246 67.8175 41.7246 67.6254 41.7246C66.4003 41.7006 65.1992 41.6766 63.9742 41.7006C61.3078 41.7487 58.6415 41.8688 55.9751 41.8688C53.1646 41.8928 50.3301 41.8447 47.5197 41.7727C45.8142 41.7246 44.1087 41.6766 42.4272 42.0609C41.3462 42.3012 40.6737 42.9257 40.4334 44.0067C40.3614 44.2949 40.2893 44.5832 40.2653 44.8954C40.1212 47.0573 39.929 49.2433 39.881 51.4052C39.8569 54.2397 39.905 57.0982 39.905 59.9567Z" fill="#1D1CAB"/>
<path d="M39.9048 59.9566C39.9048 57.0981 39.8568 54.2636 39.9289 51.4051C39.9769 49.2432 40.1691 47.0573 40.3132 44.8954C40.3372 44.6071 40.4093 44.2949 40.4814 44.0066C40.7456 42.9257 41.3942 42.3011 42.4751 42.0609C44.1566 41.7006 45.8621 41.7486 47.5676 41.7726C50.3781 41.8447 53.2126 41.8687 56.023 41.8687C58.6894 41.8447 61.3557 41.7486 64.0221 41.7006C65.2471 41.6766 66.4482 41.7246 67.6733 41.7246C67.8654 41.7246 68.1057 41.7246 68.2498 41.8207C68.4179 41.9408 68.5861 42.181 68.5861 42.3732C68.5621 42.9497 68.3939 43.5502 68.3699 44.1267C68.2738 46.9372 68.1777 49.7236 68.1777 52.5341C68.1777 55.6328 68.3459 58.7316 68.3699 61.8543C68.3939 64.1123 68.3699 66.3943 68.3218 68.6523C68.3218 69.0126 68.2017 69.397 68.1057 69.7573C68.0336 70.0455 67.8414 70.2137 67.5051 70.0936C67.337 70.0455 67.1448 70.0695 66.9767 70.1176C64.6466 70.8622 62.2205 70.9583 59.8424 71.2466C56.6716 71.6069 53.4768 71.7991 50.306 72.0873C49.153 72.1834 47.9759 72.3516 46.8229 72.4717C45.6699 72.5918 44.4929 72.6879 43.3399 72.7839C42.7393 72.832 42.1148 72.856 41.5143 72.9521C41.3701 72.9761 41.226 73.1923 41.1299 73.3604C41.0819 73.4565 41.178 73.6007 41.1299 73.7208C41.0819 73.8889 40.9618 74.033 40.8897 74.1772C40.7456 74.0571 40.4814 73.961 40.4573 73.8409C40.3372 73.2163 40.2171 72.5677 40.1931 71.9192C40.121 70.1656 40.073 68.4121 40.049 66.6585C40.0009 64.4246 39.9529 62.1906 39.9048 59.9566C39.9048 59.9566 39.8808 59.9566 39.9048 59.9566Z" fill="#1D1CAB"/>
<path d="M55.9991 68.9407V68.9647C52.5881 68.9647 49.1771 68.9407 45.7901 68.9888C44.7332 69.0128 43.6282 69.1809 42.5953 69.4211C40.9618 69.8055 40.1451 71.0306 40.2412 72.712C40.2412 72.8802 40.2652 73.0483 40.2412 73.2165C40.1451 73.9131 40.5054 74.4415 40.9618 74.8259C41.7305 75.4745 42.6193 75.9549 43.6282 76.075C45.3817 76.2672 47.1113 76.4353 48.8648 76.5074C51.1948 76.6275 53.5009 76.6755 55.8309 76.6995C57.1281 76.6995 58.4012 76.5794 59.6983 76.5314C62.3647 76.4113 65.031 76.2912 67.6974 76.147C68.0337 76.123 68.3459 76.051 68.394 75.6426C68.418 75.2342 68.2018 74.97 67.7934 74.946C66.2321 74.8499 65.3913 72.4958 66.4963 71.3668C66.8806 70.9825 67.289 70.5982 67.6974 70.2138C67.8895 70.0217 68.1057 69.8535 68.2258 69.6133C68.3219 69.4452 68.418 69.1569 68.3219 69.0608C68.2018 68.9167 67.9376 68.8687 67.7454 68.8687C67.0248 68.8687 66.2801 68.9167 65.5595 68.9167C62.3647 68.9407 59.1939 68.9407 55.9991 68.9407Z" fill="#999CD8"/>
<path d="M55.9992 68.9409C59.17 68.9409 62.3648 68.9409 65.5356 68.9409C66.2562 68.9409 67.0008 68.8928 67.7215 68.8928C67.9137 68.8928 68.2019 68.9649 68.298 69.085C68.3701 69.1811 68.298 69.4934 68.2019 69.6375C68.0578 69.8537 67.8656 70.0458 67.6734 70.238C67.2891 70.6223 66.8567 70.9827 66.4724 71.391C65.3674 72.544 66.2081 74.8981 67.7695 74.9702C68.1779 74.9942 68.4181 75.2584 68.37 75.6668C68.346 76.0752 68.0097 76.1472 67.6734 76.1712C65.0071 76.2913 62.3407 76.4115 59.6744 76.5556C58.3773 76.6276 57.1041 76.7477 55.807 76.7237C53.4769 76.6997 51.1469 76.6517 48.8409 76.5316C47.0873 76.4355 45.3338 76.2913 43.6043 76.0992C42.5954 75.9791 41.7066 75.5227 40.9379 74.8501C40.4815 74.4657 40.1212 73.9373 40.2173 73.2407C40.2413 73.0725 40.2173 72.9044 40.2173 72.7362C40.0972 71.0547 40.9379 69.8297 42.5713 69.4453C43.6043 69.2051 44.6852 69.0129 45.7662 69.0129C49.1772 68.9649 52.5882 68.9889 55.9751 68.9889C55.9992 68.9649 55.9992 68.9649 55.9992 68.9409Z" fill="#999CD8"/>
<path d="M46.631 52.1498C46.631 50.9968 46.6069 49.8438 46.631 48.6908C46.655 47.6579 46.9913 47.4417 48.0002 47.5858C48.5526 47.6819 49.1292 47.6819 49.7057 47.6579C51.4832 47.6338 53.2368 47.5618 55.0143 47.5618C56.912 47.5618 58.7857 47.6579 60.6833 47.7059C61.2598 47.7299 61.428 47.8741 61.476 48.4506C61.5961 49.8678 61.7162 51.2851 61.8363 52.7023C61.9084 53.543 61.6202 53.8793 60.7554 53.8553C59.2901 53.8553 57.8248 53.7592 56.3595 53.7833C54.1256 53.8313 51.8916 53.9274 49.6816 54.0235C48.937 54.0475 48.1923 54.1436 47.4477 54.2156C46.9673 54.2637 46.703 54.0235 46.631 53.543C46.631 53.495 46.6069 53.447 46.6069 53.3989C46.6069 52.9906 46.6069 52.5582 46.631 52.1498C46.6069 52.1498 46.6069 52.1498 46.631 52.1498Z" fill="white"/>
<path d="M54.3898 58.4672C56.3595 58.4672 58.3292 58.4672 60.2749 58.4672C60.323 58.4672 60.3951 58.4672 60.4431 58.4672C60.7794 58.4672 61.0917 58.5152 61.1397 58.9476C61.1637 59.2599 60.9235 59.452 60.4431 59.4761C59.8666 59.5001 59.2661 59.5481 58.6895 59.5241C55.831 59.4761 52.9725 59.428 50.09 59.404C49.5375 59.404 48.985 59.452 48.4325 59.452C48.2884 59.452 48.1683 59.452 48.0242 59.428C47.7359 59.38 47.4717 59.1878 47.5437 58.8996C47.5918 58.7074 47.856 58.4672 48.0482 58.4672C48.6967 58.3951 49.3453 58.4191 49.9699 58.4191C51.4352 58.4191 52.8764 58.4191 54.3417 58.4191C54.3898 58.4191 54.3898 58.4431 54.3898 58.4672Z" fill="white"/>
<path d="M54.3658 62.599C52.4441 62.599 50.4984 62.599 48.5767 62.599C48.4085 62.599 48.2164 62.623 48.0962 62.551C47.9281 62.4309 47.7119 62.2387 47.7119 62.0946C47.7119 61.9264 47.9521 61.7583 48.1203 61.6622C48.2884 61.5901 48.5046 61.6142 48.6968 61.6142C52.2759 61.6142 55.8311 61.6141 59.4102 61.5901C59.8906 61.5901 60.371 61.5421 60.8515 61.5181C61.1878 61.494 61.476 61.5661 61.5241 61.9504C61.5721 62.3588 61.2839 62.5029 60.9235 62.5269C60.1068 62.575 59.2661 62.623 58.4494 62.623C57.0802 62.6471 55.7109 62.623 54.3658 62.599C54.3658 62.623 54.3658 62.623 54.3658 62.599Z" fill="white"/>
<path d="M31.0411 68.7246C31.1612 68.8207 31.3293 68.8687 31.4254 68.9888C32.5064 70.4061 33.6113 71.8233 34.6683 73.2406C36.2777 75.4025 37.9111 77.5404 39.4725 79.7503C41.2501 82.2725 44.613 86.6204 46.5828 88.9985C47.0632 89.575 47.0872 89.9113 46.5347 90.4157C45.5739 91.2805 44.613 92.1452 43.6282 92.962C43.0757 93.4184 42.4511 93.8267 41.8746 94.2591C41.4182 94.5954 41.0339 94.5714 40.6976 94.115C38.2234 90.9682 34.332 85.8517 31.9299 82.6809C30.2484 80.4469 28.639 78.1649 27.0055 75.8829C26.6933 75.4505 26.429 74.9701 26.0927 74.5137C25.9486 74.3215 25.7564 74.1294 25.5402 73.9852C25.276 73.8171 25.204 73.5529 25.4442 73.3127C25.6844 73.0724 25.9486 72.8082 26.2369 72.6401C27.2938 72.0635 28.1105 71.1988 28.9993 70.4301C29.5278 69.9737 30.0322 69.4693 30.5847 69.0129C30.6567 68.9168 30.8249 68.8447 31.0411 68.7246Z" fill="#070655"/>
<path d="M22.5378 62.9834C22.6099 63.0314 22.7781 63.0795 22.8982 63.1515C25.1802 64.6889 27.4622 66.2503 29.7202 67.8116C29.7922 67.8597 29.8883 67.8837 29.9604 67.9558C30.0805 68.0999 30.3207 68.244 30.2967 68.3881C30.2726 68.5803 30.1045 68.7725 29.9364 68.8926C29.2157 69.4211 28.4711 69.9015 27.7744 70.454C26.8857 71.1746 26.0449 71.9433 25.1561 72.6639C24.6277 73.0963 24.3634 73.0242 24.1713 72.3756C23.859 71.3668 23.6188 70.3339 23.3546 69.3009C22.9222 67.5474 22.5138 65.7939 22.1055 64.0643C22.0574 63.8962 22.0094 63.7281 21.9854 63.5599C21.9854 63.2236 22.2015 62.9834 22.5378 62.9834ZM24.7958 71.8712C26.2131 70.6461 27.5583 69.4931 28.9034 68.3161C28.423 68.0038 27.9186 67.6675 27.4141 67.3312C26.9337 67.0189 26.4773 66.6586 25.9969 66.3464C25.9248 66.2983 25.7327 66.2743 25.6606 66.3464C25.1321 66.6586 24.6277 67.0189 24.0992 67.3072C23.883 67.4273 23.835 67.5474 23.883 67.7876C23.9791 68.172 24.0752 68.5563 24.1713 68.9406C24.3875 69.9015 24.5796 70.8623 24.7958 71.8712Z" fill="#070655"/>
<path d="M24.796 71.8714C24.5798 70.8384 24.3876 69.9016 24.1954 68.9648C24.1234 68.5805 24.0273 68.1961 23.9072 67.8118C23.8351 67.5956 23.8832 67.4515 24.1234 67.3314C24.6518 67.0191 25.1563 66.6828 25.6847 66.3705C25.7808 66.3225 25.949 66.3225 26.021 66.3705C26.5015 66.6828 26.9579 67.0191 27.4383 67.3554C27.9427 67.6917 28.4472 68.028 28.9276 68.3402C27.5344 69.5173 26.1892 70.6703 24.796 71.8714Z" fill="white"/>
</svg>
