<svg width="100" height="100" viewBox="0 0 100 100" fill="none" xmlns="http://www.w3.org/2000/svg">
<path d="M31.3931 63.5884C32.1476 65.933 32.8483 68.2776 33.7107 70.5413C33.8724 70.9725 34.7078 71.3768 35.2737 71.4037C37.241 71.5115 39.2353 71.5385 41.2295 71.4846C48.5867 71.242 55.9438 70.7839 63.274 70.7569C68.8256 70.73 74.4041 71.242 79.9556 71.4846C81.1414 71.5385 82.3541 71.5924 83.5129 71.5115C84.4831 71.4307 85.2107 71.5654 85.3724 72.6434C85.5071 73.5058 84.8065 74.2603 83.7285 74.2603C81.9498 74.2873 80.1442 74.2603 78.3656 74.1256C68.7178 73.4249 59.0699 73.2632 49.3952 73.883C44.7868 74.1795 40.1785 74.1795 35.5702 74.2064C32.9561 74.2334 31.5817 73.1015 30.7193 70.6222C28.2669 63.4806 25.8146 56.3391 23.3891 49.1975C21.0445 42.2177 18.7539 35.2378 16.5171 28.258C15.7625 25.8864 15.1965 23.434 14.6037 21.0086C14.442 20.3349 14.1725 20.0384 13.4179 20.0115C11.262 19.9845 9.13297 19.9306 6.97703 19.7689C6.43804 19.715 5.95295 19.23 5.44092 18.9605C5.79126 18.4484 6.0338 17.7477 6.51889 17.4783C7.13872 17.1279 7.97415 17.074 8.70178 17.0201C10.1301 16.9123 11.5584 16.9393 12.9867 16.8584C15.5469 16.6967 16.2745 17.1818 17.1099 19.6611C18.0262 22.41 18.9694 25.1588 19.8318 27.9346C20.0744 28.77 20.4517 28.9586 21.2601 28.8778C22.4728 28.743 23.7125 28.7161 24.9522 28.7161C40.987 28.743 57.0218 28.77 73.0296 28.7969C79.5783 28.8239 86.1539 28.8778 92.7026 28.9317C95.2089 28.9586 95.8557 29.821 95.128 32.1925C93.8614 36.2888 92.4062 40.3582 91.3551 44.5084C89.9807 49.8982 87.6361 54.8838 85.5341 59.9772C84.9143 61.4864 83.8363 62.1871 82.1924 62.4566C78.0153 63.1572 73.8381 63.3728 69.6071 63.3728C58.3962 63.3998 47.1853 63.5615 35.9744 63.6693C34.5192 63.5884 33.037 63.5884 31.3931 63.5884ZM57.426 31.5188C57.426 36.3427 57.426 41.0319 57.426 45.8019C58.3962 45.8019 59.1508 45.8019 59.8784 45.8019C63.0584 45.748 66.2384 45.6402 69.4184 45.6133C72.1942 45.5863 72.2751 45.6133 72.8141 42.9723C73.5686 39.1994 74.1615 35.4265 74.8622 31.5188C68.9064 31.5188 63.1393 31.5188 57.426 31.5188ZM36.9985 31.411C38.1573 35.9654 39.2353 40.3582 40.3941 44.724C40.4749 45.0204 41.1487 45.3438 41.5529 45.3707C44.5712 45.4785 47.5896 45.5324 50.6079 45.5594C51.9014 45.5863 53.2219 45.5594 54.7042 45.5594C54.7042 40.8972 54.7042 36.181 54.7042 31.3841C48.937 31.411 43.0351 31.411 36.9985 31.411ZM75.3203 45.1282C76.9103 45.1282 78.5542 45.1282 80.2251 45.1282C82.5427 45.1012 84.8334 45.0743 87.1511 45.0473C88.0134 45.0473 88.4716 44.6701 88.7411 43.8077C89.6034 40.9511 90.5736 38.1483 91.4899 35.2917C91.8672 34.079 92.1367 32.8663 92.4601 31.5997C87.3397 31.5997 82.3541 31.5997 77.3415 31.5997C76.6408 36.1541 75.9941 40.6816 75.3203 45.1282ZM37.4297 44.9395C36.5134 40.7355 35.5971 36.3697 34.6 32.0578C34.5461 31.7614 33.8724 31.4649 33.4681 31.438C30.2073 31.2763 26.9464 31.1954 23.6856 31.1146C22.7962 31.0876 21.88 31.1146 20.9637 31.1146C20.9637 31.2763 20.9098 31.3841 20.9367 31.4919C22.2034 35.7229 23.47 39.927 24.7905 44.1311C24.8983 44.4814 25.4912 44.9126 25.8954 44.9126C29.7491 44.9665 33.6029 44.9395 37.4297 44.9395ZM87.5283 47.9309C84.0788 47.9309 80.7102 47.8501 77.3415 47.9579C73.8381 48.0387 74.4041 47.5267 73.2452 51.2187C72.3829 53.9406 71.5474 56.6625 70.6851 59.3843C70.5773 59.7347 70.4695 60.112 70.3078 60.5701C70.8737 60.5701 71.2779 60.5971 71.6822 60.5701C74.9969 60.2737 78.3117 59.9233 81.6265 59.6538C82.4619 59.5999 82.947 59.2496 83.2434 58.495C84.4022 55.6384 85.6149 52.7548 86.7738 49.8982C87.0433 49.2514 87.2858 48.5507 87.5283 47.9309ZM41.7685 60.624C40.7175 56.7164 39.6665 52.9435 38.6963 49.1436C38.4807 48.2543 38.1573 47.9309 37.2141 47.904C33.6568 47.7692 30.0725 47.5536 26.5152 47.365C26.3266 47.365 26.1379 47.4458 25.8685 47.5267C27.2698 51.7308 28.6442 55.827 30.0456 59.9233C30.1534 60.2198 30.5576 60.5971 30.8541 60.5971C34.4922 60.651 38.1304 60.624 41.7685 60.624ZM57.0218 60.5701C59.5281 60.5701 61.9535 60.4354 64.352 60.624C66.5349 60.7857 67.8284 60.3276 68.4213 57.956C69.2029 54.776 70.3347 51.6769 71.3318 48.4699C66.5888 48.4699 62.0882 48.4699 57.4799 48.4699C57.3182 52.5392 57.1835 56.5008 57.0218 60.5701ZM41.0948 48.3621C42.2805 52.2697 43.4663 56.1774 44.706 60.0581C44.8138 60.3815 45.4067 60.7049 45.757 60.7318C48.2633 60.8127 50.7696 60.8396 53.2489 60.8127C53.5723 60.8127 54.0843 60.3815 54.1382 60.0581C54.3269 58.9262 54.4616 57.7674 54.4616 56.6355C54.5155 53.9406 54.4886 51.2726 54.4886 48.3621C50.1497 48.3621 45.757 48.3621 41.0948 48.3621Z" fill="#1D1CAB"/>
<path d="M81.7341 88.0854C82.0845 91.6966 78.2038 94.1759 75.0238 94.2029C71.8977 94.2298 68.1787 90.9151 68.2865 88.1123C68.4751 83.6657 71.4395 80.5666 75.1316 80.4588C79.4974 80.2971 81.7341 83.0459 81.7341 88.0854ZM78.9584 87.9776C78.9584 84.582 77.9612 83.2615 75.4819 83.2615C73.0295 83.2615 71.0083 85.4444 71.0353 88.0315C71.0622 89.5137 73.299 91.454 75.0507 91.454C77.3145 91.481 78.9584 89.9988 78.9584 87.9776Z" fill="#1D1CAB"/>
<path d="M44.4633 85.7946C44.4903 90.9689 39.3969 94.2567 34.7077 92.0738C32.5518 91.0767 31.4468 88.9477 31.6355 86.5223C31.8241 83.8004 33.0099 81.8061 35.3545 80.4048C36.8367 79.5424 38.3458 79.4346 39.9358 80.0005C40.1514 80.0814 40.367 80.2161 40.6096 80.2431C43.5201 80.7551 44.2747 82.5068 44.4633 85.7946ZM41.7145 85.9024C41.7145 83.7465 41.4719 83.4231 39.4777 82.8572C39.1274 82.7494 38.8309 82.5338 38.4806 82.4799C38.1033 82.399 37.6721 82.3182 37.3487 82.426C35.3006 83.0458 33.7645 85.8216 34.4382 87.8697C34.6538 88.4896 35.1389 89.1633 35.6779 89.4867C38.4536 91.0498 41.7145 89.1094 41.7145 85.9024Z" fill="#1D1CAB"/>
<path d="M57.4263 31.5189C63.1395 31.5189 68.9066 31.5189 74.8624 31.5189C74.1617 35.3996 73.5689 39.1995 72.8143 42.9724C72.2753 45.6403 72.1945 45.5864 69.4187 45.6134C66.2387 45.6403 63.0587 45.7481 59.8787 45.802C59.1241 45.829 58.3695 45.802 57.4263 45.802C57.4263 41.032 57.4263 36.3159 57.4263 31.5189Z" fill="#F8C600"/>
<path d="M36.999 31.411C43.0357 31.411 48.9375 31.411 54.7047 31.411C54.7047 36.208 54.7047 40.8971 54.7047 45.5863C53.1955 45.5863 51.902 45.6133 50.6084 45.5863C47.5901 45.5324 44.5718 45.5055 41.5534 45.3977C41.1492 45.3707 40.4755 45.0473 40.3946 44.7509C39.2358 40.3582 38.1578 35.9654 36.999 31.411Z" fill="#F8C600"/>
<path d="M75.3203 45.1283C75.9671 40.6816 76.6408 36.1542 77.3146 31.5997C82.3271 31.5997 87.3397 31.5997 92.4331 31.5997C92.1097 32.8663 91.8402 34.0791 91.4629 35.2918C90.5736 38.1484 89.5765 40.9511 88.7141 43.8077C88.4446 44.6971 87.9864 45.0474 87.1241 45.0474C84.8064 45.0744 82.5158 45.1283 80.1981 45.1283C78.5542 45.1283 76.9103 45.1283 75.3203 45.1283Z" fill="#F8C600"/>
<path d="M37.4294 44.9397C33.6026 44.9397 29.7489 44.9667 25.8951 44.9128C25.5178 44.9128 24.9249 44.4816 24.7902 44.1312C23.4697 39.9272 22.2031 35.6961 20.9365 31.492C20.9095 31.3843 20.9365 31.2495 20.9634 31.1148C21.8797 31.1148 22.796 31.0878 23.6853 31.1148C26.9461 31.1956 30.207 31.3034 33.4679 31.4382C33.8721 31.4651 34.5458 31.7615 34.5997 32.058C35.6238 36.3968 36.5401 40.7356 37.4294 44.9397Z" fill="#F8C600"/>
<path d="M87.5282 47.931C87.2856 48.5508 87.0431 49.2515 86.7736 49.9252C85.6148 52.7818 84.4021 55.6654 83.2432 58.522C82.9468 59.2766 82.4617 59.6 81.6263 59.6808C78.3115 59.9503 74.9968 60.2737 71.682 60.5971C71.2778 60.6241 70.9005 60.5971 70.3076 60.5971C70.4424 60.112 70.5771 59.7617 70.6849 59.4113C71.5473 56.6895 72.3827 53.9676 73.2451 51.2457C74.4039 47.5537 73.838 48.0657 77.3414 47.9849C80.6831 47.8771 84.0787 47.931 87.5282 47.931Z" fill="#F8C600"/>
<path d="M41.7687 60.6241C38.1306 60.6241 34.4924 60.6511 30.8543 60.5972C30.5848 60.5972 30.1536 60.2199 30.0458 59.9235C28.6444 55.8272 27.27 51.7309 25.8687 47.5268C26.1381 47.446 26.3268 47.3651 26.5154 47.3651C30.0727 47.5538 33.657 47.7694 37.2143 47.9041C38.1575 47.931 38.4809 48.2544 38.6965 49.1438C39.6667 52.9436 40.7177 56.7165 41.7687 60.6241Z" fill="#F8C600"/>
<path d="M57.022 60.5702C57.1837 56.5008 57.3184 52.5393 57.4801 48.47C62.0884 48.47 66.589 48.47 71.332 48.47C70.3349 51.6769 69.203 54.7761 68.4215 57.9561C67.8556 60.3276 66.5351 60.7858 64.3522 60.6241C61.9537 60.4085 59.5283 60.5702 57.022 60.5702Z" fill="#F8C600"/>
<path d="M41.0947 48.3622C45.757 48.3622 50.1497 48.3622 54.5155 48.3622C54.5155 51.2458 54.5424 53.9407 54.4885 56.6356C54.4616 57.7944 54.3538 58.9263 54.1651 60.0582C54.1112 60.3546 53.5722 60.7858 53.2758 60.8127C50.7695 60.8397 48.2632 60.8127 45.7839 60.7319C45.4066 60.7319 44.8137 60.3816 44.7329 60.0582C43.4393 56.1775 42.2805 52.2698 41.0947 48.3622Z" fill="#F8C600"/>
<path d="M78.9591 87.9775C78.9591 89.9987 77.2882 91.4809 75.0245 91.4809C73.2728 91.4809 71.036 89.5406 71.0091 88.0583C70.9821 85.4712 73.0033 83.3153 75.4557 83.2883C77.9889 83.2344 78.9591 84.5549 78.9591 87.9775Z" fill="#999CD8"/>
<path d="M41.7143 85.9024C41.7143 89.1094 38.4534 91.0497 35.6777 89.4597C35.1387 89.1363 34.6267 88.4626 34.438 87.8428C33.7643 85.8216 35.3004 83.0188 37.3485 82.399C37.6989 82.2912 38.1301 82.3721 38.4804 82.4529C38.8307 82.5338 39.1272 82.7493 39.4775 82.8302C41.4718 83.4231 41.7143 83.7465 41.7143 85.9024Z" fill="#999CD8"/>
<path d="M6.03405 15.2414C6.95033 15.2414 7.8666 15.1875 8.78288 15.2414C10.2381 15.3222 11.0736 16.3193 11.1275 18.0171C11.2083 19.7958 10.6424 20.6851 9.07932 20.766C6.95033 20.8738 4.82134 20.8738 2.69235 20.6851C2.15336 20.6312 1.50658 19.8227 1.26404 19.2299C0.994545 18.5831 1.04844 17.7476 1.12929 16.9931C1.26404 15.8342 2.09946 15.2953 3.20438 15.2414C4.12066 15.2144 5.06388 15.2414 6.03405 15.2414Z" fill="#999CD8"/>
</svg>
