<svg width="100" height="100" viewBox="0 0 100 100" fill="none" xmlns="http://www.w3.org/2000/svg">
<path d="M45.3779 99.5479C34.9635 99.3444 24.549 99.1409 14.1346 98.8922C10.7638 98.8017 7.41634 98.6208 4.04559 98.4173C2.11612 98.3043 1.74418 97.8521 1.65119 96.0432C1.13977 85.5745 0.465618 75.1284 0.11692 64.6597C-0.115545 57.9895 0.0704279 51.2968 0.0704279 44.6266C0.0704279 43.4283 0.488865 42.7047 1.65119 41.9812C3.65039 40.7376 5.37064 39.0644 7.13738 37.5043C13.042 32.2134 18.9699 26.9677 24.7583 21.5412C29.6633 16.9512 34.3823 12.1352 39.1944 7.43216C41.2633 5.3972 41.3098 5.35198 43.3322 7.31911C48.8649 12.6778 54.2581 18.1496 59.8838 23.4179C63.2545 26.5834 66.974 29.4097 70.461 32.4847C74.0642 35.6728 77.5977 38.9514 81.1311 42.2073C81.9215 42.9535 82.5957 43.7448 82.5724 44.9884C82.4562 49.8949 82.5259 54.8014 82.3632 59.7079C81.968 72.4151 81.5263 85.1223 81.0846 97.8521C81.0149 99.6835 80.9916 99.7061 79.1552 99.887C78.6205 99.9322 78.0858 100 77.5744 100C68.2293 99.887 58.8609 99.7287 49.5158 99.6157C48.1443 99.5931 46.7727 99.6157 45.4012 99.6157C45.3779 99.5705 45.3779 99.5705 45.3779 99.5479Z" fill="#F8C600"/>
<path d="M8.69482 25.204C8.8343 20.908 8.99703 16.612 9.11326 12.3159C9.13651 11.2532 9.62468 11.0045 10.2523 10.9819C11.4379 10.9593 12.6235 11.0497 13.7858 11.0271C15.7385 10.9593 17.6912 10.8236 19.6439 10.7784C20.9458 10.7332 21.1317 11.0045 21.2247 12.7455C21.3874 16.318 21.5734 19.8679 21.6896 23.4404C21.7129 23.87 21.4804 24.4578 21.2247 24.7518C17.8307 28.6634 14.3902 32.5524 10.9497 36.3963C10.601 36.7806 9.90364 37.2102 9.64793 37.0067C9.27599 36.6902 8.99703 35.831 8.97378 35.1979C8.90404 31.8741 8.95054 28.573 8.95054 25.2492C8.8808 25.204 8.78781 25.204 8.69482 25.204Z" fill="#F8C600"/>
<path d="M84.7801 49.5641C87.0845 49.6873 89.2624 49.7612 91.4402 49.909C92.6304 49.9829 93.8207 50.1306 95.0109 50.2538C98.1764 50.6233 98.9867 52.3228 99.2146 54.6628C100.177 64.4167 99.949 74.1952 99.9997 83.9737C100.025 87.7423 97.7965 89.4172 94.1246 89.8113C90.6045 90.1807 87.0339 90.2054 83.4886 90.2546C75.9168 90.3778 68.3196 90.5502 60.7478 90.4763C55.8856 90.427 51.0235 90.0822 46.1866 89.6142C44.8191 89.4911 43.4517 88.629 42.2868 87.8161C41.7803 87.4713 41.603 86.4122 41.603 85.6979C41.6284 78.949 41.5777 72.1754 41.8563 65.4512C41.9829 62.0521 42.6666 58.6776 43.2744 55.3278C43.7049 52.9878 44.8698 50.9681 47.3769 50.1553C48.3392 49.8351 49.4028 49.7612 50.441 49.6627C53.1253 49.441 55.835 49.2932 58.6206 49.0961C58.7726 47.6183 58.8738 45.9926 59.0764 44.3916C59.355 42.298 60.9757 40.9679 63.0776 40.9925C64.0905 41.0172 64.7996 41.4113 64.9262 42.4211C65.0529 43.431 64.3691 43.899 63.4828 44.1207C63.0269 44.2438 62.5458 44.2438 62.0646 44.3177C62.0646 46.0173 62.0393 47.7168 62.1153 49.3917C62.1153 49.5888 62.8244 49.8843 63.2042 49.8843C67.7118 49.8843 72.2195 49.8597 76.7271 49.8104C78.044 49.7858 79.3608 49.6627 80.6776 49.6134C81.3614 49.5888 81.5893 49.3178 81.5386 48.6774C81.4373 47.372 81.412 46.0419 81.2601 44.7364C81.2348 44.4655 80.8549 44.1207 80.551 43.9975C80.1711 43.8251 79.6393 43.9236 79.2848 43.7266C78.9303 43.5295 78.4745 43.1108 78.4491 42.766C78.4238 42.4211 78.8543 41.7807 79.1582 41.7315C80.3231 41.559 81.5386 41.4359 82.7035 41.6083C83.7671 41.7561 84.3496 42.6674 84.4509 43.7266C84.5775 45.0813 84.6028 46.436 84.7041 47.7907C84.7041 48.3572 84.7294 48.9237 84.7801 49.5641Z" fill="#999CD8"/>
<path d="M57.1268 69.0967C63.2551 68.8258 69.3835 68.3824 75.5118 68.3578C81.0577 68.3085 86.5783 68.407 92.0989 67.7666C93.8463 67.5696 94.3021 68.1361 94.1755 69.8356C94.0742 70.9933 93.669 71.412 92.3015 71.4366C88.8321 71.4859 85.3628 71.4366 81.8934 71.5105C72.9288 71.6337 63.9642 71.8061 54.9742 71.9539C53.075 71.9785 51.1504 71.9539 49.2511 71.9293C47.757 71.9046 46.9973 70.7223 47.681 69.4662C47.8329 69.1952 48.3647 68.9489 48.7446 68.9489C51.5302 68.8997 54.3158 68.9243 57.1268 68.9243C57.1268 68.9489 57.1268 69.0228 57.1268 69.0967Z" fill="#070655"/>
<path d="M73.764 44.2439C70.6238 44.2439 67.4837 44.2439 64.3182 44.2439C61.7605 44.2439 60.6463 42.6675 61.6845 40.3768C61.8871 39.9335 62.6468 39.4408 63.1533 39.4408C68.0408 39.3423 72.9536 39.2684 77.8411 39.3177C79.6898 39.3423 80.6014 40.6478 80.2469 42.3966C80.0443 43.4064 79.4618 44.0715 78.2969 44.0468C76.7775 44.0222 75.2581 44.0468 73.7387 44.0468C73.764 44.1207 73.764 44.17 73.764 44.2439Z" fill="#1D1CAB"/>
<path d="M71.9917 74.7865C69.434 74.8111 69.0541 74.5155 68.8262 72.4465C68.7249 71.4859 68.573 70.476 68.7249 69.5154C68.8009 69.0228 69.3833 68.3331 69.8645 68.2346C70.8268 67.9883 71.8651 68.0621 72.878 68.0621C73.8657 68.0621 74.3468 68.604 74.4734 69.54C74.6 70.5253 74.752 71.4859 74.9039 72.4465C75.1318 73.8751 74.752 74.4662 73.2832 74.6879C72.7008 74.7618 72.1183 74.7618 71.9917 74.7865Z" fill="#F8C600"/>
</svg>
