<svg width="100" height="100" viewBox="0 0 100 100" fill="none" xmlns="http://www.w3.org/2000/svg">
<g clip-path="url(#clip0)">
<path d="M8.93323 2.74135C9.74044 2.74135 10.4879 2.77125 11.2054 2.74135C15.3312 2.65166 19.457 2.44238 23.5828 2.44238C28.1869 2.44238 32.791 2.65166 37.4251 2.65166C45.9756 2.68156 54.5262 2.65166 63.0468 2.65166C63.3757 2.65166 63.6746 2.65166 63.9437 2.65166C63.9437 3.60836 63.9437 4.47538 63.9437 5.31249C63.9437 10.694 64.0035 16.0754 63.9437 21.427C63.7942 31.2631 63.5252 41.0992 63.3458 50.9353C63.2262 58.2003 63.1664 65.4952 63.0767 72.7601C63.0767 73.2983 63.0169 73.8065 63.0169 74.4344C62.0602 74.4942 61.1035 74.6436 60.1468 74.6436C50.5499 74.7632 40.923 74.8828 31.3261 74.9725C25.9147 75.0323 20.4735 75.0622 15.0621 75.1519C13.0291 75.1818 11.026 75.3014 8.99302 75.421C8.51467 75.4509 8.27549 75.3313 8.27549 74.7632C8.12601 66.3323 7.85693 57.8714 7.85693 49.4405C7.85693 42.7734 8.27549 36.1064 8.42498 29.4394C8.57446 24.2074 8.63426 19.0053 8.72395 13.7733C8.78374 10.3352 8.84353 6.86714 8.90333 3.42898C8.87343 3.2197 8.90333 3.01043 8.93323 2.74135Z" fill="#F8C600"/>
<path d="M26.3931 42.7436C27.589 42.7436 28.7848 42.7735 29.9807 42.7436C32.7312 42.6838 35.4519 42.624 38.2024 42.5642C40.0859 42.5343 41.9993 42.5343 43.8828 42.5044C46.723 42.4446 49.5932 42.3848 52.4334 42.325C53.5396 42.2951 54.1674 42.4446 54.1076 42.7735C53.988 43.3116 53.1808 43.2219 52.553 43.2518C48.2478 43.3116 43.9426 43.4013 39.6076 43.4611C34.6447 43.5209 29.7116 43.6106 24.7487 43.6405C22.8353 43.6704 20.892 43.5807 18.9786 43.5508C18.7394 43.5508 18.4704 43.5508 18.291 43.491C17.992 43.3714 17.7827 43.192 17.5137 43.0426C17.8126 42.923 18.1116 42.7436 18.4106 42.7137C21.0714 42.6838 23.7323 42.7137 26.3632 42.7137C26.3931 42.7137 26.3931 42.7137 26.3931 42.7436Z" fill="white"/>
<path d="M38.5907 25.1643C34.9133 25.1643 31.236 25.1344 27.5886 25.1643C25.6752 25.1643 23.7618 25.2838 21.8185 25.2838C20.503 25.2838 19.1576 25.1942 17.8422 25.1045C17.5731 25.0746 17.3339 24.8952 17.0947 24.7756C17.3339 24.656 17.5731 24.4766 17.8422 24.3869C18.0514 24.3271 18.3504 24.3271 18.6195 24.3271C24.0009 24.2972 29.3824 24.2374 34.7639 24.2075C40.5639 24.1477 46.3639 24.088 52.134 24.0282C52.4629 24.0282 52.7619 23.9983 53.0907 23.9983C53.6887 23.9684 54.1969 24.0581 54.2268 24.4168C54.2567 24.7756 53.7485 24.8952 53.1505 24.8952C50.4897 24.8952 47.8587 24.8952 45.1979 24.8952C42.9855 24.8952 40.7732 24.8952 38.5608 24.8952C38.5907 24.9849 38.5907 25.0746 38.5907 25.1643Z" fill="white"/>
<path d="M35.9304 33.5054C40.8933 33.5054 45.8263 33.5054 50.7892 33.5054C51.6861 33.5054 52.5831 33.5054 53.48 33.5353C53.7789 33.5652 54.2872 33.7445 54.2872 33.8641C54.2872 34.0435 53.9882 34.2528 53.7191 34.3724C53.5398 34.4621 53.1511 34.4322 52.882 34.4322C43.1057 34.5219 33.2995 34.5817 23.5232 34.6415C21.9087 34.6415 20.2644 34.5817 18.65 34.5219C18.3809 34.5219 18.052 34.4621 17.8427 34.3724C17.6634 34.3126 17.4242 34.1332 17.484 34.0435C17.5438 33.9239 17.8427 33.8342 18.052 33.7445C18.1417 33.7147 18.3211 33.7146 18.4706 33.7146C23.1943 33.6848 27.918 33.625 32.6418 33.5951C33.7479 33.5951 34.8541 33.5951 35.9603 33.5951C35.9304 33.5652 35.9304 33.5353 35.9304 33.5054Z" fill="white"/>
<path d="M36.3187 15.2085C41.7002 15.2085 47.1115 15.2085 52.493 15.2085C53.0311 15.2085 53.5394 15.2085 53.6291 15.5673C53.6889 15.926 53.2105 16.0456 52.6425 16.1054C52.4332 16.1054 52.2239 16.1353 52.0445 16.1353C42.2084 16.1652 32.4022 16.1951 22.5661 16.225C21.1011 16.225 19.6661 16.2549 18.2011 16.2848C17.6929 16.2848 17.0949 16.2848 17.065 15.926C17.0351 15.5374 17.6331 15.4776 18.1712 15.4477C20.2939 15.3879 22.4166 15.358 24.5393 15.358C28.4857 15.3281 32.4022 15.358 36.3486 15.358C36.3187 15.2683 36.3187 15.2384 36.3187 15.2085Z" fill="white"/>
<path d="M38.8001 60.4426C35.1228 60.4426 31.4455 60.4127 27.7981 60.4426C25.8846 60.4426 23.9712 60.5621 22.0279 60.5621C20.7125 60.5621 19.3671 60.4725 18.0516 60.3828C17.7826 60.3529 17.5434 60.1735 17.3042 60.0539C17.5434 59.9343 17.7826 59.7549 18.0516 59.6652C18.2609 59.6054 18.5599 59.6055 18.8289 59.6055C24.2104 59.5756 29.5919 59.5158 34.9733 59.4859C40.7734 59.4261 46.5734 59.3663 52.3435 59.3065C52.6724 59.3065 52.9713 59.2766 53.3002 59.2766C53.8981 59.2467 54.4064 59.3364 54.4363 59.6951C54.4662 60.0539 53.9579 60.1735 53.36 60.1735C50.6992 60.1735 48.0682 60.1735 45.4074 60.1735C43.195 60.1735 40.9826 60.1735 38.7703 60.1735C38.8002 60.2931 38.8001 60.3828 38.8001 60.4426Z" fill="white"/>
<path d="M36.5277 50.4871C41.9092 50.4871 47.3205 50.4871 52.702 50.4871C53.2401 50.4871 53.7484 50.4871 53.8381 50.8458C53.8979 51.2046 53.4195 51.3242 52.8515 51.384C52.6422 51.384 52.4329 51.4139 52.2535 51.4139C42.4174 51.4438 32.6112 51.4737 22.7751 51.5036C21.3101 51.5036 19.8751 51.5335 18.4101 51.5634C17.9019 51.5634 17.3039 51.5634 17.274 51.2046C17.2441 50.8159 17.8421 50.7561 18.3802 50.7262C20.5029 50.6664 22.6256 50.6365 24.7483 50.6365C28.6947 50.6066 32.6112 50.6365 36.5576 50.6365C36.5277 50.5768 36.5277 50.5469 36.5277 50.4871Z" fill="white"/>
<path d="M82.0315 49.0518C84.7522 49.2013 87.3233 49.291 89.8944 49.4703C91.2996 49.56 92.7048 49.7394 94.1099 49.8889C97.847 50.3374 98.8037 52.4002 99.0728 55.2405C100.209 67.0797 99.9398 78.9488 99.9996 90.8179C100.03 95.3921 97.3986 97.4251 93.0635 97.9035C88.9078 98.3519 84.6924 98.3818 80.5068 98.4416C71.5676 98.5911 62.5985 98.8004 53.6593 98.7107C47.919 98.6509 42.1788 98.2323 36.4685 97.6643C34.8541 97.5148 33.2396 96.4684 31.8643 95.4818C31.2664 95.0633 31.0571 93.7777 31.0571 92.9107C31.087 84.7189 31.0272 76.4972 31.3561 68.3353C31.5056 64.2096 32.3128 60.1137 33.0303 56.0477C33.5386 53.2075 34.9138 50.7559 37.8736 49.7693C39.0097 49.3806 40.2654 49.291 41.4912 49.1714C44.6603 48.9023 47.8592 48.7229 51.1479 48.4837C51.3273 46.6899 51.4469 44.7167 51.6861 42.7734C52.0149 40.2322 53.9283 38.6177 56.4098 38.6476C57.6057 38.6775 58.4428 39.1559 58.5923 40.3817C58.7418 41.6074 57.9345 42.1755 56.8881 42.4445C56.35 42.594 55.782 42.594 55.2139 42.6837C55.2139 44.7466 55.184 46.8095 55.2737 48.8425C55.2737 49.0817 56.1108 49.4404 56.5593 49.4404C61.8809 49.4404 67.2026 49.4105 72.5243 49.3508C74.0789 49.3209 75.6336 49.1714 77.1882 49.1116C77.9954 49.0817 78.2645 48.7528 78.2047 47.9755C78.0851 46.3909 78.0552 44.7765 77.8758 43.192C77.8459 42.8631 77.3975 42.4445 77.0387 42.2951C76.5903 42.0858 75.9624 42.2054 75.5439 41.9662C75.1253 41.727 74.5872 41.2188 74.5573 40.8002C74.5274 40.3817 75.0356 39.6043 75.3944 39.5445C76.7696 39.3353 78.2047 39.1858 79.58 39.3951C80.8356 39.5744 81.5233 40.6806 81.6429 41.9662C81.7924 43.6105 81.8223 45.2549 81.9418 46.8992C81.9418 47.5868 81.9717 48.2745 82.0315 49.0518Z" fill="#999CD8"/>
<path d="M49.3842 72.7604C56.6192 72.4315 63.8543 71.8934 71.0894 71.8635C77.6368 71.8037 84.1544 71.9233 90.6719 71.146C92.7348 70.9068 93.273 71.5944 93.1235 73.6573C93.0039 75.0625 92.5255 75.5707 90.9111 75.6006C86.8152 75.6604 82.7193 75.6006 78.6234 75.6903C68.0399 75.8398 57.4564 76.0491 46.8429 76.2284C44.6007 76.2583 42.3285 76.2284 40.0862 76.1985C38.3223 76.1686 37.4254 74.7336 38.2326 73.2088C38.412 72.88 39.0398 72.581 39.4883 72.581C42.7769 72.5212 46.0656 72.5511 49.3842 72.5511C49.3842 72.581 49.3842 72.6707 49.3842 72.7604Z" fill="#070655"/>
<path d="M69.0259 42.5941C65.3187 42.5941 61.6114 42.5941 57.8743 42.5941C54.8547 42.5941 53.5393 40.6807 54.765 37.9003C55.0042 37.3622 55.9011 36.7642 56.4991 36.7642C62.2692 36.6446 68.0692 36.5549 73.8393 36.6147C76.0218 36.6446 77.0981 38.2292 76.6795 40.3519C76.4404 41.5776 75.7527 42.3849 74.3775 42.355C72.5836 42.3251 70.7898 42.355 68.996 42.355C69.0259 42.4447 69.0259 42.5044 69.0259 42.5941Z" fill="#1D1CAB"/>
<path d="M66.9336 79.6667C63.914 79.6966 63.4655 79.3378 63.1965 76.8265C63.0769 75.6605 62.8975 74.4347 63.0769 73.2687C63.1666 72.6708 63.8542 71.8337 64.4222 71.7141C65.5583 71.4151 66.7841 71.5048 67.98 71.5048C69.146 71.5048 69.714 72.1625 69.8635 73.2986C70.013 74.4945 70.1923 75.6605 70.3717 76.8265C70.6408 78.5605 70.1924 79.278 68.4583 79.5471C67.7707 79.6368 67.0831 79.6368 66.9336 79.6667Z" fill="#F8C600"/>
</g>
<defs>
<clipPath id="clip0">
<path d="M0 0H100V100H0V0Z" fill="white"/>
</clipPath>
</defs>
</svg>
