<svg width="100" height="100" viewBox="0 0 100 100" fill="none" xmlns="http://www.w3.org/2000/svg">
<path d="M21.2365 46.1917C32.1316 46.1917 40.9638 37.4208 40.9638 26.6014C40.9638 15.782 32.1316 7.01111 21.2365 7.01111C10.3415 7.01111 1.50928 15.782 1.50928 26.6014C1.50928 37.4208 10.3415 46.1917 21.2365 46.1917Z" fill="#999CD8"/>
<path d="M16.7819 23.5681C15.8147 23.8714 15.1274 23.4164 15.1274 22.3547C15.1274 21.8239 15.3056 21.2931 15.4074 20.7622C15.4329 20.6359 15.4583 20.4589 15.3819 20.3578C14.5165 19.2709 14.6438 18.0322 14.8729 16.7936C15.1783 15.1 16.3492 14.0131 17.6729 13.0525C17.9019 12.9009 18.131 12.7239 18.2838 12.4964C18.411 12.3195 18.4365 12.0667 18.5383 11.8645C18.6147 11.6875 18.691 11.4347 18.8438 11.3842C18.9965 11.3336 19.251 11.46 19.3783 11.5864C19.6838 11.915 19.9638 12.2942 20.2692 12.6986C20.4219 12.3195 20.3201 12.0414 20.1674 11.7381C19.8619 11.2072 20.0147 10.9292 20.6256 10.9292C20.9819 10.9292 21.3383 10.9292 21.6947 11.005C22.0256 11.0556 22.3565 11.2072 22.6619 11.3084C22.7383 11.1314 22.7638 10.8786 22.891 10.8028C23.0438 10.7017 23.2983 10.7522 23.5019 10.7775C24.9529 10.9292 26.1238 11.637 27.1674 12.5975C27.1929 12.0161 27.4983 11.8645 28.0074 12.1678C28.8983 12.6986 29.5347 14.2153 29.3056 15.3275C28.9747 16.8442 29.051 18.3609 29.4329 19.8522C29.7892 21.1667 29.891 22.5317 29.7892 23.8714C29.6619 25.1606 29.0001 26.2222 28.1601 27.1828C27.9565 27.4103 27.7274 27.6378 27.4729 27.84C26.4547 28.6995 26.2256 29.8117 26.3274 31.0503C26.3529 31.4042 26.5056 31.5559 26.8874 31.5559C27.8292 31.5811 28.7965 31.6317 29.7383 31.7075C31.1129 31.8086 32.2329 32.4153 33.2001 33.3506C34.0401 34.1342 34.6256 35.0442 34.931 36.1311C34.9565 36.2575 35.0329 36.3586 35.1092 36.485C35.3383 36.8389 35.211 37.1928 34.8292 37.3192C34.7019 37.3697 34.5747 37.395 34.4729 37.4709C33.2765 38.2545 32.0038 38.76 30.6038 39.0381C29.1019 39.3414 27.6001 39.7459 26.0983 39.9481C23.8329 40.2514 21.5419 40.4031 19.251 40.2767C17.6983 40.2009 16.1456 40.1503 14.6183 40.0997C14.5674 40.0997 14.5419 40.0997 14.491 40.0997C13.1419 39.7711 11.7929 39.4425 10.4438 39.1139C10.291 39.0886 10.1638 38.9623 10.011 38.937C9.12013 38.8359 8.35649 38.3809 7.5674 37.9511C7.0074 37.6478 6.90558 37.4203 7.18558 36.8642C7.8474 35.575 8.53467 34.3111 9.5274 33.2242C10.3165 32.3647 11.2329 31.7581 12.3274 31.4295C13.3201 31.1261 14.3638 30.9492 15.3819 30.7217C15.7383 30.6459 16.0947 30.5953 16.4256 30.4942C16.5783 30.4436 16.731 30.292 16.7819 30.1656C17.1638 28.3456 17.291 26.5256 16.9601 24.6803C16.8583 24.3517 16.8329 23.9725 16.7819 23.5681ZM7.79649 37.3445C8.50922 37.6984 9.14558 38.1786 9.96013 38.2292C10.1129 38.2292 10.291 38.3556 10.4438 38.3809C11.8183 38.7348 13.1674 39.0886 14.5419 39.4172C14.5929 39.4425 14.6692 39.4173 14.7456 39.4425C16.5019 39.4931 18.2329 39.5942 19.9892 39.6195C22.2038 39.67 24.4183 39.5436 26.6074 39.1898C28.0074 38.9623 29.4074 38.6084 30.8074 38.2797C32.0038 38.0017 33.1238 37.5467 34.1419 36.8389C34.2183 36.7884 34.2947 36.5861 34.2692 36.4597C34.0147 35.4739 33.5056 34.665 32.7674 33.9573C31.851 33.0725 30.7819 32.5417 29.5092 32.4659C28.6692 32.4153 27.8292 32.3647 26.9638 32.3395C26.8619 32.3395 26.7601 32.3647 26.6838 32.4153C25.8692 33.0472 24.9274 33.3253 23.9092 33.3253C22.7383 33.3253 21.5674 33.3253 20.4474 32.9967C19.2001 32.6428 17.9783 32.2636 16.9347 31.4547C16.7819 31.3536 16.5529 31.2778 16.3747 31.3031C15.0765 31.5811 13.7529 31.7834 12.5056 32.2131C11.7419 32.4659 10.9783 32.9209 10.3929 33.477C9.29831 34.4628 8.61104 35.7772 7.94922 37.0917C7.8474 37.1675 7.82195 37.2686 7.79649 37.3445ZM28.3892 16.9959C27.931 17.2234 27.5747 17.4003 27.2183 17.552C26.2001 17.9564 25.131 18.0828 24.0365 18.0322C22.5601 17.9817 21.1856 17.6531 19.9383 16.8442C19.8619 16.7936 19.6583 16.7936 19.5819 16.8442C18.6147 17.5267 17.7747 18.3103 17.3929 19.4731C17.3165 19.7006 17.3165 20.0039 17.3674 20.2314C17.4183 20.4842 17.571 20.737 17.3165 20.9139C17.0365 21.1161 16.9601 20.7875 16.8074 20.6359C16.5529 20.3831 16.3492 20.3831 16.2474 20.7117C16.0692 21.2172 15.9419 21.7481 15.8656 22.2789C15.8401 22.4811 16.0438 22.7086 16.1456 22.9361C16.2983 22.7845 16.451 22.6581 16.5783 22.5064C16.6038 22.4811 16.6038 22.4559 16.6292 22.4306C16.7819 22.3547 16.9601 22.2284 17.0874 22.2536C17.1892 22.2789 17.291 22.4811 17.3165 22.6328C17.4183 23.1889 17.4183 23.7703 17.5456 24.3011C18.0547 26.4245 17.7747 28.5478 17.4183 30.6459C17.3674 30.8986 17.4183 31.025 17.6219 31.1261C18.1565 31.3789 18.6656 31.6064 19.2001 31.8339C19.531 31.9856 19.8619 32.112 20.1929 32.2131C21.491 32.5417 22.8401 32.6175 24.1638 32.567C24.7238 32.5417 25.2583 32.3142 25.7929 32.1625C25.7674 32.0361 25.7674 31.9856 25.7674 31.9603C25.2074 30.1656 25.5638 28.5984 26.9892 27.3092C28.6438 25.8431 29.2801 24.0231 28.9492 21.8745C28.771 20.7875 28.5165 19.7006 28.3383 18.6136C28.3383 18.1081 28.3892 17.5772 28.3892 16.9959ZM28.0838 13.4822C28.0074 13.6339 27.9819 13.7856 27.8801 13.8614C27.7274 13.9878 27.5492 14.1647 27.371 14.1647C27.2438 14.1647 27.091 13.9372 26.9638 13.8109C26.8365 13.6592 26.7856 13.457 26.6583 13.3053C25.9965 12.4964 25.0801 12.0414 24.1129 11.6875C24.0619 11.6622 23.9601 11.6875 23.9092 11.6875C23.9347 11.9909 23.9856 12.2689 23.9601 12.547C23.9601 12.6986 23.8329 12.9009 23.7056 12.9514C23.5783 13.002 23.3747 12.9261 23.2474 12.8503C23.0438 12.6986 22.891 12.4964 22.6874 12.3447C22.2038 11.9656 21.6438 11.7886 21.0838 11.7634C21.0329 12.2689 21.0583 12.7239 20.931 13.1536C20.7529 13.7856 20.1929 13.8614 19.7601 13.3559C19.5819 13.1284 19.3783 12.9009 19.251 12.7239C18.691 13.1789 18.1819 13.6086 17.6474 14.0384C17.4438 14.2153 17.2401 14.3922 17.0365 14.5439C15.7383 15.6561 15.3565 17.1222 15.4329 18.74C15.4583 19.1445 15.6874 19.5236 15.7892 19.9028C16.1201 19.827 16.3492 19.7764 16.6038 19.7006C16.6038 19.65 16.6292 19.5995 16.6547 19.5489C17.011 17.9564 18.0547 16.9453 19.4038 16.1617C19.6583 16.01 19.9129 16.01 20.1929 16.1617C20.7019 16.4397 21.211 16.7684 21.771 16.9453C23.5783 17.552 25.3856 17.552 27.1674 16.7936C28.6438 16.1617 29.051 14.6956 28.0838 13.4822Z" fill="#070655"/>
<path d="M7.79639 37.3446C7.82184 37.2687 7.82184 37.1676 7.87275 37.0918C8.53457 35.7774 9.22184 34.4629 10.3164 33.4771C10.9273 32.9462 11.6655 32.466 12.4291 32.2132C13.6764 31.8087 15 31.5813 16.2982 31.3032C16.4764 31.2779 16.7309 31.3285 16.8582 31.4549C17.9018 32.2637 19.1491 32.6429 20.3709 32.9968C21.5164 33.3254 22.6873 33.3254 23.8328 33.3254C24.8509 33.3254 25.7928 33.0726 26.6073 32.4154C26.6837 32.3649 26.8109 32.3396 26.8873 32.3396C27.7273 32.3901 28.5673 32.4407 29.4327 32.466C30.7309 32.5418 31.7746 33.0726 32.6909 33.9574C33.4291 34.6651 33.9637 35.474 34.1927 36.4599C34.2182 36.561 34.1673 36.7632 34.0655 36.839C33.0473 37.5468 31.9528 38.0018 30.7309 38.2799C29.3309 38.5832 27.9564 38.9624 26.5309 39.1899C24.3418 39.5437 22.1273 39.6701 19.9128 39.6196C18.1564 39.5943 16.4255 39.4932 14.6691 39.4426C14.5928 39.4426 14.5418 39.4426 14.4655 39.4174C13.0909 39.0635 11.7164 38.7349 10.3673 38.381C10.1891 38.3304 10.0364 38.2293 9.88366 38.2293C9.14548 38.1787 8.50911 37.6985 7.79639 37.3446Z" fill="#F8C600"/>
<path d="M28.3894 16.9958C28.3894 17.5772 28.313 18.1081 28.4149 18.6389C28.5676 19.7258 28.8476 20.8128 29.0258 21.8997C29.3567 24.0483 28.6949 25.8683 27.0658 27.3345C25.6149 28.6236 25.2839 30.1908 25.8439 31.9856C25.8439 32.0108 25.8439 32.0614 25.8694 32.1878C25.3349 32.3142 24.8003 32.567 24.2403 32.5922C22.8912 32.6681 21.5676 32.5922 20.2694 32.2383C19.913 32.1625 19.6076 32.0108 19.2767 31.8592C18.7421 31.6317 18.2076 31.4042 17.6985 31.1514C17.4949 31.0503 17.4694 30.9239 17.4949 30.6711C17.8512 28.5731 18.1058 26.4497 17.6221 24.3264C17.4949 23.7703 17.4694 23.2142 17.393 22.6581C17.3676 22.5064 17.2658 22.2789 17.1639 22.2789C17.0112 22.2536 16.8585 22.38 16.7058 22.4558C16.6803 22.4558 16.6803 22.5064 16.6549 22.5317C16.5021 22.6833 16.3494 22.8097 16.2221 22.9614C16.1203 22.7339 15.9167 22.5064 15.9421 22.3042C16.0185 21.7733 16.1458 21.2425 16.3239 20.737C16.4258 20.4083 16.6294 20.4083 16.8839 20.6611C17.0367 20.8128 17.113 21.1414 17.393 20.9392C17.6476 20.7622 17.4949 20.5095 17.4439 20.2567C17.393 20.0039 17.393 19.7258 17.4694 19.4983C17.8512 18.3356 18.7167 17.552 19.6585 16.8695C19.7349 16.8189 19.913 16.8189 20.0149 16.8695C21.2621 17.6783 22.6367 18.007 24.113 18.0575C25.2076 18.0828 26.2767 17.9817 27.2949 17.5772C27.5749 17.4003 27.9312 17.2233 28.3894 16.9958ZM25.233 20.4083C25.233 20.2314 25.2585 20.0797 25.233 19.9533C25.2076 19.827 25.1312 19.6753 25.0294 19.65C24.953 19.6247 24.7749 19.7258 24.7239 19.827C24.6221 19.9533 24.5458 20.105 24.5458 20.2567C24.5458 20.6358 24.5203 21.0656 24.673 21.4195C24.9021 21.9756 25.233 22.4811 25.5385 23.012C25.7676 23.3658 25.8439 23.7197 25.793 24.1495C25.7167 24.7561 25.2076 25.0595 24.6476 24.9078C24.5203 24.8572 24.2658 24.9331 24.2149 25.0342C24.1385 25.1353 24.1894 25.3628 24.2658 25.4892C24.4694 25.7925 25.0039 25.8431 25.4112 25.6914C26.3276 25.287 26.8112 24.2758 26.4549 23.29C26.2767 22.835 25.9967 22.4306 25.7421 22.0261C25.4112 21.47 25.2076 20.9645 25.233 20.4083ZM20.2185 24.0989C20.2439 25.5145 21.593 27.0058 23.0694 27.0817C23.3239 27.107 23.6039 27.107 23.6549 26.7783C23.6803 26.4497 23.4003 26.3992 23.1458 26.3486C22.8149 26.2728 22.433 26.197 22.153 26.02C21.4658 25.6156 21.0585 24.9836 20.9058 24.1747C20.8803 24.0231 20.6512 23.922 20.4985 23.7956C20.3712 23.922 20.2694 24.0483 20.2185 24.0989ZM21.7712 20.4083C21.7712 20.282 21.6949 20.0292 21.4149 20.0292C21.0839 20.0292 20.9821 20.282 20.9567 20.56C20.9312 20.8381 21.0839 21.015 21.3639 21.0403C21.6694 21.0403 21.7712 20.8128 21.7712 20.4083ZM27.193 20.6864C27.6258 20.6611 27.8294 20.5095 27.7785 20.2061C27.753 20.0545 27.5749 19.827 27.4221 19.8017C27.1421 19.7511 26.913 19.9533 26.9385 20.2314C26.9385 20.4083 27.1167 20.5853 27.193 20.6864Z" fill="white"/>
<path d="M28.0835 13.4822C29.0507 14.6956 28.6435 16.1869 27.1926 16.7936C25.4107 17.5267 23.6035 17.5267 21.7962 16.9453C21.2362 16.7683 20.7271 16.4397 20.218 16.1617C19.938 16.01 19.6835 16.01 19.4289 16.1617C18.1053 16.9453 17.0362 17.9817 16.6798 19.5489C16.6798 19.5994 16.6544 19.65 16.6289 19.7006C16.3998 19.7511 16.1708 19.8017 15.8144 19.9028C15.6871 19.5236 15.458 19.1444 15.458 18.74C15.3817 17.1222 15.7635 15.6561 17.0617 14.5439C17.2653 14.3669 17.4689 14.19 17.6726 14.0383C18.2071 13.6086 18.7162 13.1789 19.2762 12.7239C19.4289 12.9008 19.6071 13.1283 19.7853 13.3558C20.218 13.8614 20.778 13.7856 20.9562 13.1536C21.0835 12.7239 21.058 12.2689 21.1089 11.7633C21.6689 11.7633 22.2289 11.9656 22.7126 12.3447C22.9162 12.4964 23.0689 12.6986 23.2726 12.8503C23.3998 12.9261 23.6035 13.0019 23.7308 12.9514C23.858 12.9008 23.9598 12.6986 23.9853 12.5469C24.0108 12.2689 23.9598 11.9908 23.9344 11.6875C24.0108 11.6875 24.0871 11.6622 24.138 11.6875C25.1053 12.0414 26.0217 12.4964 26.6835 13.3053C26.8107 13.4569 26.8871 13.6592 26.9889 13.8108C27.0907 13.9625 27.2435 14.1647 27.3962 14.1647C27.5744 14.1647 27.7526 13.9878 27.9053 13.8614C27.9817 13.7603 28.0071 13.6339 28.0835 13.4822Z" fill="#1D1CAB"/>
<path d="M25.2327 20.4083C25.2073 20.9644 25.4364 21.47 25.7418 21.9502C25.9964 22.3547 26.3018 22.7591 26.4545 23.2141C26.8109 24.1747 26.3527 25.2111 25.4109 25.6155C25.0036 25.7925 24.4945 25.7166 24.2654 25.4133C24.1891 25.2869 24.1382 25.0594 24.2145 24.9583C24.2654 24.8572 24.52 24.8066 24.6473 24.8319C25.2073 24.9836 25.7163 24.6802 25.7927 24.0736C25.8436 23.6691 25.7418 23.29 25.5382 22.9361C25.2073 22.4305 24.8764 21.8997 24.6727 21.3436C24.52 20.9897 24.5709 20.56 24.5454 20.1808C24.5454 20.0291 24.6218 19.8775 24.7236 19.7511C24.8 19.65 24.9527 19.5488 25.0291 19.5741C25.1309 19.5994 25.1818 19.7511 25.2327 19.8775C25.2582 20.0797 25.2327 20.2313 25.2327 20.4083Z" fill="#070655"/>
<path d="M20.2183 24.0989C20.2692 24.0483 20.371 23.9219 20.4983 23.7703C20.651 23.8967 20.8801 23.9978 20.9055 24.1494C21.0583 24.933 21.4655 25.565 22.1528 25.9947C22.4583 26.1716 22.8146 26.2475 23.1455 26.3233C23.4001 26.3991 23.6801 26.4244 23.6546 26.753C23.6292 27.0816 23.3492 27.0564 23.0692 27.0564C21.5928 27.0058 20.2437 25.5144 20.2183 24.0989Z" fill="#070655"/>
<path d="M21.7709 20.4082C21.7709 20.8127 21.6691 21.0402 21.3636 21.0149C21.0836 21.0149 20.9309 20.8127 20.9564 20.5346C20.9818 20.2566 21.0836 20.0038 21.4145 20.0038C21.6945 20.0291 21.7455 20.2818 21.7709 20.4082Z" fill="#070655"/>
<path d="M27.193 20.6865C27.1166 20.5601 26.9385 20.4084 26.9385 20.2315C26.913 19.9534 27.1421 19.7259 27.4221 19.8017C27.5748 19.827 27.753 20.0545 27.7785 20.2062C27.8039 20.5095 27.6003 20.6612 27.193 20.6865Z" fill="#070655"/>
<path d="M69.6512 96.2162C85.7197 96.2162 98.7457 83.2806 98.7457 67.3238C98.7457 51.3669 85.7197 38.4313 69.6512 38.4313C53.5827 38.4313 40.5566 51.3669 40.5566 67.3238C40.5566 83.2806 53.5827 96.2162 69.6512 96.2162Z" fill="#999CD8"/>
<path d="M84.3127 70.509C84.6945 72.0762 83.7018 72.8093 82.6072 73.3907C81.1563 74.149 79.8836 73.7446 78.9672 72.5818C78.4072 73.1885 77.8727 73.7698 77.2872 74.4018C77.7454 74.6798 78.28 75.0085 78.84 75.3371C78.9163 75.3876 79.0691 75.3623 79.1709 75.3371C81.6909 74.8821 83.9818 75.3876 86.1709 76.6768C87.8509 77.6626 88.8691 79.1035 89.6327 80.7971C89.8872 81.3532 90.0145 81.9851 90.1163 82.5918C90.2182 83.2237 89.7091 83.5776 89.2763 83.8051C87.6727 84.6898 86.0436 85.5746 84.3636 86.3329C83.2945 86.8132 82.1236 87.0407 81.0291 87.4198C78.2545 88.3551 75.4291 89.0123 72.5527 89.3915C70.3891 89.6696 68.2254 89.6696 66.0618 89.4673C64.8654 89.3662 63.6691 89.4168 62.4982 89.2398C60.5891 88.9618 58.68 88.6585 56.8218 88.1529C55.7782 87.8748 54.7854 87.2682 53.8436 86.7121C53.1054 86.2571 52.4436 85.6757 51.7563 85.1196C51.1709 84.6646 50.9672 84.0832 51.3236 83.3754C52.1127 81.8082 52.7745 80.1904 53.6909 78.699C54.76 76.9801 56.3891 75.8679 58.3236 75.236C58.7818 75.0843 59.3163 75.1601 59.8254 75.1348C60.9454 75.0843 62.0654 75.0843 63.1854 74.9832C63.6181 74.9326 63.9745 74.604 64 73.9973C61.7854 75.1854 59.9782 74.8568 58.7818 72.5818C56.6945 74.4523 53.9963 73.6435 54.2763 70.5343C54.1491 70.5343 54.0218 70.509 53.8945 70.5343C51.3236 70.8882 49.44 69.2957 49.2618 66.6162C49.0836 63.684 50.4327 61.409 52.7745 59.7154C54.4545 58.4768 55.6254 56.9096 56.0327 54.8368C56.8218 50.9187 59.1891 48.1887 62.7018 46.394C65.3491 45.029 68.1745 44.3971 71.1527 44.6246C72.9345 44.7762 74.6654 45.1048 76.2436 46.0401C77.0582 46.5204 77.8727 46.9501 78.6872 47.4051C80.9782 48.7196 82.0218 50.7923 82.3527 53.3201C82.4545 54.1037 82.6072 54.8873 82.76 55.671C83.04 57.0612 84.0836 57.7185 85.3054 58.1229C86.1963 58.4262 86.9091 58.9571 87.4945 59.6396C88.4109 60.7771 89.2254 61.9651 89.7345 63.3807C91.16 67.2482 88.2836 70.1804 85 70.4837C84.7709 70.4837 84.5672 70.4837 84.3127 70.509ZM76.88 63.2543C76.6509 63.9115 76.4472 64.5435 76.2182 65.1501C75.3272 67.6021 75.0981 70.1046 75.9127 72.6323C76.0909 73.1885 76.4982 73.3654 77.0072 73.0621C77.2618 72.9104 77.4654 72.6576 77.6182 72.4048C77.7709 72.1015 77.8472 71.7476 77.9491 71.419C78.1527 70.8376 78.6363 70.7112 79.0691 71.141C79.4254 71.4948 79.7563 71.874 80.1127 72.2279C80.6472 72.7335 81.4872 72.8093 82.1236 72.4301C82.3272 72.3037 82.5563 72.1521 82.76 72.0004C83.3454 71.5707 83.3963 71.1157 83.04 70.4837C82.9127 70.2562 82.76 69.8265 82.8872 69.6748C83.04 69.4726 83.4472 69.3968 83.7272 69.3715C84.3127 69.321 84.9236 69.4473 85.4581 69.321C87.8509 68.7901 89.5054 66.8185 88.8436 64.2907C88.4363 62.774 87.5963 61.4848 86.5782 60.3221C86.1454 59.8165 85.4836 59.4373 84.8472 59.1846C83.3454 58.5526 82.0727 57.7437 81.6909 56.0501C81.5127 55.2412 81.4618 54.3818 81.2327 53.5982C80.9272 52.4859 80.6981 51.2979 80.1381 50.3121C79.68 49.5284 78.7891 48.9218 78.0254 48.3657C77.2618 47.8096 76.3963 47.4557 75.5818 46.9754C74.0545 46.0654 72.3745 45.7873 70.6182 45.6862C68.9636 45.5851 67.3345 45.8632 65.7563 46.3435C61.2763 47.7337 58.0182 50.3879 57.0254 55.216C56.5672 57.491 55.2945 59.2351 53.4363 60.5496C51.9345 61.6365 50.9163 63.0015 50.4582 64.7962C50.2036 65.8073 50.28 66.7932 50.6109 67.8296C51.0691 69.321 53.5127 70.0793 54.6072 69.0682C54.76 68.9165 55.2182 68.8912 55.3709 68.9923C55.5236 69.0935 55.5491 69.4979 55.5491 69.7507C55.5236 70.3321 55.3963 70.9135 55.4218 71.4696C55.4472 72.3037 56.2363 72.7335 57.0254 72.4301C57.6109 72.2026 57.9163 71.7729 58.1454 71.2421C58.2472 71.0146 58.5782 70.7618 58.7818 70.7871C58.9854 70.7871 59.24 71.0904 59.3927 71.2926C59.6727 71.7476 59.9018 72.2279 60.1563 72.7335C60.64 73.7446 62.3709 73.871 63.2872 73.0621C63.3891 72.961 63.44 72.6323 63.3636 72.5565C62.9054 72.0257 62.4472 71.4948 61.9382 71.0398C60.8945 70.1298 59.9527 69.144 59.4182 67.8801C58.5527 65.9337 58.2472 63.8862 58.7054 61.7882C59.1636 59.7154 59.7236 57.6426 60.2327 55.5951C60.36 55.0896 60.4109 54.6598 60.08 54.1796C59.6218 53.5223 59.7236 52.6629 60.1818 52.1826C60.3091 52.0562 60.5127 52.0309 60.6654 51.9551C60.6909 52.1068 60.7672 52.2837 60.7418 52.4354C60.6654 53.1685 60.92 53.7498 61.4545 54.2554C62.0909 54.8621 62.88 55.1148 63.6945 55.3423C65.9854 55.949 67.9963 55.2665 69.88 53.9773C70.0836 53.8257 70.4909 53.6487 70.6182 53.7498C70.8218 53.9015 70.8727 54.2554 70.9491 54.5335C71.0509 54.9379 71.0254 55.4182 71.2545 55.7468C71.7891 56.4798 72.4 57.1623 73.0618 57.7943C73.7745 58.4768 74.7163 58.6032 75.6581 58.5526C76.1672 57.3393 77.0582 57.1118 77.9236 57.946C78.0763 58.0976 78.2036 58.2746 78.3054 58.4515C78.8909 59.3868 79.0691 60.4485 79.0691 61.5101C79.0691 62.5465 78.3309 63.3048 77.2872 63.3554C77.1345 63.2543 76.9818 63.2543 76.88 63.2543ZM60.4363 76.3735C60.7418 76.7779 60.9709 77.1318 61.2254 77.4604C62.4472 78.9012 64.1272 79.4321 65.8836 79.786C67.9454 80.2157 70.0072 80.1146 72.0691 79.8871C73.6727 79.7101 75.2509 79.4068 76.5745 78.421C77.3127 77.8648 78 77.2076 78.7381 76.601C78.0254 76.1712 77.44 75.8426 76.88 75.4382C75.9382 74.781 75.1491 73.9468 74.8182 72.8346C73.9527 70.0035 74.2072 67.2482 75.2763 64.5182C75.5054 63.9115 75.5054 63.2037 75.6327 62.5465C75.6836 62.2685 75.76 61.9146 75.9382 61.7629C76.0654 61.6618 76.4218 61.8893 76.7018 61.9651C76.9563 62.041 77.2872 62.1673 77.4909 62.0915C77.6945 61.9904 77.9236 61.6618 77.9236 61.4343C77.9491 60.9035 77.9236 60.3221 77.7454 59.8165C77.5927 59.311 77.4654 58.7296 76.8291 58.4262C76.8036 59.1087 76.4727 59.4373 75.8872 59.4879C74.4872 59.6143 73.2145 59.311 72.12 58.3504C71.1018 57.4657 70.2872 56.4546 69.7782 55.1907C68.4291 55.9743 67.08 56.5304 65.5018 56.5557C63.9491 56.581 62.5491 56.126 61.3018 55.5446C60.8691 57.1371 60.3854 58.7296 59.9782 60.3473C59.0109 64.1643 59.4182 67.6273 62.7272 70.3068C63.6182 71.0398 64.4327 71.9246 64.8145 73.0621C65.3745 74.6293 64.5091 75.9943 62.8291 76.1207C62.1418 76.2218 61.3527 76.2976 60.4363 76.3735ZM69.04 88.6332C70.4909 88.4562 71.7381 88.3046 72.9854 88.1782C75.2 87.9254 77.3636 87.4451 79.4763 86.7121C81.4109 86.0548 83.4218 85.6504 85.2545 84.6646C86.3236 84.0832 87.4182 83.5271 88.4872 82.9457C88.9963 82.6676 89.0472 82.2379 88.8691 81.7576C88.08 79.5837 86.7054 77.8396 84.5163 77.0054C83.2691 76.5251 81.8691 76.4493 80.5454 76.1207C80.0363 75.9943 79.9345 76.2471 79.7818 76.6515C79.6291 77.0054 79.4254 77.3846 79.1709 77.6626C78.84 78.0418 78.4327 78.3704 78.0509 78.6737C77.0327 79.5079 75.9382 80.1904 74.6145 80.4937C70.7963 81.3532 66.9782 81.5301 63.2618 80.0893C62.4218 79.7607 61.6072 79.2046 60.92 78.5979C60.2582 77.9912 59.7745 77.1823 59.2654 76.424C59.0872 76.1712 58.9345 76.0448 58.6545 76.1712C57.9163 76.5504 57.1018 76.8537 56.44 77.334C54.2509 78.9012 53.2836 81.2773 52.3418 83.6535C52.2909 83.8051 52.3418 84.1085 52.4436 84.2096C53.7418 85.3723 55.1418 86.4593 56.8472 86.9901C58.1963 87.3946 59.6218 87.6726 61.0218 87.8496C63.7709 88.2035 66.4945 88.4057 69.04 88.6332Z" fill="#070655"/>
<path d="M76.8799 63.2543C76.9817 63.2543 77.1599 63.229 77.3126 63.229C78.3563 63.1785 79.0945 62.4201 79.0945 61.3837C79.0945 60.2968 78.9163 59.2604 78.3308 58.3251C78.229 58.1482 78.1017 57.9712 77.949 57.8196C77.0581 56.9854 76.1926 57.1876 75.6836 58.4262C74.7417 58.4768 73.7999 58.3504 73.0872 57.6679C72.4254 57.036 71.8145 56.3535 71.2799 55.6204C71.0508 55.3171 71.0763 54.8115 70.9745 54.4071C70.8981 54.129 70.8472 53.7751 70.6436 53.6235C70.5163 53.5223 70.109 53.7246 69.9054 53.851C68.0217 55.1654 66.0108 55.8226 63.7199 55.216C62.9054 55.0137 62.1163 54.7357 61.4799 54.129C60.9454 53.6235 60.6908 53.0421 60.7672 52.309C60.7926 52.1573 60.7163 52.0057 60.6908 51.8287C60.5381 51.9046 60.309 51.9298 60.2072 52.0562C59.7236 52.5365 59.6472 53.396 60.1054 54.0532C60.4363 54.5335 60.3854 54.9632 60.2581 55.4687C59.7235 57.5415 59.1635 59.589 58.7308 61.6618C58.2726 63.7598 58.6036 65.8073 59.4436 67.7537C60.0036 69.0176 60.9199 70.0034 61.9636 70.9134C62.4981 71.3684 62.9563 71.8993 63.389 72.4301C63.4654 72.5312 63.4145 72.8598 63.3126 72.9357C62.3963 73.7446 60.6654 73.6182 60.1817 72.6071C59.9526 72.1268 59.7236 71.6212 59.4181 71.1662C59.2908 70.9387 59.0363 70.6607 58.8072 70.6607C58.6036 70.6607 58.2726 70.9135 58.1708 71.1157C57.9163 71.6465 57.6108 72.0762 57.0508 72.3037C56.2617 72.6071 55.4726 72.1773 55.4472 71.3432C55.4217 70.7618 55.549 70.1804 55.5745 69.6243C55.5745 69.3715 55.549 68.9923 55.3963 68.866C55.2181 68.7396 54.7854 68.7901 54.6326 68.9418C53.5636 69.9529 51.1199 69.1946 50.6363 67.7032C50.3054 66.6921 50.229 65.7062 50.4835 64.6698C50.9417 62.9004 51.9599 61.5101 53.4617 60.4232C55.3199 59.1087 56.5926 57.3393 57.0508 55.0896C58.0436 50.2615 61.3017 47.6073 65.7817 46.2171C67.3599 45.7368 68.9636 45.4587 70.6436 45.5598C72.3999 45.661 74.0799 45.939 75.6072 46.849C76.4217 47.3293 77.2872 47.7085 78.0508 48.2393C78.8399 48.7954 79.7054 49.4021 80.1636 50.1857C80.7236 51.1715 80.9526 52.3343 81.2581 53.4718C81.4617 54.2807 81.5127 55.1148 81.7163 55.9237C82.0981 57.6173 83.3708 58.4262 84.8727 59.0582C85.509 59.311 86.1454 59.6901 86.6036 60.1957C87.6217 61.3585 88.4617 62.6476 88.869 64.1643C89.5308 66.6921 87.8763 68.6385 85.4836 69.1946C84.9236 69.321 84.3127 69.1946 83.7527 69.2451C83.4472 69.2704 83.0654 69.3462 82.9126 69.5484C82.7854 69.7001 82.9381 70.1298 83.0654 70.3573C83.4217 70.9893 83.3708 71.4443 82.7854 71.874C82.5817 72.0257 82.3781 72.1773 82.149 72.3037C81.5126 72.6829 80.6726 72.6071 80.1381 72.1015C79.7817 71.7476 79.4508 71.3685 79.0945 71.0146C78.6617 70.5848 78.1781 70.7112 77.9745 71.2926C77.8726 71.6212 77.7963 71.9751 77.6436 72.2785C77.4908 72.5312 77.2872 72.8093 77.0327 72.9357C76.5236 73.239 76.1163 73.0621 75.9381 72.506C75.1236 69.9782 75.3272 67.501 76.2436 65.0237C76.4472 64.5435 76.6508 63.9115 76.8799 63.2543Z" fill="#1D1CAB"/>
<path d="M60.4363 76.3734C61.3526 76.2976 62.1417 76.2218 62.9054 76.1712C64.5854 76.0195 65.4508 74.6798 64.8908 73.1126C64.4835 71.9751 63.6945 71.0904 62.8035 70.3573C59.5199 67.6526 59.0872 64.2148 60.0545 60.3979C60.4617 58.7801 60.9454 57.1876 61.3781 55.5951C62.6254 56.1765 64.0254 56.6315 65.5781 56.6062C67.1308 56.5809 68.5054 56.0248 69.8545 55.2412C70.3636 56.5051 71.1781 57.5162 72.1963 58.4009C73.2908 59.3362 74.5636 59.6395 75.9636 59.5384C76.549 59.4879 76.8799 59.1593 76.9054 58.4768C77.5417 58.7801 77.669 59.3615 77.8217 59.867C77.9745 60.3726 77.9999 60.9287 77.9999 61.4848C77.9999 61.7123 77.7708 62.0409 77.5672 62.142C77.3636 62.2432 77.0327 62.0915 76.7781 62.0157C76.5236 61.9398 76.1417 61.7123 76.0145 61.8134C75.8108 61.9651 75.7599 62.319 75.709 62.597C75.5817 63.2543 75.5817 63.9621 75.3527 64.5687C74.2836 67.2987 74.029 70.0793 74.8945 72.8851C75.2508 73.9973 76.0145 74.8315 76.9563 75.4887C77.5163 75.8679 78.1017 76.1965 78.8145 76.6515C78.0763 77.2834 77.389 77.9154 76.6508 78.4715C75.3272 79.4573 73.749 79.7607 72.1454 79.9376C70.0836 80.1651 67.9963 80.2662 65.9599 79.8365C64.2035 79.4573 62.5235 78.9518 61.3017 77.5109C60.9708 77.1318 60.7417 76.7779 60.4363 76.3734ZM66.9272 59.1845C66.9017 59.1845 66.8763 59.1593 66.8508 59.1593C66.8254 58.8559 66.8254 58.5273 66.749 58.2493C66.6726 58.0218 66.469 57.7943 66.3417 57.592C66.189 57.8195 65.9599 58.047 65.9345 58.2745C65.909 59.2857 65.629 60.2209 65.1199 61.0804C64.789 61.6618 64.509 62.2432 64.2545 62.8498C64.1017 63.2037 63.9745 63.5829 63.9235 63.962C63.8217 65.049 64.3563 65.6809 65.5017 65.8832C66.3672 66.0348 67.2835 65.4787 67.5381 64.594C67.589 64.417 67.4872 64.0632 67.3345 63.962C67.1817 63.8862 66.8763 63.9873 66.6726 64.0632C66.5454 64.139 66.469 64.3412 66.3672 64.4676C66.1126 64.8468 65.7054 64.8973 65.3999 64.6698C65.1963 64.5182 65.0945 64.139 65.0435 63.8609C65.0181 63.684 65.1454 63.4565 65.2472 63.2543C65.6799 62.3695 66.1381 61.4848 66.5199 60.5748C66.6981 60.1704 66.7745 59.6648 66.9272 59.1845ZM67.9963 68.5626C70.0581 68.4615 71.789 66.4645 72.1708 64.7709C72.1963 64.6193 72.0181 64.2654 71.8654 64.2401C71.6872 64.1895 71.3563 64.3159 71.229 64.4676C70.9999 64.7709 70.8981 65.1754 70.7199 65.504C69.9563 66.9195 68.8617 67.4504 67.2835 67.2229C67.1054 67.1976 66.749 67.324 66.6981 67.4504C66.6472 67.6273 66.7235 67.9812 66.8763 68.0823C67.2326 68.3351 67.6399 68.4362 67.9963 68.5626ZM69.1926 59.8165C69.2436 60.1451 69.4726 60.4232 69.9054 60.3979C70.3636 60.3726 70.5672 60.044 70.5672 59.6143C70.5672 59.1845 70.3636 58.9065 69.9054 58.9065C69.5236 58.9065 69.1926 59.3109 69.1926 59.8165ZM62.9817 59.412C62.9563 59.0329 62.8035 58.7296 62.3708 58.7548C61.9126 58.8054 61.709 59.134 61.709 59.5637C61.709 59.9429 61.9635 60.1704 62.3454 60.1451C62.7781 60.1451 62.9817 59.867 62.9817 59.412Z" fill="white"/>
<path d="M69.0401 88.6331C66.4947 88.4056 63.7456 88.2034 61.022 87.8748C59.622 87.6978 58.1965 87.4451 56.8474 87.0153C55.142 86.5098 53.742 85.4228 52.4438 84.2348C52.3165 84.1337 52.2911 83.8303 52.342 83.6787C53.2838 81.3026 54.251 78.9265 56.4401 77.3592C57.102 76.879 57.9165 76.5756 58.6547 76.1965C58.9347 76.0448 59.0874 76.1965 59.2656 76.4493C59.7747 77.2076 60.2583 78.0165 60.9201 78.6231C61.582 79.2298 62.3965 79.7859 63.262 80.1145C66.9783 81.5554 70.7965 81.3531 74.6147 80.519C75.9383 80.2156 77.0329 79.5584 78.051 78.699C78.4329 78.3704 78.8401 78.0417 79.171 77.6879C79.4256 77.3845 79.6547 77.0306 79.782 76.6767C79.9347 76.2976 80.0365 76.0448 80.5456 76.1459C81.8692 76.4492 83.2692 76.5504 84.5165 77.0306C86.7056 77.8648 88.0801 79.5837 88.8692 81.7828C89.0474 82.2631 88.9965 82.6929 88.4874 82.9709C87.4183 83.5523 86.3238 84.1084 85.2547 84.6898C83.422 85.6503 81.411 86.0548 79.4765 86.7373C77.3638 87.4703 75.2001 87.9506 72.9856 88.2034C71.7383 88.3045 70.5165 88.4562 69.0401 88.6331Z" fill="#F8C600"/>
<path d="M66.9271 59.1845C66.7998 59.6648 66.698 60.1704 66.4943 60.6001C66.0871 61.5101 65.6289 62.3948 65.2216 63.2795C65.1198 63.4818 64.9925 63.684 65.018 63.8862C65.0689 64.1643 65.1452 64.5434 65.3743 64.6951C65.6798 64.9226 66.0871 64.872 66.3416 64.4929C66.4434 64.3412 66.5198 64.139 66.6471 64.0884C66.8507 63.9873 67.1561 63.8862 67.3089 63.9873C67.4616 64.0631 67.5634 64.417 67.5125 64.6193C67.2834 65.504 66.3416 66.0601 65.4761 65.9084C64.3307 65.7062 63.7962 65.0743 63.898 63.9873C63.9234 63.6081 64.0762 63.229 64.2289 62.8751C64.4834 62.2684 64.7634 61.687 65.0943 61.1056C65.578 60.2209 65.858 59.3109 65.9089 58.2998C65.9089 58.0723 66.1634 57.8448 66.3161 57.6173C66.4689 57.8448 66.6471 58.047 66.7234 58.2745C66.8252 58.5526 66.7998 58.8812 66.8252 59.1845C66.8761 59.1593 66.9016 59.1845 66.9271 59.1845Z" fill="#070655"/>
<path d="M67.996 68.5627C67.6141 68.4111 67.2323 68.31 66.9014 68.1077C66.7487 68.0066 66.6723 67.6527 66.7232 67.4758C66.7741 67.3494 67.105 67.223 67.3087 67.2483C68.8869 67.4758 69.9814 66.9449 70.745 65.5294C70.9232 65.2008 71.025 64.7963 71.2541 64.493C71.3814 64.3413 71.6869 64.2149 71.8905 64.2655C72.0432 64.2908 72.2214 64.6446 72.1959 64.7963C71.8141 66.4899 70.0832 68.4616 67.996 68.5627Z" fill="#070655"/>
<path d="M69.1929 59.8164C69.1929 59.3108 69.5238 58.9064 69.9056 58.9064C70.3638 58.9064 70.5674 59.1844 70.5674 59.6142C70.5674 60.0439 70.3638 60.3725 69.9056 60.3978C69.4729 60.4483 69.2692 60.145 69.1929 59.8164Z" fill="#070655"/>
<path d="M62.9817 59.4121C62.9817 59.8671 62.7781 60.1452 62.3454 60.1452C61.9635 60.1704 61.709 59.9429 61.709 59.5638C61.709 59.134 61.9126 58.8054 62.3708 58.7549C62.7781 58.7296 62.9563 59.0329 62.9817 59.4121Z" fill="#070655"/>
<path d="M49.2108 21.5965C49.1853 21.5965 49.1599 21.5965 49.1599 21.5965C48.1417 21.5207 47.5308 21.546 47.5308 21.546C47.0981 21.546 46.7672 21.2174 46.7417 20.8129C46.7417 20.3832 47.0726 20.0546 47.4799 20.0293C47.5053 20.0293 48.1672 20.004 49.2617 20.1051C49.6944 20.1304 49.9999 20.5096 49.9744 20.914C49.949 21.2932 49.6181 21.5965 49.2108 21.5965Z" fill="#070655"/>
<path d="M66.5964 29.4073C66.3928 29.4073 66.1891 29.3315 66.0364 29.1546C65.3237 28.3962 64.5601 27.6884 63.7455 27.0312C63.4146 26.7784 63.3637 26.2982 63.6182 25.9696C63.8728 25.6409 64.3564 25.5904 64.6873 25.8432C65.5528 26.5509 66.3928 27.3093 67.1564 28.1182C67.4364 28.4215 67.4364 28.9018 67.1055 29.1798C66.9782 29.3315 66.7746 29.4073 66.5964 29.4073ZM61.5564 25.3629C61.4291 25.3629 61.2764 25.3376 61.1746 25.2618C60.2837 24.7309 59.3419 24.2507 58.3746 23.8209C57.9928 23.644 57.8146 23.2143 57.9673 22.8351C58.1455 22.4559 58.5782 22.279 58.9601 22.4307C60.0037 22.8857 60.9964 23.3912 61.9382 23.9473C62.2946 24.1748 62.4219 24.6298 62.1928 24.9837C62.0655 25.2365 61.811 25.3629 61.5564 25.3629ZM55.6001 22.7846C55.5237 22.7846 55.4473 22.7846 55.371 22.7593C54.3782 22.4559 53.3346 22.2032 52.291 22.0009C51.8837 21.9251 51.6037 21.5207 51.6801 21.1162C51.7564 20.7118 52.1637 20.4337 52.571 20.5096C53.6655 20.7118 54.76 20.9898 55.8037 21.2932C56.211 21.4196 56.44 21.8493 56.3128 22.2284C56.2364 22.5571 55.931 22.7846 55.6001 22.7846Z" fill="#070655"/>
<path d="M69.5492 33.3507C69.2946 33.3507 69.0401 33.2243 68.8873 32.9715C68.6074 32.4913 68.3019 32.0363 67.9964 31.5813C67.7674 31.2274 67.8437 30.7724 68.2001 30.5196C68.5564 30.2921 69.0146 30.3679 69.2692 30.7218C69.6001 31.2021 69.931 31.6824 70.211 32.1879C70.4146 32.5418 70.3128 33.0221 69.931 33.2243C69.8291 33.3254 69.6764 33.3507 69.5492 33.3507Z" fill="#070655"/>
</svg>
