<svg width="100" height="100" viewBox="0 0 100 100" fill="none" xmlns="http://www.w3.org/2000/svg">
<path d="M12.908 16.4006C13.8379 16.4006 14.6747 16.4316 15.5116 16.4006C20.2228 16.2767 24.9341 16.0597 29.6143 16.0597C34.8835 16.0597 40.1216 16.2767 45.3908 16.3077C55.1232 16.3386 64.8557 16.3077 74.6191 16.3077C74.991 16.3077 75.363 16.3077 75.6419 16.3077C75.6419 17.3925 75.6419 18.3843 75.6419 19.3452C75.6419 25.4822 75.7349 31.5882 75.6419 37.7252C75.456 48.9454 75.177 60.1346 74.96 71.3548C74.8051 79.6305 74.7431 87.9371 74.6501 96.2438C74.6501 96.8637 74.5881 97.4526 74.5571 98.1655C73.4723 98.2585 72.3875 98.3825 71.3026 98.4135C60.3614 98.5374 49.3892 98.6614 38.4479 98.7854C32.2799 98.8474 26.0809 98.9094 19.9129 99.0024C17.6193 99.0334 15.2946 99.1883 13.001 99.2813C12.4431 99.3123 12.1641 99.1883 12.1641 98.5374C12.0092 88.929 11.6992 79.2895 11.6992 69.6811C11.6992 62.0873 12.1641 54.4935 12.3501 46.8997C12.5051 40.9487 12.5671 34.9976 12.6911 29.0466C12.753 25.1102 12.815 21.2049 12.877 17.2685C12.877 16.9585 12.908 16.6796 12.908 16.4006Z" fill="#999CD8"/>
<path d="M32.838 61.9943C34.2018 61.9943 35.5656 62.0253 36.9294 61.9943C40.0599 61.9323 43.1594 61.8703 46.2899 61.8083C48.4595 61.7773 50.5982 61.7773 52.7678 61.7463C56.0223 61.6843 59.2768 61.6224 62.5312 61.5294C63.802 61.4984 64.5149 61.6533 64.4219 62.0253C64.298 62.6142 63.3681 62.5522 62.6242 62.5522C57.727 62.6452 52.7988 62.7072 47.9016 62.7692C42.2605 62.8312 36.6194 62.9242 30.9783 62.9861C28.7777 63.0171 26.608 62.9242 24.4074 62.8932C24.1284 62.8932 23.8185 62.8932 23.6325 62.8312C23.2916 62.7072 23.0436 62.4902 22.7646 62.3043C23.1056 62.1803 23.4465 61.9323 23.7875 61.9323C26.825 61.9013 29.8315 61.9013 32.869 61.9013C32.838 61.9323 32.838 61.9633 32.838 61.9943Z" fill="white"/>
<path d="M46.7236 41.9405C42.5393 41.9405 38.3549 41.9095 34.1706 41.9405C31.97 41.9405 29.8003 42.0954 27.5997 42.0954C26.0809 42.0954 24.5622 42.0025 23.0434 41.8785C22.7335 41.8475 22.4855 41.6305 22.2065 41.5065C22.4855 41.3516 22.7335 41.1656 23.0744 41.0726C23.3224 41.0106 23.6633 41.0106 23.9423 41.0106C30.0793 40.9486 36.2163 40.9176 42.3223 40.8556C48.9242 40.7937 55.5262 40.7317 62.1281 40.6387C62.5001 40.6387 62.841 40.6077 63.2129 40.6077C63.8948 40.5767 64.4837 40.7007 64.5147 41.1036C64.5457 41.5375 63.9878 41.6305 63.3059 41.6305C60.2994 41.6305 57.2619 41.6305 54.2554 41.6305C51.7448 41.6305 49.2032 41.6305 46.6926 41.6305C46.7236 41.7545 46.7236 41.8475 46.7236 41.9405Z" fill="white"/>
<path d="M43.7171 51.4559C49.3582 51.4559 54.9993 51.4559 60.6404 51.4559C61.6633 51.4559 62.6861 51.4559 63.7089 51.4869C64.0499 51.5179 64.6078 51.7349 64.6078 51.8589C64.6078 52.0448 64.2668 52.2928 63.9569 52.4478C63.7399 52.5408 63.337 52.5098 62.9961 52.5098C51.8378 52.6027 40.6796 52.6957 29.5214 52.7577C27.6617 52.7577 25.802 52.6647 23.9733 52.6337C23.6634 52.6337 23.2914 52.5718 23.0435 52.4788C22.8265 52.3858 22.5785 52.1998 22.6405 52.1068C22.7025 51.9519 23.0435 51.8589 23.2914 51.7659C23.4154 51.7349 23.6014 51.7349 23.7873 51.7349C29.1495 51.7039 34.5426 51.6419 39.9048 51.6109C41.1756 51.6109 42.4154 51.6109 43.6862 51.6109C43.7171 51.5179 43.7171 51.4869 43.7171 51.4559Z" fill="white"/>
<path d="M44.1511 30.5964C50.2881 30.5964 56.4251 30.5964 62.5931 30.5964C63.213 30.5964 63.8019 30.5964 63.8639 30.9994C63.9259 31.4333 63.368 31.5573 62.7171 31.6193C62.5002 31.6503 62.2522 31.6503 62.0352 31.6503C50.846 31.6813 39.6568 31.7123 28.4676 31.7433C26.7939 31.7433 25.1512 31.8052 23.4774 31.8052C22.9195 31.8052 22.2376 31.8052 22.2066 31.4023C22.1756 30.9684 22.8265 30.8754 23.4464 30.8754C25.864 30.8134 28.2817 30.7824 30.6993 30.7514C35.1935 30.7204 39.6568 30.7514 44.1511 30.7514C44.1511 30.6894 44.1511 30.6274 44.1511 30.5964Z" fill="white"/>
<path d="M46.9404 82.172C42.7561 82.172 38.5717 82.141 34.3874 82.172C32.1868 82.172 30.0171 82.327 27.8165 82.327C26.2977 82.327 24.779 82.234 23.2602 82.11C22.9503 82.079 22.7023 81.8621 22.4233 81.7381C22.7023 81.5831 22.9503 81.3972 23.2912 81.3042C23.5392 81.2422 23.8801 81.2422 24.1591 81.2422C30.2961 81.1802 36.4331 81.1492 42.5391 81.0872C49.1411 81.0252 55.743 80.9632 62.3449 80.8702C62.7169 80.8702 63.0578 80.8392 63.4298 80.8392C64.1116 80.8083 64.7006 80.9322 64.7316 81.3352C64.7625 81.7691 64.2046 81.8621 63.5227 81.8621C60.5162 81.8621 57.4787 81.8621 54.4722 81.8621C51.9616 81.8621 49.42 81.8621 46.9094 81.8621C46.9404 81.9861 46.9404 82.079 46.9404 82.172Z" fill="white"/>
<path d="M44.3992 70.828C50.5362 70.828 56.6732 70.828 62.8412 70.828C63.4611 70.828 64.05 70.828 64.112 71.2309C64.174 71.6649 63.6161 71.7888 62.9652 71.8508C62.7482 71.8818 62.5002 71.8818 62.2833 71.8818C51.0941 71.9128 39.9049 71.9438 28.7157 71.9748C27.0419 71.9748 25.3992 72.0368 23.7255 72.0368C23.1676 72.0368 22.4857 72.0368 22.4547 71.6339C22.4237 71.1999 23.0746 71.107 23.6945 71.107C26.1121 71.045 28.5297 71.014 30.9473 70.983C35.4416 70.952 39.9049 70.983 44.3992 70.983C44.3992 70.89 44.3992 70.859 44.3992 70.828Z" fill="white"/>
<path d="M78.7408 39.058C79.2368 40.9177 79.7017 42.7464 80.2286 44.6061C80.3526 45.0711 80.5695 45.536 80.7245 46.0009C81.2514 47.5197 81.0035 48.5115 80.0426 48.9454C78.8028 49.4724 77.2841 48.9454 76.5712 47.7366C74.7735 44.7921 73.0068 41.8166 71.1781 38.9031C70.4342 37.6943 69.5043 36.5784 68.8224 35.3076C67.2107 32.3321 67.4277 30.8134 70.0622 28.7987C71.9839 27.3109 74.0916 25.9471 76.6022 25.5132C77.811 25.2963 78.8028 25.4822 79.4847 26.4431C80.6935 28.1788 81.7784 29.9765 82.8632 31.7432C84.5059 34.4708 86.1177 37.2293 87.7294 39.9569C87.9464 40.2978 88.1323 40.6698 88.2873 41.0417C88.6593 41.9716 88.7832 42.9324 87.9154 43.6453C87.0165 44.4202 86.0557 44.1102 85.1878 43.4903C83.1421 41.9716 81.0655 40.4838 79.0198 38.965C78.9268 38.965 78.8338 39.027 78.7408 39.058Z" fill="#F8C600"/>
<path d="M81.5624 17.9505C81.7174 24.0875 79.8577 28.9227 75.4564 32.6421C70.1253 37.1674 62.0046 36.2686 57.8202 32.7661C54.4108 29.9146 52.7681 25.7922 53.078 21.174C53.5429 14.3551 56.0845 8.71399 62.1595 5.39752C64.1742 4.3127 66.3439 3.87877 68.6375 4.43668C69.6603 4.68464 70.6832 4.80862 71.706 4.96359C77.6571 5.86245 81.4384 10.3567 81.5314 16.6797C81.5624 17.2376 81.5624 17.7335 81.5624 17.9505ZM78.2459 18.2295C78.2459 13.0843 76.7582 10.3567 73.0078 8.96195C71.892 8.55902 70.6832 8.46603 69.5364 8.24907C65.321 7.50519 61.6636 8.46603 59.37 12.4954C58.2232 14.5101 57.2003 16.7417 56.7044 19.0043C55.8056 23.0957 56.6114 27.125 59.7729 29.7906C62.9344 32.4562 66.9328 32.9521 70.7452 31.3404C76.2313 29.0157 78.215 24.1805 78.2459 18.2295Z" fill="#1D1CAB"/>
<path d="M78.2456 18.2292C78.2146 24.1803 76.2309 28.9845 70.7138 31.3401C66.9014 32.9519 62.9031 32.487 59.7416 29.7904C56.5801 27.1248 55.8052 23.0645 56.6731 19.0041C57.169 16.7415 58.1918 14.5098 59.3386 12.4952C61.6323 8.46581 65.2897 7.47397 69.505 8.24885C70.6828 8.46581 71.8916 8.5588 72.9764 8.96173C76.7578 10.3565 78.2456 13.1151 78.2456 18.2292Z" fill="white"/>
<path d="M64.7008 23.5606C66.4055 19.0354 69.567 16.3078 72.1086 13.0223C72.6355 12.3404 73.3174 11.8445 74.0613 12.4954C74.8671 13.2083 74.5262 14.0762 73.9373 14.789C72.8215 16.1528 71.5817 17.4236 70.5588 18.9114C69.2571 20.8331 68.0172 22.8478 66.9324 24.9244C66.0956 26.5362 64.7938 27.1251 63.647 25.7613C62.4382 24.3355 61.5083 22.5998 60.6404 20.8951C60.4235 20.4611 60.7644 19.3143 61.1983 19.0044C61.9112 18.4775 62.3142 19.2833 62.6551 19.9342C63.213 21.0191 63.8639 22.1039 64.7008 23.5606Z" fill="#1D1CAB"/>
</svg>
