<svg width="100" height="100" viewBox="0 0 100 100" fill="none" xmlns="http://www.w3.org/2000/svg">
<path d="M2.5236 10.2875C3.29973 10.2875 4.01836 10.3162 4.70825 10.2875C8.6751 10.2012 12.642 10 16.6088 10C21.0356 10 25.4624 10.2012 29.9179 10.2012C38.1391 10.23 46.3603 10.2012 54.5527 10.2012C54.8689 10.2012 55.1563 10.2012 55.415 10.2012C55.415 11.1211 55.415 11.9547 55.415 12.7596C55.415 17.9337 55.4725 23.1079 55.415 28.2533C55.2713 37.7105 55.0126 47.1677 54.8401 56.6249C54.7251 63.6101 54.6677 70.6239 54.5814 77.609C54.5814 78.1264 54.5239 78.6151 54.5239 79.2188C53.6041 79.2763 52.6842 79.42 51.7644 79.42C42.5371 79.535 33.2811 79.6499 24.0539 79.7362C18.851 79.7937 13.6193 79.8224 8.4164 79.9087C6.46171 79.9374 4.53577 80.0524 2.58109 80.1674C2.12117 80.1961 1.8912 80.0811 1.8912 79.535C1.74748 71.4288 1.48877 63.2939 1.48877 55.1877C1.48877 48.7775 1.8912 42.3672 2.03493 35.957C2.17866 30.9266 2.23615 25.9249 2.32238 20.8945C2.37988 17.5888 2.43737 14.2543 2.49486 10.9486C2.46611 10.7474 2.49486 10.5462 2.5236 10.2875Z" fill="#F8C600"/>
<path d="M19.3103 48.7487C20.4601 48.7487 21.6099 48.7774 22.7598 48.7487C25.4043 48.6912 28.0201 48.6337 30.6647 48.5762C32.4757 48.5475 34.3154 48.5475 36.1263 48.5187C38.8571 48.4612 41.6167 48.4037 44.3475 48.3462C45.4111 48.3175 46.0147 48.4612 45.9572 48.7774C45.8423 49.2948 45.0661 49.2086 44.4625 49.2374C40.3232 49.2948 36.1838 49.3811 32.0158 49.4386C27.244 49.4961 22.501 49.5823 17.7293 49.611C15.8896 49.6398 14.0212 49.5536 12.1815 49.5248C11.9515 49.5248 11.6928 49.5248 11.5203 49.4673C11.2329 49.3523 11.0317 49.1799 10.7729 49.0361C11.0604 48.9212 11.3479 48.7487 11.6353 48.7199C14.1936 48.6912 16.752 48.7199 19.2816 48.7199C19.3103 48.7199 19.3103 48.7199 19.3103 48.7487Z" fill="white"/>
<path d="M31.039 31.8465C27.5033 31.8465 23.9676 31.8178 20.4607 31.8465C18.621 31.8465 16.7813 31.9615 14.9129 31.9615C13.6481 31.9615 12.3545 31.8753 11.0897 31.7891C10.831 31.7603 10.6011 31.5878 10.3711 31.4729C10.6011 31.3579 10.831 31.1854 11.0897 31.0992C11.2909 31.0417 11.5784 31.0417 11.8371 31.0417C17.0113 31.0129 22.1854 30.9554 27.3596 30.9267C32.9362 30.8692 38.5128 30.8117 44.0606 30.7542C44.3768 30.7542 44.6643 30.7255 44.9805 30.7255C45.5554 30.6967 46.0441 30.783 46.0728 31.1279C46.1015 31.4729 45.6129 31.5878 45.038 31.5878C42.4796 31.5878 39.95 31.5878 37.3917 31.5878C35.2646 31.5878 33.1374 31.5878 31.0102 31.5878C31.039 31.6741 31.039 31.7603 31.039 31.8465Z" fill="white"/>
<path d="M28.4802 39.8665C33.2519 39.8665 37.9949 39.8665 42.7667 39.8665C43.629 39.8665 44.4914 39.8665 45.3537 39.8952C45.6412 39.9239 46.1299 40.0964 46.1299 40.2114C46.1299 40.3839 45.8424 40.5851 45.5837 40.7001C45.4112 40.7863 45.0375 40.7576 44.7788 40.7576C35.3791 40.8438 25.9506 40.9013 16.5509 40.9588C14.9987 40.9588 13.4177 40.9013 11.8654 40.8438C11.6067 40.8438 11.2905 40.7863 11.0893 40.7001C10.9168 40.6426 10.6869 40.4701 10.7444 40.3839C10.8018 40.2689 11.0893 40.1827 11.2905 40.0964C11.3768 40.0677 11.5492 40.0677 11.693 40.0677C16.2347 40.0389 20.7765 39.9814 25.3182 39.9527C26.3818 39.9527 27.4454 39.9527 28.509 39.9527C28.4802 39.9239 28.4802 39.8952 28.4802 39.8665Z" fill="white"/>
<path d="M28.8543 22.2743C34.0285 22.2743 39.2314 22.2743 44.4056 22.2743C44.923 22.2743 45.4117 22.2743 45.4979 22.6192C45.5554 22.9642 45.0955 23.0792 44.5493 23.1366C44.3481 23.1366 44.1469 23.1654 43.9744 23.1654C34.5172 23.1941 25.0887 23.2229 15.6315 23.2516C14.223 23.2516 12.8432 23.2804 11.4347 23.3091C10.946 23.3091 10.3711 23.3091 10.3423 22.9642C10.3136 22.5905 10.8885 22.533 11.4059 22.5042C13.4468 22.4468 15.4878 22.418 17.5287 22.418C21.3231 22.3893 25.0887 22.418 28.8831 22.418C28.8543 22.3318 28.8543 22.303 28.8543 22.2743Z" fill="white"/>
<path d="M31.2397 65.7661C27.704 65.7661 24.1683 65.7374 20.6614 65.7661C18.8217 65.7661 16.982 65.8811 15.1135 65.8811C13.8487 65.8811 12.5552 65.7949 11.2904 65.7086C11.0317 65.6799 10.8017 65.5074 10.5718 65.3924C10.8017 65.2774 11.0317 65.105 11.2904 65.0187C11.4916 64.9612 11.7791 64.9612 12.0378 64.9612C17.212 64.9325 22.3861 64.875 27.5603 64.8463C33.1369 64.7888 38.7135 64.7313 44.2613 64.6738C44.5775 64.6738 44.865 64.645 45.1812 64.645C45.7561 64.6163 46.2447 64.7025 46.2735 65.0475C46.3022 65.3924 45.8136 65.5074 45.2387 65.5074C42.6803 65.5074 40.1507 65.5074 37.5924 65.5074C35.4652 65.5074 33.3381 65.5074 31.2109 65.5074C31.2397 65.6224 31.2397 65.7086 31.2397 65.7661Z" fill="white"/>
<path d="M29.055 56.1938C34.2292 56.1938 39.4321 56.1938 44.6063 56.1938C45.1237 56.1938 45.6123 56.1938 45.6986 56.5388C45.7561 56.8837 45.2961 56.9987 44.75 57.0562C44.5488 57.0562 44.3475 57.085 44.1751 57.085C34.7179 57.1137 25.2894 57.1424 15.8322 57.1712C14.4236 57.1712 13.0439 57.1999 11.6353 57.2287C11.1467 57.2287 10.5718 57.2287 10.543 56.8837C10.5143 56.51 11.0892 56.4526 11.6066 56.4238C13.6475 56.3663 15.6884 56.3376 17.7294 56.3376C21.5237 56.3088 25.2894 56.3376 29.0838 56.3376C29.055 56.2801 29.055 56.2513 29.055 56.1938Z" fill="white"/>
<path d="M52.7987 94.4248C48.4007 94.0511 43.9452 93.8499 39.5759 93.2175C36.1839 92.7288 32.907 91.694 29.5725 90.8316C28.4514 90.5442 27.4166 89.998 26.3243 89.6243C24.9158 89.1356 23.4497 88.7619 22.0412 88.2158C20.6614 87.6696 19.3392 86.951 17.9881 86.3186C17.2982 85.9736 16.6371 85.5425 15.9185 85.3125C14.6249 84.9101 13.9063 83.904 13.1014 82.9554C12.9864 82.8404 12.9577 82.6104 12.9864 82.438C13.0152 81.978 13.0152 81.5181 13.1589 81.0869C13.8775 78.6436 14.9411 76.3727 16.5796 74.3893C16.7521 74.1881 16.9246 74.0156 17.0683 73.8144C20.489 69.2439 25.2894 67.3754 30.7223 66.6855C34.3442 66.2256 37.9661 65.9956 41.6168 66.1681C45.1812 66.3406 48.6594 66.8867 51.7639 68.7552C53.9198 70.0775 55.817 71.7447 56.9668 74.1018C59.4389 79.1035 60.9336 84.3926 61.3936 89.9692C61.4798 91.0328 61.3936 92.0964 61.3073 93.16C61.2786 93.7349 60.8762 94.0511 60.3012 94.0511C57.9154 94.1086 55.5295 94.1948 53.1437 94.2523C53.0287 94.2523 52.9137 94.2523 52.7987 94.2523C52.7987 94.3098 52.7987 94.3673 52.7987 94.4248Z" fill="#999CD8"/>
<path d="M63.406 94.5687C61.2213 94.425 59.5541 94.3388 57.8869 94.1663C56.5071 94.0226 56.3059 93.6776 56.3921 92.2979C56.5071 90.4007 56.5646 88.5035 57.1395 86.6638C58.0881 83.7605 59.3816 81.0009 61.1064 78.5001C62.5436 76.4017 64.642 74.9931 66.9704 73.9008C70.1324 72.4061 73.4956 71.6587 76.8875 71.0263C79.992 70.4801 83.1253 70.3076 86.2585 70.3364C88.6731 70.3651 90.944 70.9113 92.9274 72.3773C94.221 73.3547 94.8821 74.7632 95.6295 76.1142C96.9805 78.4426 97.3542 81.0297 97.4117 83.6742C97.4117 84.2204 97.2105 84.5941 96.6356 84.7091C96.4631 84.7378 96.2906 84.8815 96.1469 84.9678C93.991 86.4625 91.8351 87.986 89.2768 88.7909C87.897 89.2221 86.5747 89.912 85.1949 90.4294C80.4807 92.1541 75.5653 93.074 70.5923 93.7926C68.0052 94.1375 65.4469 94.3388 63.406 94.5687Z" fill="#F8C600"/>
<path d="M58.0306 95C54.7248 94.9138 51.9365 94.8851 49.2057 94.7126C48.0847 94.6551 46.9348 94.3389 45.8425 94.0227C44.6065 93.649 44.1465 92.5854 44.6352 91.3206C44.9514 90.5158 45.3826 89.7109 45.9 89.021C47.6535 86.7789 49.6657 84.8529 52.3965 83.8756C53.3451 83.5306 54.3511 83.2144 55.3572 83.1282C57.5994 82.8982 59.8415 82.8407 62.0549 83.5881C64.0958 84.278 65.5906 85.5428 66.7116 87.2963C67.2865 88.2161 67.804 89.1647 68.3214 90.1133C68.8675 91.0619 68.7526 92.0968 68.7526 93.1316C68.7526 93.3616 68.5226 93.7352 68.2926 93.8215C67.4878 94.1664 66.6829 94.6263 65.8493 94.6838C63.0897 94.8851 60.2727 94.9425 58.0306 95Z" fill="#1D1CAB"/>
<path d="M71.4263 73.1535C69.5291 73.556 67.6607 73.9296 65.706 74.3321C65.7347 74.6195 65.7347 74.8495 65.7635 75.0794C67.1145 75.2807 67.4595 75.5969 67.6032 76.9479C67.6607 77.4941 67.6607 78.069 67.6032 78.6439C67.5169 79.42 67.057 79.9662 66.3384 80.3111C66.0509 80.4548 65.7922 80.7423 65.6485 81.0297C64.7286 83.0132 63.7513 84.9104 61.8254 86.1177C60.8768 86.7213 59.9282 87.3537 58.7209 87.325C56.105 87.21 54.4666 85.7727 53.518 83.4731C53.0293 82.2658 52.6556 81.0297 52.2244 79.7649C50.9884 79.535 50.5859 79.1613 50.5285 77.8103C50.471 77.0341 50.5285 76.2005 50.7297 75.4819C50.9884 74.5333 51.592 74.2171 52.6556 74.2171C52.9718 72.8373 53.4317 71.4863 54.4953 70.4802C55.5301 69.4741 56.8812 68.9854 58.3184 68.6405C58.2609 68.3243 58.2035 68.0368 58.146 67.6919C57.7435 67.5769 57.2836 67.5194 56.8524 67.3757C56.335 67.1745 55.9613 66.8008 55.9613 66.1971C55.9613 65.6222 56.1913 65.1623 56.7087 64.9036C57.2549 64.6449 57.7723 64.7599 58.2322 65.1336C58.4622 65.306 58.6346 65.536 58.8359 65.766C59.3245 65.1911 59.3533 64.2712 58.9221 63.7538C58.8071 63.6388 58.6921 63.4951 58.6059 63.3514C58.4047 63.0064 58.4047 62.6615 58.7496 62.4028C59.1233 62.1441 59.4108 62.3165 59.6695 62.6327C60.5031 63.6676 60.5893 64.9898 59.8994 66.1971C59.6982 66.5708 59.382 66.9158 59.2095 67.3182C59.0658 67.6919 59.0371 68.1231 58.9796 68.4968C59.7557 68.583 60.5893 68.698 61.4517 68.813C61.3654 68.0081 61.3367 67.2032 61.2217 66.3984C60.6468 62.7764 60.9343 59.1833 61.7966 55.6189C62.1416 54.2391 62.544 52.888 62.9177 51.5083C63.6076 49.0074 64.8724 46.7653 66.3384 44.6956C68.0631 42.1948 70.2765 40.2114 73.2085 39.119C75.4794 38.2854 77.7215 37.4805 80.1936 37.5093C81.4584 37.5093 82.6945 37.653 83.9018 38.0267C85.4828 38.5154 86.6038 39.6077 87.5524 40.8725C90.5419 44.9543 91.8355 49.6973 92.4966 54.6128C92.8991 57.5448 93.0715 60.5343 93.1003 63.4951C93.129 65.7947 92.8128 68.0943 92.5829 70.3652C92.5254 70.8539 92.1804 71.2851 91.9217 71.745C91.548 72.3486 90.9444 72.3774 90.312 72.3486C87.9836 72.2049 85.684 72.1762 83.3556 71.975C82.4933 71.9175 81.9471 72.1474 81.3722 72.7511C80.0212 74.1884 78.5551 75.5106 77.2041 76.9192C76.6292 77.4941 76.1693 78.1839 75.7094 78.8451C75.1345 79.6787 74.2146 79.65 73.8122 78.7301C73.036 76.9766 72.3462 75.2232 71.5988 73.4697C71.57 73.3835 71.5413 73.326 71.4263 73.1535ZM82.6945 70.5952C85.1378 70.6527 87.5237 70.7102 89.9096 70.7964C90.8869 70.8251 90.9731 70.8826 91.0881 69.9053C91.3181 67.6632 91.5768 65.3923 91.548 63.1501C91.5193 60.4193 91.3756 57.6598 91.0019 54.9577C90.3695 50.4447 89.2484 46.0754 86.6038 42.1948C85.2241 40.1539 83.4706 39.119 81.056 39.004C78.4689 38.8891 76.1118 39.6364 73.7259 40.5276C71.1676 41.4761 69.2417 43.2296 67.7182 45.3855C66.1372 47.5989 64.8436 50.0135 64.1825 52.6868C63.5501 55.3314 62.8027 57.976 62.544 60.678C62.2853 63.4376 62.5728 66.2259 62.659 69.0142C62.659 69.3016 62.8889 69.6466 63.1189 69.8191C64.1825 70.6527 64.9299 71.6588 65.3323 72.9523C65.361 73.0673 65.4185 73.1823 65.4473 73.1823C67.3157 72.7511 69.1554 72.3486 71.0239 71.9175C71.2538 69.1292 70.5352 66.5996 68.9255 64.2712C68.3506 63.4663 67.8331 62.5465 67.5744 61.6266C66.9995 59.6432 67.1145 57.5448 67.3157 55.5039C67.5169 53.6642 67.8331 51.8245 68.1493 49.9848C68.2356 49.5248 68.4081 49.0362 68.6955 48.72C69.8166 47.3977 71.4263 46.8228 72.9211 46.0754C74.6745 45.1843 76.6005 44.7244 78.2964 43.6608C79.4175 42.9709 80.2799 43.4596 80.3374 44.7819C80.3949 46.5066 80.6248 48.1163 81.4297 49.6973C82.1196 51.0771 82.9532 52.2844 84.218 53.1468C84.6492 53.4342 84.9366 53.4917 85.3103 53.0605C85.8852 52.3994 86.6326 52.1694 87.4662 52.5144C88.2998 52.8593 88.5585 53.5779 88.5873 54.3828C88.616 55.3314 88.5873 56.28 88.501 57.1999C88.4435 58.0622 87.7824 58.7521 86.92 58.9533C86.7763 58.9821 86.6613 59.0108 86.5176 59.0396C86.4889 59.212 86.4601 59.327 86.4601 59.442C86.3451 62.6902 85.3103 65.5073 82.752 67.6344C82.6657 67.7206 82.5795 67.8931 82.5795 68.0081C82.6082 68.928 82.6657 69.7903 82.6945 70.5952ZM86.9775 57.3723C86.8913 57.4298 86.9775 57.4011 86.9775 57.3723C87.035 56.28 87.0638 55.2164 87.0638 54.1528C87.0638 54.0954 86.6901 53.9516 86.5176 53.9804C86.3451 54.0091 86.1727 54.2103 86.0289 54.3541C85.2241 55.1302 84.8504 55.1877 83.8443 54.6703C82.6657 54.0666 81.7459 53.1755 81.0273 52.0832C80.1361 50.7321 79.4463 49.3236 79.1588 47.7426C78.9863 46.8228 78.9576 45.9029 78.8426 44.9831C78.2677 45.2705 77.7503 45.6155 77.1754 45.8167C74.9907 46.5928 72.8348 47.4839 70.8227 48.6337C69.7878 49.2374 68.9255 49.9848 69.0979 51.422C69.1554 51.9395 69.1267 52.4856 69.0117 52.9743C68.5805 55.2452 68.523 57.5448 68.6668 59.8444C68.753 60.9655 69.0404 62.0291 69.7878 62.9202C72.0875 65.7372 72.8636 68.9854 72.3749 72.5499C72.3462 72.6936 72.3749 72.8948 72.4324 73.0385C73.2085 74.5333 74.0134 76.028 74.8183 77.5515C75.2782 77.0054 75.6806 76.4305 76.1405 75.9418C77.6353 74.3608 79.1588 72.8086 80.6536 71.2276C80.9123 70.9401 81.1135 70.4802 81.1422 70.0778C81.1997 69.3016 81.1422 68.4968 81.0847 67.6919C81.056 67.1745 81.2572 66.8008 81.6596 66.4558C83.2694 65.0761 84.5054 63.4376 84.7929 61.2529C84.9366 60.1894 85.0803 59.097 85.2816 58.0335C85.339 57.6885 85.5115 57.2573 85.7702 57.1424C86.0577 57.0561 86.4601 57.2861 86.9775 57.3723ZM51.707 77.9827C52.8281 77.4941 53.2305 77.724 53.5467 78.7876C53.9779 80.2249 54.4378 81.6621 55.0127 83.0419C55.3864 83.9043 55.8176 84.7954 56.7374 85.3128C58.031 86.0314 59.382 86.4051 60.6756 85.399C61.5667 84.7091 62.4578 83.933 63.0902 82.9844C63.7226 82.0358 64.0675 80.8573 64.4987 79.7937C64.6712 79.3338 64.9011 78.9888 65.4185 79.0463C65.9072 79.1038 66.1372 78.8163 66.1659 78.4139C66.2234 77.9827 66.1659 77.5516 66.1659 77.2066C65.6772 77.3216 65.2173 77.5515 64.9874 77.4078C64.6999 77.2353 64.4699 76.8042 64.3837 76.4305C64.24 75.7981 64.2975 75.1369 64.125 74.5045C63.895 73.6997 63.6651 72.8086 63.2051 72.1474C60.9343 68.928 56.4787 69.7903 54.8403 72.2624C54.2941 73.096 53.9492 74.1021 53.6042 75.0507C53.3742 75.6544 53.2305 75.8268 52.5981 75.5969C52.1957 75.4531 51.9945 75.5969 51.937 75.9131C51.822 76.603 51.7933 77.2928 51.707 77.9827Z" fill="#070655"/>
<path d="M52.5979 42.281C52.7129 44.7531 52.253 46.9665 51.7068 49.1798C51.6493 49.3811 51.5919 49.6685 51.4481 49.726C50.8445 50.071 51.0169 50.5884 51.0457 51.1058C51.1032 52.1406 51.1894 53.1467 51.1894 54.1815C51.1607 56.7111 50.2121 58.8383 48.3436 60.5055C46.5327 62.1153 45.929 64.2137 45.929 66.542C45.929 66.657 45.929 66.7433 45.9865 66.8582C46.2452 67.7206 46.159 68.0368 45.3541 68.3817C40.9273 70.1639 36.558 70.1927 32.275 67.8643C31.4414 67.4044 31.4414 67.2894 31.7576 66.3983C31.9588 65.8234 32.0163 65.1623 32.1025 64.5586C32.5337 61.7991 32.1025 59.1257 31.2976 56.5099C31.2689 56.3949 31.2114 56.2799 31.1252 56.1937C28.1356 53.5204 27.3595 50.0135 27.1583 46.2191C27.0146 43.6895 27.3595 41.2461 28.3081 38.889C29.9179 34.9221 32.9361 32.91 37.1904 32.7375C38.484 32.68 39.6913 32.3638 40.9273 32.0764C42.3359 31.7314 43.7731 31.3865 45.1816 31.3865C47.51 31.3865 49.4072 32.5363 50.557 34.5485C51.9081 36.9631 52.8854 39.5789 52.5979 42.281ZM48.1424 40.1251C46.6477 41.3324 45.0379 41.7635 43.4857 42.3672C42.8533 42.5972 42.1921 42.7696 41.531 42.8271C41.2435 42.8559 40.7836 42.6546 40.6399 42.4247C40.4961 42.166 40.5536 41.7061 40.6399 41.3899C40.7261 41.1024 41.0136 40.8724 41.1573 40.6137C41.416 40.2113 41.6747 39.7801 41.9334 39.3489C41.8759 39.3202 41.8472 39.2627 41.7897 39.234C39.4901 39.7801 37.4204 40.6712 35.9544 42.6546C35.4657 43.3158 35.0058 44.0344 34.6034 44.7818C34.1722 45.5579 33.856 46.4203 33.4248 47.1964C33.0511 47.915 32.7349 47.915 32.275 47.3114C31.9588 46.909 31.7001 46.909 31.5276 47.3976C31.3551 47.8288 31.2114 48.3175 31.2114 48.7774C31.2114 49.1798 31.4414 49.5823 31.5563 50.0135C31.6138 49.9272 31.6713 49.8697 31.7288 49.7835C32.0738 49.7835 32.5624 49.6685 32.6774 49.8122C32.8499 50.0422 32.7924 50.5021 32.7349 50.8471C32.6487 51.3357 32.4187 51.7957 32.39 52.3131C32.3325 53.2617 32.3612 54.239 32.3325 55.1876C32.3037 55.82 32.2462 56.4237 32.5049 57.0848C33.3386 59.212 33.7697 61.4254 33.511 63.725C33.3673 64.7886 33.2523 65.8809 33.1086 66.9732C36.558 68.353 40.065 68.4967 43.6294 67.3756C44.3193 67.1744 44.6355 66.8582 44.6067 66.0821C44.5492 63.38 45.5266 61.1092 47.5388 59.2982C49.1485 57.8609 49.8671 55.9637 49.8959 53.8653C49.9534 50.8758 50.2408 47.8288 49.3785 44.868C48.976 43.3733 48.6023 41.821 48.1424 40.1251ZM50.9595 44.4369C51.4194 41.2749 50.8157 38.3428 49.3497 35.5833C48.4586 33.8873 46.3602 32.68 44.463 32.9387C43.3132 33.0824 42.1921 33.3412 41.0998 33.6574C39.835 34.0023 38.5702 34.3472 37.2192 34.2898C36.5868 34.261 35.9256 34.3185 35.2932 34.4622C32.0738 35.2096 30.1766 37.3655 29.228 40.3838C28.0207 44.1207 28.3369 47.8863 29.5154 51.5657C29.8316 52.5718 30.5503 53.4629 31.0964 54.4115C31.3264 53.2904 31.4126 52.2843 31.4701 51.2783C31.4701 51.1633 31.4126 51.0195 31.3264 50.9621C30.1191 50.0997 30.0616 48.8636 30.2915 47.5701C30.5503 46.1328 31.1539 45.7304 32.5624 45.9604C32.9361 45.1842 33.3098 44.3794 33.741 43.6032C34.6034 42.0223 35.6382 40.585 37.1904 39.6076C38.9439 38.5153 40.8986 37.9692 42.8245 37.3368C43.4569 37.1355 43.9743 37.5667 43.9168 38.2279C43.8881 38.4866 43.8306 38.774 43.7156 39.004C43.4282 39.6939 43.0832 40.3838 42.7095 41.2461C44.348 40.5275 46.0727 40.2688 47.2226 38.889C47.8262 38.1704 48.4299 38.1704 48.976 38.9465C49.2635 39.3777 49.5222 39.8376 49.6947 40.3263C50.1258 41.6773 50.5283 43.0283 50.9595 44.4369Z" fill="#070655"/>
<path d="M82.6945 70.5951C82.6658 69.7902 82.6083 68.9279 82.5795 68.0368C82.5795 67.9218 82.6658 67.7493 82.752 67.6631C85.3103 65.5359 86.3452 62.6901 86.4602 59.4707C86.4602 59.3557 86.4889 59.2119 86.5176 59.0682C86.6614 59.0395 86.8051 59.0107 86.9201 58.982C87.7824 58.7808 88.4148 58.1196 88.5011 57.2285C88.5873 56.2799 88.6161 55.3601 88.5873 54.4115C88.5586 53.6066 88.2711 52.8592 87.4662 52.543C86.6326 52.1981 85.8852 52.428 85.3103 53.0892C84.9367 53.5204 84.6492 53.4916 84.218 53.1754C82.9532 52.2843 82.1196 51.077 81.4297 49.726C80.6249 48.1737 80.3949 46.5353 80.3374 44.8105C80.2799 43.4882 79.4175 42.9708 78.2965 43.6895C76.6005 44.753 74.6746 45.213 72.9211 46.1041C71.4551 46.8515 69.8166 47.4551 68.6955 48.7486C68.4081 49.0936 68.2356 49.5823 68.1494 50.0134C67.8332 51.8531 67.517 53.6928 67.3158 55.5325C67.1145 57.5735 66.9996 59.6431 67.5745 61.6553C67.8619 62.6039 68.3793 63.495 68.9255 64.2999C70.5352 66.6282 71.2251 69.1866 71.0239 71.9461C69.1555 72.3773 67.3158 72.7797 65.4473 73.2109C65.4473 73.1822 65.3611 73.0959 65.3323 72.981C64.9299 71.7162 64.1825 70.6813 63.1189 69.8477C62.889 69.6753 62.659 69.3303 62.659 69.0429C62.5728 66.2546 62.2853 63.4663 62.544 60.7067C62.8027 58.0046 63.5501 55.3601 64.1825 52.7155C64.8437 50.0422 66.1372 47.6276 67.7182 45.4142C69.2417 43.2583 71.1676 41.5048 73.726 40.5562C76.0831 39.6651 78.469 38.9177 81.056 39.0327C83.4706 39.119 85.2241 40.1825 86.6039 42.2235C89.2485 46.1041 90.3695 50.4734 91.0019 54.9864C91.3756 57.6884 91.5193 60.448 91.5481 63.1788C91.5768 65.4209 91.3181 67.6918 91.0882 69.934C91.0019 70.9113 90.8869 70.8538 89.9096 70.8251C87.5237 70.7101 85.1666 70.6526 82.6945 70.5951Z" fill="#070655"/>
<path d="M86.9771 57.3723C86.4597 57.2574 86.0572 57.0561 85.7985 57.1711C85.5398 57.2861 85.3674 57.746 85.3099 58.0622C85.1086 59.1258 84.9937 60.2181 84.8212 61.2817C84.5337 63.4664 83.2977 65.1048 81.6879 66.4846C81.2855 66.8296 81.0843 67.2033 81.113 67.7207C81.1418 68.5255 81.228 69.3017 81.1705 70.1065C81.1418 70.509 80.9406 70.9689 80.6819 71.2563C79.1871 72.8373 77.6636 74.3896 76.1688 75.9706C75.7089 76.4593 75.3065 77.0342 74.8466 77.5803C74.0417 76.0568 73.2368 74.5621 72.4607 73.0673C72.4032 72.9236 72.3745 72.7511 72.4032 72.5786C72.8919 69.0142 72.1445 65.766 69.8161 62.9489C69.0975 62.0578 68.7813 60.9943 68.695 59.8732C68.5513 57.5736 68.6088 55.2739 69.04 53.003C69.1262 52.4856 69.1837 51.9395 69.1262 51.4508C68.925 50.0423 69.7874 49.2662 70.8509 48.6625C72.8631 47.5127 75.019 46.6216 77.2037 45.8455C77.7786 45.6442 78.3247 45.2993 78.8709 45.0118C78.9571 45.9317 79.0146 46.8803 79.1871 47.7714C79.4746 49.3524 80.1644 50.7609 81.0556 52.1119C81.8029 53.233 82.694 54.0954 83.8726 54.699C84.8499 55.2164 85.2524 55.1589 86.0572 54.3828C86.201 54.2391 86.3734 54.0379 86.5459 54.0091C86.7184 53.9804 87.0921 54.1241 87.0921 54.1816C87.0633 55.2164 87.0346 56.3088 86.9771 57.3723C86.8909 57.4298 86.9771 57.4011 86.9771 57.3723ZM74.2716 62.7765C76.8012 62.7477 79.532 60.7068 80.2507 58.4072C80.4519 57.8035 80.3082 57.3149 79.8482 57.1999C79.2733 57.0274 79.0434 57.4298 78.8134 57.861C78.526 58.4359 78.2098 59.0108 77.8073 59.4995C76.8012 60.8218 75.2777 61.1092 73.8117 61.5692C73.5818 61.6554 73.3805 61.8854 73.1793 62.0578C73.3805 62.2591 73.553 62.5178 73.8117 62.6902C73.9554 62.8052 74.1854 62.7765 74.2716 62.7765ZM74.6166 52.8881C74.5303 52.3419 74.5591 51.9682 74.4154 51.652C74.3291 51.4221 74.0417 51.2783 73.8405 51.0771C73.6967 51.3071 73.4668 51.5083 73.4093 51.7383C73.1506 52.7731 72.9206 53.8367 72.6907 54.9002C72.5469 55.5326 72.3744 56.165 72.317 56.7974C72.2595 57.6023 72.8631 58.3209 73.553 58.4647C74.4154 58.6659 75.479 58.2347 75.7377 57.5161C75.8239 57.2574 75.7664 56.8262 75.5939 56.625C75.4502 56.4525 75.0478 56.51 74.7603 56.5387C74.6166 56.5387 74.5016 56.7687 74.3579 56.8262C74.1567 56.9124 73.9554 56.9412 73.7255 56.9987C73.6967 56.7974 73.5818 56.5675 73.6105 56.3663C73.6967 55.9063 73.898 55.4464 74.0129 54.9865C74.2429 54.2678 74.4441 53.5205 74.6166 52.8881ZM70.2473 53.5205C70.2473 54.0954 70.5347 54.4691 70.9947 54.4978C71.4833 54.5266 71.8283 54.1241 71.8283 53.5492C71.8283 52.9168 71.5121 52.4569 71.0234 52.4569C70.5635 52.4281 70.2473 52.8593 70.2473 53.5205ZM76.7725 53.463C76.7725 54.0379 77.0599 54.4116 77.5199 54.4403C77.951 54.4403 78.296 54.0666 78.296 53.578C78.296 52.9743 77.9223 52.4856 77.4911 52.4856C77.0887 52.4569 76.7725 52.8593 76.7725 53.463Z" fill="white"/>
<path d="M51.7061 77.9828C51.7635 77.2929 51.7923 76.603 51.9073 75.9131C51.9648 75.5969 52.166 75.4532 52.5684 75.5969C53.1721 75.8269 53.3158 75.6544 53.5745 75.0507C53.9482 74.1021 54.2644 73.096 54.8105 72.2624C56.449 69.7903 60.9046 68.928 63.1754 72.1474C63.6641 72.8086 63.8653 73.6997 64.0953 74.5046C64.2678 75.1082 64.2103 75.7981 64.354 76.4305C64.4402 76.8042 64.6702 77.2641 64.9577 77.4078C65.2164 77.5516 65.6475 77.2929 66.1362 77.2066C66.1362 77.5228 66.1649 77.9828 66.1362 78.4139C66.1075 78.8451 65.8775 79.1038 65.3888 79.0463C64.8427 78.9888 64.6414 79.3338 64.469 79.7937C64.0378 80.886 63.7216 82.0358 63.0605 82.9844C62.4281 83.9043 61.537 84.7092 60.6459 85.3991C59.3523 86.4051 58.0013 86.0027 56.7077 85.3128C55.7879 84.8241 55.3567 83.933 54.983 83.0419C54.4081 81.6622 53.9482 80.2249 53.517 78.7876C53.2296 77.724 52.8271 77.4941 51.7061 77.9828ZM59.4098 79.8512C59.5248 79.7362 59.8697 79.5063 59.956 79.2188C60.0709 78.7589 59.6973 78.4714 59.2373 78.4714C58.7199 78.4714 58.4325 78.299 58.4037 77.724C58.4037 77.5803 58.2025 77.3504 58.0875 77.3504C57.9725 77.3504 57.7713 77.4941 57.6851 77.6378C57.0527 78.7301 57.8001 79.7937 59.4098 79.8512ZM62.543 75.1082C62.5143 74.7058 62.3706 74.3033 61.8244 74.3033C61.3932 74.3033 61.0483 74.7633 61.0483 75.3382C61.0483 75.7981 61.2782 76.0856 61.7669 76.0856C62.2556 76.1143 62.543 75.7119 62.543 75.1082ZM55.4429 75.2807C55.7017 75.4819 55.9316 75.7981 56.2191 75.8843C56.5928 75.9993 56.9377 75.5394 56.909 75.022C56.8802 74.6195 56.7077 74.2746 56.2191 74.3033C55.7304 74.3321 55.5579 74.677 55.4429 75.2807Z" fill="white"/>
<path d="M48.1426 40.1252C48.6025 41.7924 48.9762 43.3447 49.4361 44.8969C50.2985 47.8577 50.011 50.8759 49.9535 53.8942C49.9248 55.9926 49.2061 57.8898 47.5964 59.3271C45.5842 61.138 44.5781 63.4089 44.6644 66.111C44.6931 66.8871 44.3769 67.1745 43.687 67.4045C40.1226 68.5256 36.6157 68.3818 33.1662 67.0021C33.31 65.881 33.4537 64.8174 33.5687 63.7538C33.8561 61.4542 33.3962 59.2408 32.5626 57.1137C32.3039 56.4525 32.3614 55.8489 32.3901 55.2165C32.4189 54.2679 32.3614 53.2905 32.4476 52.342C32.4763 51.8533 32.7063 51.3934 32.7925 50.8759C32.85 50.531 32.9075 50.0998 32.7351 49.8411C32.6201 49.6974 32.1027 49.8124 31.7865 49.8124C31.729 49.8986 31.6715 49.9561 31.614 50.0423C31.499 49.6399 31.269 49.2374 31.269 48.8063C31.269 48.3463 31.4128 47.8577 31.5852 47.4265C31.7865 46.9378 32.0452 46.9378 32.3326 47.3403C32.7925 47.9727 33.1375 47.9439 33.4824 47.2253C33.8849 46.4204 34.2298 45.5868 34.661 44.8107C35.0634 44.092 35.4946 43.3734 36.012 42.6835C37.478 40.7001 39.5477 39.809 41.8473 39.2628C41.9048 39.2916 41.9336 39.3491 41.9911 39.3778C41.7323 39.809 41.5024 40.2114 41.2149 40.6426C41.0425 40.9013 40.755 41.1313 40.6975 41.4187C40.6113 41.7349 40.525 42.1948 40.6975 42.4536C40.8412 42.6835 41.3012 42.8847 41.5886 42.856C42.2498 42.7697 42.9109 42.626 43.5433 42.3961C45.0381 41.7924 46.6478 41.3325 48.1426 40.1252ZM41.1287 58.5797C41.8761 58.436 42.6522 58.321 43.3708 58.1198C43.8595 57.976 44.2044 57.6311 44.0032 57.0849C43.802 56.5388 43.3421 56.5963 42.8534 56.6825C42.0198 56.7975 41.1574 56.9412 40.3238 56.9125C39.059 56.8837 38.0529 56.2513 37.3631 55.159C37.0756 54.6991 36.8169 54.2104 36.4432 53.808C36.2707 53.6067 35.897 53.5205 35.6383 53.3768C35.5234 53.693 35.2646 54.0954 35.3509 54.3541C35.6958 55.159 36.0408 55.9926 36.5869 56.6538C37.708 58.0623 39.3177 58.5509 41.1287 58.5797ZM44.5206 50.531C44.3194 49.5249 44.1182 48.4901 43.8595 47.484C43.8308 47.3115 43.572 47.0815 43.4283 47.0815C43.2558 47.0815 42.9971 47.3115 42.9684 47.484C42.8822 47.8289 42.9109 48.1739 42.9396 48.5476C42.9971 49.3524 43.1121 50.1573 43.1121 50.9909C43.1121 51.6808 42.8247 52.2557 42.1923 52.6007C41.5599 52.9456 41.3587 53.3193 41.5886 53.7505C41.8473 54.2104 42.3647 54.2966 42.9396 53.8942C44.0895 53.0606 44.5494 51.9395 44.5206 50.531ZM39.6339 48.9787C39.6339 48.1451 39.3177 47.7139 38.8866 47.7139C38.4266 47.7139 38.0817 48.1451 38.0817 48.72C38.0817 49.2375 38.4266 49.6686 38.8866 49.6399C39.4327 49.6111 39.6052 49.2375 39.6339 48.9787ZM47.4814 48.2314C47.4814 47.6277 47.194 47.254 46.734 47.254C46.3029 47.254 46.0154 47.6565 46.0154 48.2601C46.0154 48.8063 46.3316 49.18 46.7628 49.1512C47.2227 49.1512 47.5102 48.8063 47.4814 48.2314Z" fill="white"/>
<path d="M50.9594 44.4368C50.5282 43.0283 50.1258 41.6773 49.6659 40.3262C49.4934 39.8376 49.2347 39.3776 48.9473 38.9465C48.4011 38.1991 47.7974 38.1703 47.1938 38.889C46.044 40.2975 44.3193 40.5562 42.6808 41.2461C43.0545 40.4125 43.3994 39.7226 43.6869 39.004C43.8018 38.7452 43.8593 38.4865 43.8881 38.2278C43.9456 37.5667 43.4281 37.1355 42.7958 37.3367C40.8698 37.9691 38.9151 38.5153 37.1617 39.6076C35.6094 40.5849 34.5746 42.0222 33.7122 43.6032C33.281 44.3793 32.9361 45.1555 32.5337 45.9603C31.1251 45.7304 30.5215 46.1328 30.2628 47.5701C30.0328 48.8636 30.0903 50.0709 31.2976 50.962C31.3839 51.0195 31.4413 51.1632 31.4413 51.2782C31.3839 52.2843 31.2976 53.2904 31.0677 54.4115C30.5215 53.4629 29.8029 52.5718 29.4867 51.5657C28.3081 47.8863 27.9919 44.1494 29.1992 40.3837C30.1766 37.3655 32.0737 35.2096 35.2645 34.4622C35.8969 34.3185 36.558 34.261 37.1904 34.2897C38.5414 34.3472 39.8062 34.0023 41.071 33.6573C42.1634 33.3411 43.3132 33.1112 44.4342 32.9387C46.3602 32.68 48.4298 33.8585 49.3209 35.5833C50.8157 38.3428 51.4481 41.2748 50.9594 44.4368Z" fill="#070655"/>
<path d="M74.2719 62.7765C74.1857 62.7765 73.9557 62.8053 73.7833 62.6903C73.5533 62.5178 73.3521 62.2878 73.1509 62.0579C73.3521 61.8854 73.5246 61.6555 73.7833 61.5692C75.2205 61.0805 76.7728 60.7931 77.7789 59.4996C78.1525 58.9821 78.4687 58.4072 78.7849 57.8611C79.0149 57.4299 79.2449 57.0275 79.8198 57.1999C80.2797 57.3149 80.4234 57.8036 80.2222 58.4072C79.5323 60.7069 76.8015 62.7478 74.2719 62.7765Z" fill="#070655"/>
<path d="M74.6166 52.8879C74.4442 53.4916 74.2717 54.2677 74.0417 55.0151C73.9268 55.475 73.7255 55.9349 73.6393 56.3948C73.6106 56.596 73.6968 56.7973 73.7543 57.0272C73.9555 56.9697 74.1855 56.941 74.3867 56.8548C74.5304 56.7973 74.6454 56.596 74.7891 56.5673C75.0766 56.5386 75.479 56.4811 75.6227 56.6535C75.7952 56.8548 75.8527 57.2859 75.7665 57.5446C75.5077 58.2633 74.4154 58.6944 73.5818 58.4932C72.8632 58.3208 72.2883 57.6021 72.3458 56.826C72.4033 56.1936 72.5757 55.5612 72.7195 54.9288C72.9494 53.8653 73.1794 52.8017 73.4381 51.7669C73.4956 51.5369 73.7255 51.3357 73.8693 51.1057C74.0705 51.2782 74.3292 51.4507 74.4442 51.6806C74.5304 51.9968 74.5304 52.3705 74.6166 52.8879Z" fill="#070655"/>
<path d="M70.2476 53.5204C70.2476 52.8592 70.5925 52.4281 71.0524 52.4568C71.5124 52.4568 71.8573 52.9455 71.8573 53.5491C71.8573 54.1528 71.5124 54.5265 71.0237 54.4977C70.5063 54.469 70.2188 54.0953 70.2476 53.5204Z" fill="#070655"/>
<path d="M76.7728 53.4631C76.7728 52.8882 77.089 52.4857 77.5202 52.4857C77.9514 52.4857 78.325 52.9744 78.325 53.578C78.325 54.0667 77.9801 54.4404 77.5489 54.4404C77.0603 54.4117 76.7441 54.0092 76.7728 53.4631Z" fill="#070655"/>
<path d="M59.4106 79.8511C57.7721 79.8223 57.0535 78.73 57.6859 77.6377C57.7721 77.4939 57.9733 77.3215 58.0883 77.3502C58.2033 77.3502 58.4045 77.5802 58.4045 77.7239C58.4045 78.2988 58.7207 78.4425 59.2381 78.4713C59.6693 78.4713 60.043 78.7587 59.9568 79.2187C59.8705 79.5061 59.5256 79.7073 59.4106 79.8511Z" fill="#070655"/>
<path d="M62.5436 75.1081C62.5436 75.7118 62.2561 76.1142 61.7675 76.1142C61.2788 76.1142 61.0488 75.8268 61.0488 75.3668C61.0488 74.7919 61.365 74.3033 61.825 74.332C62.3711 74.3033 62.5149 74.7057 62.5436 75.1081Z" fill="#070655"/>
<path d="M55.4434 75.2807C55.5583 74.677 55.7308 74.3321 56.2195 74.3033C56.7081 74.2746 56.8806 74.6195 56.9094 75.0219C56.9381 75.5106 56.6219 75.9705 56.2195 75.8843C55.932 75.7981 55.7021 75.4819 55.4434 75.2807Z" fill="#070655"/>
<path d="M41.129 58.5797C39.3181 58.551 37.7083 58.0623 36.5585 56.6538C36.0123 55.9927 35.6387 55.159 35.3225 54.3542C35.2362 54.1242 35.4949 53.7218 35.6099 53.3768C35.8974 53.5206 36.2423 53.578 36.4148 53.808C36.7597 54.2104 37.0184 54.6991 37.3346 55.159C38.0245 56.2226 39.0306 56.855 40.2954 56.9125C41.129 56.9413 41.9914 56.7975 42.825 56.6825C43.3137 56.5963 43.7736 56.5388 43.9748 57.085C44.176 57.6311 43.8311 58.0048 43.3424 58.1198C42.6238 58.321 41.8764 58.436 41.129 58.5797Z" fill="#070655"/>
<path d="M44.5196 50.531C44.5771 51.9396 44.1172 53.0606 42.9386 53.8655C42.3637 54.2679 41.8176 54.1817 41.5876 53.7218C41.3576 53.2906 41.5588 52.8881 42.1912 52.572C42.8236 52.227 43.1111 51.6521 43.1111 50.9622C43.1111 50.1573 42.9961 49.3525 42.9386 48.5189C42.9099 48.1739 42.8811 47.8002 42.9674 47.4553C42.9961 47.2828 43.2548 47.0529 43.4273 47.0529C43.571 47.0529 43.8297 47.2828 43.8585 47.4553C44.1172 48.4901 44.2897 49.4962 44.5196 50.531Z" fill="#070655"/>
<path d="M39.6338 48.9787C39.6338 49.2374 39.4326 49.6111 38.8864 49.6398C38.4265 49.6686 38.0815 49.2374 38.0815 48.72C38.0815 48.1451 38.4265 47.7139 38.8864 47.7139C39.3176 47.7139 39.6338 48.1451 39.6338 48.9787Z" fill="#070655"/>
<path d="M47.4807 48.2314C47.4807 48.7775 47.2219 49.1512 46.762 49.1512C46.3308 49.1512 46.0146 48.7775 46.0146 48.2601C46.0146 47.6565 46.2734 47.254 46.7333 47.254C47.1932 47.254 47.4807 47.6277 47.4807 48.2314Z" fill="#070655"/>
</svg>
