<svg width="100" height="100" viewBox="0 0 100 100" fill="none" xmlns="http://www.w3.org/2000/svg">
<path d="M31.8228 16.9096C31.9378 19.1527 32.1104 21.1369 32.1391 23.1212C32.1679 24.0702 32.1104 25.163 30.73 25.2205C29.0046 25.278 28.0844 24.6741 28.0844 23.2075C28.0556 18.7788 28.0556 14.3215 28.1994 9.89284C28.2857 7.50598 29.5797 5.72303 31.8803 4.88907C34.3535 3.99759 36.9129 3.47996 39.5873 3.85381C40.1337 3.94008 40.8239 4.11262 41.1689 4.48647C41.5428 4.88907 41.8591 5.63676 41.7441 6.12563C41.6578 6.49948 40.9389 6.93084 40.45 7.04587C39.6736 7.18966 38.8396 7.01711 38.0631 7.04587C34.1234 7.1609 32.1967 9.05888 31.9954 12.9986C31.9666 14.4077 31.8803 15.7881 31.8228 16.9096Z" fill="#999CD8"/>
<path d="M72.8019 15.788C72.5719 19.1814 72.4569 21.7408 72.198 24.3002C72.083 25.4505 71.9105 26.8021 70.185 26.5433C69.1498 26.3995 67.8557 24.4728 67.9995 23.3512C68.2583 21.1657 68.6321 19.0089 68.7472 16.8233C68.8334 14.9828 68.8047 13.0849 68.5171 11.2444C68.1433 8.8863 66.9067 8.54121 63.3983 8.25364C62.6794 8.19612 61.9029 8.16736 61.2703 7.85103C60.8964 7.67849 60.5513 6.95956 60.6088 6.55695C60.6664 6.15435 61.184 5.55045 61.5578 5.46418C63.2258 5.14785 64.9512 4.80276 66.6191 4.83152C69.3223 4.88903 71.2491 6.61447 71.7667 9.26014C72.2556 11.7333 72.5431 14.1489 72.8019 15.788Z" fill="#999CD8"/>
<path d="M49.2785 62.8349C49.2785 61.7134 49.2497 59.988 49.3072 58.2625C49.336 57.256 48.9334 56.9397 47.9844 57.026C43.7283 57.3423 39.731 56.1633 35.8488 54.5816C35.3599 54.3803 34.8998 54.064 34.5547 53.6901C30.6437 49.3478 28.2569 44.2865 27.9118 38.3912C27.653 34.2214 27.5379 30.0516 27.4229 25.8818C27.3654 23.7825 28.1994 23.0348 30.2124 23.0924C32.2541 23.1499 32.8005 23.8688 32.9443 25.9968C33.3182 31.662 33.6632 37.356 35.7625 42.7048C37.3729 46.7884 40.5075 48.8301 44.8211 49.3478C48.9621 49.8654 53.0169 49.7504 57.0429 48.4275C60.9827 47.1335 63.082 44.229 64.4048 40.548C66.3028 35.2279 66.6479 29.6778 67.1655 24.1276C67.3956 21.6545 68.7184 21.0506 71.019 21.9421C72.8882 22.661 73.8084 23.6963 73.7797 25.7093C73.7509 27.6935 73.981 29.6778 73.866 31.6333C73.4921 37.7011 72.8594 43.7401 69.1498 48.8877C66.6191 52.396 63.6284 55.2718 59.3148 56.4796C59.171 56.5083 58.9984 56.5659 58.8546 56.6234C56.2377 57.4861 56.2665 57.5148 56.2952 60.1893C56.3528 68.2413 56.1227 76.2646 54.6848 84.2016C53.477 90.9308 49.5085 95.3595 43.1819 97.9476C39.1559 99.5868 34.9861 100.421 30.7875 99.7881C27.2216 99.2417 23.7132 98.1489 20.78 95.5608C17.7605 92.8863 15.1148 90.0394 13.7632 86.1859C12.2966 82.0161 10.8587 77.8175 9.44959 73.6189C9.01823 72.3824 9.27705 71.5772 10.8012 71.1171C16.0925 69.5642 14.5972 70.053 16.035 74.4817C16.7827 76.811 17.2428 79.2554 18.0768 81.556C19.5722 85.7258 22.1028 89.1191 26.0713 91.2472C29.0046 92.8288 32.1391 93.3465 35.5037 93.0014C38.782 92.6563 41.4565 91.1321 43.642 88.9178C45.0511 87.48 46.1727 85.5532 46.7478 83.6265C47.6968 80.4057 48.3295 77.0698 48.7321 73.734C49.1059 70.2831 49.0772 66.8322 49.2785 62.8349Z" fill="#1D1CAB"/>
<path d="M20.4347 64.5892C20.5209 69.1903 18.7667 72.3824 15.0571 74.4817C13.4466 75.4019 11.75 75.0568 10.0533 74.9993C3.61165 74.7693 -1.79473 66.4009 0.563374 60.5056C2.08751 56.6809 4.35934 53.5464 8.84548 52.8274C12.5552 52.2235 15.1721 54.2078 17.6452 56.5371C20.0321 58.8377 20.3196 61.886 20.4347 64.5892Z" fill="#999CD8"/>
<path d="M41.3699 9.20263C38.6092 9.17388 36.6537 7.33341 36.6824 4.80276C36.7112 2.04206 38.868 -0.0284614 41.6287 0.000295906C43.9293 0.0290532 45.9998 2.15709 45.9711 4.48643C45.9711 7.10335 43.9005 9.20263 41.3699 9.20263Z" fill="#070655"/>
<path d="M66.5614 5.03281C66.5326 7.64972 64.6634 9.60522 62.219 9.57646C59.7171 9.5477 57.4453 7.33339 57.4453 4.88902C57.4453 2.38714 59.6309 0.431639 62.3628 0.460396C64.6922 0.517911 66.5901 2.53092 66.5614 5.03281Z" fill="#070655"/>
<path d="M15.5174 63.1801C15.5462 65.5669 14.6547 67.2348 12.6992 68.3276C11.8652 68.7877 10.9737 68.644 10.111 68.5864C6.74641 68.4714 3.95695 64.1003 5.16476 61.052C5.94121 59.0678 7.14902 57.4286 9.47836 57.0548C11.4051 56.7384 12.7854 57.7737 14.0508 58.9815C15.2873 60.1893 15.4599 61.771 15.5174 63.1801Z" fill="white"/>
</svg>
