<svg width="444" height="284" viewBox="0 0 444 284" fill="none" xmlns="http://www.w3.org/2000/svg">
<path d="M278.769 21.5678C278.769 21.5678 300.328 -4.40786 341.714 12.1221C383.101 28.652 444.944 139.796 325.348 224.807" stroke="#274D79" stroke-width="0.782" stroke-miterlimit="10"/>
<path d="M282.86 39.6717C280.972 44.552 262.246 37.1529 264.134 32.43L266.809 25.6606C268.855 20.4655 274.678 17.9466 279.87 19.9932C285.063 22.0398 287.581 27.8646 285.536 33.0597L282.86 39.6717Z" fill="#8393A7"/>
<path d="M264.134 32.2728C261.931 36.9956 280.972 44.3947 282.86 39.5144C284.434 35.8936 265.708 28.9668 264.134 32.2728Z" fill="#FFC107"/>
<path d="M271.53 36.0512C271.373 36.681 270.429 36.8384 269.485 36.5235C268.54 36.2087 268.068 35.4215 268.226 34.7918C268.383 34.1621 269.327 34.0047 270.271 34.3195C271.216 34.6344 271.845 35.4215 271.53 36.0512Z" fill="#000E5B"/>
<path d="M278.297 38.4126C278.139 39.0423 277.195 39.1997 276.251 38.8849C275.307 38.57 274.835 37.7829 274.992 37.1532C275.15 36.5234 276.094 36.366 277.038 36.6809C277.825 37.1531 278.454 37.7829 278.297 38.4126Z" fill="#000E5B"/>
<path d="M442.291 281H1.70934C0.747835 281 0 279.906 0 278.5C0 277.094 0.747835 276 1.70934 276H442.291C443.252 276 444 277.094 444 278.5C444 279.906 443.252 281 442.291 281Z" fill="#0048B3"/>
<path d="M115.741 254.561C121.091 258.811 136.198 275.971 193.95 275.971C210.001 275.971 227.469 276.601 241.631 272.823C278.14 262.905 302.216 249.523 302.216 249.523L231.403 225.437L167.986 225.752L115.741 254.561Z" fill="#1E4174"/>
<path d="M164.366 244.486L136.828 249.838L137.772 264.794L168.772 264.007L164.366 244.486Z" fill="#7F3A4C"/>
<path d="M164.366 244.486C164.366 244.486 231.403 225.437 252.332 220.242C276.251 214.102 312.445 197.73 324.562 213C336.836 228.271 321.886 248.579 288.84 257.552C255.794 266.526 165.468 265.581 165.468 265.581L164.366 244.486Z" fill="#002F75"/>
<path d="M110.705 240.55C110.705 240.55 109.604 244.013 109.761 251.413C109.919 258.812 113.695 264.322 114.01 275.027C114.01 275.027 118.102 268.257 117.944 257.08C117.787 245.903 110.705 240.55 110.705 240.55Z" fill="#8393A7"/>
<path d="M150.833 265.109C146.427 265.581 139.188 268.887 134.782 271.248C130.376 273.61 128.015 276.129 119.99 275.971C119.99 275.971 119.99 255.033 119.046 248.579C118.259 242.124 116.843 241.022 116.843 241.022C116.843 241.022 124.239 241.495 127.858 243.384C131.477 245.273 131.949 246.217 138.401 246.532C144.853 246.847 147.528 247.162 150.361 247.004C154.767 253.774 153.036 261.96 150.833 265.109Z" fill="#53657D"/>
<path d="M132.107 267.628C132.107 267.628 134.625 256.765 131.005 249.366" stroke="white" stroke-width="0.9245" stroke-miterlimit="10" stroke-linecap="round"/>
<path d="M136.67 266.368C136.67 266.368 139.031 258.024 135.569 250.153" stroke="white" stroke-width="0.9245" stroke-miterlimit="10" stroke-linecap="round"/>
<path d="M141.706 264.321C141.706 264.321 143.909 258.811 140.919 250.625" stroke="white" stroke-width="0.9245" stroke-miterlimit="10" stroke-linecap="round"/>
<path d="M120.147 276.129C117.629 276.129 114.64 275.971 114.167 275.027C113.695 273.925 116.685 267.785 115.584 255.348C114.954 248.736 110.233 240.865 110.863 240.707C111.492 240.55 115.112 239.133 117.157 241.18C119.046 243.226 129.432 256.765 120.147 276.129Z" fill="white"/>
<path d="M286.322 105.949C294.977 99.8093 313.861 85.4834 323.775 54.6275C326.922 44.867 327.237 38.0976 327.079 33.6896C322.044 29.439 322.516 21.2528 317.795 16.2151C311.186 8.97339 305.363 0 318.11 0C325.191 0 331.8 0.314856 335.262 3.62084C338.095 6.29712 343.288 14.3259 344.232 17.0022C346.435 23.2993 343.917 31.1707 343.603 40.7738C343.288 50.3769 336.993 110.042 291.043 135.073L286.322 105.949Z" fill="#7F3A4C"/>
<path d="M186.397 83.4365C186.397 83.4365 186.24 91.1504 185.453 94.299C184.823 97.4476 185.453 99.1793 175.854 100.754C175.854 100.754 179.788 113.348 196.468 115.552C213.149 117.756 219.915 104.532 219.443 104.532C218.971 104.532 214.25 102.643 212.834 101.698C211.418 100.754 212.519 82.3345 212.519 82.3345L186.397 83.4365Z" fill="#7F3A4C"/>
<path d="M212.362 86.8999C212.362 86.8999 210.316 93.3544 200.245 93.9841C190.174 94.6139 186.397 88.3167 186.397 88.3167L186.554 83.4365L212.677 82.3345L212.362 86.8999Z" fill="#26353F"/>
<path d="M170.503 55.7297C170.503 55.7297 165.31 54.9426 162.95 58.7208C160.589 62.4991 163.579 69.7408 168.93 71.0002C174.123 72.1022 175.854 69.2685 175.854 69.2685L170.503 55.7297Z" fill="#7F3A4C"/>
<path d="M221.174 45.9692C221.174 45.9692 225.738 43.293 229.357 45.9692C232.976 48.6455 232.976 56.5169 228.256 59.508C223.849 62.4992 221.174 60.4526 221.174 60.4526V45.9692Z" fill="#7F3A4C"/>
<path d="M202.448 20.6233C198.357 19.2064 194.108 18.7341 189.859 19.5213C185.768 20.3084 181.519 22.1976 178.372 25.0313C170.818 31.6432 167.828 41.8761 169.717 51.6366C170.189 54.4703 170.975 57.1466 171.762 59.8228L173.021 63.6011C173.965 66.5922 176.011 72.1022 179.473 77.2973C186.082 87.5301 196.94 89.2619 203.235 88.0024C209.529 86.743 218.814 81.233 221.332 69.2685C222.59 63.2863 222.433 57.304 222.118 54.1554L221.804 50.2197C221.646 47.386 221.174 44.5523 220.702 41.8761C218.656 32.1155 211.89 23.7718 202.448 20.6233Z" fill="#7F3A4C"/>
<path d="M173.651 31.0134C173.651 31.0134 180.417 41.2462 191.59 44.2374C202.763 47.2285 209.057 34.3194 207.956 28.4946C207.956 28.4946 218.814 45.9691 221.332 45.9691C221.332 45.9691 224.007 38.8848 223.063 31.0134C222.118 23.142 218.499 19.2063 214.408 16.2152C210.631 13.3815 206.854 15.1132 205.281 16.0578C203.235 12.2795 197.255 4.09323 185.453 5.51009C172.234 6.92694 167.199 16.0578 169.087 29.9114C169.087 29.9114 164.209 28.4946 161.219 34.3194C158.229 39.9868 161.534 51.1642 165.468 56.5167C165.468 56.5167 168.93 55.4148 170.503 55.7296C170.503 55.7296 168.143 46.5988 170.346 38.57C172.077 31.958 173.651 31.0134 173.651 31.0134Z" fill="#001C45"/>
<path d="M180.102 99.8091C181.204 104.532 187.971 112.088 197.727 112.561C207.484 113.033 215.509 106.421 216.925 103.587C225.108 104.374 235.494 106.578 238.956 107.208C243.834 108.153 248.713 112.561 246.824 126.414C245.093 139.953 234.393 225.122 234.393 225.122C234.393 225.122 206.225 236.142 167.986 226.066C167.986 226.066 144.853 133.656 142.807 125.627C140.762 117.598 138.244 109.255 145.483 106.736C152.721 104.217 180.102 99.8091 180.102 99.8091Z" fill="#0AC789"/>
<path d="M211.575 198.202C212.047 198.359 212.677 198.359 213.149 198.517C218.499 199.146 216.139 193.007 214.408 190.645C211.89 187.024 193.95 173.171 193.95 173.171L180.102 174.273L164.366 180.727L157.914 185.765C159.173 190.96 160.432 195.998 161.691 200.721C167.513 197.1 181.676 188.284 184.823 188.126C186.712 187.969 188.6 188.599 190.331 189.386C192.849 190.488 195.367 191.432 198.042 192.377C199.301 192.849 200.402 193.164 201.504 193.794C203.55 194.738 205.438 196.155 207.484 197.1C208.9 197.415 210.159 197.887 211.575 198.202Z" fill="#03AA99"/>
<path d="M271.688 169.078L281.916 173.8" stroke="#274D79" stroke-width="2.1" stroke-miterlimit="10" stroke-linecap="round"/>
<path d="M267.439 177.421L277.51 182.302" stroke="#274D79" stroke-width="2.1" stroke-miterlimit="10" stroke-linecap="round"/>
<path d="M125.97 213C139.346 214.889 162.95 215.361 183.879 196.47C200.717 181.2 215.981 152.233 255.007 164.984" stroke="#274D79" stroke-width="0.782" stroke-miterlimit="10"/>
<path d="M273.261 163.567C277.825 166.086 268.383 183.876 263.82 181.357L257.368 177.893C252.489 175.217 250.601 169.235 253.119 164.197C255.794 159.317 261.774 157.428 266.809 159.947L273.261 163.567Z" fill="#8393A7"/>
<path d="M135.254 120.433C135.254 120.433 103.624 177.579 97.9591 187.182C92.294 196.785 93.3956 207.648 94.6545 210.324C95.9134 213 112.279 214.889 127.229 209.065C142.335 203.397 181.047 183.719 183.879 182.144C183.879 182.144 187.499 184.506 191.275 186.395C196.468 188.914 200.56 188.914 204.022 191.433C207.326 193.951 211.103 198.832 217.555 195.683C221.332 193.794 212.834 181.83 209.057 175.218C205.281 172.069 191.905 166.559 185.295 167.504C175.854 168.92 128.33 184.978 128.33 184.978L145.483 155.224L135.254 120.433Z" fill="#7F3A4C"/>
<path d="M147.214 105.949C139.503 108.31 136.513 112.246 128.802 125.942C121.249 139.796 111.178 156.483 111.178 156.483C111.178 156.483 119.36 169.235 137.3 172.856L149.574 152.233L147.214 105.949Z" fill="#0AC789"/>
<path d="M238.956 107.208C248.241 108.782 271.845 115.709 286.322 105.949C286.322 105.949 295.922 120.432 294.191 138.694C294.191 138.694 274.678 156.168 243.992 149.084L238.956 107.208Z" fill="#0AC789"/>
<path d="M241.631 248.736L268.855 256.293L266.652 271.249L235.809 267.943L241.631 248.736Z" fill="#7F3A4C"/>
<path d="M241.631 248.736C241.631 248.736 179.316 227.169 156.183 218.667C133.051 210.166 99.218 193.164 85.6848 207.49C72.3089 221.659 83.4817 242.911 115.741 254.561C148 266.053 238.956 269.674 238.956 269.674C241.631 262.905 242.576 255.978 241.631 248.736Z" fill="#0048B3"/>
<path d="M295.449 249.208C295.449 249.208 296.236 252.672 295.449 260.071C294.663 267.313 290.571 272.665 289.312 283.213C289.312 283.213 285.693 276.129 286.795 264.951C288.053 253.931 295.449 249.208 295.449 249.208Z" fill="#8393A7"/>
<path d="M253.591 270.461C257.84 271.248 264.764 275.184 269.013 277.86C273.261 280.537 275.464 283.213 283.333 283.843C283.333 283.843 285.064 262.905 286.48 256.608C287.896 250.153 289.312 249.209 289.312 249.209C289.312 249.209 281.916 249.051 278.14 250.783C274.363 252.515 273.891 253.302 267.439 252.987C260.987 252.672 258.312 252.829 255.479 252.515C250.601 258.969 251.703 267.155 253.591 270.461Z" fill="#53657D"/>
<path d="M272.002 274.397C272.002 274.397 270.429 263.377 274.678 256.293" stroke="white" stroke-width="0.9245" stroke-miterlimit="10" stroke-linecap="round"/>
<path d="M267.596 272.823C267.596 272.823 265.865 264.322 269.957 256.765" stroke="white" stroke-width="0.9245" stroke-miterlimit="10" stroke-linecap="round"/>
<path d="M262.718 270.461C262.718 270.461 260.987 264.794 264.449 256.923" stroke="white" stroke-width="0.9245" stroke-miterlimit="10" stroke-linecap="round"/>
<path d="M283.333 283.843C285.85 284 288.84 284.157 289.47 283.213C289.942 282.268 287.581 275.656 289.784 263.534C290.886 256.922 296.236 249.523 295.607 249.208C294.977 248.894 291.515 247.319 289.312 249.208C286.952 251.098 275.622 263.849 283.333 283.843Z" fill="white"/>
<path d="M241.631 260.071H240.215C240.215 260.071 199.616 257.395 156.026 250.311C113.223 243.226 84.2685 228.9 80.4918 218.195C78.6035 230.947 90.8778 245.745 115.898 254.719C148.158 266.211 239.114 269.832 239.114 269.832C240.058 266.841 241.002 263.692 241.631 260.071Z" fill="#3256B5"/>
<path d="M233.606 245.115C233.606 250.783 232.347 263.377 229.987 271.248" stroke="#274D79" stroke-width="0.782" stroke-miterlimit="10"/>
<path d="M149.574 152.233C149.574 152.233 154.452 139.324 151.148 120.433C151.148 120.433 157.285 143.575 150.676 156.326L149.574 152.233Z" fill="#03AA99"/>
<path d="M243.992 149.242C243.992 149.242 245.723 134.601 242.576 120.905C242.576 120.905 246.51 128.776 246.195 149.714L243.992 149.242Z" fill="#03AA99"/>
</svg>
