<?xml version="1.0" encoding="utf-8"?>
<!-- Generator: Adobe Illustrator 24.1.0, SVG Export Plug-In . SVG Version: 6.00 Build 0)  -->
<svg version="1.1" id="Calque_1" xmlns="http://www.w3.org/2000/svg" xmlns:xlink="http://www.w3.org/1999/xlink" x="0px" y="0px"
	 viewBox="0 0 350 295" style="enable-background:new 0 0 350 295;" xml:space="preserve">
<style type="text/css">
	.st0{fill:#EBEFF3;}
	.st1{fill:#0048B3;}
	.st2{fill:#0AC789;}
	.st3{fill:#272345;}
	.st4{fill:#FEFEFE;}
	.st5{fill:#F4ADA2;}
	.st6{fill:#1D9E70;}
	.st7{fill:#2D2E83;}
</style>
<path class="st0" d="M167.8,284.3c23.4,10.1,78.2-5.7,110.5-59.1c33.2-147.7-50.3-173.4-92-177.8c-37-3.9-68.1,19.8-73.9,27.7
	c-5.9,8-49.1,52.9-47.3,96.7C66.8,215.6,144.3,274.3,167.8,284.3z"/>
<path class="st1" d="M145.2,271.7c-3.7-12.5-1.5-61.7,0-84.7c16.5-7.9,49.1-21.1,46.7-3.7c-4.1,29.8,3.1,73,6,99.4l-8.7,4.6
	c-8.4,3.7-15.7-1.5-18.3-4.6c0-40.8-6.9-69.6-6.9-69.6s-0.8,56.2,0,69.6L145.2,271.7z"/>
<path class="st2" d="M192.8,171.7c0.2,2.8,0.5,5.5,0.5,8.3c0,0.7-0.6,1.9-1.2,2c-10.5,2.7-21,5.5-31.5,7.9
	c-3.2,0.7-6.8,0.5-10.1,0.3c-2.7-0.2-5-1.4-6.1-4.2c0.6-9.5,1.1-19,1.7-28.5l1-9.2c0.6-3,1.3-6.1,1.9-9h-9.7
	c-8.6-0.9-10-1.4-13.6-2.8c-2.6-1.1-4.8-2.6-5.9-5.3c-0.2-1.6-0.5-3.3-0.4-4.9c0.3-7,2.5-9,6.2-17.5c0.9-2.9,4-6.3,5.8-8.6
	c2.7,1.2,5.4,2.4,8,3.5c-1.1,5.1-2.3,10.1-3.5,15.3c5.1,1,10.1,1.3,15.1-0.1c3.9-1.2,7.9-2.4,11.8-3.6c0,0,16.6,0.7,20.2-2.8
	c6.3,3.7,12.4,7.7,16.7,13.9c3.1,5.1,3.4,10.5,1.7,16.1c-2.1,4.4-4,8.9-6.3,13.3C192.5,160.8,192.1,166.1,192.8,171.7z"/>
<path class="st3" d="M175.8,70.1c2,1.7,2.6,3.9,1.9,6.5c0.3,0.2,0.6,0.3,0.8,0.4c7,2.1,9.1,9.9,4.2,15.4c-0.4,0.5-0.7,1.2-0.7,1.8
	c0,5.4-1.1,6.9-6.2,8.6c-0.7-1.1-1.4-2.2-2.3-3.5c2.9-0.9,4.7-2.3,4.3-4.8c-0.2-1.4-1.3-3.2-2.5-3.9c-2.5-1.5-4.6-0.1-6.5,2.2
	c-0.6-1.8-1.1-3.3-1.6-4.8c-0.2-0.6-0.6-1.3-1.2-1.6c-1.9-1.1-3.9-1.9-5.8-2.9c-1.1,5.7-6.6,9.2-12.1,7.3c1.2-3.3-1.4-4.8-3.8-6.5
	c3.2-1.7,5.8,1.9,8.8-0.2c-0.7-0.8-1.2-1.5-1.8-2.1c-3.1-2.9-6.6-2.5-10.2-0.9c0-0.5,0-0.9,0-1.4c2.1-5.4,2.7-5.9,8.8-7.2
	c1.5-5.2,4.5-7.7,9.6-8c5.3-0.3,8.1,1.4,10.6,6.8C171.6,69.2,173.6,68.7,175.8,70.1z"/>
<path class="st4" d="M140.5,98.3c-0.5,1.8-1,3.5-1.5,5.2c-2.7-1.2-5.4-2.4-8-3.5c0.6-1.6,1.3-3.1,1.9-4.7
	C135.5,96.3,138,97.3,140.5,98.3z"/>
<path class="st5" d="M140.5,98.3c-2.5-1-5.1-2-7.6-3c1.1-5.7,3.4-10.7,8.1-14.4c3.6-1.6,7-1.9,10.2,0.9c0.6,0.6,1.1,1.3,1.8,2.1
	c-2.9,2.1-5.6-1.5-8.8,0.2c2.4,1.7,5,3.2,3.8,6.5c5.6,1.9,11.1-1.6,12.1-7.3c1.9,0.9,3.9,1.8,5.8,2.9c0.5,0.3,0.9,1,1.2,1.6
	c0.6,1.5,1,3,1.6,4.8c1.9-2.3,4.1-3.6,6.5-2.2c1.2,0.7,2.3,2.5,2.5,3.9c0.4,2.6-1.5,4-4.3,4.8c0.8,1.3,1.6,2.4,2.3,3.5
	c0.9,1.8,1.7,3.6,2.6,5.4c0.4,0.8,0.9,1.6,1.4,2.4c-3.2,1.7-6.4,3.8-9.8,5c-1.7,0.6-3.9-0.5-5.9-0.8c-0.1-0.2-0.2-0.5-0.4-0.6
	c-6.6-1.3-10-6.2-12.7-11.7c-0.8-1.5-1.3-3.2-1.9-4.8c-0.4-1.9-0.7-3.7-1.3-6.3c-0.3,3.6-2.8,3.4-4.8,4
	C142.2,96.3,141.4,97.3,140.5,98.3z"/>
<path class="st3" d="M139.6,142c0.1,0.1,0.2,0.3,0.4,0.4C139.8,142.3,139.7,142.2,139.6,142z"/>
<path class="st3" d="M136.4,144.3c0,0.2,0,0.3,0,0.5c-0.1-0.1-0.2-0.2-0.3-0.2C136.3,144.4,136.3,144.4,136.4,144.3z"/>
<path class="st3" d="M143,95.3c2-0.6,4.4-0.4,4.8-4c0.5,2.6,0.9,4.5,1.3,6.3C147,96.9,145,96.1,143,95.3z"/>
<path class="st4" d="M144.3,156.5c1-2.5,2-5,3-7.5c1.6,0.4,3.2,0.8,5.2,1.3c-1,3-2,5.6-2.9,8.4c-1.5-0.5-2.5-0.9-3.6-1.2
	c-0.5-0.2-1-0.4-1.5-0.6C144.3,156.7,144.2,156.6,144.3,156.5z"/>
<path class="st4" d="M164.1,114.8c-0.6,0.2-1.6,0.6-2.2,0.7c0.5,1.4,2.2,2.8,2.2,2.8s3.6,3.4,9.4,1.1c5.7-2.3,9.6-7,9.6-7l-3.3-1.9
	c0,0-7.6,4.1-9.8,4.5C166.9,115.6,164.1,114.8,164.1,114.8z"/>
<path class="st3" d="M134.7,156.6c-0.8-0.2-1.5-0.8-1.9-1.6c-2.1-4.1-8.8-17.3-7.4-18.6c1.7-1.5,10.6-1.8,12,0
	c1.1,1.5,5.5,13.3,7,17.2c0.5,1.4,0,3-1.3,3.7c-0.3,0.1-0.5,0.2-0.9,0.3C140.6,158,136.8,157.1,134.7,156.6z"/>
<path class="st6" d="M149.5,158.6c2.8,1.1,5.7,3.5,8.6,4.4c4.4,1.4,9,3.1,13.7,3.3c2.3,0.1,4.7-0.5,7-0.9c3-0.6,6-1.4,8.8-2.5
	c1.9-0.7,4-1.5,5.3-3.1c1.2-1.5,2.2-3.3,3.1-5.1c2-3.6,3.6-8.1,5.4-11.8c0.4-0.8,1.1-5.8,1.1-6.7c0-0.3-1,2.5-1,2.7
	c-1.5,3.1-3,6.1-4.5,9.1c-1,2-2.1,4-3.4,5.9c-1.1,1.6-2.6,2.5-4.4,3.3c-2.7,1.2-5.5,2-8.4,2.7c-2.6,0.6-5.2,1.2-7.9,1.4
	c-1.9,0.1-3.9-0.3-5.8-0.8c-2.4-0.6-4.8-1.3-7.2-2c-3.5-1.1-5.9-1.7-9.3-3L149.5,158.6z"/>
<path class="st7" d="M163.4,214.2c-0.1,2.2,0.7,4.6,1.1,6.8c0.4,2.1,0.9,4.3,1.4,6.4c0.9,4.4,1.8,8.9,2.5,13.4
	c1.4,8.7,2.3,17.4,2.6,26.2c0.1,2.5,0.1,5,0.1,7.5c0,2.7-0.3,5.3,0.1,8c0.2,1.8,2.7,2.8,3.2,0.6c0.6-2.3,0.6-4.8,0.7-7.2
	c0.1-2.3,0.1-4.7,0-7c-0.1-4.6-0.4-9.2-0.9-13.8c-0.9-9.2-2.5-18.3-4.5-27.3c-0.6-2.5-1.1-5.1-1.8-7.5c-0.3-1.2-0.7-2.5-1-3.7
	c-0.4-1.2-0.7-2.6-1.5-3.7C164.4,211.5,163.4,213.2,163.4,214.2z"/>
<path class="st5" d="M147.2,149.2c-1,2.5-2,5-3,7.5c-4.1-1.7-8.3-3.4-12.4-5.1c-0.5-0.2-0.9-0.5-1.2-0.9c-1-1.5-2.3-2.5-3.3-4.2
	c-0.2-0.4-0.9-1.3-1.6-2.7c-0.5-0.9-1.1-1.6,1-2.8c3.2,1.3,9.6,4,9.7,4.1c-0.4-5,1.3-3.2,3.1-2.7c0.1,0.1,1.4,1.4,1.5,1.5
	c2.7,2.3,1.5,1.9,4.6,3.8C145.9,148,147.1,148.9,147.2,149.2z"/>
<path class="st2" d="M213.5,61.4c0-2.9-1.9-5-5.1-5c-2.5,0-4.6,1.3-6.4,3.2l-4-3.7c2.8-3.1,6.6-5.4,11.3-5.4
	c6.5,0,11.2,3.6,11.2,10.3c0,7.9-9.7,10.8-8.8,18.8h-6.3C203.9,70.6,213.5,67,213.5,61.4z M203.8,89c0-2.8,2-4.9,4.6-4.9
	c2.6,0,4.6,2.1,4.6,4.9s-2,4.8-4.6,4.8C205.8,93.8,203.8,91.8,203.8,89z"/>
</svg>
