<svg width="350" height="299" viewBox="0 0 350 299" fill="none" xmlns="http://www.w3.org/2000/svg">
<path d="M285.863 183.2C287.663 139.4 244.363 94.5002 238.563 86.5002C232.663 78.6002 201.563 54.9002 164.663 58.8002C122.863 63.2002 39.363 88.9002 72.663 236.6C104.863 290 159.763 305.8 183.163 295.7C206.563 285.6 284.063 227 285.863 183.2Z" fill="#DDE2E8"/>
<path d="M154.263 120.2C157.263 116.5 180.163 87.9998 186.163 80.6998C192.063 73.2998 196.363 80.7998 191.663 87.4998C186.963 94.1998 164.663 125.8 164.663 125.8C164.663 125.8 166.163 125.6 173.363 116.5C177.563 111.2 184.863 118.7 182.163 122.6C175.463 132.3 175.763 133.9 175.763 133.9C175.763 133.9 180.363 127.8 184.363 122.7C188.463 117.6 194.163 125.4 192.063 127.6C184.963 136.8 183.163 140.7 183.163 140.7C183.163 140.7 187.463 135.8 191.563 130.8C195.563 125.8 201.263 134.8 195.863 141.5C190.463 148.2 179.463 161.8 170.963 172.4C162.363 183 149.563 183.9 149.563 183.9L145.463 197.6L113.763 189.1L124.563 164.5C124.563 164.5 123.063 153.5 125.663 144.5C128.263 135.4 133.163 113.9 134.463 106.3C135.763 98.6998 145.863 102 144.863 108.1C143.863 114.3 142.763 120 142.463 122.2C142.163 124.4 151.263 123.9 154.263 120.2Z" fill="#F4ADA2"/>
<path d="M145.463 159.7V54.9C145.463 49.4 149.863 45 155.363 45H206.563C212.063 45 216.463 49.4 216.463 54.9V159.8C216.463 167.1 210.563 173.1 203.163 173.1H158.763C151.463 173 145.463 167.1 145.463 159.7Z" fill="#0D3857"/>
<path d="M205.463 159.9H157.763C154.963 159.9 152.663 157.6 152.663 154.8V57.8002C152.663 55.0002 154.963 52.7002 157.763 52.7002H205.363C208.163 52.7002 210.463 55.0002 210.463 57.8002V154.8C210.563 157.6 208.263 159.9 205.463 159.9Z" fill="white"/>
<path d="M196.263 111H159.863C159.163 111 158.563 110.4 158.563 109.7V108.4C158.563 107.7 159.163 107.1 159.863 107.1H196.263C196.963 107.1 197.563 107.7 197.563 108.4V109.7C197.663 110.4 197.063 111 196.263 111Z" fill="#0D3857"/>
<path d="M196.263 118H159.863C159.163 118 158.563 117.4 158.563 116.7V115.4C158.563 114.7 159.163 114.1 159.863 114.1H196.263C196.963 114.1 197.563 114.7 197.563 115.4V116.7C197.663 117.4 197.063 118 196.263 118Z" fill="#0D3857"/>
<path d="M196.263 124.9H159.863C159.163 124.9 158.563 124.3 158.563 123.6V122.3C158.563 121.6 159.163 121 159.863 121H196.263C196.963 121 197.563 121.6 197.563 122.3V123.6C197.663 124.3 197.063 124.9 196.263 124.9Z" fill="#0D3857"/>
<path d="M202.863 200.5C208.663 207.9 218.463 213.1 218.463 213.1L219.863 224.9H248.163L256.763 222.6L248.863 204.3C248.863 204.3 255.663 193.4 252.163 180.2C248.563 167 244.063 150.1 241.763 141.9C239.563 133.6 228.863 132.9 230.563 139.1C232.263 145.3 233.663 151.7 233.663 151.7C233.663 151.7 231.463 148 228.263 136.8C227.763 133.8 218.063 133.9 219.763 140.1C221.463 146.4 223.763 153.7 223.763 153.7C223.763 153.7 222.263 153 218.363 141.9C216.763 137.4 206.363 138.9 208.263 145.4C211.463 156.6 210.663 157.9 210.663 157.9C210.663 157.9 198.163 121.4 195.463 113.6C192.763 105.8 184.263 104.9 186.763 114.1C189.263 123.2 198.763 158.5 200.063 163.1C201.363 167.7 196.363 175.4 194.663 173.9C193.063 172.4 189.063 168.2 184.663 163.7C180.263 159.2 171.763 165.5 177.063 171C182.463 176.5 197.063 193.1 202.863 200.5Z" fill="#F4ADA2"/>
<path d="M263.063 230.3L261.963 224.9L218.763 235.4L224.363 268.1C224.363 268.1 237.263 257.1 244.663 250.1C251.963 243.1 263.063 230.3 263.063 230.3Z" fill="#0AC789"/>
<path d="M127.863 288.4L148.163 203.6L113.763 180.3L86.6631 257.1C86.6631 257.1 92.1631 266.4 108.363 276.3C127.863 288.4 127.863 288.4 127.863 288.4Z" fill="#0AC789"/>
<path d="M119.063 166.2L113.763 180.4L148.863 203.6L151.263 190.3L119.063 166.2Z" fill="white"/>
<path d="M216.063 222.5L218.763 235.4L261.963 224.9L258.763 209.4L216.063 222.5Z" fill="white"/>
<path d="M167.563 79.5999C165.163 79.5999 162.863 78.6999 161.163 76.8999C159.463 75.1999 158.463 72.8999 158.463 70.4999C158.463 68.0999 159.363 65.7999 161.163 64.0999C162.863 62.3999 165.163 61.3999 167.563 61.3999C169.963 61.3999 172.263 62.2999 173.963 64.0999C175.663 65.7999 176.663 68.0999 176.663 70.4999C176.663 72.8999 175.763 75.1999 173.963 76.8999C172.263 78.6999 170.063 79.5999 167.563 79.5999Z" fill="#1D54B5"/>
<path d="M167.563 77.3998C163.763 77.3998 160.763 74.2998 160.763 70.5998C160.763 66.8998 163.863 63.7998 167.563 63.7998C171.263 63.7998 174.363 66.8998 174.363 70.5998C174.363 74.2998 171.363 77.3998 167.563 77.3998Z" fill="#EDF5FF"/>
<path d="M169.063 74.2H167.063V70.1H166.163V69H168.163V73.1H169.063V74.2Z" fill="#1D54B5"/>
<path d="M167.063 66.8999H168.163V67.9999H167.063V66.8999Z" fill="#1D54B5"/>
<path d="M202.563 91.9H159.863C159.163 91.9 158.563 91.3 158.563 90.6V89.3C158.563 88.6 159.163 88 159.863 88H202.563C203.263 88 203.863 88.6 203.863 89.3V90.6C203.863 91.3 203.263 91.9 202.563 91.9Z" fill="#0D3857"/>
<path d="M186.363 98.1998H159.863C159.163 98.1998 158.563 97.5998 158.563 96.8998V95.5998C158.563 94.8998 159.163 94.2998 159.863 94.2998H186.363C187.063 94.2998 187.663 94.8998 187.663 95.5998V96.8998C187.763 97.5998 187.163 98.1998 186.363 98.1998Z" fill="#0D3857"/>
<path d="M202.563 104.7H159.863C159.163 104.7 158.563 104.1 158.563 103.4V102C158.563 101.3 159.163 100.7 159.863 100.7H202.563C203.263 100.7 203.863 101.3 203.863 102V103.3C203.863 104.1 203.263 104.7 202.563 104.7Z" fill="#0D3857"/>
<path d="M181.663 134.7C176.863 134.7 172.963 138.6 172.963 143.4C172.963 148.2 176.863 152.1 181.663 152.1C186.463 152.1 190.363 148.2 190.363 143.4C190.263 138.6 186.363 134.7 181.663 134.7ZM186.463 147.7C186.463 148 186.263 148.2 185.963 148.2C180.863 148.2 176.763 144.1 176.763 139C176.763 138.7 176.963 138.5 177.263 138.5H179.263C179.563 138.5 179.763 138.7 179.763 139C179.763 139.9 179.963 140.8 180.363 141.6C180.463 141.7 180.463 141.9 180.363 142C180.363 142.1 180.263 142.2 180.063 142.3L179.263 142.7C179.963 143.9 180.863 144.8 182.063 145.5L182.463 144.7C182.563 144.6 182.663 144.5 182.763 144.4C182.863 144.4 183.063 144.4 183.163 144.4C183.963 144.8 184.863 145 185.763 145C186.063 145 186.263 145.2 186.263 145.5V147.7H186.463Z" fill="#F95858"/>
</svg>
