<svg width="72" height="72" fill="none" xmlns="http://www.w3.org/2000/svg"><circle cx="36" cy="36" r="36" fill="#fff"/><mask id="a" maskUnits="userSpaceOnUse" x="0" y="0" width="72" height="72"><circle cx="36" cy="36" r="36" fill="#fff"/></mask><g mask="url(#a)"><path d="M25.4 54.8c2.6 0 5.2-.4 7.7-1.2.9-.3 1.9-.8 2.2-1.7.3-.9-.3-2-1-2.5-.9-.6-1.9-.9-2.8-1.3-3-1.2-5.1-4.1-6-7.2a22 22 0 01-.5-9.7c.6-3.7 2-7.8 5.3-9.4a12 12 0 017-.6c5 .8 10 2.4 14.5 4.7a10 10 0 014.3 3.5c1.3 2.2 1 5 0 7.2s-2.7 4.1-4 6.2c-1.5 2-2.7 4.3-2.7 6.8a7.8 7.8 0 005.4 7.3c1 .3 2.2.4 3.2.9s2.1-.9 1.7.1c-.4.9-1.6 3.8-2.4 4.1-5.8 2-5 2.8-11.1 3.5a32 32 0 01-13.7-3c-3.2-1.5-9.3-2-8.7-5.5 0-.8.4-1.5 1-2 .5-.5 1.4-.7 2-.2h-1.4z" fill="#fff"/><path d="M28.7 22.6s1.5 4.2 12.5 3.1c.1.1 4 5.7 11.8 2.6.1 0 1.4 7.3 1.3 7.7 0 .3-9 4.6-5.5 11.3 3.7 5.3 8.5 3.6 9 1.8 0 0 2.4 1.6 4 .5 1.1-.7 2-1.6 2.5-2.8 0 0 2 1 3.2-.8 1.8-2.6 3.5-5.3.2-11.1a24 24 0 00-9-9.6c0 .1-6.2-16.2-18.4-16.3-7.2.8-9.7 2.4-13 4.8-2.6 2-5.1 11.2-6.7 12.7-1.5 1.6-7.3 8.6-7.3 13.3 0 5.6 6.8 6.4 7.7 6 0 .1-.3 4 3 4 3.1.3 2.9-1 2.9-1s1.3 1.8 3.4 2c2 .2 4.7-1.5 4.7-1.5a15 15 0 01-6.2-7.2c-2.4-5.9-.1-19.5-.1-19.5z" fill="#010B8D"/><path d="M71.7 83.5l-2.6-14c-1-1.4-1.4-3.1-2-4.7a9.9 9.9 0 00-2.6-3.8l-2.7-2.4c-.7-.7-1.4-.7-2.2-.2-4.2 2.5-2.6 1.7-8 3.9-1.4.2-4 1.4-9.5 1.8h-.5l-6-1.4a11 11 0 01-2.8-1.5l-3.6-2.7c-1-.8-3.3-3.1-3.3-3.4 0-.7-.6-.7-1.1-.8-1.1 0-2 .7-3 1.2-.8.6-1.5 1.4-2.2 2.3-.7.8-1.5 1.6-2.2 2.6-.6.8-.9 1.7-1.5 2.5-.9 1.2-1.6 2.5-2.1 4-1 2.4-2 4.8-2.8 7.3-.6 2.2-1 4.5-1 6.7 0 .4-.2 1.5 0 2.6h61.7z" fill="#2120A4"/><path d="M21.5 81c-1-.5-1.2-1.5-1-2.4.2-2 1-3.8 2.2-5.4 1-1.7 1.8-3.5 2.3-5.4a1.3 1.3 0 01.2 1.2c-.4 1.8-1.2 3.4-2 5-.8 1.7-1.7 3.4-1.8 5.3l.1 1.7z" fill="#010B8D"/><path d="M46.3 21.3c-1.3-.9-2.8-1-4.1-1.6h-.3a1.2 1.2 0 00-.8 1.2c0 1 .6 1.6 1.4 2.1.9.5 1.9.8 2.9.9.8 0 1.6 0 2.2-.6v-.5a6 6 0 00-1.3-1.5zm.5 1.6c-.2.3-.5.3-.9.4h-.5c-1.2-.1-2.4-.6-3.3-1.3a1 1 0 01-.3-1c0-.4.3-.6.7-.5 1.4.2 2.7.8 3.8 1.6.2.2.6.4.5.8zM32.3 22.2a1.9 1.9 0 00-2.2-.1 20.3 20.3 0 00-2.9 1.6 1 1 0 00.1 1.6c.3.2.7.3 1 .2a5 5 0 004-2l.2-.8c0-.2 0-.4-.2-.5zm-.5.6c-.1.4-.4.6-.7.8A5 5 0 0129 25h-.7c-.3 0-.6 0-.7-.3 0-.2.2-.4.4-.5 1-.7 2.1-1.1 3.1-1.7h.6c.3 0 .4.1.2.4z" fill="#161559"/><path d="M60.4 36.3c-.3.1-.2.4-.3.6a3.8 3.8 0 01-3 2.7c-1.2.3-2.3 0-3.3-.4-.4 1.1-.8 2.3-1.4 3.3a7 7 0 01-1.7 1.7c-1.2.9-2.6 1.5-4 2-1.4.3-2.9.6-4.4.7a1 1 0 00-.6.2c-.8.7-2.8 1-3.8.4-.6-.3-.7-1-.7-1.6 0-.5.4-.8 1-1 .8-.1 1.6-.2 2.5-.1.3 0 .8.2.9.6a.6.6 0 00.8.4c2.3-.3 4.5-.8 6.6-2a8 8 0 003.5-3.9l.6-1.2-.5-.5c-1.3-.7-1.3-2.2-.8-3.5l1.1-2.3c.4-.6 1-.8 1.4-1.2-.6-.5-.6-.7.3-1.2.2-.8-.2-1.5-.5-2.2-1-3-2.4-5.6-4.4-8a13.8 13.8 0 00-14-5.2c-2.5.6-5 1.2-7.4 2.3-.2 0-.4.3-.6 0-.2-.2 0-.4.1-.5.8-1 1.8-1.7 3-2.4l1.8-1c1.7-.8 3.4-1.4 5.2-1.6a13.4 13.4 0 019.2 2.8c1.2.9 2.2 2 3.2 3 1.3 1.2 2.2 2.6 3.1 4a18.6 18.6 0 013 8.7.8.8 0 00.6.8 7 7 0 013 3.6c.2.5.1 1 .5 1.4v.6zm-7.4-.6c0 1 .2 1.8 1 2.3.8.6 1.9.8 3 .3 1.1-.6 1.7-1.5 1.7-2.9-.1-1.6-1.1-2.6-2.1-3.7a.4.4 0 00-.4-.1c-.7.3-1.6.3-2.1 1.2-.6 1-1.1 2-1 2.9z" fill="#0E0D53"/><path d="M53 35.7c0-1 .5-2 1-3 .6-.8 1.5-.8 2.2-1.1a.4.4 0 01.3.1c1 1 2 2.1 2.2 3.7 0 1.4-.6 2.3-1.8 2.9-1 .5-2 .3-3-.3-.7-.5-1-1.2-.9-2.3zm3.1-2a2 2 0 00-.8 2.3c.2.6 1 1 1.3.6a2.3 2.3 0 00.6-2c0-.6-.6-.7-1.1-.8z" fill="#FDFDFE"/><path d="M56.1 33.8c.5 0 1 .2 1.1.9a2.3 2.3 0 01-.6 1.9c-.3.4-1 0-1.3-.6a2 2 0 01.8-2.3z" fill="#0E0D53"/><path d="M38.3 30.1c0 1.6-.7 3-1.8 4-.6.7-1.1 1.5-1.5 2.3-.2.5 0 1 .8 1.5l1 .6c.2 0 .4 0 .3.3a.4.4 0 01-.3.2c-1.1.3-3-1.5-2.7-2.6.4-1 .9-1.6 1.5-2.5.9-1.1 1.8-2.2 1.9-3.8 0-.6-.3-1.2-.2-1.9 0-.3-.1-.7.3-.7.3 0 .3.4.3.7l.4 2zM45.2 40.5c-.1 1.4-1.5 2.8-2.8 3l-1-.3a.2.2 0 01-.1-.3c0-.2.1-.2.3-.2 1.3 0 2.2-.7 2.8-1.9 0-.2.2-.3.3-.5 0-.2.2-.3.4-.2a.3.3 0 01.1.3v.1zM42.3 29.8c0-.5 0-.9.6-.8.5 0 1 .2.8.9 0 .4 0 .7-.2 1.1 0 .2-.1.4-.4.4a.5.5 0 01-.5-.3l-.3-1.3zM30.7 30.2v-.5c0-.3 0-.5.4-.5s.6.1.6.6v1c.1.3.2.6-.3.7a.6.6 0 01-.7-.7v-.6z" fill="#161559"/><path d="M22.5 55.7c1.2-.7 2.5-.7 3.8-.7l2.1.1a13.8 13.8 0 005.9-1.2c.5-.3 1-.6 1.3-1a2.2 2.2 0 00.4-1.7c0-.7-.5-1.1-.8-1.6-.4-.5-.8-1-1.4-.8a.3.3 0 00-.2.3.3.3 0 00.3.2c.4 0 .7.4.9.7.3.4.6.8.7 1.3a1.7 1.7 0 01-.4 1.4c-.4.4-.8.7-1.3.8a13.6 13.6 0 01-5.6 1.2l-2-.1c-1.3 0-2.8 0-3.8 1-.2 0 0 .2.1.1z" fill="#010B8D"/><path d="M52.6 30.2h-.2c-1.2 0-2.4-.3-3.6-.4-.5 0-.8-.3-1-.8-.2-.9-.6-1.7-1-2.4a4.9 4.9 0 00-3.7-2.3H43l-.9.2c-.7.2-1.4.6-1.9 1.2a6 6 0 00-1.5 3.2l-3 .1c-.4 0-.8 0-1-.4a5 5 0 00-2.5-3.3c-1.2-.6-3.4-.8-4.5.5a4.7 4.7 0 00-1.2 4.2c.2 1.5.6 2.9 1.7 4 1.8 1.8 4.1 1.8 5.6 0 1-1 1.6-2.4 1.3-4 1 0 2-.3 3 0 .4 0 .6.1.6.5.3 1.5.8 2.8 2 3.8 2.2 1.6 5.3.9 6.5-1.4l.7-2c1.7 0 3.2.6 4.8 1 .5 0 1 0 1.4-.2v-.4c-.2-.8-.7-1-1.5-1zm-19.1 2.3c-1 2.2-3.4 2.8-5 .7-.8-1-1.2-2.2-1.2-4.2a4 4 0 012-3 2.2 2.2 0 012.3 0c.9.6 1.4 1.5 1.8 2.4a4.6 4.6 0 010 4.1zm12.9-.6c-.6 1.5-1.4 2.1-3 2.3-1.6 0-3-1.2-3.4-2.7-.4-1.6-.3-3.1.5-4.6 1.3-2.2 3.4-1.8 4.8-.3a4.8 4.8 0 011 5.3z" fill="#FEC107"/><path d="M72 83.5a48.9 48.9 0 00-4.5-17.7c-1.2-2.5-2.8-5-5-6.6a11 11 0 00-3.8-1.9C57 57 55.5 56.7 54 56a8.1 8.1 0 01-4.4-7.4.1.1 0 00-.2 0c-.1 1.4.1 2.7.7 3.9a8.7 8.7 0 004.2 4.1c.7.4 1.5.6 2.3.8l2.4.6 1.9 1c2.4 1.3 4 3.6 5.3 6a47.8 47.8 0 015 18.5h.8z" fill="#010B8D"/></g></svg>